<?xml version="1.0" encoding="UTF-8"?>
<!--Generator: Apple Native CoreSVG 175-->
<!DOCTYPE svg
PUBLIC "-//W3C//DTD SVG 1.1//EN"
       "http://www.w3.org/Graphics/SVG/1.1/DTD/svg11.dtd">
<svg version="1.1" xmlns="http://www.w3.org/2000/svg" xmlns:xlink="http://www.w3.org/1999/xlink" width="3300" height="2200">
 <!--glyph: "uni1010DA.medium", point size: 100.0, font version: "17.3d3e1", template writer version: "65.1"-->
 <style>.hierarchical-0:secondary {fill:#4D4D4D}
.hierarchical-1:primary {fill:#212121;-sfsymbols-clear-behind:true}

.SFSymbolsPreview212121 {fill:#212121;opacity:1.0}
.SFSymbolsPreview4D4D4D {fill:#4D4D4D;opacity:1.0}
</style>
 <g id="Notes">
  <rect height="2200" id="artboard" style="fill:white;opacity:1" width="3300" x="0" y="0"/>
  <line style="fill:none;stroke:black;opacity:1;stroke-width:0.5;" x1="263" x2="3036" y1="292" y2="292"/>
  <text style="stroke:none;fill:black;font-family:sans-serif;font-size:13;font-weight:bold;" transform="matrix(1 0 0 1 263 322)">Weight/Scale Variations</text>
  <text style="stroke:none;fill:black;font-family:sans-serif;font-size:13;text-anchor:middle;" transform="matrix(1 0 0 1 559.711 322)">Ultralight</text>
  <text style="stroke:none;fill:black;font-family:sans-serif;font-size:13;text-anchor:middle;" transform="matrix(1 0 0 1 856.422 322)">Thin</text>
  <text style="stroke:none;fill:black;font-family:sans-serif;font-size:13;text-anchor:middle;" transform="matrix(1 0 0 1 1153.13 322)">Light</text>
  <text style="stroke:none;fill:black;font-family:sans-serif;font-size:13;text-anchor:middle;" transform="matrix(1 0 0 1 1449.84 322)">Regular</text>
  <text style="stroke:none;fill:black;font-family:sans-serif;font-size:13;text-anchor:middle;" transform="matrix(1 0 0 1 1746.56 322)">Medium</text>
  <text style="stroke:none;fill:black;font-family:sans-serif;font-size:13;text-anchor:middle;" transform="matrix(1 0 0 1 2043.27 322)">Semibold</text>
  <text style="stroke:none;fill:black;font-family:sans-serif;font-size:13;text-anchor:middle;" transform="matrix(1 0 0 1 2339.98 322)">Bold</text>
  <text style="stroke:none;fill:black;font-family:sans-serif;font-size:13;text-anchor:middle;" transform="matrix(1 0 0 1 2636.69 322)">Heavy</text>
  <text style="stroke:none;fill:black;font-family:sans-serif;font-size:13;text-anchor:middle;" transform="matrix(1 0 0 1 2933.4 322)">Black</text>
  <line style="fill:none;stroke:black;opacity:1;stroke-width:0.5;" x1="263" x2="3036" y1="1903" y2="1903"/>
  <g transform="matrix(1 0 0 1 263 1933)">
   <path d="M9.24805 0.830078Q10.8691 0.830078 12.2949 0.214844Q13.7207-0.400391 14.8096-1.49414Q15.8984-2.58789 16.5186-4.01367Q17.1387-5.43945 17.1387-7.05078Q17.1387-8.66211 16.5186-10.0879Q15.8984-11.5137 14.8047-12.6074Q13.7109-13.7012 12.2852-14.3164Q10.8594-14.9316 9.23828-14.9316Q7.62695-14.9316 6.20117-14.3164Q4.77539-13.7012 3.69141-12.6074Q2.60742-11.5137 1.9873-10.0879Q1.36719-8.66211 1.36719-7.05078Q1.36719-5.43945 1.9873-4.01367Q2.60742-2.58789 3.69629-1.49414Q4.78516-0.400391 6.21094 0.214844Q7.63672 0.830078 9.24805 0.830078ZM9.24805-0.654297Q7.91992-0.654297 6.7627-1.14746Q5.60547-1.64062 4.73145-2.51953Q3.85742-3.39844 3.36426-4.56055Q2.87109-5.72266 2.87109-7.05078Q2.87109-8.37891 3.35938-9.54102Q3.84766-10.7031 4.72168-11.582Q5.5957-12.4609 6.75293-12.9541Q7.91016-13.4473 9.23828-13.4473Q10.5762-13.4473 11.7334-12.9541Q12.8906-12.4609 13.7695-11.582Q14.6484-10.7031 15.1465-9.54102Q15.6445-8.37891 15.6445-7.05078Q15.6445-5.72266 15.1514-4.56055Q14.6582-3.39844 13.7842-2.51953Q12.9102-1.64062 11.748-1.14746Q10.5859-0.654297 9.24805-0.654297ZM5.6543-7.05078Q5.6543-6.72852 5.85938-6.52832Q6.06445-6.32812 6.40625-6.32812L8.51562-6.32812L8.51562-4.20898Q8.51562-3.88672 8.71094-3.67676Q8.90625-3.4668 9.23828-3.4668Q9.56055-3.4668 9.77051-3.67676Q9.98047-3.88672 9.98047-4.20898L9.98047-6.32812L12.0898-6.32812Q12.4219-6.32812 12.627-6.52832Q12.832-6.72852 12.832-7.05078Q12.832-7.38281 12.627-7.58789Q12.4219-7.79297 12.0898-7.79297L9.98047-7.79297L9.98047-9.90234Q9.98047-10.2344 9.77051-10.4443Q9.56055-10.6543 9.23828-10.6543Q8.90625-10.6543 8.71094-10.4443Q8.51562-10.2344 8.51562-9.90234L8.51562-7.79297L6.40625-7.79297Q6.06445-7.79297 5.85938-7.58789Q5.6543-7.38281 5.6543-7.05078Z"/>
  </g>
  <g transform="matrix(1 0 0 1 281.867 1933)">
   <path d="M11.709 2.91016Q13.75 2.91016 15.5518 2.12891Q17.3535 1.34766 18.7305-0.0292969Q20.1074-1.40625 20.8887-3.20801Q21.6699-5.00977 21.6699-7.05078Q21.6699-9.0918 20.8887-10.8936Q20.1074-12.6953 18.7305-14.0723Q17.3535-15.4492 15.5469-16.2305Q13.7402-17.0117 11.6992-17.0117Q9.6582-17.0117 7.85645-16.2305Q6.05469-15.4492 4.68262-14.0723Q3.31055-12.6953 2.5293-10.8936Q1.74805-9.0918 1.74805-7.05078Q1.74805-5.00977 2.5293-3.20801Q3.31055-1.40625 4.6875-0.0292969Q6.06445 1.34766 7.86621 2.12891Q9.66797 2.91016 11.709 2.91016ZM11.709 1.25Q9.98047 1.25 8.47656 0.605469Q6.97266-0.0390625 5.83496-1.17676Q4.69727-2.31445 4.05762-3.81836Q3.41797-5.32227 3.41797-7.05078Q3.41797-8.7793 4.05762-10.2832Q4.69727-11.7871 5.83008-12.9297Q6.96289-14.0723 8.4668-14.7119Q9.9707-15.3516 11.6992-15.3516Q13.4277-15.3516 14.9316-14.7119Q16.4355-14.0723 17.5781-12.9297Q18.7207-11.7871 19.3652-10.2832Q20.0098-8.7793 20.0098-7.05078Q20.0098-5.32227 19.3701-3.81836Q18.7305-2.31445 17.5928-1.17676Q16.4551-0.0390625 14.9463 0.605469Q13.4375 1.25 11.709 1.25ZM7.17773-7.05078Q7.17773-6.69922 7.41211-6.47461Q7.64648-6.25 8.01758-6.25L10.8887-6.25L10.8887-3.36914Q10.8887-2.99805 11.1133-2.76855Q11.3379-2.53906 11.6895-2.53906Q12.0605-2.53906 12.29-2.76855Q12.5195-2.99805 12.5195-3.36914L12.5195-6.25L15.4004-6.25Q15.7715-6.25 16.001-6.47461Q16.2305-6.69922 16.2305-7.05078Q16.2305-7.42188 16.001-7.65137Q15.7715-7.88086 15.4004-7.88086L12.5195-7.88086L12.5195-10.752Q12.5195-11.1328 12.29-11.3623Q12.0605-11.5918 11.6895-11.5918Q11.3379-11.5918 11.1133-11.3574Q10.8887-11.123 10.8887-10.752L10.8887-7.88086L8.01758-7.88086Q7.63672-7.88086 7.40723-7.65137Q7.17773-7.42188 7.17773-7.05078Z"/>
  </g>
  <g transform="matrix(1 0 0 1 305.646 1933)">
   <path d="M14.9707 5.66406Q17.0605 5.66406 18.96 5.01465Q20.8594 4.36523 22.4512 3.19336Q24.043 2.02148 25.2197 0.429688Q26.3965-1.16211 27.0459-3.06641Q27.6953-4.9707 27.6953-7.05078Q27.6953-9.14062 27.0459-11.04Q26.3965-12.9395 25.2197-14.5312Q24.043-16.123 22.4512-17.2998Q20.8594-18.4766 18.9551-19.126Q17.0508-19.7754 14.9609-19.7754Q12.8711-19.7754 10.9717-19.126Q9.07227-18.4766 7.48535-17.2998Q5.89844-16.123 4.72168-14.5312Q3.54492-12.9395 2.90039-11.04Q2.25586-9.14062 2.25586-7.05078Q2.25586-4.9707 2.90527-3.06641Q3.55469-1.16211 4.72656 0.429688Q5.89844 2.02148 7.49023 3.19336Q9.08203 4.36523 10.9814 5.01465Q12.8809 5.66406 14.9707 5.66406ZM14.9707 3.84766Q13.1641 3.84766 11.5283 3.2959Q9.89258 2.74414 8.53516 1.74805Q7.17773 0.751953 6.17676-0.610352Q5.17578-1.97266 4.62891-3.6084Q4.08203-5.24414 4.08203-7.05078Q4.08203-8.86719 4.62891-10.5029Q5.17578-12.1387 6.17188-13.501Q7.16797-14.8633 8.52539-15.8594Q9.88281-16.8555 11.5186-17.4023Q13.1543-17.9492 14.9609-17.9492Q16.7773-17.9492 18.4131-17.4023Q20.0488-16.8555 21.4111-15.8594Q22.7734-14.8633 23.7695-13.501Q24.7656-12.1387 25.3174-10.5029Q25.8691-8.86719 25.8691-7.05078Q25.8789-5.24414 25.332-3.6084Q24.7852-1.97266 23.7842-0.610352Q22.7832 0.751953 21.4209 1.74805Q20.0586 2.74414 18.4229 3.2959Q16.7871 3.84766 14.9707 3.84766ZM9.19922-7.05078Q9.19922-6.66992 9.45801-6.4209Q9.7168-6.17188 10.1172-6.17188L14.0625-6.17188L14.0625-2.2168Q14.0625-1.81641 14.3115-1.55762Q14.5605-1.29883 14.9512-1.29883Q15.3516-1.29883 15.6104-1.55273Q15.8691-1.80664 15.8691-2.2168L15.8691-6.17188L19.8242-6.17188Q20.2246-6.17188 20.4785-6.4209Q20.7324-6.66992 20.7324-7.05078Q20.7324-7.46094 20.4785-7.71484Q20.2246-7.96875 19.8242-7.96875L15.8691-7.96875L15.8691-11.9141Q15.8691-12.3242 15.6104-12.583Q15.3516-12.8418 14.9512-12.8418Q14.5605-12.8418 14.3115-12.583Q14.0625-12.3242 14.0625-11.9141L14.0625-7.96875L10.1172-7.96875Q9.70703-7.96875 9.45312-7.71484Q9.19922-7.46094 9.19922-7.05078Z"/>
  </g>
  <text style="stroke:none;fill:black;font-family:sans-serif;font-size:13;font-weight:bold;" transform="matrix(1 0 0 1 263 1953)">Design Variations</text>
  <text style="stroke:none;fill:black;font-family:sans-serif;font-size:13;" transform="matrix(1 0 0 1 263 1971)">Symbols are supported in up to nine weights and three scales.</text>
  <text style="stroke:none;fill:black;font-family:sans-serif;font-size:13;" transform="matrix(1 0 0 1 263 1989)">For optimal layout with text and other symbols, vertically align</text>
  <text style="stroke:none;fill:black;font-family:sans-serif;font-size:13;" transform="matrix(1 0 0 1 263 2007)">symbols with the adjacent text.</text>
  <line style="fill:none;stroke:#00AEEF;stroke-width:0.5;opacity:1.0;" x1="776" x2="776" y1="1919" y2="1933"/>
  <g transform="matrix(1 0 0 1 776 1933)">
   <path d="M3.31055 0.15625Q3.70117 0.15625 3.91602-0.00976562Q4.13086-0.175781 4.26758-0.585938L5.52734-4.0332L11.2891-4.0332L12.5488-0.585938Q12.6855-0.175781 12.9004-0.00976562Q13.1152 0.15625 13.4961 0.15625Q13.8867 0.15625 14.1162-0.0585938Q14.3457-0.273438 14.3457-0.644531Q14.3457-0.869141 14.2383-1.17188L9.6582-13.3691Q9.48242-13.8184 9.17969-14.043Q8.87695-14.2676 8.4082-14.2676Q7.5-14.2676 7.17773-13.3789L2.59766-1.16211Q2.49023-0.859375 2.49023-0.634766Q2.49023-0.263672 2.70996-0.0537109Q2.92969 0.15625 3.31055 0.15625ZM6.00586-5.51758L8.37891-12.0898L8.42773-12.0898L10.8008-5.51758Z"/>
  </g>
  <line style="fill:none;stroke:#00AEEF;stroke-width:0.5;opacity:1.0;" x1="793.197" x2="793.197" y1="1919" y2="1933"/>
  <text style="stroke:none;fill:black;font-family:sans-serif;font-size:13;font-weight:bold;" transform="matrix(1 0 0 1 776 1953)">Margins</text>
  <text style="stroke:none;fill:black;font-family:sans-serif;font-size:13;" transform="matrix(1 0 0 1 776 1971)">Leading and trailing margins on the left and right side of each symbol</text>
  <text style="stroke:none;fill:black;font-family:sans-serif;font-size:13;" transform="matrix(1 0 0 1 776 1989)">can be adjusted by modifying the x-location of the margin guidelines.</text>
  <text style="stroke:none;fill:black;font-family:sans-serif;font-size:13;" transform="matrix(1 0 0 1 776 2007)">Modifications are automatically applied proportionally to all</text>
  <text style="stroke:none;fill:black;font-family:sans-serif;font-size:13;" transform="matrix(1 0 0 1 776 2025)">scales and weights.</text>
  <g transform="matrix(1 0 0 1 1289 1933)">
   <path d="M2.8418 1.86523L4.54102 3.57422Q5.18555 4.22852 5.90332 4.17969Q6.62109 4.13086 7.31445 3.35938L18.0078-8.42773L17.041-9.4043L6.42578 2.27539Q6.16211 2.57812 5.89355 2.61719Q5.625 2.65625 5.27344 2.30469L4.10156 1.14258Q3.75 0.791016 3.79395 0.522461Q3.83789 0.253906 4.14062-0.0195312L15.6152-10.8203L14.6387-11.7871L3.04688-0.898438Q2.30469-0.214844 2.25098 0.498047Q2.19727 1.21094 2.8418 1.86523ZM9.25781-16.3281Q8.94531-16.0254 8.90625-15.6348Q8.86719-15.2441 9.04297-14.9512Q9.21875-14.6777 9.55566-14.541Q9.89258-14.4043 10.3809-14.5215Q11.4746-14.7754 12.5977-14.7314Q13.7207-14.6875 14.7949-13.9844L14.209-12.5293Q13.9551-11.9043 14.0674-11.4404Q14.1797-10.9766 14.5801-10.5664L16.875-8.25195Q17.2363-7.88086 17.5781-7.82227Q17.9199-7.76367 18.3398-7.8418L19.4043-8.03711L20.0684-7.36328L20.0293-6.80664Q20-6.43555 20.1221-6.12305Q20.2441-5.81055 20.6055-5.44922L21.3672-4.70703Q21.7285-4.3457 22.1533-4.33105Q22.5781-4.31641 22.9297-4.66797L25.8398-7.58789Q26.1914-7.93945 26.1816-8.35449Q26.1719-8.76953 25.8105-9.13086L25.0391-9.89258Q24.6875-10.2539 24.3799-10.3857Q24.0723-10.5176 23.7109-10.4883L23.1348-10.4395L22.4902-11.0742L22.7344-12.1973Q22.832-12.6172 22.6953-12.9834Q22.5586-13.3496 22.1191-13.7891L19.9219-15.9766Q18.6719-17.2168 17.2607-17.8369Q15.8496-18.457 14.4189-18.4814Q12.9883-18.5059 11.665-17.959Q10.3418-17.4121 9.25781-16.3281ZM10.752-15.957Q11.6602-16.6211 12.7002-16.9043Q13.7402-17.1875 14.8047-17.085Q15.8691-16.9824 16.8701-16.5137Q17.8711-16.0449 18.7012-15.2051L21.1328-12.793Q21.3086-12.6172 21.3525-12.4512Q21.3965-12.2852 21.3379-12.0312L21.0156-10.5469L22.5195-9.0625L23.5059-9.12109Q23.6914-9.13086 23.7891-9.09668Q23.8867-9.0625 24.0332-8.91602L24.6094-8.33984L22.168-5.89844L21.5918-6.47461Q21.4453-6.62109 21.4062-6.71875Q21.3672-6.81641 21.377-7.01172L21.4453-7.98828L19.9512-9.47266L18.4277-9.21875Q18.1836-9.16992 18.042-9.2041Q17.9004-9.23828 17.7148-9.41406L15.7129-11.416Q15.5176-11.5918 15.4932-11.7529Q15.4688-11.9141 15.5859-12.1875L16.4648-14.2773Q15.293-15.3711 13.8281-15.791Q12.3633-16.2109 10.8398-15.7617Q10.7227-15.7324 10.6885-15.8057Q10.6543-15.8789 10.752-15.957Z"/>
  </g>
  <text style="stroke:none;fill:black;font-family:sans-serif;font-size:13;font-weight:bold;" transform="matrix(1 0 0 1 1289 1953)">Exporting</text>
  <text style="stroke:none;fill:black;font-family:sans-serif;font-size:13;" transform="matrix(1 0 0 1 1289 1971)">Symbols should be outlined when exporting to ensure the</text>
  <text style="stroke:none;fill:black;font-family:sans-serif;font-size:13;" transform="matrix(1 0 0 1 1289 1989)">design is preserved when submitting to Xcode.</text>
  <text id="template-version" style="stroke:none;fill:black;font-family:sans-serif;font-size:13;text-anchor:end;" transform="matrix(1 0 0 1 3036 1933)">Template v.3.0</text>
  <text style="stroke:none;fill:black;font-family:sans-serif;font-size:13;text-anchor:end;" transform="matrix(1 0 0 1 3036 1951)">Requires Xcode 13 or greater</text>
  <text id="descriptive-name" style="stroke:none;fill:black;font-family:sans-serif;font-size:13;text-anchor:end;" transform="matrix(1 0 0 1 3036 1969)">Generated from humidity</text>
  <text style="stroke:none;fill:black;font-family:sans-serif;font-size:13;text-anchor:end;" transform="matrix(1 0 0 1 3036 1987)">Typeset at 100 points</text>
  <text style="stroke:none;fill:black;font-family:sans-serif;font-size:13;" transform="matrix(1 0 0 1 263 726)">Small</text>
  <text style="stroke:none;fill:black;font-family:sans-serif;font-size:13;" transform="matrix(1 0 0 1 263 1156)">Medium</text>
  <text style="stroke:none;fill:black;font-family:sans-serif;font-size:13;" transform="matrix(1 0 0 1 263 1586)">Large</text>
 </g>
 <g id="Guides">
  <g id="H-reference" style="fill:#27AAE1;stroke:none;" transform="matrix(1 0 0 1 339 696)">
   <path d="M0.993347 0L3.6377 0L29.3282-67.1326L30.0301-67.1326L30.0301-70.459L28.1227-70.459ZM11.6882-24.4797L46.9818-24.4797L46.2311-26.7288L12.4382-26.7288ZM55.1193 0L57.7637 0L30.6381-70.459L29.4327-70.459L29.4327-67.1326Z"/>
  </g>
  <line id="Baseline-S" style="fill:none;stroke:#27AAE1;opacity:1;stroke-width:0.5;" x1="263" x2="3036" y1="696" y2="696"/>
  <line id="Capline-S" style="fill:none;stroke:#27AAE1;opacity:1;stroke-width:0.5;" x1="263" x2="3036" y1="625.541" y2="625.541"/>
  <g id="H-reference" style="fill:#27AAE1;stroke:none;" transform="matrix(1 0 0 1 339 1126)">
   <path d="M0.993347 0L3.6377 0L29.3282-67.1326L30.0301-67.1326L30.0301-70.459L28.1227-70.459ZM11.6882-24.4797L46.9818-24.4797L46.2311-26.7288L12.4382-26.7288ZM55.1193 0L57.7637 0L30.6381-70.459L29.4327-70.459L29.4327-67.1326Z"/>
  </g>
  <line id="Baseline-M" style="fill:none;stroke:#27AAE1;opacity:1;stroke-width:0.5;" x1="263" x2="3036" y1="1126" y2="1126"/>
  <line id="Capline-M" style="fill:none;stroke:#27AAE1;opacity:1;stroke-width:0.5;" x1="263" x2="3036" y1="1055.54" y2="1055.54"/>
  <g id="H-reference" style="fill:#27AAE1;stroke:none;" transform="matrix(1 0 0 1 339 1556)">
   <path d="M0.993347 0L3.6377 0L29.3282-67.1326L30.0301-67.1326L30.0301-70.459L28.1227-70.459ZM11.6882-24.4797L46.9818-24.4797L46.2311-26.7288L12.4382-26.7288ZM55.1193 0L57.7637 0L30.6381-70.459L29.4327-70.459L29.4327-67.1326Z"/>
  </g>
  <line id="Baseline-L" style="fill:none;stroke:#27AAE1;opacity:1;stroke-width:0.5;" x1="263" x2="3036" y1="1556" y2="1556"/>
  <line id="Capline-L" style="fill:none;stroke:#27AAE1;opacity:1;stroke-width:0.5;" x1="263" x2="3036" y1="1485.54" y2="1485.54"/>
  <line id="left-margin-Ultralight-S" style="fill:none;stroke:#00AEEF;stroke-width:0.5;opacity:1.0;" x1="509.991" x2="509.991" y1="600.785" y2="720.121"/>
  <line id="right-margin-Ultralight-S" style="fill:none;stroke:#00AEEF;stroke-width:0.5;opacity:1.0;" x1="609.432" x2="609.432" y1="600.785" y2="720.121"/>
  <line id="left-margin-Regular-S" style="fill:none;stroke:#00AEEF;stroke-width:0.5;opacity:1.0;" x1="1398.65" x2="1398.65" y1="600.785" y2="720.121"/>
  <line id="right-margin-Regular-S" style="fill:none;stroke:#00AEEF;stroke-width:0.5;opacity:1.0;" x1="1501.04" x2="1501.04" y1="600.785" y2="720.121"/>
  <line id="left-margin-Black-S" style="fill:none;stroke:#00AEEF;stroke-width:0.5;opacity:1.0;" x1="2880.18" x2="2880.18" y1="600.785" y2="720.121"/>
  <line id="right-margin-Black-S" style="fill:none;stroke:#00AEEF;stroke-width:0.5;opacity:1.0;" x1="2986.62" x2="2986.62" y1="600.785" y2="720.121"/>
 </g>
 <g id="Symbols">
  <g id="Black-S" transform="matrix(1 0 0 1 2880.18 696)">
   <path class="hierarchical-0:secondary SFSymbolsPreview4D4D4D" d="M27.7344-42.8223Q33.3008-42.8223 37.8418-44.2871Q42.3828-45.752 46.3623-47.9004Q50.3418-50.0488 54.0771-52.1973Q57.8125-54.3457 61.7432-55.8105Q65.6738-57.2754 70.2148-57.2754Q72.8027-57.2754 75.0488-56.6406Q77.2949-56.0059 79.8828-54.4922Q81.7871-53.418 83.8135-53.8574Q85.8398-54.2969 87.1582-56.1035Q88.623-58.252 87.9883-60.6934Q87.3535-63.1348 84.9609-64.5508Q77.9785-68.5059 70.2148-68.5059Q64.6484-68.5059 60.083-67.041Q55.5176-65.5762 51.5625-63.4277Q47.6074-61.2793 43.8477-59.1309Q40.0879-56.9824 36.1572-55.5176Q32.2266-54.0527 27.7344-54.0527Q25.0977-54.0527 22.8516-54.6875Q20.6055-55.3223 18.0664-56.8359Q16.0645-57.959 14.0137-57.4707Q11.9629-56.9824 10.791-55.127Q9.32617-52.9785 9.96094-50.5859Q10.5957-48.1934 12.9883-46.7773Q19.9219-42.8223 27.7344-42.8223ZM27.7832-22.3145Q31.6895-22.3145 35.1807-23.1689Q38.6719-24.0234 41.8213-25.3906Q44.9707-26.7578 47.9248-28.3691Q50.8789-29.9805 53.7109-31.543Q56.543-33.1055 59.375-34.3262Q61.1328-37.6953 62.9639-41.0645Q64.7949-44.4336 66.6016-47.8027Q61.6699-47.2656 57.6172-45.6543Q53.5645-44.043 49.9756-42.0166Q46.3867-39.9902 42.8955-38.0371Q39.4043-36.084 35.7178-34.8145Q32.0312-33.5449 27.7832-33.5449Q25.1465-33.5449 22.9004-34.1797Q20.6543-34.8145 18.1152-36.3281Q16.1133-37.4512 14.0625-36.9629Q12.0117-36.4746 10.8398-34.6191Q9.375-32.4707 10.0098-30.0781Q10.6445-27.6855 13.0371-26.2695Q19.9707-22.3145 27.7832-22.3145ZM27.7344-1.80664Q31.7383-1.80664 35.2295-2.66113Q38.7207-3.51562 41.8457-4.88281Q44.9707-6.25 47.8516-7.86133Q50.7324-9.47266 53.5645-10.9863Q52.9785-14.2578 53.2471-17.3828Q53.5156-20.5078 54.541-23.7305Q50.9766-22.0703 47.7539-20.2148Q44.5312-18.3594 41.3818-16.7236Q38.2324-15.0879 34.8877-14.0625Q31.543-13.0371 27.7344-13.0371Q25.0977-13.0371 22.8516-13.6719Q20.6055-14.3066 18.0664-15.8203Q16.0645-16.9434 14.0137-16.4551Q11.9629-15.9668 10.791-14.1113Q9.32617-11.9629 9.96094-9.57031Q10.5957-7.17773 12.9883-5.76172Q19.9219-1.80664 27.7344-1.80664Z"/>
   <path class="hierarchical-1:primary SFSymbolsPreview212121" d="M78.0762 2.88086Q83.252 2.88086 87.4512 0.439453Q91.6504-2.00195 94.165-6.15234Q96.6797-10.3027 96.6797-15.332Q96.6797-19.4824 95.0684-23.3154Q93.457-27.1484 91.8945-30.127L83.3496-45.9961Q82.4707-47.5586 81.1279-48.3887Q79.7852-49.2188 78.0762-49.2188Q76.3184-49.2188 74.9756-48.3887Q73.6328-47.5586 72.8027-45.9961L64.3066-30.127Q62.6953-27.1484 61.084-23.3154Q59.4727-19.4824 59.4727-15.332Q59.4727-10.3027 61.9629-6.15234Q64.4531-2.00195 68.6768 0.439453Q72.9004 2.88086 78.0762 2.88086ZM78.0762-6.78711Q75.5859-6.78711 73.5596-7.93457Q71.5332-9.08203 70.3369-11.0352Q69.1406-12.9883 69.1406-15.332Q69.1406-17.7734 70.2148-20.1904Q71.2891-22.6074 72.9004-25.5859L77.6855-34.5215Q77.832-34.8145 78.1006-34.8145Q78.3691-34.8145 78.5156-34.5215L83.252-25.5859Q84.8145-22.6074 85.9131-20.1904Q87.0117-17.7734 87.0117-15.332Q87.0117-12.9883 85.8154-11.0352Q84.6191-9.08203 82.5928-7.93457Q80.5664-6.78711 78.0762-6.78711Z"/>
  </g>
  <g id="Regular-S" transform="matrix(1 0 0 1 1398.65 696)">
   <path class="hierarchical-0:secondary SFSymbolsPreview4D4D4D" d="M25.6348-45.0195Q30.8105-45.0195 35.1807-46.4844Q39.5508-47.9492 43.457-50.0977Q47.3633-52.2461 51.1963-54.3945Q55.0293-56.543 59.1309-58.0078Q63.2324-59.4727 68.0664-59.4727Q70.752-59.4727 73.3154-58.7891Q75.8789-58.1055 78.8086-56.4453Q80.1758-55.6641 81.3965-56.0547Q82.6172-56.4453 83.3008-57.4219Q84.1309-58.5938 83.9111-60.1562Q83.6914-61.7188 81.7871-62.793Q75.4395-66.5039 68.0664-66.5039Q62.8418-66.5039 58.4717-65.0391Q54.1016-63.5742 50.1953-61.4258Q46.2891-59.2773 42.4805-57.1289Q38.6719-54.9805 34.5459-53.5156Q30.4199-52.0508 25.6348-52.0508Q22.9492-52.0508 20.3857-52.7344Q17.8223-53.418 14.8926-55.0781Q13.5254-55.8594 12.2803-55.4688Q11.0352-55.0781 10.4004-54.0527Q9.61914-52.8809 9.83887-51.3184Q10.0586-49.7559 11.8652-48.7305Q18.2617-45.0195 25.6348-45.0195ZM25.6836-24.5117Q30.2246-24.5117 34.082-25.6348Q37.9395-26.7578 41.4307-28.54Q44.9219-30.3223 48.2422-32.251Q51.5625-34.1797 55.0049-35.8154Q58.4473-37.4512 62.2559-38.2812Q63.2812-40.1855 64.3066-42.0898Q65.332-43.9941 66.3574-45.9473Q61.4746-45.6543 57.3242-44.1162Q53.1738-42.5781 49.4141-40.4785Q45.6543-38.3789 41.9678-36.3281Q38.2812-34.2773 34.3018-32.9102Q30.3223-31.543 25.6836-31.543Q22.998-31.543 20.4346-32.2266Q17.8711-32.9102 14.9414-34.5703Q13.5742-35.3516 12.3291-34.9609Q11.084-34.5703 10.4492-33.5449Q9.66797-32.373 9.8877-30.8105Q10.1074-29.248 11.9141-28.2227Q18.3105-24.5117 25.6836-24.5117ZM25.6348-4.00391Q29.9316-4.00391 33.6426-5.05371Q37.3535-6.10352 40.7227-7.73926Q44.0918-9.375 47.2656-11.2061Q50.4395-13.0371 53.7598-14.6484Q53.5645-16.0156 53.8818-18.335Q54.1992-20.6543 54.7852-22.6074Q51.0742-21.0449 47.6318-19.0674Q44.1895-17.0898 40.7715-15.2588Q37.3535-13.4277 33.6426-12.2314Q29.9316-11.0352 25.6348-11.0352Q22.9492-11.0352 20.3857-11.7188Q17.8223-12.4023 14.8926-14.0625Q13.5254-14.8438 12.2803-14.4531Q11.0352-14.0625 10.4004-13.0371Q9.61914-11.8652 9.83887-10.3027Q10.0586-8.74023 11.8652-7.71484Q18.2617-4.00391 25.6348-4.00391Z"/>
   <path class="hierarchical-1:primary SFSymbolsPreview212121" d="M75.9277 0.830078Q80.5664 0.830078 84.3506-1.36719Q88.1348-3.56445 90.3809-7.25098Q92.627-10.9375 92.627-15.4297Q92.627-19.1895 91.1133-22.7295Q89.5996-26.2695 88.0859-29.1992L79.6875-44.7754Q78.9062-46.1914 78.125-46.8262Q77.3438-47.4609 75.9277-47.4609Q74.5605-47.4609 73.7793-46.8262Q72.998-46.1914 72.2168-44.7754L63.8672-29.1992Q62.3535-26.2695 60.8398-22.7295Q59.3262-19.1895 59.3262-15.4297Q59.3262-10.9375 61.5723-7.25098Q63.8184-3.56445 67.5781-1.36719Q71.3379 0.830078 75.9277 0.830078ZM75.9277-4.88281Q72.9004-4.88281 70.4346-6.29883Q67.9688-7.71484 66.5039-10.1074Q65.0391-12.5 65.0391-15.4297Q65.0391-18.2129 66.2354-20.8984Q67.4316-23.584 68.9453-26.5137L75.6348-38.916Q75.7812-39.1602 76.001-39.1602Q76.2207-39.1602 76.3672-38.916L82.9102-26.5137Q84.4727-23.584 85.6934-20.8984Q86.9141-18.2129 86.9141-15.4297Q86.9141-12.5 85.4492-10.1074Q83.9844-7.71484 81.4941-6.29883Q79.0039-4.88281 75.9277-4.88281Z"/>
  </g>
  <g id="Ultralight-S" transform="matrix(1 0 0 1 509.991 696)">
   <path class="hierarchical-0:secondary SFSymbolsPreview4D4D4D" d="M23.7274-47.3808Q28.4035-47.3808 32.5241-48.8457Q36.6447-50.3105 40.5281-52.459Q44.4115-54.6074 48.2899-56.7558Q52.1683-58.9043 56.3381-60.3691Q60.508-61.834 65.2512-61.834Q68.7538-61.834 71.6805-61.0367Q74.6071-60.2394 77.4918-58.5793Q77.9961-58.2977 78.3993-58.416Q78.8025-58.5342 79.0321-58.8753Q79.2717-59.2293 79.211-59.7019Q79.1504-60.1746 78.6537-60.4317Q72.3969-64.0518 65.2512-64.0518Q60.1624-64.0518 55.8151-62.587Q51.4679-61.1221 47.5616-58.9737Q43.6554-56.8253 39.8693-54.6768Q36.0832-52.5284 32.1163-51.0635Q28.1494-49.5987 23.7274-49.5987Q20.2248-49.5987 17.2981-50.396Q14.3715-51.1932 11.4868-52.8534Q10.9825-53.1349 10.5774-53.0167Q10.1723-52.8984 9.94644-52.5543Q9.70993-52.1996 9.77058-51.7269Q9.83124-51.2543 10.321-51.001Q16.5817-47.3808 23.7274-47.3808ZM23.7762-26.873Q28.4538-26.873 32.5607-28.3138Q36.6676-29.7546 40.4995-31.9004Q44.3314-34.0462 48.1968-36.179Q52.0622-38.3118 56.2309-39.7888Q60.3996-41.2659 65.2077-41.2781Q65.506-41.8655 65.8051-42.4076Q66.1041-42.9497 66.4032-43.4952Q60.5209-43.4746 55.8937-42.0048Q51.2665-40.535 47.348-38.39Q43.4296-36.245 39.7884-34.1034Q36.1473-31.9618 32.2811-30.5264Q28.4149-29.0909 23.7762-29.0909Q20.2736-29.0909 17.347-29.8882Q14.4203-30.6854 11.5356-32.3456Q11.0313-32.6271 10.6262-32.5089Q10.2211-32.3906 9.99527-32.0465Q9.75876-31.6917 9.81941-31.2191Q9.88007-30.7465 10.3699-30.4932Q16.6306-26.873 23.7762-26.873ZM23.7274-6.3652Q28.2059-6.3652 32.1667-7.71027Q36.1275-9.05533 39.8373-11.0771Q43.5471-13.0989 47.2656-15.2023Q50.9842-17.3058 54.895-18.7805Q55.0179-19.4214 55.1533-20.0832Q55.2887-20.7451 55.5115-21.3814Q51.2108-20.0005 47.337-17.8638Q43.4631-15.7272 39.727-13.6013Q35.9909-11.4754 32.0759-10.0292Q28.1609-8.58307 23.7274-8.58307Q20.2248-8.58307 17.2981-9.38034Q14.3715-10.1776 11.4868-11.8378Q10.9825-12.1193 10.5774-12.001Q10.1723-11.8828 9.94644-11.5387Q9.70993-11.1839 9.77058-10.7113Q9.83124-10.2386 10.321-9.98535Q16.5817-6.3652 23.7274-6.3652Z"/>
   <path class="hierarchical-1:primary SFSymbolsPreview212121" d="M73.6122 0.830078Q78.0685 0.830078 81.7165-1.2764Q85.3645-3.38287 87.5198-6.93321Q89.6751-10.4836 89.6751-14.8849Q89.6751-18.5539 88.1615-22.1848Q86.6478-25.8156 84.9525-28.9719L75.8728-45.9564Q75.4555-46.7361 74.9012-47.0757Q74.3469-47.4152 73.6122-47.4152Q72.8348-47.4152 72.2805-47.0757Q71.7262-46.7361 71.3089-46.0014L62.2322-28.9719Q60.537-25.8156 59.0233-22.1848Q57.5096-18.5539 57.5096-14.8849Q57.5096-10.4836 59.6649-6.93321Q61.8202-3.38287 65.4667-1.2764Q69.1132 0.830078 73.6122 0.830078ZM73.6122-1.29547Q69.722-1.29547 66.5524-3.12004Q63.3827-4.94461 61.5089-8.01849Q59.6352-11.0924 59.6352-14.8849Q59.6352-18.2129 61.0359-21.5115Q62.4367-24.81 64.0862-27.9671L73.0461-44.6831Q73.2384-45.018 73.5943-45.018Q73.9502-45.018 74.1425-44.6831L83.0917-27.9671Q84.745-24.81 86.1473-21.5115Q87.5496-18.2129 87.5496-14.8849Q87.5496-11.0924 85.6762-8.01849Q83.8028-4.94461 80.6313-3.12004Q77.4597-1.29547 73.6122-1.29547Z"/>
  </g>
 </g>
</svg>
