<?xml version="1.0" encoding="UTF-8"?>
<!--Generator: Apple Native CoreSVG 175-->
<!DOCTYPE svg
PUBLIC "-//W3C//DTD SVG 1.1//EN"
       "http://www.w3.org/Graphics/SVG/1.1/DTD/svg11.dtd">
<svg version="1.1" xmlns="http://www.w3.org/2000/svg" xmlns:xlink="http://www.w3.org/1999/xlink" width="3300" height="2200">
 <!--glyph: "uni1001C0.medium", point size: 100.0, font version: "17.3d3e1", template writer version: "65.1"-->
 <style>.hierarchical-0:secondary {fill:#4D4D4D}
.hierarchical-1:primary {fill:#212121}

.SFSymbolsPreview212121 {fill:#212121;opacity:1.0}
.SFSymbolsPreview4D4D4D {fill:#4D4D4D;opacity:1.0}
</style>
 <g id="Notes">
  <rect height="2200" id="artboard" style="fill:white;opacity:1" width="3300" x="0" y="0"/>
  <line style="fill:none;stroke:black;opacity:1;stroke-width:0.5;" x1="263" x2="3036" y1="292" y2="292"/>
  <text style="stroke:none;fill:black;font-family:sans-serif;font-size:13;font-weight:bold;" transform="matrix(1 0 0 1 263 322)">Weight/Scale Variations</text>
  <text style="stroke:none;fill:black;font-family:sans-serif;font-size:13;text-anchor:middle;" transform="matrix(1 0 0 1 559.711 322)">Ultralight</text>
  <text style="stroke:none;fill:black;font-family:sans-serif;font-size:13;text-anchor:middle;" transform="matrix(1 0 0 1 856.422 322)">Thin</text>
  <text style="stroke:none;fill:black;font-family:sans-serif;font-size:13;text-anchor:middle;" transform="matrix(1 0 0 1 1153.13 322)">Light</text>
  <text style="stroke:none;fill:black;font-family:sans-serif;font-size:13;text-anchor:middle;" transform="matrix(1 0 0 1 1449.84 322)">Regular</text>
  <text style="stroke:none;fill:black;font-family:sans-serif;font-size:13;text-anchor:middle;" transform="matrix(1 0 0 1 1746.56 322)">Medium</text>
  <text style="stroke:none;fill:black;font-family:sans-serif;font-size:13;text-anchor:middle;" transform="matrix(1 0 0 1 2043.27 322)">Semibold</text>
  <text style="stroke:none;fill:black;font-family:sans-serif;font-size:13;text-anchor:middle;" transform="matrix(1 0 0 1 2339.98 322)">Bold</text>
  <text style="stroke:none;fill:black;font-family:sans-serif;font-size:13;text-anchor:middle;" transform="matrix(1 0 0 1 2636.69 322)">Heavy</text>
  <text style="stroke:none;fill:black;font-family:sans-serif;font-size:13;text-anchor:middle;" transform="matrix(1 0 0 1 2933.4 322)">Black</text>
  <line style="fill:none;stroke:black;opacity:1;stroke-width:0.5;" x1="263" x2="3036" y1="1903" y2="1903"/>
  <g transform="matrix(1 0 0 1 263 1933)">
   <path d="M9.24805 0.830078Q10.8691 0.830078 12.2949 0.214844Q13.7207-0.400391 14.8096-1.49414Q15.8984-2.58789 16.5186-4.01367Q17.1387-5.43945 17.1387-7.05078Q17.1387-8.66211 16.5186-10.0879Q15.8984-11.5137 14.8047-12.6074Q13.7109-13.7012 12.2852-14.3164Q10.8594-14.9316 9.23828-14.9316Q7.62695-14.9316 6.20117-14.3164Q4.77539-13.7012 3.69141-12.6074Q2.60742-11.5137 1.9873-10.0879Q1.36719-8.66211 1.36719-7.05078Q1.36719-5.43945 1.9873-4.01367Q2.60742-2.58789 3.69629-1.49414Q4.78516-0.400391 6.21094 0.214844Q7.63672 0.830078 9.24805 0.830078ZM9.24805-0.654297Q7.91992-0.654297 6.7627-1.14746Q5.60547-1.64062 4.73145-2.51953Q3.85742-3.39844 3.36426-4.56055Q2.87109-5.72266 2.87109-7.05078Q2.87109-8.37891 3.35938-9.54102Q3.84766-10.7031 4.72168-11.582Q5.5957-12.4609 6.75293-12.9541Q7.91016-13.4473 9.23828-13.4473Q10.5762-13.4473 11.7334-12.9541Q12.8906-12.4609 13.7695-11.582Q14.6484-10.7031 15.1465-9.54102Q15.6445-8.37891 15.6445-7.05078Q15.6445-5.72266 15.1514-4.56055Q14.6582-3.39844 13.7842-2.51953Q12.9102-1.64062 11.748-1.14746Q10.5859-0.654297 9.24805-0.654297ZM5.6543-7.05078Q5.6543-6.72852 5.85938-6.52832Q6.06445-6.32812 6.40625-6.32812L8.51562-6.32812L8.51562-4.20898Q8.51562-3.88672 8.71094-3.67676Q8.90625-3.4668 9.23828-3.4668Q9.56055-3.4668 9.77051-3.67676Q9.98047-3.88672 9.98047-4.20898L9.98047-6.32812L12.0898-6.32812Q12.4219-6.32812 12.627-6.52832Q12.832-6.72852 12.832-7.05078Q12.832-7.38281 12.627-7.58789Q12.4219-7.79297 12.0898-7.79297L9.98047-7.79297L9.98047-9.90234Q9.98047-10.2344 9.77051-10.4443Q9.56055-10.6543 9.23828-10.6543Q8.90625-10.6543 8.71094-10.4443Q8.51562-10.2344 8.51562-9.90234L8.51562-7.79297L6.40625-7.79297Q6.06445-7.79297 5.85938-7.58789Q5.6543-7.38281 5.6543-7.05078Z"/>
  </g>
  <g transform="matrix(1 0 0 1 281.867 1933)">
   <path d="M11.709 2.91016Q13.75 2.91016 15.5518 2.12891Q17.3535 1.34766 18.7305-0.0292969Q20.1074-1.40625 20.8887-3.20801Q21.6699-5.00977 21.6699-7.05078Q21.6699-9.0918 20.8887-10.8936Q20.1074-12.6953 18.7305-14.0723Q17.3535-15.4492 15.5469-16.2305Q13.7402-17.0117 11.6992-17.0117Q9.6582-17.0117 7.85645-16.2305Q6.05469-15.4492 4.68262-14.0723Q3.31055-12.6953 2.5293-10.8936Q1.74805-9.0918 1.74805-7.05078Q1.74805-5.00977 2.5293-3.20801Q3.31055-1.40625 4.6875-0.0292969Q6.06445 1.34766 7.86621 2.12891Q9.66797 2.91016 11.709 2.91016ZM11.709 1.25Q9.98047 1.25 8.47656 0.605469Q6.97266-0.0390625 5.83496-1.17676Q4.69727-2.31445 4.05762-3.81836Q3.41797-5.32227 3.41797-7.05078Q3.41797-8.7793 4.05762-10.2832Q4.69727-11.7871 5.83008-12.9297Q6.96289-14.0723 8.4668-14.7119Q9.9707-15.3516 11.6992-15.3516Q13.4277-15.3516 14.9316-14.7119Q16.4355-14.0723 17.5781-12.9297Q18.7207-11.7871 19.3652-10.2832Q20.0098-8.7793 20.0098-7.05078Q20.0098-5.32227 19.3701-3.81836Q18.7305-2.31445 17.5928-1.17676Q16.4551-0.0390625 14.9463 0.605469Q13.4375 1.25 11.709 1.25ZM7.17773-7.05078Q7.17773-6.69922 7.41211-6.47461Q7.64648-6.25 8.01758-6.25L10.8887-6.25L10.8887-3.36914Q10.8887-2.99805 11.1133-2.76855Q11.3379-2.53906 11.6895-2.53906Q12.0605-2.53906 12.29-2.76855Q12.5195-2.99805 12.5195-3.36914L12.5195-6.25L15.4004-6.25Q15.7715-6.25 16.001-6.47461Q16.2305-6.69922 16.2305-7.05078Q16.2305-7.42188 16.001-7.65137Q15.7715-7.88086 15.4004-7.88086L12.5195-7.88086L12.5195-10.752Q12.5195-11.1328 12.29-11.3623Q12.0605-11.5918 11.6895-11.5918Q11.3379-11.5918 11.1133-11.3574Q10.8887-11.123 10.8887-10.752L10.8887-7.88086L8.01758-7.88086Q7.63672-7.88086 7.40723-7.65137Q7.17773-7.42188 7.17773-7.05078Z"/>
  </g>
  <g transform="matrix(1 0 0 1 305.646 1933)">
   <path d="M14.9707 5.66406Q17.0605 5.66406 18.96 5.01465Q20.8594 4.36523 22.4512 3.19336Q24.043 2.02148 25.2197 0.429688Q26.3965-1.16211 27.0459-3.06641Q27.6953-4.9707 27.6953-7.05078Q27.6953-9.14062 27.0459-11.04Q26.3965-12.9395 25.2197-14.5312Q24.043-16.123 22.4512-17.2998Q20.8594-18.4766 18.9551-19.126Q17.0508-19.7754 14.9609-19.7754Q12.8711-19.7754 10.9717-19.126Q9.07227-18.4766 7.48535-17.2998Q5.89844-16.123 4.72168-14.5312Q3.54492-12.9395 2.90039-11.04Q2.25586-9.14062 2.25586-7.05078Q2.25586-4.9707 2.90527-3.06641Q3.55469-1.16211 4.72656 0.429688Q5.89844 2.02148 7.49023 3.19336Q9.08203 4.36523 10.9814 5.01465Q12.8809 5.66406 14.9707 5.66406ZM14.9707 3.84766Q13.1641 3.84766 11.5283 3.2959Q9.89258 2.74414 8.53516 1.74805Q7.17773 0.751953 6.17676-0.610352Q5.17578-1.97266 4.62891-3.6084Q4.08203-5.24414 4.08203-7.05078Q4.08203-8.86719 4.62891-10.5029Q5.17578-12.1387 6.17188-13.501Q7.16797-14.8633 8.52539-15.8594Q9.88281-16.8555 11.5186-17.4023Q13.1543-17.9492 14.9609-17.9492Q16.7773-17.9492 18.4131-17.4023Q20.0488-16.8555 21.4111-15.8594Q22.7734-14.8633 23.7695-13.501Q24.7656-12.1387 25.3174-10.5029Q25.8691-8.86719 25.8691-7.05078Q25.8789-5.24414 25.332-3.6084Q24.7852-1.97266 23.7842-0.610352Q22.7832 0.751953 21.4209 1.74805Q20.0586 2.74414 18.4229 3.2959Q16.7871 3.84766 14.9707 3.84766ZM9.19922-7.05078Q9.19922-6.66992 9.45801-6.4209Q9.7168-6.17188 10.1172-6.17188L14.0625-6.17188L14.0625-2.2168Q14.0625-1.81641 14.3115-1.55762Q14.5605-1.29883 14.9512-1.29883Q15.3516-1.29883 15.6104-1.55273Q15.8691-1.80664 15.8691-2.2168L15.8691-6.17188L19.8242-6.17188Q20.2246-6.17188 20.4785-6.4209Q20.7324-6.66992 20.7324-7.05078Q20.7324-7.46094 20.4785-7.71484Q20.2246-7.96875 19.8242-7.96875L15.8691-7.96875L15.8691-11.9141Q15.8691-12.3242 15.6104-12.583Q15.3516-12.8418 14.9512-12.8418Q14.5605-12.8418 14.3115-12.583Q14.0625-12.3242 14.0625-11.9141L14.0625-7.96875L10.1172-7.96875Q9.70703-7.96875 9.45312-7.71484Q9.19922-7.46094 9.19922-7.05078Z"/>
  </g>
  <text style="stroke:none;fill:black;font-family:sans-serif;font-size:13;font-weight:bold;" transform="matrix(1 0 0 1 263 1953)">Design Variations</text>
  <text style="stroke:none;fill:black;font-family:sans-serif;font-size:13;" transform="matrix(1 0 0 1 263 1971)">Symbols are supported in up to nine weights and three scales.</text>
  <text style="stroke:none;fill:black;font-family:sans-serif;font-size:13;" transform="matrix(1 0 0 1 263 1989)">For optimal layout with text and other symbols, vertically align</text>
  <text style="stroke:none;fill:black;font-family:sans-serif;font-size:13;" transform="matrix(1 0 0 1 263 2007)">symbols with the adjacent text.</text>
  <line style="fill:none;stroke:#00AEEF;stroke-width:0.5;opacity:1.0;" x1="776" x2="776" y1="1919" y2="1933"/>
  <g transform="matrix(1 0 0 1 776 1933)">
   <path d="M3.31055 0.15625Q3.70117 0.15625 3.91602-0.00976562Q4.13086-0.175781 4.26758-0.585938L5.52734-4.0332L11.2891-4.0332L12.5488-0.585938Q12.6855-0.175781 12.9004-0.00976562Q13.1152 0.15625 13.4961 0.15625Q13.8867 0.15625 14.1162-0.0585938Q14.3457-0.273438 14.3457-0.644531Q14.3457-0.869141 14.2383-1.17188L9.6582-13.3691Q9.48242-13.8184 9.17969-14.043Q8.87695-14.2676 8.4082-14.2676Q7.5-14.2676 7.17773-13.3789L2.59766-1.16211Q2.49023-0.859375 2.49023-0.634766Q2.49023-0.263672 2.70996-0.0537109Q2.92969 0.15625 3.31055 0.15625ZM6.00586-5.51758L8.37891-12.0898L8.42773-12.0898L10.8008-5.51758Z"/>
  </g>
  <line style="fill:none;stroke:#00AEEF;stroke-width:0.5;opacity:1.0;" x1="793.197" x2="793.197" y1="1919" y2="1933"/>
  <text style="stroke:none;fill:black;font-family:sans-serif;font-size:13;font-weight:bold;" transform="matrix(1 0 0 1 776 1953)">Margins</text>
  <text style="stroke:none;fill:black;font-family:sans-serif;font-size:13;" transform="matrix(1 0 0 1 776 1971)">Leading and trailing margins on the left and right side of each symbol</text>
  <text style="stroke:none;fill:black;font-family:sans-serif;font-size:13;" transform="matrix(1 0 0 1 776 1989)">can be adjusted by modifying the x-location of the margin guidelines.</text>
  <text style="stroke:none;fill:black;font-family:sans-serif;font-size:13;" transform="matrix(1 0 0 1 776 2007)">Modifications are automatically applied proportionally to all</text>
  <text style="stroke:none;fill:black;font-family:sans-serif;font-size:13;" transform="matrix(1 0 0 1 776 2025)">scales and weights.</text>
  <g transform="matrix(1 0 0 1 1289 1933)">
   <path d="M2.8418 1.86523L4.54102 3.57422Q5.18555 4.22852 5.90332 4.17969Q6.62109 4.13086 7.31445 3.35938L18.0078-8.42773L17.041-9.4043L6.42578 2.27539Q6.16211 2.57812 5.89355 2.61719Q5.625 2.65625 5.27344 2.30469L4.10156 1.14258Q3.75 0.791016 3.79395 0.522461Q3.83789 0.253906 4.14062-0.0195312L15.6152-10.8203L14.6387-11.7871L3.04688-0.898438Q2.30469-0.214844 2.25098 0.498047Q2.19727 1.21094 2.8418 1.86523ZM9.25781-16.3281Q8.94531-16.0254 8.90625-15.6348Q8.86719-15.2441 9.04297-14.9512Q9.21875-14.6777 9.55566-14.541Q9.89258-14.4043 10.3809-14.5215Q11.4746-14.7754 12.5977-14.7314Q13.7207-14.6875 14.7949-13.9844L14.209-12.5293Q13.9551-11.9043 14.0674-11.4404Q14.1797-10.9766 14.5801-10.5664L16.875-8.25195Q17.2363-7.88086 17.5781-7.82227Q17.9199-7.76367 18.3398-7.8418L19.4043-8.03711L20.0684-7.36328L20.0293-6.80664Q20-6.43555 20.1221-6.12305Q20.2441-5.81055 20.6055-5.44922L21.3672-4.70703Q21.7285-4.3457 22.1533-4.33105Q22.5781-4.31641 22.9297-4.66797L25.8398-7.58789Q26.1914-7.93945 26.1816-8.35449Q26.1719-8.76953 25.8105-9.13086L25.0391-9.89258Q24.6875-10.2539 24.3799-10.3857Q24.0723-10.5176 23.7109-10.4883L23.1348-10.4395L22.4902-11.0742L22.7344-12.1973Q22.832-12.6172 22.6953-12.9834Q22.5586-13.3496 22.1191-13.7891L19.9219-15.9766Q18.6719-17.2168 17.2607-17.8369Q15.8496-18.457 14.4189-18.4814Q12.9883-18.5059 11.665-17.959Q10.3418-17.4121 9.25781-16.3281ZM10.752-15.957Q11.6602-16.6211 12.7002-16.9043Q13.7402-17.1875 14.8047-17.085Q15.8691-16.9824 16.8701-16.5137Q17.8711-16.0449 18.7012-15.2051L21.1328-12.793Q21.3086-12.6172 21.3525-12.4512Q21.3965-12.2852 21.3379-12.0312L21.0156-10.5469L22.5195-9.0625L23.5059-9.12109Q23.6914-9.13086 23.7891-9.09668Q23.8867-9.0625 24.0332-8.91602L24.6094-8.33984L22.168-5.89844L21.5918-6.47461Q21.4453-6.62109 21.4062-6.71875Q21.3672-6.81641 21.377-7.01172L21.4453-7.98828L19.9512-9.47266L18.4277-9.21875Q18.1836-9.16992 18.042-9.2041Q17.9004-9.23828 17.7148-9.41406L15.7129-11.416Q15.5176-11.5918 15.4932-11.7529Q15.4688-11.9141 15.5859-12.1875L16.4648-14.2773Q15.293-15.3711 13.8281-15.791Q12.3633-16.2109 10.8398-15.7617Q10.7227-15.7324 10.6885-15.8057Q10.6543-15.8789 10.752-15.957Z"/>
  </g>
  <text style="stroke:none;fill:black;font-family:sans-serif;font-size:13;font-weight:bold;" transform="matrix(1 0 0 1 1289 1953)">Exporting</text>
  <text style="stroke:none;fill:black;font-family:sans-serif;font-size:13;" transform="matrix(1 0 0 1 1289 1971)">Symbols should be outlined when exporting to ensure the</text>
  <text style="stroke:none;fill:black;font-family:sans-serif;font-size:13;" transform="matrix(1 0 0 1 1289 1989)">design is preserved when submitting to Xcode.</text>
  <text id="template-version" style="stroke:none;fill:black;font-family:sans-serif;font-size:13;text-anchor:end;" transform="matrix(1 0 0 1 3036 1933)">Template v.3.0</text>
  <text style="stroke:none;fill:black;font-family:sans-serif;font-size:13;text-anchor:end;" transform="matrix(1 0 0 1 3036 1951)">Requires Xcode 13 or greater</text>
  <text id="descriptive-name" style="stroke:none;fill:black;font-family:sans-serif;font-size:13;text-anchor:end;" transform="matrix(1 0 0 1 3036 1969)">Generated from moon.stars</text>
  <text style="stroke:none;fill:black;font-family:sans-serif;font-size:13;text-anchor:end;" transform="matrix(1 0 0 1 3036 1987)">Typeset at 100 points</text>
  <text style="stroke:none;fill:black;font-family:sans-serif;font-size:13;" transform="matrix(1 0 0 1 263 726)">Small</text>
  <text style="stroke:none;fill:black;font-family:sans-serif;font-size:13;" transform="matrix(1 0 0 1 263 1156)">Medium</text>
  <text style="stroke:none;fill:black;font-family:sans-serif;font-size:13;" transform="matrix(1 0 0 1 263 1586)">Large</text>
 </g>
 <g id="Guides">
  <g id="H-reference" style="fill:#27AAE1;stroke:none;" transform="matrix(1 0 0 1 339 696)">
   <path d="M0.993347 0L3.6377 0L29.3282-67.1326L30.0301-67.1326L30.0301-70.459L28.1227-70.459ZM11.6882-24.4797L46.9818-24.4797L46.2311-26.7288L12.4382-26.7288ZM55.1193 0L57.7637 0L30.6381-70.459L29.4327-70.459L29.4327-67.1326Z"/>
  </g>
  <line id="Baseline-S" style="fill:none;stroke:#27AAE1;opacity:1;stroke-width:0.5;" x1="263" x2="3036" y1="696" y2="696"/>
  <line id="Capline-S" style="fill:none;stroke:#27AAE1;opacity:1;stroke-width:0.5;" x1="263" x2="3036" y1="625.541" y2="625.541"/>
  <g id="H-reference" style="fill:#27AAE1;stroke:none;" transform="matrix(1 0 0 1 339 1126)">
   <path d="M0.993347 0L3.6377 0L29.3282-67.1326L30.0301-67.1326L30.0301-70.459L28.1227-70.459ZM11.6882-24.4797L46.9818-24.4797L46.2311-26.7288L12.4382-26.7288ZM55.1193 0L57.7637 0L30.6381-70.459L29.4327-70.459L29.4327-67.1326Z"/>
  </g>
  <line id="Baseline-M" style="fill:none;stroke:#27AAE1;opacity:1;stroke-width:0.5;" x1="263" x2="3036" y1="1126" y2="1126"/>
  <line id="Capline-M" style="fill:none;stroke:#27AAE1;opacity:1;stroke-width:0.5;" x1="263" x2="3036" y1="1055.54" y2="1055.54"/>
  <g id="H-reference" style="fill:#27AAE1;stroke:none;" transform="matrix(1 0 0 1 339 1556)">
   <path d="M0.993347 0L3.6377 0L29.3282-67.1326L30.0301-67.1326L30.0301-70.459L28.1227-70.459ZM11.6882-24.4797L46.9818-24.4797L46.2311-26.7288L12.4382-26.7288ZM55.1193 0L57.7637 0L30.6381-70.459L29.4327-70.459L29.4327-67.1326Z"/>
  </g>
  <line id="Baseline-L" style="fill:none;stroke:#27AAE1;opacity:1;stroke-width:0.5;" x1="263" x2="3036" y1="1556" y2="1556"/>
  <line id="Capline-L" style="fill:none;stroke:#27AAE1;opacity:1;stroke-width:0.5;" x1="263" x2="3036" y1="1485.54" y2="1485.54"/>
  <line id="left-margin-Ultralight-S" style="fill:none;stroke:#00AEEF;stroke-width:0.5;opacity:1.0;" x1="518.4" x2="518.4" y1="600.785" y2="720.121"/>
  <line id="right-margin-Ultralight-S" style="fill:none;stroke:#00AEEF;stroke-width:0.5;opacity:1.0;" x1="601.022" x2="601.022" y1="600.785" y2="720.121"/>
  <line id="left-margin-Regular-S" style="fill:none;stroke:#00AEEF;stroke-width:0.5;opacity:1.0;" x1="1405.58" x2="1405.58" y1="600.785" y2="720.121"/>
  <line id="right-margin-Regular-S" style="fill:none;stroke:#00AEEF;stroke-width:0.5;opacity:1.0;" x1="1494.11" x2="1494.11" y1="600.785" y2="720.121"/>
  <line id="left-margin-Black-S" style="fill:none;stroke:#00AEEF;stroke-width:0.5;opacity:1.0;" x1="2883.16" x2="2883.16" y1="600.785" y2="720.121"/>
  <line id="right-margin-Black-S" style="fill:none;stroke:#00AEEF;stroke-width:0.5;opacity:1.0;" x1="2983.64" x2="2983.64" y1="600.785" y2="720.121"/>
 </g>
 <g id="Symbols">
  <g id="Black-S" transform="matrix(1 0 0 1 2883.16 696)">
   <path class="hierarchical-0:secondary SFSymbolsPreview4D4D4D" d="M82.6172-35.9375Q84.5703-35.9375 84.8145-37.9883Q85.2539-41.6504 85.7178-43.75Q86.1816-45.8496 87.2314-46.9238Q88.2812-47.998 90.4297-48.5352Q92.5781-49.0723 96.3867-49.6094Q98.5352-49.9023 98.5352-51.8066Q98.5352-53.6133 96.6309-54.0039Q92.7246-54.834 90.5273-55.4443Q88.3301-56.0547 87.2559-57.0312Q86.1816-58.0078 85.7178-60.0098Q85.2539-62.0117 84.8145-65.625Q84.5703-67.6758 82.6172-67.6758Q80.6641-67.6758 80.4199-65.6738Q79.9316-61.8652 79.4678-59.7412Q79.0039-57.6172 77.9297-56.5674Q76.8555-55.5176 74.6826-55.0293Q72.5098-54.541 68.6523-54.0039Q66.6992-53.7598 66.6992-51.8066Q66.6992-50 68.6035-49.6094Q72.5098-48.7793 74.707-48.1689Q76.9043-47.5586 77.9541-46.5576Q79.0039-45.5566 79.4678-43.5547Q79.9316-41.5527 80.4199-37.8906Q80.6641-35.9375 82.6172-35.9375ZM63.8672-64.6973Q65.0879-64.6973 65.2344-65.9668Q65.6738-69.043 66.1133-70.3613Q66.5527-71.6797 67.9199-72.168Q69.2871-72.6562 72.4121-73.1934Q73.7793-73.4375 73.7793-74.5605Q73.7793-75.6836 72.5586-75.9277Q69.2871-76.6113 67.8711-77.0996Q66.4551-77.5879 66.04-78.8818Q65.625-80.1758 65.2344-83.1055Q65.0879-84.4238 63.8672-84.4238Q62.6465-84.4238 62.5-83.1543Q62.1094-80.0293 61.6455-78.6621Q61.1816-77.2949 59.8145-76.8311Q58.4473-76.3672 55.2246-75.9277Q53.9551-75.7812 53.9551-74.5605Q53.9551-73.4375 55.1758-73.1934Q58.4473-72.5586 59.8145-72.0459Q61.1816-71.5332 61.6211-70.2393Q62.0605-68.9453 62.5-65.918Q62.6953-64.6973 63.8672-64.6973Z"/>
   <path class="hierarchical-1:primary SFSymbolsPreview212121" d="M51.123 10.8887Q59.2773 10.8887 66.5771 7.86133Q73.877 4.83398 79.5898-0.65918Q85.3027-6.15234 88.623-13.5254Q90.0391-16.6016 89.7217-18.9209Q89.4043-21.2402 87.9883-22.5586Q86.5723-23.877 84.3262-24.0723Q82.0801-24.2676 79.6387-23.0957Q77.5391-22.0703 74.8047-21.5332Q72.0703-20.9961 69.3359-20.9961Q61.1328-20.9961 55.1025-24.0967Q49.0723-27.1973 45.8008-32.9834Q42.5293-38.7695 42.5293-46.7773Q42.5293-50.0488 43.2129-53.1738Q43.8965-56.2988 44.9707-58.8379Q47.2168-64.2578 44.5801-67.1875Q43.1641-68.75 40.8447-68.9453Q38.5254-69.1406 35.791-68.0176Q28.0762-64.9414 22.3145-59.1553Q16.5527-53.3691 13.4033-45.8496Q10.2539-38.3301 10.2539-30.0293Q10.2539-21.1914 13.3057-13.7207Q16.3574-6.25 21.8506-0.732422Q27.3438 4.78516 34.8145 7.83691Q42.2852 10.8887 51.123 10.8887ZM51.123-3.27148Q43.457-3.27148 37.4023-6.7627Q31.3477-10.2539 27.8564-16.3086Q24.3652-22.3633 24.3652-30.0293Q24.3652-32.959 25-35.9863Q25.6348-39.0137 26.9043-41.8701Q28.1738-44.7266 30.0293-47.0703Q29.9805-46.3379 29.9561-45.6299Q29.9316-44.9219 29.9316-44.2383Q29.9316-33.3496 34.375-25.3418Q38.8184-17.334 46.9727-12.9639Q55.127-8.59375 66.2598-8.59375Q66.4551-8.59375 66.6504-8.59375Q66.8457-8.59375 67.041-8.59375Q63.7695-5.9082 59.5703-4.58984Q55.3711-3.27148 51.123-3.27148Z"/>
  </g>
  <g id="Regular-S" transform="matrix(1 0 0 1 1405.58 696)">
   <path class="hierarchical-0:secondary SFSymbolsPreview4D4D4D" d="M72.2656-32.2754Q73.5352-32.2754 73.7305-33.6914Q74.1211-37.5 74.6582-39.6973Q75.1953-41.8945 76.3428-43.0176Q77.4902-44.1406 79.7363-44.7021Q81.9824-45.2637 85.8398-45.8496Q87.3535-46.0938 87.3535-47.3145Q87.3535-48.5352 86.0352-48.7793Q82.1289-49.5117 79.834-50.1221Q77.5391-50.7324 76.3672-51.8066Q75.1953-52.8809 74.6582-55.0293Q74.1211-57.1777 73.7305-60.9863Q73.5352-62.4023 72.2656-62.4023Q70.9473-62.4023 70.8008-61.0352Q70.3125-57.1289 69.7998-54.9072Q69.2871-52.6855 68.1396-51.5381Q66.9922-50.3906 64.6973-49.8535Q62.4023-49.3164 58.4473-48.7793Q57.1289-48.6328 57.1289-47.3145Q57.1289-46.0938 58.4473-45.8496Q62.4023-45.1172 64.6729-44.5068Q66.9434-43.8965 68.0908-42.7979Q69.2383-41.6992 69.7754-39.5508Q70.3125-37.4023 70.8008-33.5938Q70.9473-32.2754 72.2656-32.2754ZM53.9551-58.6426Q54.6875-58.6426 54.834-59.4727Q55.4688-62.5977 55.957-63.9893Q56.4453-65.3809 57.8369-65.9424Q59.2285-66.5039 62.5488-67.1387Q63.3301-67.334 63.3301-68.0664Q63.3301-68.7988 62.5488-68.9453Q59.2285-69.6289 57.8613-70.166Q56.4941-70.7031 55.9814-72.0947Q55.4688-73.4863 54.834-76.6602Q54.6875-77.4414 53.9551-77.4414Q53.2227-77.4414 53.0273-76.6602Q52.3926-73.4863 51.9043-72.0947Q51.416-70.7031 50.0244-70.166Q48.6328-69.6289 45.3613-68.9453Q44.5312-68.7988 44.5312-68.0664Q44.5312-67.334 45.3613-67.1387Q48.6328-66.5039 50.0244-65.9424Q51.416-65.3809 51.9287-63.9893Q52.4414-62.5977 53.0273-59.4727Q53.2227-58.6426 53.9551-58.6426Z"/>
   <path class="hierarchical-1:primary SFSymbolsPreview212121" d="M43.75 3.02734Q50.8301 3.02734 56.8359 0.708008Q62.8418-1.61133 67.3828-5.95703Q71.9238-10.3027 74.5117-16.4551Q75.0488-17.8223 74.9023-18.8232Q74.7559-19.8242 74.1699-20.459Q73.6328-20.9961 72.7295-21.0693Q71.8262-21.1426 70.752-20.752Q68.6035-19.873 65.9424-19.4092Q63.2812-18.9453 60.0586-18.9453Q51.5625-18.9453 45.3125-22.29Q39.0625-25.6348 35.6201-31.7139Q32.1777-37.793 32.1777-45.9961Q32.1777-49.6094 32.7881-52.832Q33.3984-56.0547 34.1797-57.666Q35.4004-60.1562 34.2285-61.5723Q33.6426-62.2559 32.6172-62.4512Q31.5918-62.6465 30.127-62.0605Q24.1211-59.7656 19.5068-55.0293Q14.8926-50.293 12.3291-43.9453Q9.76562-37.5977 9.76562-30.3223Q9.76562-23.2422 12.2559-17.1631Q14.7461-11.084 19.3115-6.54297Q23.877-2.00195 30.1025 0.512695Q36.3281 3.02734 43.75 3.02734ZM43.8477-3.61328Q35.8887-3.61328 29.6875-7.17773Q23.4863-10.7422 19.9707-16.9189Q16.4551-23.0957 16.4551-30.9082Q16.4551-35.4492 17.7002-39.624Q18.9453-43.7988 21.3379-47.3389Q23.7305-50.8789 27.0508-53.5645Q26.416-51.7578 26.0986-49.2188Q25.7812-46.6797 25.7812-44.043Q25.7812-34.7168 29.8828-27.6123Q33.9844-20.5078 41.3086-16.5283Q48.6328-12.5488 58.3008-12.5488Q60.6934-12.5488 62.7197-12.7686Q64.7461-12.9883 65.8203-13.3301Q62.207-8.83789 56.4209-6.22559Q50.6348-3.61328 43.8477-3.61328Z"/>
  </g>
  <g id="Ultralight-S" transform="matrix(1 0 0 1 518.4 696)">
   <path class="hierarchical-0:secondary SFSymbolsPreview4D4D4D" d="M68.5875-32.8659Q69.0399-32.8659 69.1444-33.3733Q69.7617-37.2276 70.2763-39.3341Q70.7909-41.4406 71.8475-42.4728Q72.9042-43.5051 75.0591-44.0666Q77.2141-44.6281 81.1623-45.3957Q81.6322-45.5032 81.6322-45.9068Q81.6322-46.3554 81.176-46.4638Q77.2697-47.2412 75.1114-47.8062Q72.953-48.3711 71.8945-49.3771Q70.8359-50.383 70.2988-52.486Q69.7617-54.5891 69.1444-58.4885Q69.0399-58.9516 68.5875-58.9516Q68.132-58.9516 68.0763-58.4923Q67.4065-54.631 66.9163-52.523Q66.4261-50.415 65.3923-49.3813Q64.3585-48.3475 62.1769-47.7875Q59.9953-47.2275 56.0402-46.4638Q55.5397-46.3623 55.5397-45.9068Q55.5397-45.4582 56.0402-45.3957Q59.9953-44.6175 62.175-44.03Q64.3547-43.4425 65.3889-42.4118Q66.423-41.3811 66.9147-39.3009Q67.4065-37.2208 68.0763-33.3664Q68.132-32.8659 68.5875-32.8659ZM50.322-56.4629Q50.6004-56.4629 50.6561-56.7482Q51.1093-60.0548 51.643-61.6055Q52.1767-63.1561 53.7498-63.763Q55.323-64.37 58.8249-64.959Q59.198-65.0185 59.198-65.3419Q59.198-65.6204 58.8249-65.6761Q55.3688-66.4047 53.9333-67.078Q52.4979-67.7513 51.9852-69.2566Q51.4725-70.7619 50.6561-73.9357Q50.6004-74.1722 50.322-74.1722Q50.0893-74.1722 50.0305-73.9357Q49.2142-70.7619 48.7259-69.2566Q48.2376-67.7513 46.8006-67.078Q45.3636-66.4047 41.819-65.6761Q41.4886-65.6204 41.4886-65.3419Q41.4886-65.0185 41.819-64.959Q45.3636-64.2334 46.9139-63.6265Q48.4642-63.0196 48.9998-61.5372Q49.5354-60.0548 50.0305-56.7482Q50.0893-56.4629 50.322-56.4629Z"/>
   <path class="hierarchical-1:primary SFSymbolsPreview212121" d="M40.6624 0.62027Q47.3793 0.62027 53.1353-1.38092Q58.8913-3.38211 63.2053-7.18307Q67.5194-10.984 70.0615-16.3643Q70.3712-17.0052 70.3613-17.5747Q70.3514-18.1442 70.0378-18.5066Q69.7273-18.8622 69.2101-18.9354Q68.6928-19.0086 67.9817-18.7538Q65.6517-17.8749 62.9452-17.3431Q60.2386-16.8114 56.6986-16.8114Q47.7478-16.8114 41.2254-20.2694Q34.7031-23.7274 31.1474-30.3062Q27.5917-36.8851 27.5917-46.1327Q27.5917-48.9738 28.1109-52.0149Q28.6301-55.056 29.911-57.7568Q30.587-59.2026 29.7783-60.0281Q29.3739-60.4393 28.7117-60.453Q28.0495-60.4668 27.1751-59.9716Q22.0779-57.2678 18.1446-52.9175Q14.2113-48.5672 11.9884-42.9008Q9.76562-37.2345 9.76562-30.5496Q9.76562-24.0143 11.8927-18.3666Q14.0198-12.719 18.0401-8.45032Q22.0604-4.18167 27.7637-1.7807Q33.4671 0.62027 40.6624 0.62027ZM40.6235-1.47934Q31.7566-1.47934 25.2827-5.40695Q18.8087-9.33456 15.3389-15.9428Q11.869-22.551 11.869-30.5901Q11.869-36.5387 13.9767-41.7355Q16.0843-46.9322 19.6804-51.0853Q23.2765-55.2383 27.7771-58.0147Q26.7342-55.8449 26.1215-52.6245Q25.5089-49.4041 25.5089-45.9503Q25.5089-36.2152 29.3152-29.2244Q33.1215-22.2336 40.1051-18.4811Q47.0886-14.7285 56.6208-14.7285Q59.967-14.7285 62.9242-15.2889Q65.8813-15.8493 67.9092-16.6451Q64.341-9.655 57.0564-5.56717Q49.7719-1.47934 40.6235-1.47934Z"/>
  </g>
 </g>
</svg>
