<svg width="79" height="99" viewBox="0 0 79 99" fill="none" xmlns="http://www.w3.org/2000/svg">
<path d="M20.4102 98.2422C24.1536 98.2422 27.5635 97.3226 30.6397 95.4834C33.7158 93.6442 36.1735 91.1865 38.0127 88.1104C39.8519 85.0342 40.7715 81.6244 40.7715 77.8809C40.7715 74.9186 40.1774 72.1517 38.9893 69.5801C37.8011 67.0085 36.0677 64.6647 33.7891 62.5488C33.1706 61.9955 32.8614 61.2956 32.8614 60.4492L32.9102 26.709C32.9102 23.9746 32.3893 21.582 31.3477 19.5313C30.306 17.4805 28.8493 15.8854 26.9776 14.7461C25.1058 13.6068 22.9166 13.0371 20.4102 13.0371C16.6666 13.0371 13.6393 14.2904 11.3282 16.7969C9.01698 19.3034 7.86138 22.6074 7.86138 26.709L7.91018 60.4492C7.91018 61.2956 7.60091 61.9955 6.98238 62.5488C4.70378 64.6647 2.97041 67.0085 1.78228 69.5801C0.594093 72.1517 0 74.9186 0 77.8809C0 81.6244 0.919593 85.0342 2.75878 88.1104C4.59798 91.1865 7.06381 93.6442 10.1563 95.4834C13.2487 97.3226 16.6666 98.2422 20.4102 98.2422ZM20.4102 91.8945C17.8386 91.8945 15.4867 91.2598 13.3545 89.9902C11.2223 88.7207 9.52965 87.028 8.27638 84.9121C7.02311 82.7962 6.39648 80.4525 6.39648 77.8809C6.39648 75.5046 6.94988 73.291 8.05668 71.2402C9.16341 69.1895 10.7096 67.513 12.6953 66.2109C13.2487 65.8203 13.6474 65.4297 13.8916 65.0391C14.1357 64.6484 14.2578 64.0625 14.2578 63.2813V27.002C14.2578 24.6908 14.8274 22.8435 15.9668 21.46C17.1061 20.0765 18.5872 19.3848 20.4102 19.3848C22.2005 19.3848 23.6572 20.0765 24.7803 21.46C25.9033 22.8435 26.4649 24.6908 26.4649 27.002V63.2813C26.4649 64.0625 26.5869 64.6484 26.8311 65.0391C27.0752 65.4297 27.4902 65.8203 28.0762 66.2109C30.0618 67.513 31.6081 69.1895 32.7149 71.2402C33.8216 73.291 34.375 75.5046 34.375 77.8809C34.375 80.4525 33.7483 82.7962 32.4951 84.9121C31.2419 87.028 29.5573 88.7207 27.4414 89.9902C25.3255 91.2598 22.9818 91.8945 20.4102 91.8945Z" fill="white"/>
<path d="M20.3614 86.7187C22.8353 86.7187 24.9349 85.8479 26.6602 84.1064C28.3855 82.3649 29.2481 80.2734 29.2481 77.832C29.2481 76.1068 28.8086 74.5687 27.9297 73.2178C27.0508 71.8668 25.9115 70.8007 24.5117 70.0195C23.8932 69.7265 23.4701 69.401 23.2422 69.043C23.0143 68.6849 22.9004 68.0664 22.9004 67.1875V29.9805C22.9004 29.069 22.6563 28.3447 22.168 27.8076C21.6797 27.2705 21.0775 27.002 20.3614 27.002C19.6778 27.002 19.0918 27.2705 18.6035 27.8076C18.1152 28.3447 17.8711 29.069 17.8711 29.9805V67.1875C17.8711 68.0664 17.7572 68.6849 17.5293 69.043C17.3014 69.401 16.8783 69.7265 16.2598 70.0195C14.8601 70.8007 13.7207 71.8668 12.8418 73.2178C11.9629 74.5687 11.5235 76.1068 11.5235 77.832C11.5235 80.306 12.3861 82.4056 14.1114 84.1308C15.8366 85.8561 17.9199 86.7187 20.3614 86.7187Z" fill="#FE453A"/>
<path d="M38.6231 59.1797C42.1712 59.1797 45.3939 58.3252 48.291 56.6162C51.1881 54.9072 53.4993 52.596 55.2246 49.6826C56.9499 46.7692 57.8125 43.5384 57.8125 39.9902C57.8125 36.4421 56.9499 33.2113 55.2246 30.2979C53.4993 27.3844 51.1881 25.0651 48.291 23.3399C45.3939 21.6146 42.1712 20.752 38.6231 20.752C38.3301 20.752 38.0534 20.7683 37.793 20.8008C37.5326 20.8333 37.2559 20.8659 36.9629 20.8984C37.2233 21.7773 37.4105 22.7051 37.5244 23.6816C37.6383 24.6582 37.6953 25.6673 37.6953 26.709L37.6465 59.1309C37.8092 59.1634 37.972 59.1797 38.1348 59.1797C38.2975 59.1797 38.4603 59.1797 38.6231 59.1797ZM38.6231 14.9414C39.6322 14.9414 40.4948 14.5752 41.211 13.8428C41.9271 13.1104 42.2852 12.2559 42.2852 11.2793V3.6621C42.2852 2.65297 41.9271 1.79033 41.211 1.0742C40.4948 0.358063 39.6322 0 38.6231 0C37.614 0 36.7513 0.358063 36.0352 1.0742C35.3191 1.79033 34.961 2.65297 34.961 3.6621V11.2793C34.961 12.2559 35.3191 13.1104 36.0352 13.8428C36.7513 14.5752 37.614 14.9414 38.6231 14.9414ZM56.2989 22.3145C56.9824 23.0306 57.845 23.3887 58.8867 23.3887C59.9284 23.3887 60.8073 23.0306 61.5235 22.3145L66.8946 16.8945C67.6107 16.1784 67.9607 15.3157 67.9444 14.3066C67.9281 13.2975 67.5781 12.4349 66.8946 11.7188C66.1784 11.0352 65.3239 10.6934 64.3311 10.6934C63.3382 10.6934 62.4837 11.0352 61.7676 11.7188L56.2989 17.1875C55.6153 17.9036 55.2735 18.7581 55.2735 19.751C55.2735 20.7438 55.6153 21.5983 56.2989 22.3145ZM67.2364 43.6524H74.8535C75.8626 43.6524 76.7171 43.2943 77.417 42.5781C78.1169 41.862 78.4668 40.9993 78.4668 39.9902C78.4668 38.9811 78.1169 38.1185 77.417 37.4024C76.7171 36.6862 75.8626 36.3281 74.8535 36.3281H67.2364C66.2598 36.3281 65.4053 36.6862 64.6729 37.4024C63.9404 38.1185 63.5742 38.9811 63.5742 39.9902C63.5742 40.9993 63.9404 41.862 64.6729 42.5781C65.4053 43.2943 66.2598 43.6524 67.2364 43.6524ZM61.7676 68.2617C62.4837 68.9778 63.3382 69.3278 64.3311 69.3115C65.3239 69.2952 66.1784 68.9453 66.8946 68.2617C67.5781 67.5456 67.9281 66.6829 67.9444 65.6738C67.9607 64.6647 67.6107 63.8184 66.8946 63.1348L61.4258 57.7149C60.7097 57.0313 59.8552 56.6813 58.8623 56.665C57.8695 56.6487 57.015 56.9987 56.2989 57.7149C55.6153 58.431 55.2735 59.2936 55.2735 60.3027C55.2735 61.3118 55.6153 62.1745 56.2989 62.8906L61.7676 68.2617Z" fill="#FFD60A"/>
</svg>
