<svg width="94" height="67" viewBox="0 0 94 67" fill="none" xmlns="http://www.w3.org/2000/svg">
<path d="M30.3711 66.8945H77.7832C81.0059 66.8945 83.8298 66.1865 86.2549 64.7705C88.68 63.3545 90.568 61.4746 91.9189 59.1309C93.2698 56.7871 93.9453 54.1829 93.9453 51.3184C93.9453 47.5098 92.7653 44.1813 90.4053 41.333C88.0452 38.4847 85.0748 36.6862 81.4941 35.9375C81.2662 32.8125 80.3304 29.9723 78.6865 27.417C77.0426 24.8617 74.9023 22.8272 72.2656 21.3135C69.6289 19.7998 66.7155 19.043 63.5254 19.043C60.4655 19.043 57.6334 19.7591 55.0293 21.1914C52.4251 22.6237 50.3092 24.5442 48.6816 26.9531C47.1517 26.4323 45.5729 26.1719 43.9453 26.1719C40.2669 26.1719 37.0605 27.36 34.3262 29.7363C31.5918 32.1126 29.9479 35.0912 29.3945 38.6719C26.8554 38.737 24.5524 39.4124 22.4853 40.6982C20.4183 41.9841 18.7826 43.6768 17.5781 45.7764C16.3737 47.876 15.7715 50.1953 15.7715 52.7344C15.7715 55.3385 16.3737 57.7148 17.5781 59.8633C18.7826 62.0117 20.4834 63.7207 22.6807 64.9902C24.878 66.2598 27.4414 66.8945 30.3711 66.8945ZM11.3281 47.0703C11.9792 44.5312 12.9639 42.3177 14.2822 40.4297C15.6006 38.5417 17.2038 36.9955 19.0918 35.791C20.9798 34.5866 23.0957 33.7403 25.4394 33.252C26.4811 30.2246 27.9703 27.7344 29.9072 25.7813C31.8441 23.8282 34.0902 22.3796 36.6455 21.4355C39.2008 20.4915 41.9108 20.0195 44.7754 20.0195C45.1009 20.0195 45.4509 20.0358 45.8252 20.0684C46.1995 20.1009 46.5657 20.1335 46.9238 20.166C48.5189 17.8223 50.5127 16.0563 52.9053 14.8682C55.2978 13.68 58.0403 13.0534 61.1328 12.9883C60.5143 11.4909 59.2611 10.1237 57.373 8.8867C55.485 7.64976 53.0273 7.0313 50 7.0313C49.1537 7.0313 48.348 7.11266 47.583 7.2754C46.818 7.43813 46.0449 7.64973 45.2637 7.9102C43.6361 5.53386 41.5283 3.62143 38.9404 2.1729C36.3525 0.724297 33.5124 0 30.4199 0C27.2624 0 24.3652 0.756834 21.7285 2.2705C19.0918 3.78417 16.9433 5.81866 15.2832 8.374C13.6231 10.9293 12.6791 13.7695 12.4512 16.8945C8.87048 17.6758 5.90009 19.4906 3.54004 22.3389C1.18001 25.1872 0 28.4831 0 32.2266C0 35.5795 0.99284 38.6068 2.97852 41.3086C4.96419 44.0104 7.74739 45.931 11.3281 47.0703Z" fill="#808080"/>
</svg>
