<svg width="102" height="96" viewBox="0 0 102 96" fill="none" xmlns="http://www.w3.org/2000/svg">
<path d="M16.2597 65.5284H57.5195C61.1654 65.5284 64.4694 64.682 67.4316 62.9893C70.3939 61.2966 72.7377 59.0017 74.4629 56.1046C76.1882 53.2075 77.0508 49.9685 77.0508 46.3878C77.0508 42.8071 76.1638 39.5925 74.3896 36.7442C72.6156 33.8959 70.2067 31.6417 67.1631 29.9815C64.1195 28.3214 60.6608 27.475 56.7871 27.4425C55.3223 24.643 53.4831 22.2423 51.2695 20.2403C49.056 18.2384 46.5739 16.7084 43.8232 15.6505C41.0726 14.5926 38.151 14.0636 35.0586 14.0636C30.8594 14.0636 26.9775 15.0402 23.4131 16.9933C19.8487 18.9464 16.9108 21.6075 14.5996 24.9767C12.2884 28.3458 10.9375 32.13 10.5469 36.3292C7.32423 37.3057 4.76074 39.0961 2.85644 41.7003C0.952147 44.3044 0 47.2992 0 50.6847C0 55.1118 1.50553 58.6925 4.5166 61.4268C7.52768 64.1612 11.4421 65.5284 16.2597 65.5284Z" fill="#808080"/>
<path d="M82.3242 45.8018C85.1888 45.3135 87.7767 44.4021 90.0879 43.0675C92.3991 41.7328 94.3848 40.1622 96.0449 38.3556C97.7049 36.5489 98.9746 34.6772 99.8539 32.7403C100.733 30.8034 101.172 29.0049 101.172 27.3448C101.172 26.4985 101.001 25.8067 100.659 25.2696C100.318 24.7325 99.8213 24.464 99.1699 24.464C98.4866 24.464 97.7136 24.6837 96.8509 25.1231C95.9881 25.5626 94.93 25.9939 93.6767 26.4171C92.4235 26.8402 90.8529 27.0518 88.9648 27.0518C84.375 27.0518 80.7292 25.7904 78.0273 23.2677C75.3255 20.7449 73.9747 17.3839 73.9747 13.1847C73.9747 11.4594 74.2188 9.89692 74.7071 8.49718C75.1953 7.09745 75.6754 5.86045 76.1474 4.78618C76.6194 3.71198 76.8554 2.81682 76.8554 2.10068C76.8554 0.668349 76.0579 -0.0315118 74.4629 0.00108821C72.2819 0.00108821 69.8893 0.782318 67.2851 2.34478C64.681 3.90732 62.3128 6.03135 60.1806 8.71689C58.0485 11.4024 56.5918 14.4867 55.8105 17.9698C56.4291 18.5557 57.0557 19.2556 57.6904 20.0694C58.3252 20.8832 58.903 21.8435 59.4238 22.9503C63.8184 23.3084 67.7328 24.5779 71.167 26.7589C74.6012 28.9399 77.3112 31.6986 79.2969 35.0352C81.2826 38.3718 82.2917 41.9607 82.3242 45.8018Z" fill="#FFD60A"/>
<path d="M46.1426 83.6437L50.8789 75.4406C51.237 74.8221 51.3265 74.171 51.1474 73.4874C50.9684 72.8038 50.5696 72.283 49.9511 71.9249C49.2676 71.5343 48.6003 71.4366 47.9492 71.632C47.2981 71.8273 46.7773 72.2342 46.3867 72.8527L41.6015 81.1534C41.2434 81.7394 41.1539 82.366 41.333 83.0333C41.512 83.7006 41.9433 84.2296 42.6269 84.6202C43.2454 84.9783 43.8965 85.0597 44.5801 84.8644C45.2636 84.6691 45.7845 84.2622 46.1426 83.6437ZM15.7226 83.6925L20.459 75.4894C20.8171 74.8709 20.9066 74.2198 20.7275 73.5363C20.5485 72.8527 20.1335 72.3318 19.4824 71.9738C18.8313 71.5831 18.1803 71.4855 17.5293 71.6808C16.8782 71.8761 16.3574 72.283 15.9668 72.9015L11.1816 81.2023C10.8235 81.7882 10.734 82.4148 10.9131 83.0822C11.0921 83.7495 11.5071 84.2784 12.1582 84.6691C12.8092 85.0271 13.4765 85.1085 14.1601 84.9132C14.8437 84.7179 15.3645 84.311 15.7226 83.6925ZM27.6367 94.4835L32.373 86.2804C32.7637 85.6619 32.8613 85.0109 32.666 84.3273C32.4707 83.6437 32.0638 83.1228 31.4453 82.7648C30.7617 82.3741 30.0944 82.2684 29.4433 82.4474C28.7923 82.6264 28.2715 83.0415 27.8808 83.6925L23.1445 91.9933C22.7864 92.5793 22.6888 93.2059 22.8515 93.8731C23.0143 94.5405 23.4375 95.0694 24.1211 95.46C24.7396 95.8182 25.3906 95.8996 26.0742 95.7042C26.7578 95.5089 27.2786 95.102 27.6367 94.4835ZM58.0566 94.4347L62.7929 86.2316C63.1836 85.6131 63.2812 84.962 63.0859 84.2784C62.8906 83.5949 62.4837 83.074 61.8652 82.7159C61.2142 82.3253 60.555 82.2277 59.8877 82.423C59.2204 82.6183 58.6914 83.0252 58.3008 83.6437L53.5644 91.9444C53.2063 92.5304 53.1168 93.157 53.2959 93.8243C53.4749 94.4917 53.8899 95.0206 54.541 95.4112C55.1595 95.7693 55.8105 95.8507 56.4941 95.6554C57.1777 95.4601 57.6985 95.0532 58.0566 94.4347Z" fill="#497DFA"/>
</svg>
