<svg width="77" height="77" viewBox="0 0 77 77" fill="none" xmlns="http://www.w3.org/2000/svg">
<path d="M60.0586 51.6601C53.0924 51.6601 47.0622 50.3011 41.9678 47.583C36.8734 44.8649 32.9427 40.9912 30.1758 35.9619C27.4088 30.9326 26.0254 24.9186 26.0254 17.9199C26.0254 16.5852 26.1393 15.0553 26.3672 13.33C26.595 11.6047 26.8961 9.92017 27.2705 8.27631C27.6449 6.63244 28.0436 5.30593 28.4668 4.2968C28.6621 3.80853 28.7842 3.40164 28.833 3.0761C28.8818 2.75057 28.9063 2.49017 28.9063 2.2949C28.9063 1.77403 28.7109 1.26134 28.3203 0.756805C27.9297 0.252272 27.3275 0 26.5137 0C26.2858 0 25.9359 0.0325362 25.4639 0.0976028C24.9919 0.162736 24.5117 0.292938 24.0235 0.488205C19.2383 2.37627 15.039 5.2246 11.4258 9.0332C7.81249 12.8418 5.00488 17.2445 3.00293 22.2412C1.00098 27.2379 0 32.4544 0 37.8906C0 43.6197 1.01725 48.8769 3.05176 53.6621C5.08629 58.4472 7.92646 62.5732 11.5723 66.04C15.2181 69.5068 19.4825 72.1923 24.3653 74.0966C29.2481 76.0009 34.554 76.9531 40.2832 76.9531C45.8822 76.9531 51.0987 75.9358 55.9327 73.9013C60.7666 71.8668 64.9333 69.1325 68.4327 65.6982C71.932 62.2639 74.4792 58.4472 76.0743 54.248C76.237 53.7272 76.3509 53.2389 76.4161 52.7832C76.4811 52.3275 76.5137 52.0019 76.5137 51.8066C76.5137 51.0253 76.2533 50.415 75.7325 49.9755C75.2116 49.5361 74.6745 49.3164 74.1211 49.3164C73.6328 49.3164 73.0143 49.4303 72.2657 49.6582C70.7683 50.1465 68.9372 50.6022 66.7725 51.0254C64.6077 51.4485 62.3698 51.6601 60.0586 51.6601Z" fill="#FFD60A"/>
</svg>
