<?xml version="1.0" encoding="UTF-8"?>
<!--Generator: Apple Native CoreSVG 175-->
<!DOCTYPE svg
PUBLIC "-//W3C//DTD SVG 1.1//EN"
       "http://www.w3.org/Graphics/SVG/1.1/DTD/svg11.dtd">
<svg version="1.1" xmlns="http://www.w3.org/2000/svg" xmlns:xlink="http://www.w3.org/1999/xlink" width="3300" height="2200">
 <!--glyph: "uni1001EA.medium", point size: 100.0, font version: "17.3d3e1", template writer version: "65.1"-->
 <style>.hierarchical-0:secondary {fill:#4D4D4D}
.hierarchical-1:primary {fill:#212121;-sfsymbols-clear-behind:true}

.SFSymbolsPreview212121 {fill:#212121;opacity:1.0}
.SFSymbolsPreview4D4D4D {fill:#4D4D4D;opacity:1.0}
</style>
 <g id="Notes">
  <rect height="2200" id="artboard" style="fill:white;opacity:1" width="3300" x="0" y="0"/>
  <line style="fill:none;stroke:black;opacity:1;stroke-width:0.5;" x1="263" x2="3036" y1="292" y2="292"/>
  <text style="stroke:none;fill:black;font-family:sans-serif;font-size:13;font-weight:bold;" transform="matrix(1 0 0 1 263 322)">Weight/Scale Variations</text>
  <text style="stroke:none;fill:black;font-family:sans-serif;font-size:13;text-anchor:middle;" transform="matrix(1 0 0 1 559.711 322)">Ultralight</text>
  <text style="stroke:none;fill:black;font-family:sans-serif;font-size:13;text-anchor:middle;" transform="matrix(1 0 0 1 856.422 322)">Thin</text>
  <text style="stroke:none;fill:black;font-family:sans-serif;font-size:13;text-anchor:middle;" transform="matrix(1 0 0 1 1153.13 322)">Light</text>
  <text style="stroke:none;fill:black;font-family:sans-serif;font-size:13;text-anchor:middle;" transform="matrix(1 0 0 1 1449.84 322)">Regular</text>
  <text style="stroke:none;fill:black;font-family:sans-serif;font-size:13;text-anchor:middle;" transform="matrix(1 0 0 1 1746.56 322)">Medium</text>
  <text style="stroke:none;fill:black;font-family:sans-serif;font-size:13;text-anchor:middle;" transform="matrix(1 0 0 1 2043.27 322)">Semibold</text>
  <text style="stroke:none;fill:black;font-family:sans-serif;font-size:13;text-anchor:middle;" transform="matrix(1 0 0 1 2339.98 322)">Bold</text>
  <text style="stroke:none;fill:black;font-family:sans-serif;font-size:13;text-anchor:middle;" transform="matrix(1 0 0 1 2636.69 322)">Heavy</text>
  <text style="stroke:none;fill:black;font-family:sans-serif;font-size:13;text-anchor:middle;" transform="matrix(1 0 0 1 2933.4 322)">Black</text>
  <line style="fill:none;stroke:black;opacity:1;stroke-width:0.5;" x1="263" x2="3036" y1="1903" y2="1903"/>
  <g transform="matrix(1 0 0 1 263 1933)">
   <path d="M9.24805 0.830078Q10.8691 0.830078 12.2949 0.214844Q13.7207-0.400391 14.8096-1.49414Q15.8984-2.58789 16.5186-4.01367Q17.1387-5.43945 17.1387-7.05078Q17.1387-8.66211 16.5186-10.0879Q15.8984-11.5137 14.8047-12.6074Q13.7109-13.7012 12.2852-14.3164Q10.8594-14.9316 9.23828-14.9316Q7.62695-14.9316 6.20117-14.3164Q4.77539-13.7012 3.69141-12.6074Q2.60742-11.5137 1.9873-10.0879Q1.36719-8.66211 1.36719-7.05078Q1.36719-5.43945 1.9873-4.01367Q2.60742-2.58789 3.69629-1.49414Q4.78516-0.400391 6.21094 0.214844Q7.63672 0.830078 9.24805 0.830078ZM9.24805-0.654297Q7.91992-0.654297 6.7627-1.14746Q5.60547-1.64062 4.73145-2.51953Q3.85742-3.39844 3.36426-4.56055Q2.87109-5.72266 2.87109-7.05078Q2.87109-8.37891 3.35938-9.54102Q3.84766-10.7031 4.72168-11.582Q5.5957-12.4609 6.75293-12.9541Q7.91016-13.4473 9.23828-13.4473Q10.5762-13.4473 11.7334-12.9541Q12.8906-12.4609 13.7695-11.582Q14.6484-10.7031 15.1465-9.54102Q15.6445-8.37891 15.6445-7.05078Q15.6445-5.72266 15.1514-4.56055Q14.6582-3.39844 13.7842-2.51953Q12.9102-1.64062 11.748-1.14746Q10.5859-0.654297 9.24805-0.654297ZM5.6543-7.05078Q5.6543-6.72852 5.85938-6.52832Q6.06445-6.32812 6.40625-6.32812L8.51562-6.32812L8.51562-4.20898Q8.51562-3.88672 8.71094-3.67676Q8.90625-3.4668 9.23828-3.4668Q9.56055-3.4668 9.77051-3.67676Q9.98047-3.88672 9.98047-4.20898L9.98047-6.32812L12.0898-6.32812Q12.4219-6.32812 12.627-6.52832Q12.832-6.72852 12.832-7.05078Q12.832-7.38281 12.627-7.58789Q12.4219-7.79297 12.0898-7.79297L9.98047-7.79297L9.98047-9.90234Q9.98047-10.2344 9.77051-10.4443Q9.56055-10.6543 9.23828-10.6543Q8.90625-10.6543 8.71094-10.4443Q8.51562-10.2344 8.51562-9.90234L8.51562-7.79297L6.40625-7.79297Q6.06445-7.79297 5.85938-7.58789Q5.6543-7.38281 5.6543-7.05078Z"/>
  </g>
  <g transform="matrix(1 0 0 1 281.867 1933)">
   <path d="M11.709 2.91016Q13.75 2.91016 15.5518 2.12891Q17.3535 1.34766 18.7305-0.0292969Q20.1074-1.40625 20.8887-3.20801Q21.6699-5.00977 21.6699-7.05078Q21.6699-9.0918 20.8887-10.8936Q20.1074-12.6953 18.7305-14.0723Q17.3535-15.4492 15.5469-16.2305Q13.7402-17.0117 11.6992-17.0117Q9.6582-17.0117 7.85645-16.2305Q6.05469-15.4492 4.68262-14.0723Q3.31055-12.6953 2.5293-10.8936Q1.74805-9.0918 1.74805-7.05078Q1.74805-5.00977 2.5293-3.20801Q3.31055-1.40625 4.6875-0.0292969Q6.06445 1.34766 7.86621 2.12891Q9.66797 2.91016 11.709 2.91016ZM11.709 1.25Q9.98047 1.25 8.47656 0.605469Q6.97266-0.0390625 5.83496-1.17676Q4.69727-2.31445 4.05762-3.81836Q3.41797-5.32227 3.41797-7.05078Q3.41797-8.7793 4.05762-10.2832Q4.69727-11.7871 5.83008-12.9297Q6.96289-14.0723 8.4668-14.7119Q9.9707-15.3516 11.6992-15.3516Q13.4277-15.3516 14.9316-14.7119Q16.4355-14.0723 17.5781-12.9297Q18.7207-11.7871 19.3652-10.2832Q20.0098-8.7793 20.0098-7.05078Q20.0098-5.32227 19.3701-3.81836Q18.7305-2.31445 17.5928-1.17676Q16.4551-0.0390625 14.9463 0.605469Q13.4375 1.25 11.709 1.25ZM7.17773-7.05078Q7.17773-6.69922 7.41211-6.47461Q7.64648-6.25 8.01758-6.25L10.8887-6.25L10.8887-3.36914Q10.8887-2.99805 11.1133-2.76855Q11.3379-2.53906 11.6895-2.53906Q12.0605-2.53906 12.29-2.76855Q12.5195-2.99805 12.5195-3.36914L12.5195-6.25L15.4004-6.25Q15.7715-6.25 16.001-6.47461Q16.2305-6.69922 16.2305-7.05078Q16.2305-7.42188 16.001-7.65137Q15.7715-7.88086 15.4004-7.88086L12.5195-7.88086L12.5195-10.752Q12.5195-11.1328 12.29-11.3623Q12.0605-11.5918 11.6895-11.5918Q11.3379-11.5918 11.1133-11.3574Q10.8887-11.123 10.8887-10.752L10.8887-7.88086L8.01758-7.88086Q7.63672-7.88086 7.40723-7.65137Q7.17773-7.42188 7.17773-7.05078Z"/>
  </g>
  <g transform="matrix(1 0 0 1 305.646 1933)">
   <path d="M14.9707 5.66406Q17.0605 5.66406 18.96 5.01465Q20.8594 4.36523 22.4512 3.19336Q24.043 2.02148 25.2197 0.429688Q26.3965-1.16211 27.0459-3.06641Q27.6953-4.9707 27.6953-7.05078Q27.6953-9.14062 27.0459-11.04Q26.3965-12.9395 25.2197-14.5312Q24.043-16.123 22.4512-17.2998Q20.8594-18.4766 18.9551-19.126Q17.0508-19.7754 14.9609-19.7754Q12.8711-19.7754 10.9717-19.126Q9.07227-18.4766 7.48535-17.2998Q5.89844-16.123 4.72168-14.5312Q3.54492-12.9395 2.90039-11.04Q2.25586-9.14062 2.25586-7.05078Q2.25586-4.9707 2.90527-3.06641Q3.55469-1.16211 4.72656 0.429688Q5.89844 2.02148 7.49023 3.19336Q9.08203 4.36523 10.9814 5.01465Q12.8809 5.66406 14.9707 5.66406ZM14.9707 3.84766Q13.1641 3.84766 11.5283 3.2959Q9.89258 2.74414 8.53516 1.74805Q7.17773 0.751953 6.17676-0.610352Q5.17578-1.97266 4.62891-3.6084Q4.08203-5.24414 4.08203-7.05078Q4.08203-8.86719 4.62891-10.5029Q5.17578-12.1387 6.17188-13.501Q7.16797-14.8633 8.52539-15.8594Q9.88281-16.8555 11.5186-17.4023Q13.1543-17.9492 14.9609-17.9492Q16.7773-17.9492 18.4131-17.4023Q20.0488-16.8555 21.4111-15.8594Q22.7734-14.8633 23.7695-13.501Q24.7656-12.1387 25.3174-10.5029Q25.8691-8.86719 25.8691-7.05078Q25.8789-5.24414 25.332-3.6084Q24.7852-1.97266 23.7842-0.610352Q22.7832 0.751953 21.4209 1.74805Q20.0586 2.74414 18.4229 3.2959Q16.7871 3.84766 14.9707 3.84766ZM9.19922-7.05078Q9.19922-6.66992 9.45801-6.4209Q9.7168-6.17188 10.1172-6.17188L14.0625-6.17188L14.0625-2.2168Q14.0625-1.81641 14.3115-1.55762Q14.5605-1.29883 14.9512-1.29883Q15.3516-1.29883 15.6104-1.55273Q15.8691-1.80664 15.8691-2.2168L15.8691-6.17188L19.8242-6.17188Q20.2246-6.17188 20.4785-6.4209Q20.7324-6.66992 20.7324-7.05078Q20.7324-7.46094 20.4785-7.71484Q20.2246-7.96875 19.8242-7.96875L15.8691-7.96875L15.8691-11.9141Q15.8691-12.3242 15.6104-12.583Q15.3516-12.8418 14.9512-12.8418Q14.5605-12.8418 14.3115-12.583Q14.0625-12.3242 14.0625-11.9141L14.0625-7.96875L10.1172-7.96875Q9.70703-7.96875 9.45312-7.71484Q9.19922-7.46094 9.19922-7.05078Z"/>
  </g>
  <text style="stroke:none;fill:black;font-family:sans-serif;font-size:13;font-weight:bold;" transform="matrix(1 0 0 1 263 1953)">Design Variations</text>
  <text style="stroke:none;fill:black;font-family:sans-serif;font-size:13;" transform="matrix(1 0 0 1 263 1971)">Symbols are supported in up to nine weights and three scales.</text>
  <text style="stroke:none;fill:black;font-family:sans-serif;font-size:13;" transform="matrix(1 0 0 1 263 1989)">For optimal layout with text and other symbols, vertically align</text>
  <text style="stroke:none;fill:black;font-family:sans-serif;font-size:13;" transform="matrix(1 0 0 1 263 2007)">symbols with the adjacent text.</text>
  <line style="fill:none;stroke:#00AEEF;stroke-width:0.5;opacity:1.0;" x1="776" x2="776" y1="1919" y2="1933"/>
  <g transform="matrix(1 0 0 1 776 1933)">
   <path d="M3.31055 0.15625Q3.70117 0.15625 3.91602-0.00976562Q4.13086-0.175781 4.26758-0.585938L5.52734-4.0332L11.2891-4.0332L12.5488-0.585938Q12.6855-0.175781 12.9004-0.00976562Q13.1152 0.15625 13.4961 0.15625Q13.8867 0.15625 14.1162-0.0585938Q14.3457-0.273438 14.3457-0.644531Q14.3457-0.869141 14.2383-1.17188L9.6582-13.3691Q9.48242-13.8184 9.17969-14.043Q8.87695-14.2676 8.4082-14.2676Q7.5-14.2676 7.17773-13.3789L2.59766-1.16211Q2.49023-0.859375 2.49023-0.634766Q2.49023-0.263672 2.70996-0.0537109Q2.92969 0.15625 3.31055 0.15625ZM6.00586-5.51758L8.37891-12.0898L8.42773-12.0898L10.8008-5.51758Z"/>
  </g>
  <line style="fill:none;stroke:#00AEEF;stroke-width:0.5;opacity:1.0;" x1="793.197" x2="793.197" y1="1919" y2="1933"/>
  <text style="stroke:none;fill:black;font-family:sans-serif;font-size:13;font-weight:bold;" transform="matrix(1 0 0 1 776 1953)">Margins</text>
  <text style="stroke:none;fill:black;font-family:sans-serif;font-size:13;" transform="matrix(1 0 0 1 776 1971)">Leading and trailing margins on the left and right side of each symbol</text>
  <text style="stroke:none;fill:black;font-family:sans-serif;font-size:13;" transform="matrix(1 0 0 1 776 1989)">can be adjusted by modifying the x-location of the margin guidelines.</text>
  <text style="stroke:none;fill:black;font-family:sans-serif;font-size:13;" transform="matrix(1 0 0 1 776 2007)">Modifications are automatically applied proportionally to all</text>
  <text style="stroke:none;fill:black;font-family:sans-serif;font-size:13;" transform="matrix(1 0 0 1 776 2025)">scales and weights.</text>
  <g transform="matrix(1 0 0 1 1289 1933)">
   <path d="M2.8418 1.86523L4.54102 3.57422Q5.18555 4.22852 5.90332 4.17969Q6.62109 4.13086 7.31445 3.35938L18.0078-8.42773L17.041-9.4043L6.42578 2.27539Q6.16211 2.57812 5.89355 2.61719Q5.625 2.65625 5.27344 2.30469L4.10156 1.14258Q3.75 0.791016 3.79395 0.522461Q3.83789 0.253906 4.14062-0.0195312L15.6152-10.8203L14.6387-11.7871L3.04688-0.898438Q2.30469-0.214844 2.25098 0.498047Q2.19727 1.21094 2.8418 1.86523ZM9.25781-16.3281Q8.94531-16.0254 8.90625-15.6348Q8.86719-15.2441 9.04297-14.9512Q9.21875-14.6777 9.55566-14.541Q9.89258-14.4043 10.3809-14.5215Q11.4746-14.7754 12.5977-14.7314Q13.7207-14.6875 14.7949-13.9844L14.209-12.5293Q13.9551-11.9043 14.0674-11.4404Q14.1797-10.9766 14.5801-10.5664L16.875-8.25195Q17.2363-7.88086 17.5781-7.82227Q17.9199-7.76367 18.3398-7.8418L19.4043-8.03711L20.0684-7.36328L20.0293-6.80664Q20-6.43555 20.1221-6.12305Q20.2441-5.81055 20.6055-5.44922L21.3672-4.70703Q21.7285-4.3457 22.1533-4.33105Q22.5781-4.31641 22.9297-4.66797L25.8398-7.58789Q26.1914-7.93945 26.1816-8.35449Q26.1719-8.76953 25.8105-9.13086L25.0391-9.89258Q24.6875-10.2539 24.3799-10.3857Q24.0723-10.5176 23.7109-10.4883L23.1348-10.4395L22.4902-11.0742L22.7344-12.1973Q22.832-12.6172 22.6953-12.9834Q22.5586-13.3496 22.1191-13.7891L19.9219-15.9766Q18.6719-17.2168 17.2607-17.8369Q15.8496-18.457 14.4189-18.4814Q12.9883-18.5059 11.665-17.959Q10.3418-17.4121 9.25781-16.3281ZM10.752-15.957Q11.6602-16.6211 12.7002-16.9043Q13.7402-17.1875 14.8047-17.085Q15.8691-16.9824 16.8701-16.5137Q17.8711-16.0449 18.7012-15.2051L21.1328-12.793Q21.3086-12.6172 21.3525-12.4512Q21.3965-12.2852 21.3379-12.0312L21.0156-10.5469L22.5195-9.0625L23.5059-9.12109Q23.6914-9.13086 23.7891-9.09668Q23.8867-9.0625 24.0332-8.91602L24.6094-8.33984L22.168-5.89844L21.5918-6.47461Q21.4453-6.62109 21.4062-6.71875Q21.3672-6.81641 21.377-7.01172L21.4453-7.98828L19.9512-9.47266L18.4277-9.21875Q18.1836-9.16992 18.042-9.2041Q17.9004-9.23828 17.7148-9.41406L15.7129-11.416Q15.5176-11.5918 15.4932-11.7529Q15.4688-11.9141 15.5859-12.1875L16.4648-14.2773Q15.293-15.3711 13.8281-15.791Q12.3633-16.2109 10.8398-15.7617Q10.7227-15.7324 10.6885-15.8057Q10.6543-15.8789 10.752-15.957Z"/>
  </g>
  <text style="stroke:none;fill:black;font-family:sans-serif;font-size:13;font-weight:bold;" transform="matrix(1 0 0 1 1289 1953)">Exporting</text>
  <text style="stroke:none;fill:black;font-family:sans-serif;font-size:13;" transform="matrix(1 0 0 1 1289 1971)">Symbols should be outlined when exporting to ensure the</text>
  <text style="stroke:none;fill:black;font-family:sans-serif;font-size:13;" transform="matrix(1 0 0 1 1289 1989)">design is preserved when submitting to Xcode.</text>
  <text id="template-version" style="stroke:none;fill:black;font-family:sans-serif;font-size:13;text-anchor:end;" transform="matrix(1 0 0 1 3036 1933)">Template v.3.0</text>
  <text style="stroke:none;fill:black;font-family:sans-serif;font-size:13;text-anchor:end;" transform="matrix(1 0 0 1 3036 1951)">Requires Xcode 13 or greater</text>
  <text id="descriptive-name" style="stroke:none;fill:black;font-family:sans-serif;font-size:13;text-anchor:end;" transform="matrix(1 0 0 1 3036 1969)">Generated from thermometer.sun</text>
  <text style="stroke:none;fill:black;font-family:sans-serif;font-size:13;text-anchor:end;" transform="matrix(1 0 0 1 3036 1987)">Typeset at 100 points</text>
  <text style="stroke:none;fill:black;font-family:sans-serif;font-size:13;" transform="matrix(1 0 0 1 263 726)">Small</text>
  <text style="stroke:none;fill:black;font-family:sans-serif;font-size:13;" transform="matrix(1 0 0 1 263 1156)">Medium</text>
  <text style="stroke:none;fill:black;font-family:sans-serif;font-size:13;" transform="matrix(1 0 0 1 263 1586)">Large</text>
 </g>
 <g id="Guides">
  <g id="H-reference" style="fill:#27AAE1;stroke:none;" transform="matrix(1 0 0 1 339 696)">
   <path d="M0.993347 0L3.6377 0L29.3282-67.1326L30.0301-67.1326L30.0301-70.459L28.1227-70.459ZM11.6882-24.4797L46.9818-24.4797L46.2311-26.7288L12.4382-26.7288ZM55.1193 0L57.7637 0L30.6381-70.459L29.4327-70.459L29.4327-67.1326Z"/>
  </g>
  <line id="Baseline-S" style="fill:none;stroke:#27AAE1;opacity:1;stroke-width:0.5;" x1="263" x2="3036" y1="696" y2="696"/>
  <line id="Capline-S" style="fill:none;stroke:#27AAE1;opacity:1;stroke-width:0.5;" x1="263" x2="3036" y1="625.541" y2="625.541"/>
  <g id="H-reference" style="fill:#27AAE1;stroke:none;" transform="matrix(1 0 0 1 339 1126)">
   <path d="M0.993347 0L3.6377 0L29.3282-67.1326L30.0301-67.1326L30.0301-70.459L28.1227-70.459ZM11.6882-24.4797L46.9818-24.4797L46.2311-26.7288L12.4382-26.7288ZM55.1193 0L57.7637 0L30.6381-70.459L29.4327-70.459L29.4327-67.1326Z"/>
  </g>
  <line id="Baseline-M" style="fill:none;stroke:#27AAE1;opacity:1;stroke-width:0.5;" x1="263" x2="3036" y1="1126" y2="1126"/>
  <line id="Capline-M" style="fill:none;stroke:#27AAE1;opacity:1;stroke-width:0.5;" x1="263" x2="3036" y1="1055.54" y2="1055.54"/>
  <g id="H-reference" style="fill:#27AAE1;stroke:none;" transform="matrix(1 0 0 1 339 1556)">
   <path d="M0.993347 0L3.6377 0L29.3282-67.1326L30.0301-67.1326L30.0301-70.459L28.1227-70.459ZM11.6882-24.4797L46.9818-24.4797L46.2311-26.7288L12.4382-26.7288ZM55.1193 0L57.7637 0L30.6381-70.459L29.4327-70.459L29.4327-67.1326Z"/>
  </g>
  <line id="Baseline-L" style="fill:none;stroke:#27AAE1;opacity:1;stroke-width:0.5;" x1="263" x2="3036" y1="1556" y2="1556"/>
  <line id="Capline-L" style="fill:none;stroke:#27AAE1;opacity:1;stroke-width:0.5;" x1="263" x2="3036" y1="1485.54" y2="1485.54"/>
  <line id="left-margin-Ultralight-S" style="fill:none;stroke:#00AEEF;stroke-width:0.5;opacity:1.0;" x1="520.464" x2="520.464" y1="600.785" y2="720.121"/>
  <line id="right-margin-Ultralight-S" style="fill:none;stroke:#FF3B30;stroke-width:0.5;opacity:1.0;" x1="598.958" x2="598.958" y1="600.785" y2="720.121"/>
  <line id="left-margin-Regular-S" style="fill:none;stroke:#00AEEF;stroke-width:0.5;opacity:1.0;" x1="1409.12" x2="1409.12" y1="600.785" y2="720.121"/>
  <line id="right-margin-Regular-S" style="fill:none;stroke:#FF3B30;stroke-width:0.5;opacity:1.0;" x1="1490.57" x2="1490.57" y1="600.785" y2="720.121"/>
  <line id="left-margin-Black-S" style="fill:none;stroke:#00AEEF;stroke-width:0.5;opacity:1.0;" x1="2886.92" x2="2886.92" y1="600.785" y2="720.121"/>
  <line id="right-margin-Black-S" style="fill:none;stroke:#FF3B30;stroke-width:0.5;opacity:1.0;" x1="2979.88" x2="2979.88" y1="600.785" y2="720.121"/>
 </g>
 <g id="Symbols">
  <g id="Black-S" transform="matrix(1 0 0 1 2886.92 696)">
   <path class="hierarchical-0:secondary SFSymbolsPreview4D4D4D" d="M57.8613-27.1484Q63.7207-27.1484 68.5059-30.0049Q73.291-32.8613 76.123-37.6709Q78.9551-42.4805 78.9551-48.3887Q78.9551-54.2969 76.123-59.082Q73.291-63.8672 68.5059-66.7236Q63.7207-69.5801 57.8613-69.5801Q53.9551-69.5801 50.4639-68.2861Q46.9727-66.9922 44.2383-64.6973L50-56.4453Q53.2227-59.5703 57.8125-59.5703Q60.8887-59.5703 63.4277-58.0566Q65.9668-56.543 67.4561-54.0283Q68.9453-51.5137 68.9453-48.3887Q68.9453-45.2637 67.4561-42.7246Q65.9668-40.1855 63.4277-38.6719Q60.8887-37.1582 57.8125-37.1582Q55.2734-37.1582 53.1006-38.1836Q50.9277-39.209 49.3652-40.9668L49.3652-28.8574Q51.3184-28.0762 53.4668-27.6123Q55.6152-27.1484 57.8613-27.1484ZM57.8125-74.4141Q59.8145-74.4141 61.2061-75.8789Q62.5977-77.3438 62.5977-79.2969L62.5977-85.5469Q62.5977-87.5488 61.2061-88.9893Q59.8145-90.4297 57.8125-90.4297Q55.8594-90.4297 54.4434-88.9893Q53.0273-87.5488 53.0273-85.5469L53.0273-79.2969Q53.0273-77.3438 54.4434-75.8789Q55.8594-74.4141 57.8125-74.4141ZM76.2695-66.748Q77.6855-65.3809 79.7119-65.4297Q81.7383-65.4785 83.1055-66.8457L87.5488-71.2402Q88.9648-72.6562 88.9893-74.6826Q89.0137-76.709 87.5977-78.0762Q86.2305-79.4922 84.2041-79.4434Q82.1777-79.3945 80.7617-77.9785L76.3184-73.6328Q74.9023-72.2656 74.9023-70.2148Q74.9023-68.1641 76.2695-66.748ZM88.6719-43.6523L94.9219-43.6035Q96.9238-43.6035 98.3643-45.0195Q99.8047-46.4355 99.8047-48.3887Q99.8047-50.3906 98.3643-51.7822Q96.9238-53.1738 94.9219-53.1738L88.6719-53.2227Q86.7188-53.2227 85.2539-51.8066Q83.7891-50.3906 83.7891-48.3887Q83.7891-46.4355 85.2539-45.0439Q86.7188-43.6523 88.6719-43.6523ZM80.7129-18.75Q82.1289-17.334 84.1553-17.3096Q86.1816-17.2852 87.5488-18.6523Q88.9648-20.0684 88.916-22.0459Q88.8672-24.0234 87.4512-25.4883L83.1055-29.9805Q81.7383-31.3965 79.6875-31.3965Q77.6367-31.3965 76.2207-29.9805Q74.8535-28.6133 74.9023-26.6113Q74.9512-24.6094 76.3184-23.1934Z"/>
   <path class="hierarchical-1:primary SFSymbolsPreview212121" d="M35.2051 17.334Q42.1875 17.334 47.9492 14.0137Q53.7109 10.6934 57.1289 5.0293Q60.5469-0.634766 60.5469-7.61719Q60.5469-12.5488 58.7646-16.7725Q56.9824-20.9961 53.5645-24.4141Q52.6855-25.293 52.6855-26.4648L52.7344-56.1035Q52.7344-61.7188 50.5127-65.918Q48.291-70.1172 44.3604-72.4609Q40.4297-74.8047 35.2051-74.8047Q27.2949-74.8047 22.4365-69.6533Q17.5781-64.502 17.5781-56.1035L17.627-26.4648Q17.627-25.2441 16.748-24.4141Q13.2324-21.1426 11.499-16.8457Q9.76562-12.5488 9.76562-7.61719Q9.76562-0.634766 13.208 5.0293Q16.6504 10.6934 22.4121 14.0137Q28.1738 17.334 35.2051 17.334ZM35.2051 5.85938Q31.3477 5.85938 28.1982 3.97949Q25.0488 2.09961 23.1689-1.07422Q21.2891-4.24805 21.2891-8.10547Q21.2891-12.0117 22.9492-14.8682Q24.6094-17.7246 27.5879-19.6777Q28.418-20.2148 28.7842-20.8008Q29.1504-21.3867 29.1504-22.5098L29.1504-55.8105Q29.1504-59.1797 30.835-61.2305Q32.5195-63.2812 35.2051-63.2812Q37.8418-63.2812 39.502-61.2305Q41.1621-59.1797 41.1621-55.8105L41.1621-22.5098Q41.1621-21.3867 41.5283-20.8008Q41.8945-20.2148 42.7246-19.6777Q45.7031-17.7246 47.3633-14.8682Q49.0234-12.0117 49.0234-8.10547Q49.0234-4.24805 47.1436-1.07422Q45.2637 2.09961 42.1387 3.97949Q39.0137 5.85938 35.2051 5.85938ZM35.1562 0.683594Q38.7695 0.683594 41.333-1.87988Q43.8965-4.44336 43.8965-8.10547Q43.8965-10.6445 42.6025-12.6465Q41.3086-14.6484 39.209-15.7715Q38.3301-16.2598 37.9883-16.7725Q37.6465-17.2852 37.6465-18.6035L37.6465-52.832Q37.6465-54.248 36.9141-55.0293Q36.1816-55.8105 35.1562-55.8105Q34.1309-55.8105 33.3984-55.0293Q32.666-54.248 32.666-52.832L32.666-18.6035Q32.666-17.2852 32.3242-16.7725Q31.9824-16.2598 31.1035-15.7715Q29.0039-14.6484 27.71-12.6465Q26.416-10.6445 26.416-8.10547Q26.416-4.44336 28.9795-1.87988Q31.543 0.683594 35.1562 0.683594Z"/>
  </g>
  <g id="Regular-S" transform="matrix(1 0 0 1 1409.12 696)">
   <path class="hierarchical-0:secondary SFSymbolsPreview4D4D4D" d="M48.3887-26.2207Q53.7109-26.2207 58.0566-28.7842Q62.4023-31.3477 64.9902-35.7178Q67.5781-40.0879 67.5781-45.4102Q67.5781-50.7324 64.9902-55.1025Q62.4023-59.4727 58.0566-62.0605Q53.7109-64.6484 48.3887-64.6484Q45.8496-64.6484 43.4326-63.9648Q41.0156-63.2812 38.916-62.0605L42.3828-56.5918Q45.2148-58.252 48.3887-58.252Q52.002-58.252 54.8828-56.543Q57.7637-54.834 59.4727-51.9287Q61.1816-49.0234 61.1816-45.4102Q61.1816-41.7969 59.4727-38.8916Q57.7637-35.9863 54.8828-34.3018Q52.002-32.6172 48.3887-32.6172Q46.1426-32.6172 44.0674-33.3984Q41.9922-34.1797 40.2832-35.5469L40.2832-28.0273Q42.1387-27.1484 44.1895-26.6846Q46.2402-26.2207 48.3887-26.2207ZM48.3887-70.459Q49.9023-70.459 50.9766-71.5576Q52.0508-72.6562 52.0508-74.1211L52.0508-81.7383Q52.0508-83.252 50.9766-84.3262Q49.9023-85.4004 48.3887-85.4004Q46.875-85.4004 45.8008-84.3262Q44.7266-83.252 44.7266-81.7383L44.7266-74.1211Q44.7266-72.6562 45.8008-71.5576Q46.875-70.459 48.3887-70.459ZM66.0645-63.0859Q67.0898-62.0117 68.6523-62.0117Q70.2148-62.0117 71.2891-63.0859L76.6602-68.5059Q77.7344-69.5801 77.71-71.0938Q77.6855-72.6074 76.6602-73.6816Q75.5859-74.707 74.0967-74.707Q72.6074-74.707 71.5332-73.6816L66.0645-68.2129Q65.0391-67.1387 65.0391-65.6494Q65.0391-64.1602 66.0645-63.0859ZM77.002-41.748L84.6191-41.748Q86.1328-41.748 87.1826-42.8223Q88.2324-43.8965 88.2324-45.4102Q88.2324-46.9238 87.1826-47.998Q86.1328-49.0723 84.6191-49.0723L77.002-49.0723Q75.5371-49.0723 74.4385-47.998Q73.3398-46.9238 73.3398-45.4102Q73.3398-43.8965 74.4385-42.8223Q75.5371-41.748 77.002-41.748ZM71.5332-17.1387Q72.6074-16.0645 74.0967-16.0889Q75.5859-16.1133 76.6602-17.1387Q77.6855-18.2129 77.71-19.7266Q77.7344-21.2402 76.6602-22.2656L71.1914-27.6855Q70.1172-28.7109 68.6279-28.7354Q67.1387-28.7598 66.0645-27.6855Q65.0391-26.6113 65.0391-25.0977Q65.0391-23.584 66.0645-22.5098Z"/>
   <path class="hierarchical-1:primary SFSymbolsPreview212121" d="M30.1758 12.8418Q35.791 12.8418 40.4053 10.083Q45.0195 7.32422 47.7783 2.70996Q50.5371-1.9043 50.5371-7.51953Q50.5371-11.9629 48.7549-15.8203Q46.9727-19.6777 43.5547-22.8516Q42.627-23.6816 42.627-24.9512L42.6758-58.6914Q42.6758-62.793 41.1133-65.8691Q39.5508-68.9453 36.7432-70.6543Q33.9355-72.3633 30.1758-72.3633Q24.5605-72.3633 21.0938-68.6035Q17.627-64.8438 17.627-58.6914L17.6758-24.9512Q17.6758-23.6816 16.748-22.8516Q13.3301-19.6777 11.5479-15.8203Q9.76562-11.9629 9.76562-7.51953Q9.76562-1.9043 12.5244 2.70996Q15.2832 7.32422 19.9219 10.083Q24.5605 12.8418 30.1758 12.8418ZM30.1758 6.49414Q26.3184 6.49414 23.1201 4.58984Q19.9219 2.68555 18.042-0.488281Q16.1621-3.66211 16.1621-7.51953Q16.1621-11.084 17.8223-14.1602Q19.4824-17.2363 22.4609-19.1895Q23.291-19.7754 23.6572-20.3613Q24.0234-20.9473 24.0234-22.1191L24.0234-58.3984Q24.0234-61.8652 25.7324-63.9404Q27.4414-66.0156 30.1758-66.0156Q32.8613-66.0156 34.5459-63.9404Q36.2305-61.8652 36.2305-58.3984L36.2305-22.1191Q36.2305-20.9473 36.5967-20.3613Q36.9629-19.7754 37.8418-19.1895Q40.8203-17.2363 42.4805-14.1602Q44.1406-11.084 44.1406-7.51953Q44.1406-3.66211 42.2607-0.488281Q40.3809 2.68555 37.207 4.58984Q34.0332 6.49414 30.1758 6.49414ZM30.127 1.31836Q33.8379 1.31836 36.4258-1.29395Q39.0137-3.90625 39.0137-7.56836Q39.0137-10.1562 37.6953-12.1826Q36.377-14.209 34.2773-15.3809Q33.3496-15.8203 33.0078-16.3574Q32.666-16.8945 32.666-18.2129L32.666-55.4199Q32.666-56.7871 31.9336-57.5928Q31.2012-58.3984 30.127-58.3984Q29.1016-58.3984 28.3691-57.5928Q27.6367-56.7871 27.6367-55.4199L27.6367-18.2129Q27.6367-16.8945 27.2949-16.3574Q26.9531-15.8203 26.0254-15.3809Q23.9258-14.209 22.6074-12.1826Q21.2891-10.1562 21.2891-7.56836Q21.2891-3.85742 23.877-1.26953Q26.4648 1.31836 30.127 1.31836Z"/>
  </g>
  <g id="Ultralight-S" transform="matrix(1 0 0 1 520.464 696)">
   <path class="hierarchical-0:secondary SFSymbolsPreview4D4D4D" d="M46.209-30.1262Q51.1681-30.1262 55.2185-32.5306Q59.269-34.935 61.6524-38.9874Q64.0358-43.0397 64.0358-47.9988Q64.0358-53.0029 61.6524-57.0553Q59.269-61.1076 55.2185-63.5139Q51.1681-65.9203 46.209-65.9203Q43.5341-65.9203 40.9805-65.0776Q38.427-64.2349 36.01-62.6053L37.1155-60.7239Q41.5367-63.7917 46.209-63.7917Q50.5943-63.7917 54.1561-61.6741Q57.7179-59.5566 59.8129-55.9929Q61.908-52.4292 61.908-47.9988Q61.908-43.6134 59.8129-40.0269Q57.7179-36.4403 54.1561-34.3472Q50.5943-32.254 46.209-32.254Q43.8721-32.254 41.5699-32.8991Q39.2677-33.5442 37.1956-34.9113L37.1956-32.5684Q39.2776-31.3713 41.5554-30.7487Q43.8332-30.1262 46.209-30.1262ZM46.209-73.0019Q46.6331-73.0019 46.9578-73.3284Q47.2824-73.6549 47.2824-74.0303L47.2824-85.1891Q47.2824-85.6133 46.9578-85.8929Q46.6331-86.1725 46.209-86.1725Q45.7855-86.1725 45.4605-85.8929Q45.1355-85.6133 45.1355-85.1891L45.1355-74.0303Q45.1355-73.6549 45.4605-73.3284Q45.7855-73.0019 46.209-73.0019ZM63.8847-65.6288Q64.1838-65.3267 64.6111-65.3267Q65.0383-65.3267 65.3404-65.6288L73.2094-73.5008Q73.5565-73.8487 73.5321-74.2725Q73.5077-74.6964 73.2094-74.9985Q72.9065-75.2975 72.5071-75.2975Q72.1077-75.2975 71.7606-74.9985L63.8847-67.0776Q63.5857-66.8205 63.5857-66.3757Q63.5857-65.9309 63.8847-65.6288ZM72.1886-47.0154L83.3023-47.0154Q83.7715-47.0154 84.0721-47.295Q84.3727-47.5746 84.3727-47.9988Q84.3727-48.4222 84.0721-48.7244Q83.7715-49.0265 83.3023-49.0265L72.1886-49.0265Q71.7682-49.0265 71.4642-48.7244Q71.1601-48.4222 71.1601-47.9988Q71.1601-47.5746 71.4642-47.295Q71.7682-47.0154 72.1886-47.0154ZM71.7606-20.9076Q72.1077-20.5597 72.5071-20.5841Q72.9065-20.6085 73.2094-20.9076Q73.5077-21.2097 73.5321-21.611Q73.5565-22.0123 73.2094-22.3564L65.3336-30.2284Q65.0314-30.5275 64.6091-30.529Q64.1869-30.5305 63.8847-30.2284Q63.5857-29.9263 63.5857-29.5025Q63.5857-29.0787 63.8847-28.7766Z"/>
   <path class="hierarchical-1:primary SFSymbolsPreview212121" d="M27.9961 13.6589Q33.0666 13.6589 37.204 11.2183Q41.3414 8.77762 43.7824 4.6402Q46.2234 0.502777 46.2234-4.52271Q46.2234-8.55713 44.532-12.0514Q42.8406-15.5457 39.3318-18.3563Q37.9044-19.5038 37.9044-21.5454L37.9532-58.7372Q37.9532-62.2482 36.7085-64.8247Q35.4637-67.4011 33.2466-68.8152Q31.0295-70.2293 27.9961-70.2293Q23.4711-70.2293 20.7535-67.1051Q18.0359-63.9809 18.0359-58.7372L18.0847-21.5454Q18.0847-19.5038 16.6573-18.3563Q13.1485-15.5457 11.4571-12.0514Q9.76562-8.55713 9.76562-4.52271Q9.76562 0.502777 12.2066 4.6402Q14.6477 8.77762 18.7866 11.2183Q22.9256 13.6589 27.9961 13.6589ZM27.9961 11.6257Q23.5481 11.6257 19.873 9.44862Q16.198 7.27158 14.0232 3.5984Q11.8484-0.0747681 11.8484-4.52271Q11.8484-8.17795 13.3949-11.3903Q14.9414-14.6027 18.2381-16.9647Q19.2947-17.7322 19.7292-18.6813Q20.1637-19.6304 20.1637-20.9381L20.1637-58.6258Q20.1637-63.1371 22.3495-65.6208Q24.5354-68.1046 27.9961-68.1046Q31.4537-68.1046 33.6376-65.6208Q35.8215-63.1371 35.8215-58.6258L35.8215-20.9381Q35.8215-19.6304 36.256-18.6813Q36.6905-17.7322 37.751-16.9647Q41.0477-14.6027 42.5941-11.3903Q44.1406-8.17795 44.1406-4.52271Q44.1406-0.0747681 41.943 3.5984Q39.7453 7.27158 36.0947 9.44862Q32.444 11.6257 27.9961 11.6257ZM27.993 6.4949Q32.5661 6.4949 35.767 3.29247Q38.9679 0.0900269 38.9679-4.52576Q38.9679-7.70416 37.3318-10.2299Q35.6956-12.7556 33.0513-14.1548Q31.987-14.7308 31.5544-15.4041Q31.1218-16.0774 31.1218-17.7132L31.1218-55.1926Q31.1218-56.6505 30.2532-57.6382Q29.3846-58.6258 27.993-58.6258Q26.6037-58.6258 25.7351-57.6382Q24.8665-56.6505 24.8665-55.1926L24.8665-17.7132Q24.8665-16.0774 24.4339-15.4041Q24.0013-14.7308 22.9378-14.1548Q20.2927-12.7556 18.6565-10.2299Q17.0204-7.70416 17.0204-4.52576Q17.0204 0.0930786 20.2213 3.29399Q23.4222 6.4949 27.993 6.4949Z"/>
  </g>
 </g>
</svg>
