<svg width="88" height="93" viewBox="0 0 88 93" fill="none" xmlns="http://www.w3.org/2000/svg">
<path d="M18.3106 58.4473H65.625C69.8568 58.4473 73.641 57.4707 76.9776 55.5176C80.3142 53.5645 82.9427 50.9522 84.8633 47.6807C86.7839 44.4092 87.7442 40.7877 87.7442 36.8164C87.7442 32.6823 86.7269 29.0039 84.6924 25.7812C82.6579 22.5586 79.891 20.0196 76.3916 18.1641C72.8922 16.3086 68.9616 15.3808 64.5996 15.3808C63.0046 12.2558 60.9701 9.54587 58.4961 7.251C56.0221 4.95607 53.2064 3.17383 50.0489 1.9043C46.8913 0.634764 43.5058 0 39.8926 0C35.0423 0 30.5908 1.13933 26.5381 3.418C22.4853 5.6966 19.165 8.75647 16.5772 12.5976C13.9892 16.4388 12.4837 20.7357 12.0606 25.4883C8.61003 26.4974 5.73729 28.4423 3.44236 31.3232C1.14745 34.2041 0 37.679 0 41.748C0 44.8405 0.716147 47.6481 2.14844 50.1709C3.58072 52.6937 5.66406 54.7038 8.39846 56.2012C11.1328 57.6986 14.4368 58.4473 18.3106 58.4473Z" fill="#808080"/>
<path d="M54.2481 72.0215H45.2149L45.0196 73.8769L49.4629 65.2832C49.6907 64.8926 49.7314 64.5508 49.585 64.2578C49.4385 63.9648 49.1537 63.8183 48.7305 63.8183H39.209C38.3626 63.8183 37.7604 64.2089 37.4024 64.9902L32.2266 76.8066C32.0312 77.2624 32.0231 77.6286 32.2022 77.9053C32.3812 78.182 32.7148 78.3203 33.2032 78.3203H40.6739L41.1621 76.0742L35.0586 90.8691C34.8307 91.455 34.9121 91.8294 35.3028 91.9922C35.6608 92.1224 36.0514 91.9922 36.4746 91.6015L54.7852 73.9746C55.2409 73.5514 55.4037 73.1201 55.2735 72.6806C55.1433 72.2412 54.8015 72.0215 54.2481 72.0215Z" fill="#FFD60A"/>
</svg>
