<svg width="89" height="93" viewBox="0 0 89 93" fill="none" xmlns="http://www.w3.org/2000/svg">
<path d="M65.0879 44.0918C65.0879 40.2832 64.1357 36.7839 62.2315 33.5938C60.3271 30.4037 57.7881 27.8483 54.6143 25.9278C51.4404 24.0072 47.9492 23.0469 44.1406 23.0469C40.332 23.0469 36.8408 24.0072 33.667 25.9278C30.4932 27.8483 27.9541 30.4037 26.0498 33.5938C24.1455 36.7839 23.1934 40.2832 23.1934 44.0918C23.1934 45.3288 23.3073 46.5414 23.5352 47.7295C23.763 48.9177 24.0723 50.0652 24.4629 51.1719H63.8184C64.209 50.0652 64.5182 48.9177 64.7461 47.7295C64.974 46.5414 65.0879 45.3288 65.0879 44.0918ZM44.1406 16.2598C45.1172 16.2273 45.9554 15.8448 46.6553 15.1123C47.3551 14.3799 47.7051 13.4278 47.7051 12.2559V3.9063C47.7051 2.76697 47.3551 1.8311 46.6553 1.0987C45.9554 0.366235 45.1172 0 44.1406 0C43.164 0 42.3258 0.366235 41.626 1.0987C40.9261 1.8311 40.5762 2.76697 40.5762 3.9063V12.2559C40.5762 13.4278 40.9261 14.3962 41.626 15.1612C42.3258 15.9261 43.164 16.2923 44.1406 16.2598ZM63.8672 24.4141C64.5833 25.0977 65.446 25.4232 66.4551 25.3907C67.4642 25.3581 68.3757 24.9349 69.1895 24.1211L75.0977 18.2129C75.9115 17.3991 76.3265 16.4877 76.3428 15.4786C76.359 14.4695 76.0254 13.6231 75.3418 12.9395C74.6582 12.2234 73.8118 11.8734 72.8028 11.8897C71.7936 11.906 70.8822 12.3373 70.0684 13.1836L64.1602 19.043C63.3464 19.8893 62.915 20.8252 62.8662 21.8506C62.8174 22.876 63.151 23.7305 63.8672 24.4141ZM24.4141 24.4141C25.0977 23.698 25.4232 22.8353 25.3906 21.8262C25.358 20.8171 24.9349 19.8893 24.1211 19.043L18.2129 13.1836C17.3991 12.3373 16.4958 11.9141 15.503 11.9141C14.5101 11.9141 13.6556 12.2559 12.9395 12.9395C12.2233 13.6231 11.8815 14.4695 11.9141 15.4786C11.9466 16.4877 12.3698 17.3991 13.1836 18.2129L19.0918 24.1211C19.9056 24.9349 20.8252 25.3581 21.8506 25.3907C22.876 25.4232 23.7305 25.0977 24.4141 24.4141ZM75.9766 46.7286H84.3262C85.498 46.7286 86.4502 46.3786 87.1826 45.6787C87.915 44.9788 88.2813 44.1406 88.2813 43.1641C88.2813 42.1876 87.915 41.3493 87.1826 40.6494C86.4502 39.9495 85.498 39.5996 84.3262 39.5996H75.9766C74.8373 39.5996 73.8851 39.9495 73.1201 40.6494C72.3551 41.3493 71.989 42.1876 72.0215 43.1641C72.054 44.1406 72.4365 44.9788 73.169 45.6787C73.9014 46.3786 74.8373 46.7286 75.9766 46.7286ZM3.95508 46.7286H12.3047C13.444 46.7286 14.3962 46.3786 15.1612 45.6787C15.9261 44.9788 16.2923 44.1406 16.2598 43.1641C16.2272 42.1876 15.8447 41.3493 15.1123 40.6494C14.3799 39.9495 13.444 39.5996 12.3047 39.5996H3.95508C2.78321 39.5996 1.83108 39.9495 1.09868 40.6494C0.366226 41.3493 0 42.1876 0 43.1641C0 44.1406 0.366226 44.9788 1.09868 45.6787C1.83108 46.3786 2.78321 46.7286 3.95508 46.7286Z" fill="#FFD60A"/>
<path d="M5.46878 61.4259H82.6172C83.3659 61.4259 84.0007 61.1655 84.5215 60.6447C85.0424 60.1238 85.3028 59.4727 85.3028 58.6915C85.3028 57.9103 85.0424 57.2592 84.5215 56.7384C84.0007 56.2176 83.3659 55.9572 82.6172 55.9572H5.46878C4.72005 55.9572 4.08528 56.2176 3.56448 56.7384C3.04362 57.2592 2.78319 57.9103 2.78319 58.6915C2.78319 59.4727 3.04362 60.1238 3.56448 60.6447C4.08528 61.1655 4.72005 61.4259 5.46878 61.4259ZM52.2461 82.8126C52.7995 82.8126 53.2715 82.6173 53.6621 82.2267C54.0528 81.836 54.2481 81.3477 54.2481 80.7618C54.2481 80.2084 54.0528 79.7283 53.6621 79.3214C53.2715 78.9145 52.7995 78.711 52.2461 78.711C51.6602 78.711 51.1719 78.9145 50.7813 79.3214C50.3906 79.7283 50.1953 80.2084 50.1953 80.7618C50.1953 81.3477 50.3906 81.836 50.7813 82.2267C51.1719 82.6173 51.6602 82.8126 52.2461 82.8126ZM36.084 82.8126C36.6374 82.8126 37.1094 82.6173 37.5 82.2267C37.8907 81.836 38.086 81.3477 38.086 80.7618C38.086 80.2084 37.8907 79.7283 37.5 79.3214C37.1094 78.9145 36.6374 78.711 36.084 78.711C35.4981 78.711 35.0098 78.9145 34.6192 79.3214C34.2285 79.7283 34.0332 80.2084 34.0332 80.7618C34.0332 81.3477 34.2285 81.836 34.6192 82.2267C35.0098 82.6173 35.4981 82.8126 36.084 82.8126ZM3.75978 82.8126C4.31318 82.8126 4.78518 82.6173 5.17578 82.2267C5.56638 81.836 5.76168 81.3477 5.76168 80.7618C5.76168 80.2084 5.56638 79.7283 5.17578 79.3214C4.78518 78.9145 4.31318 78.711 3.75978 78.711C3.17385 78.711 2.68555 78.9145 2.29488 79.3214C1.90428 79.7283 1.70898 80.2084 1.70898 80.7618C1.70898 81.3477 1.90428 81.836 2.29488 82.2267C2.68555 82.6173 3.17385 82.8126 3.75978 82.8126ZM68.4082 82.8126C68.9616 82.8126 69.4336 82.6173 69.8242 82.2267C70.2148 81.836 70.4102 81.3477 70.4102 80.7618C70.4102 80.2084 70.2148 79.7283 69.8242 79.3214C69.4336 78.9145 68.9616 78.711 68.4082 78.711C67.8222 78.711 67.334 78.9145 66.9434 79.3214C66.5527 79.7283 66.3574 80.2084 66.3574 80.7618C66.3574 81.3477 66.5527 81.836 66.9434 82.2267C67.334 82.6173 67.8222 82.8126 68.4082 82.8126ZM84.5703 82.8126C85.1237 82.8126 85.5957 82.6173 85.9864 82.2267C86.377 81.836 86.5723 81.3477 86.5723 80.7618C86.5723 80.2084 86.377 79.7283 85.9864 79.3214C85.5957 78.9145 85.1237 78.711 84.5703 78.711C83.9843 78.711 83.4961 78.9145 83.1055 79.3214C82.7149 79.7283 82.5196 80.2084 82.5196 80.7618C82.5196 81.3477 82.7149 81.836 83.1055 82.2267C83.4961 82.6173 83.9843 82.8126 84.5703 82.8126ZM19.9219 82.8126C20.4753 82.8126 20.9473 82.6173 21.3379 82.2267C21.7286 81.836 21.9239 81.3477 21.9239 80.7618C21.9239 80.2084 21.7286 79.7283 21.3379 79.3214C20.9473 78.9145 20.4753 78.711 19.9219 78.711C19.336 78.711 18.8477 78.9145 18.4571 79.3214C18.0664 79.7283 17.8711 80.2084 17.8711 80.7618C17.8711 81.3477 18.0664 81.836 18.4571 82.2267C18.8477 82.6173 19.336 82.8126 19.9219 82.8126ZM73.291 73.5353C73.8444 73.5353 74.3164 73.34 74.7071 72.9494C75.0977 72.5587 75.293 72.0704 75.293 71.4845C75.293 70.9311 75.0977 70.4509 74.7071 70.0441C74.3164 69.6371 73.8444 69.4337 73.291 69.4337C72.7051 69.4337 72.2168 69.6371 71.8262 70.0441C71.4356 70.4509 71.2403 70.9311 71.2403 71.4845C71.2403 72.0704 71.4356 72.5587 71.8262 72.9494C72.2168 73.34 72.7051 73.5353 73.291 73.5353ZM40.9668 73.5353C41.5202 73.5353 41.9922 73.34 42.3828 72.9494C42.7734 72.5587 42.9688 72.0704 42.9688 71.4845C42.9688 70.9311 42.7734 70.4509 42.3828 70.0441C41.9922 69.6371 41.5202 69.4337 40.9668 69.4337C40.3808 69.4337 39.8926 69.6371 39.502 70.0441C39.1113 70.4509 38.916 70.9311 38.916 71.4845C38.916 72.0704 39.1113 72.5587 39.502 72.9494C39.8926 73.34 40.3808 73.5353 40.9668 73.5353ZM24.8047 73.5353C25.3581 73.5353 25.8301 73.34 26.2207 72.9494C26.6114 72.5587 26.8067 72.0704 26.8067 71.4845C26.8067 70.9311 26.6114 70.4509 26.2207 70.0441C25.8301 69.6371 25.3581 69.4337 24.8047 69.4337C24.2188 69.4337 23.7305 69.6371 23.3399 70.0441C22.9492 70.4509 22.7539 70.9311 22.7539 71.4845C22.7539 72.0704 22.9492 72.5587 23.3399 72.9494C23.7305 73.34 24.2188 73.5353 24.8047 73.5353ZM57.1289 73.5353C57.6823 73.5353 58.1543 73.34 58.5449 72.9494C58.9356 72.5587 59.1309 72.0704 59.1309 71.4845C59.1309 70.9311 58.9356 70.4509 58.5449 70.0441C58.1543 69.6371 57.6823 69.4337 57.1289 69.4337C56.543 69.4337 56.0547 69.6371 55.6641 70.0441C55.2735 70.4509 55.0782 70.9311 55.0782 71.4845C55.0782 72.0704 55.2735 72.5587 55.6641 72.9494C56.0547 73.34 56.543 73.5353 57.1289 73.5353ZM8.64258 73.5353C9.19598 73.5353 9.66798 73.34 10.0586 72.9494C10.4493 72.5587 10.6446 72.0704 10.6446 71.4845C10.6446 70.9311 10.4493 70.4509 10.0586 70.0441C9.66798 69.6371 9.19598 69.4337 8.64258 69.4337C8.05665 69.4337 7.56838 69.6371 7.17778 70.0441C6.78712 70.4509 6.59179 70.9311 6.59179 71.4845C6.59179 72.0704 6.78712 72.5587 7.17778 72.9494C7.56838 73.34 8.05665 73.5353 8.64258 73.5353ZM47.3633 92.0411C47.9167 92.0411 48.3887 91.8458 48.7793 91.4552C49.1699 91.0645 49.3653 90.5763 49.3653 89.9903C49.3653 89.4369 49.1699 88.9649 48.7793 88.5743C48.3887 88.1837 47.9167 87.9884 47.3633 87.9884C46.7773 87.9884 46.2891 88.1837 45.8985 88.5743C45.5078 88.9649 45.3125 89.4369 45.3125 89.9903C45.3125 90.5763 45.5078 91.0645 45.8985 91.4552C46.2891 91.8458 46.7773 92.0411 47.3633 92.0411ZM31.2012 92.0411C31.7546 92.0411 32.2266 91.8458 32.6172 91.4552C33.0079 91.0645 33.2032 90.5763 33.2032 89.9903C33.2032 89.4369 33.0079 88.9649 32.6172 88.5743C32.2266 88.1837 31.7546 87.9884 31.2012 87.9884C30.6153 87.9884 30.127 88.1837 29.7364 88.5743C29.3457 88.9649 29.1504 89.4369 29.1504 89.9903C29.1504 90.5763 29.3457 91.0645 29.7364 91.4552C30.127 91.8458 30.6153 92.0411 31.2012 92.0411ZM15.0391 92.0411C15.5925 92.0411 16.0645 91.8458 16.4551 91.4552C16.8457 91.0645 17.041 90.5763 17.041 89.9903C17.041 89.4369 16.8457 88.9649 16.4551 88.5743C16.0645 88.1837 15.5925 87.9884 15.0391 87.9884C14.4532 87.9884 13.9649 88.1837 13.5742 88.5743C13.1836 88.9649 12.9883 89.4369 12.9883 89.9903C12.9883 90.5763 13.1836 91.0645 13.5742 91.4552C13.9649 91.8458 14.4532 92.0411 15.0391 92.0411ZM79.6875 92.0411C80.2409 92.0411 80.7129 91.8458 81.1035 91.4552C81.4942 91.0645 81.6895 90.5763 81.6895 89.9903C81.6895 89.4369 81.4942 88.9649 81.1035 88.5743C80.7129 88.1837 80.2409 87.9884 79.6875 87.9884C79.1016 87.9884 78.6133 88.1837 78.2227 88.5743C77.832 88.9649 77.6367 89.4369 77.6367 89.9903C77.6367 90.5763 77.832 91.0645 78.2227 91.4552C78.6133 91.8458 79.1016 92.0411 79.6875 92.0411ZM63.5254 92.0411C64.0788 92.0411 64.5508 91.8458 64.9414 91.4552C65.3321 91.0645 65.5274 90.5763 65.5274 89.9903C65.5274 89.4369 65.3321 88.9649 64.9414 88.5743C64.5508 88.1837 64.0788 87.9884 63.5254 87.9884C62.9394 87.9884 62.4512 88.1837 62.0606 88.5743C61.6699 88.9649 61.4746 89.4369 61.4746 89.9903C61.4746 90.5763 61.6699 91.0645 62.0606 91.4552C62.4512 91.8458 62.9394 92.0411 63.5254 92.0411Z" fill="#808080"/>
</svg>
