<svg width="78" height="78" viewBox="0 0 78 78" fill="none" xmlns="http://www.w3.org/2000/svg">
<path d="M38.8184 58.6914C42.4316 58.6914 45.7438 57.7881 48.7549 55.9815C51.7659 54.1748 54.1748 51.766 55.9815 48.7549C57.7881 45.7438 58.6914 42.4317 58.6914 38.8184C58.6914 35.2051 57.7881 31.893 55.9815 28.8819C54.1748 25.8708 51.7659 23.462 48.7549 21.6553C45.7438 19.8486 42.4316 18.9453 38.8184 18.9453C35.2051 18.9453 31.8929 19.8486 28.8819 21.6553C25.8708 23.462 23.4619 25.8708 21.6553 28.8819C19.8486 31.893 18.9453 35.2051 18.9453 38.8184C18.9453 42.4317 19.8486 45.7438 21.6553 48.7549C23.4619 51.766 25.8708 54.1748 28.8819 55.9815C31.8929 57.7881 35.2051 58.6914 38.8184 58.6914ZM4.78516 43.6035C6.08723 43.6035 7.21026 43.1315 8.15426 42.1875C9.09826 41.2435 9.57026 40.1205 9.57026 38.8184C9.57026 37.5163 9.09826 36.3933 8.15426 35.4493C7.21026 34.5052 6.08723 34.0332 4.78516 34.0332C3.48307 34.0332 2.36002 34.5052 1.41601 35.4493C0.472004 36.3933 0 37.5163 0 38.8184C0 40.1205 0.472004 41.2435 1.41601 42.1875C2.36002 43.1315 3.48307 43.6035 4.78516 43.6035ZM14.7461 19.5313C16.0482 19.5313 17.1713 19.0593 18.1153 18.1153C19.0593 17.1713 19.5313 16.0482 19.5313 14.7461C19.5313 13.4115 19.0593 12.2803 18.1153 11.3526C17.1713 10.4249 16.0482 9.96101 14.7461 9.96101C13.4115 9.96101 12.2803 10.4249 11.3526 11.3526C10.4248 12.2803 9.96096 13.4115 9.96096 14.7461C9.96096 16.0482 10.4248 17.1713 11.3526 18.1153C12.2803 19.0593 13.4115 19.5313 14.7461 19.5313ZM38.8184 9.5703C40.1204 9.5703 41.2435 9.0983 42.1875 8.1543C43.1315 7.2103 43.6036 6.08727 43.6036 4.7852C43.6036 3.48314 43.1315 2.36011 42.1875 1.41611C41.2435 0.472041 40.1204 0 38.8184 0C37.5163 0 36.3933 0.472041 35.4493 1.41611C34.5052 2.36011 34.0332 3.48314 34.0332 4.7852C34.0332 6.08727 34.5052 7.2103 35.4493 8.1543C36.3933 9.0983 37.5163 9.5703 38.8184 9.5703ZM62.8907 19.5313C64.2253 19.5313 65.3564 19.0593 66.2842 18.1153C67.2119 17.1713 67.6758 16.0482 67.6758 14.7461C67.6758 13.4115 67.2119 12.2803 66.2842 11.3526C65.3564 10.4249 64.2253 9.96101 62.8907 9.96101C61.5885 9.96101 60.4655 10.4249 59.5215 11.3526C58.5775 12.2803 58.1055 13.4115 58.1055 14.7461C58.1055 16.0482 58.5775 17.1713 59.5215 18.1153C60.4655 19.0593 61.5885 19.5313 62.8907 19.5313ZM72.8516 43.6035C74.1862 43.6035 75.3174 43.1315 76.2452 42.1875C77.1729 41.2435 77.6368 40.1205 77.6368 38.8184C77.6368 37.5163 77.1729 36.3933 76.2452 35.4493C75.3174 34.5052 74.1862 34.0332 72.8516 34.0332C71.5495 34.0332 70.4265 34.5052 69.4825 35.4493C68.5384 36.3933 68.0664 37.5163 68.0664 38.8184C68.0664 40.1205 68.5384 41.2435 69.4825 42.1875C70.4265 43.1315 71.5495 43.6035 72.8516 43.6035ZM62.8907 67.6758C64.2253 67.6758 65.3564 67.212 66.2842 66.2842C67.2119 65.3565 67.6758 64.2253 67.6758 62.8907C67.6758 61.5886 67.2119 60.4655 66.2842 59.5215C65.3564 58.5775 64.2253 58.1055 62.8907 58.1055C61.5885 58.1055 60.4655 58.5775 59.5215 59.5215C58.5775 60.4655 58.1055 61.5886 58.1055 62.8907C58.1055 64.2253 58.5775 65.3565 59.5215 66.2842C60.4655 67.212 61.5885 67.6758 62.8907 67.6758ZM38.8184 77.6368C40.1204 77.6368 41.2435 77.1647 42.1875 76.2207C43.1315 75.2767 43.6036 74.1537 43.6036 72.8516C43.6036 71.5495 43.1315 70.4265 42.1875 69.4825C41.2435 68.5385 40.1204 68.0664 38.8184 68.0664C37.5163 68.0664 36.3933 68.5385 35.4493 69.4825C34.5052 70.4265 34.0332 71.5495 34.0332 72.8516C34.0332 74.1537 34.5052 75.2767 35.4493 76.2207C36.3933 77.1647 37.5163 77.6368 38.8184 77.6368ZM14.7461 67.6758C16.0482 67.6758 17.1713 67.212 18.1153 66.2842C19.0593 65.3565 19.5313 64.2253 19.5313 62.8907C19.5313 61.5886 19.0593 60.4655 18.1153 59.5215C17.1713 58.5775 16.0482 58.1055 14.7461 58.1055C13.4115 58.1055 12.2803 58.5775 11.3526 59.5215C10.4248 60.4655 9.96096 61.5886 9.96096 62.8907C9.96096 64.2253 10.4248 65.3565 11.3526 66.2842C12.2803 67.212 13.4115 67.6758 14.7461 67.6758Z" fill="#FFD60A"/>
</svg>
