<svg width="69" height="79" viewBox="0 0 69 79" fill="none" xmlns="http://www.w3.org/2000/svg">
<path d="M34.2286 78.0274C35.2051 78.0274 35.9619 77.7263 36.4991 77.1241C37.0361 76.5218 37.3047 75.7487 37.3047 74.8047V67.3828L43.1641 70.6543C43.9779 71.11 44.7591 71.2891 45.5079 71.1914C46.2565 71.0938 46.875 70.638 47.3633 69.8242C47.7213 69.1406 47.7864 68.4245 47.5586 67.6758C47.3307 66.9271 46.8099 66.3086 45.9961 65.8203L37.3047 60.9375V56.7383L36.377 42.7735L48.0957 50.5371L51.709 52.6367L51.6114 62.5977C51.6114 63.5417 51.8718 64.3148 52.3926 64.917C52.9134 65.5192 53.5645 65.8203 54.3457 65.8203C55.2897 65.8203 55.9978 65.5192 56.4698 64.917C56.9418 64.3148 57.1778 63.5417 57.1778 62.5977L57.2266 55.7617L63.7696 59.5703C64.5834 60.0586 65.3727 60.2051 66.1377 60.0098C66.9027 59.8145 67.513 59.3262 67.9688 58.5449C68.4245 57.7311 68.5466 56.9255 68.335 56.128C68.1234 55.3305 67.6107 54.7038 66.7969 54.2481L60.3028 50.5371L66.1621 47.0703C66.9433 46.582 67.4805 45.988 67.7735 45.2881C68.0664 44.5882 67.985 43.8477 67.5293 43.0664C67.1061 42.3503 66.5039 41.9108 65.7227 41.7481C64.9414 41.5853 64.1439 41.7481 63.3301 42.2364L54.7852 47.3145L51.1231 45.2149L38.5254 39.0137L51.1231 32.8125L54.7364 30.7129L63.3301 35.791C64.1439 36.2793 64.9495 36.4421 65.7471 36.2793C66.5446 36.1166 67.1387 35.6934 67.5293 35.0098C67.985 34.196 68.0664 33.431 67.7735 32.7149C67.4805 31.9987 66.9433 31.4128 66.1621 30.9571L60.3028 27.4903L66.7969 23.7793C67.6107 23.291 68.1315 22.6644 68.3594 21.8994C68.5872 21.1345 68.457 20.3288 67.9688 19.4824C67.5456 18.7012 66.9433 18.2129 66.1621 18.0176C65.3809 17.8223 64.5834 17.9688 63.7696 18.4571L57.2266 22.168L57.1778 15.3809C57.1778 14.4694 56.9418 13.7126 56.4698 13.1104C55.9978 12.5082 55.306 12.2071 54.3946 12.2071C53.6133 12.2071 52.9541 12.5001 52.417 13.086C51.8799 13.6719 51.6114 14.4369 51.6114 15.3809L51.709 25.3418L48.0957 27.4903L36.377 35.2539L37.3047 21.2403V17.0899L45.9961 12.2071C46.8099 11.7188 47.3307 11.1003 47.5586 10.3516C47.7864 9.60287 47.7213 8.8867 47.3633 8.2031C46.875 7.3893 46.2565 6.9336 45.5079 6.836C44.7591 6.73833 43.9779 6.90107 43.1641 7.3242L37.3047 10.6446V3.2227C37.3047 2.2787 37.0361 1.50556 36.4991 0.903297C35.9619 0.301097 35.2051 0 34.2286 0C33.3171 0 32.5847 0.301097 32.0313 0.903297C31.4779 1.50556 31.2012 2.2787 31.2012 3.2227V10.6446L25.2442 7.3242C24.4304 6.90107 23.6572 6.73833 22.9248 6.836C22.1924 6.9336 21.582 7.3893 21.0938 8.2031C20.7032 8.8867 20.6299 9.60287 20.8741 10.3516C21.1182 11.1003 21.6472 11.7025 22.461 12.1582L31.2012 17.0899V21.2403L32.0801 35.2539L20.4102 27.4903L16.7481 25.3418L16.8457 15.3809C16.8783 14.4369 16.626 13.6719 16.0889 13.086C15.5517 12.5001 14.8926 12.2071 14.1114 12.2071C13.1673 12.2071 12.4593 12.5082 11.9873 13.1104C11.5153 13.7126 11.2793 14.4694 11.2793 15.3809L11.2305 22.168L4.73636 18.4571C3.95509 18.0014 3.16569 17.863 2.36816 18.042C1.57063 18.2211 0.944007 18.7012 0.48828 19.4824C0 20.3288 -0.12207 21.1426 0.12207 21.9238C0.36621 22.7051 0.878903 23.3236 1.66015 23.7793L8.15426 27.4903L2.29492 30.9571C1.51367 31.4128 0.984697 31.9906 0.70801 32.6905C0.431317 33.3904 0.504556 34.1635 0.92773 35.0098C1.31836 35.6934 1.91243 36.1166 2.70996 36.2793C3.50749 36.4421 4.31316 36.2793 5.12696 35.791L13.7207 30.7617L17.334 32.8125L29.9317 39.0137L17.334 45.2149L13.7207 47.3145L5.12696 42.2364C4.31316 41.7481 3.51563 41.5853 2.73437 41.7481C1.95312 41.9108 1.38346 42.334 1.02539 43.0176C0.569656 43.8639 0.472 44.6289 0.73242 45.3125C0.992833 45.9961 1.51367 46.582 2.29492 47.0703L8.15426 50.5371L1.66015 54.2481C0.878903 54.7038 0.374346 55.3305 0.14648 56.128C-0.0813869 56.9255 0.0325467 57.7311 0.48828 58.5449C0.944007 59.3587 1.57063 59.847 2.36816 60.0098C3.16569 60.1725 3.95509 60.026 4.73636 59.5703L11.2305 55.8594L11.2793 62.5977C11.2793 63.5417 11.5153 64.3148 11.9873 64.917C12.4593 65.5192 13.1673 65.8203 14.1114 65.8203C14.8926 65.8203 15.5517 65.5192 16.0889 64.917C16.626 64.3148 16.8783 63.5417 16.8457 62.5977L16.7969 52.6367L20.4102 50.586L32.0801 42.7735L31.2012 56.7383V60.9375L22.461 65.8203C21.6472 66.3086 21.1182 66.9271 20.8741 67.6758C20.6299 68.4245 20.7032 69.1406 21.0938 69.8242C21.582 70.638 22.1924 71.0938 22.9248 71.1914C23.6572 71.2891 24.4304 71.11 25.2442 70.6543L31.2012 67.3828V74.8047C31.2012 75.7487 31.4779 76.5218 32.0313 77.1241C32.5847 77.7263 33.3171 78.0274 34.2286 78.0274Z" fill="#808080"/>
</svg>
