<?xml version="1.0" encoding="UTF-8"?>
<!--Generator: Apple Native CoreSVG 175-->
<!DOCTYPE svg
PUBLIC "-//W3C//DTD SVG 1.1//EN"
       "http://www.w3.org/Graphics/SVG/1.1/DTD/svg11.dtd">
<svg version="1.1" xmlns="http://www.w3.org/2000/svg" xmlns:xlink="http://www.w3.org/1999/xlink" width="3300" height="2200">
 <!--glyph: "uni1001E6.medium", point size: 100.0, font version: "17.3d3e1", template writer version: "65.1"-->
 <style>.multicolor-0:white {fill:#FFFFFF;opacity:1.0}

.hierarchical-0:secondary {fill:#4D4D4D}
.hierarchical-1:primary {fill:#212121}

.SFSymbolsPreviewFFFFFF {fill:#FFFFFF;opacity:1.0}
</style>
 <g id="Notes">
  <rect height="2200" id="artboard" style="fill:white;opacity:1" width="3300" x="0" y="0"/>
  <line style="fill:none;stroke:black;opacity:1;stroke-width:0.5;" x1="263" x2="3036" y1="292" y2="292"/>
  <text style="stroke:none;fill:black;font-family:sans-serif;font-size:13;font-weight:bold;" transform="matrix(1 0 0 1 263 322)">Weight/Scale Variations</text>
  <text style="stroke:none;fill:black;font-family:sans-serif;font-size:13;text-anchor:middle;" transform="matrix(1 0 0 1 559.711 322)">Ultralight</text>
  <text style="stroke:none;fill:black;font-family:sans-serif;font-size:13;text-anchor:middle;" transform="matrix(1 0 0 1 856.422 322)">Thin</text>
  <text style="stroke:none;fill:black;font-family:sans-serif;font-size:13;text-anchor:middle;" transform="matrix(1 0 0 1 1153.13 322)">Light</text>
  <text style="stroke:none;fill:black;font-family:sans-serif;font-size:13;text-anchor:middle;" transform="matrix(1 0 0 1 1449.84 322)">Regular</text>
  <text style="stroke:none;fill:black;font-family:sans-serif;font-size:13;text-anchor:middle;" transform="matrix(1 0 0 1 1746.56 322)">Medium</text>
  <text style="stroke:none;fill:black;font-family:sans-serif;font-size:13;text-anchor:middle;" transform="matrix(1 0 0 1 2043.27 322)">Semibold</text>
  <text style="stroke:none;fill:black;font-family:sans-serif;font-size:13;text-anchor:middle;" transform="matrix(1 0 0 1 2339.98 322)">Bold</text>
  <text style="stroke:none;fill:black;font-family:sans-serif;font-size:13;text-anchor:middle;" transform="matrix(1 0 0 1 2636.69 322)">Heavy</text>
  <text style="stroke:none;fill:black;font-family:sans-serif;font-size:13;text-anchor:middle;" transform="matrix(1 0 0 1 2933.4 322)">Black</text>
  <line style="fill:none;stroke:black;opacity:1;stroke-width:0.5;" x1="263" x2="3036" y1="1903" y2="1903"/>
  <g transform="matrix(1 0 0 1 263 1933)">
   <path d="M9.24805 0.830078Q10.8691 0.830078 12.2949 0.214844Q13.7207-0.400391 14.8096-1.49414Q15.8984-2.58789 16.5186-4.01367Q17.1387-5.43945 17.1387-7.05078Q17.1387-8.66211 16.5186-10.0879Q15.8984-11.5137 14.8047-12.6074Q13.7109-13.7012 12.2852-14.3164Q10.8594-14.9316 9.23828-14.9316Q7.62695-14.9316 6.20117-14.3164Q4.77539-13.7012 3.69141-12.6074Q2.60742-11.5137 1.9873-10.0879Q1.36719-8.66211 1.36719-7.05078Q1.36719-5.43945 1.9873-4.01367Q2.60742-2.58789 3.69629-1.49414Q4.78516-0.400391 6.21094 0.214844Q7.63672 0.830078 9.24805 0.830078ZM9.24805-0.654297Q7.91992-0.654297 6.7627-1.14746Q5.60547-1.64062 4.73145-2.51953Q3.85742-3.39844 3.36426-4.56055Q2.87109-5.72266 2.87109-7.05078Q2.87109-8.37891 3.35938-9.54102Q3.84766-10.7031 4.72168-11.582Q5.5957-12.4609 6.75293-12.9541Q7.91016-13.4473 9.23828-13.4473Q10.5762-13.4473 11.7334-12.9541Q12.8906-12.4609 13.7695-11.582Q14.6484-10.7031 15.1465-9.54102Q15.6445-8.37891 15.6445-7.05078Q15.6445-5.72266 15.1514-4.56055Q14.6582-3.39844 13.7842-2.51953Q12.9102-1.64062 11.748-1.14746Q10.5859-0.654297 9.24805-0.654297ZM5.6543-7.05078Q5.6543-6.72852 5.85938-6.52832Q6.06445-6.32812 6.40625-6.32812L8.51562-6.32812L8.51562-4.20898Q8.51562-3.88672 8.71094-3.67676Q8.90625-3.4668 9.23828-3.4668Q9.56055-3.4668 9.77051-3.67676Q9.98047-3.88672 9.98047-4.20898L9.98047-6.32812L12.0898-6.32812Q12.4219-6.32812 12.627-6.52832Q12.832-6.72852 12.832-7.05078Q12.832-7.38281 12.627-7.58789Q12.4219-7.79297 12.0898-7.79297L9.98047-7.79297L9.98047-9.90234Q9.98047-10.2344 9.77051-10.4443Q9.56055-10.6543 9.23828-10.6543Q8.90625-10.6543 8.71094-10.4443Q8.51562-10.2344 8.51562-9.90234L8.51562-7.79297L6.40625-7.79297Q6.06445-7.79297 5.85938-7.58789Q5.6543-7.38281 5.6543-7.05078Z"/>
  </g>
  <g transform="matrix(1 0 0 1 281.867 1933)">
   <path d="M11.709 2.91016Q13.75 2.91016 15.5518 2.12891Q17.3535 1.34766 18.7305-0.0292969Q20.1074-1.40625 20.8887-3.20801Q21.6699-5.00977 21.6699-7.05078Q21.6699-9.0918 20.8887-10.8936Q20.1074-12.6953 18.7305-14.0723Q17.3535-15.4492 15.5469-16.2305Q13.7402-17.0117 11.6992-17.0117Q9.6582-17.0117 7.85645-16.2305Q6.05469-15.4492 4.68262-14.0723Q3.31055-12.6953 2.5293-10.8936Q1.74805-9.0918 1.74805-7.05078Q1.74805-5.00977 2.5293-3.20801Q3.31055-1.40625 4.6875-0.0292969Q6.06445 1.34766 7.86621 2.12891Q9.66797 2.91016 11.709 2.91016ZM11.709 1.25Q9.98047 1.25 8.47656 0.605469Q6.97266-0.0390625 5.83496-1.17676Q4.69727-2.31445 4.05762-3.81836Q3.41797-5.32227 3.41797-7.05078Q3.41797-8.7793 4.05762-10.2832Q4.69727-11.7871 5.83008-12.9297Q6.96289-14.0723 8.4668-14.7119Q9.9707-15.3516 11.6992-15.3516Q13.4277-15.3516 14.9316-14.7119Q16.4355-14.0723 17.5781-12.9297Q18.7207-11.7871 19.3652-10.2832Q20.0098-8.7793 20.0098-7.05078Q20.0098-5.32227 19.3701-3.81836Q18.7305-2.31445 17.5928-1.17676Q16.4551-0.0390625 14.9463 0.605469Q13.4375 1.25 11.709 1.25ZM7.17773-7.05078Q7.17773-6.69922 7.41211-6.47461Q7.64648-6.25 8.01758-6.25L10.8887-6.25L10.8887-3.36914Q10.8887-2.99805 11.1133-2.76855Q11.3379-2.53906 11.6895-2.53906Q12.0605-2.53906 12.29-2.76855Q12.5195-2.99805 12.5195-3.36914L12.5195-6.25L15.4004-6.25Q15.7715-6.25 16.001-6.47461Q16.2305-6.69922 16.2305-7.05078Q16.2305-7.42188 16.001-7.65137Q15.7715-7.88086 15.4004-7.88086L12.5195-7.88086L12.5195-10.752Q12.5195-11.1328 12.29-11.3623Q12.0605-11.5918 11.6895-11.5918Q11.3379-11.5918 11.1133-11.3574Q10.8887-11.123 10.8887-10.752L10.8887-7.88086L8.01758-7.88086Q7.63672-7.88086 7.40723-7.65137Q7.17773-7.42188 7.17773-7.05078Z"/>
  </g>
  <g transform="matrix(1 0 0 1 305.646 1933)">
   <path d="M14.9707 5.66406Q17.0605 5.66406 18.96 5.01465Q20.8594 4.36523 22.4512 3.19336Q24.043 2.02148 25.2197 0.429688Q26.3965-1.16211 27.0459-3.06641Q27.6953-4.9707 27.6953-7.05078Q27.6953-9.14062 27.0459-11.04Q26.3965-12.9395 25.2197-14.5312Q24.043-16.123 22.4512-17.2998Q20.8594-18.4766 18.9551-19.126Q17.0508-19.7754 14.9609-19.7754Q12.8711-19.7754 10.9717-19.126Q9.07227-18.4766 7.48535-17.2998Q5.89844-16.123 4.72168-14.5312Q3.54492-12.9395 2.90039-11.04Q2.25586-9.14062 2.25586-7.05078Q2.25586-4.9707 2.90527-3.06641Q3.55469-1.16211 4.72656 0.429688Q5.89844 2.02148 7.49023 3.19336Q9.08203 4.36523 10.9814 5.01465Q12.8809 5.66406 14.9707 5.66406ZM14.9707 3.84766Q13.1641 3.84766 11.5283 3.2959Q9.89258 2.74414 8.53516 1.74805Q7.17773 0.751953 6.17676-0.610352Q5.17578-1.97266 4.62891-3.6084Q4.08203-5.24414 4.08203-7.05078Q4.08203-8.86719 4.62891-10.5029Q5.17578-12.1387 6.17188-13.501Q7.16797-14.8633 8.52539-15.8594Q9.88281-16.8555 11.5186-17.4023Q13.1543-17.9492 14.9609-17.9492Q16.7773-17.9492 18.4131-17.4023Q20.0488-16.8555 21.4111-15.8594Q22.7734-14.8633 23.7695-13.501Q24.7656-12.1387 25.3174-10.5029Q25.8691-8.86719 25.8691-7.05078Q25.8789-5.24414 25.332-3.6084Q24.7852-1.97266 23.7842-0.610352Q22.7832 0.751953 21.4209 1.74805Q20.0586 2.74414 18.4229 3.2959Q16.7871 3.84766 14.9707 3.84766ZM9.19922-7.05078Q9.19922-6.66992 9.45801-6.4209Q9.7168-6.17188 10.1172-6.17188L14.0625-6.17188L14.0625-2.2168Q14.0625-1.81641 14.3115-1.55762Q14.5605-1.29883 14.9512-1.29883Q15.3516-1.29883 15.6104-1.55273Q15.8691-1.80664 15.8691-2.2168L15.8691-6.17188L19.8242-6.17188Q20.2246-6.17188 20.4785-6.4209Q20.7324-6.66992 20.7324-7.05078Q20.7324-7.46094 20.4785-7.71484Q20.2246-7.96875 19.8242-7.96875L15.8691-7.96875L15.8691-11.9141Q15.8691-12.3242 15.6104-12.583Q15.3516-12.8418 14.9512-12.8418Q14.5605-12.8418 14.3115-12.583Q14.0625-12.3242 14.0625-11.9141L14.0625-7.96875L10.1172-7.96875Q9.70703-7.96875 9.45312-7.71484Q9.19922-7.46094 9.19922-7.05078Z"/>
  </g>
  <text style="stroke:none;fill:black;font-family:sans-serif;font-size:13;font-weight:bold;" transform="matrix(1 0 0 1 263 1953)">Design Variations</text>
  <text style="stroke:none;fill:black;font-family:sans-serif;font-size:13;" transform="matrix(1 0 0 1 263 1971)">Symbols are supported in up to nine weights and three scales.</text>
  <text style="stroke:none;fill:black;font-family:sans-serif;font-size:13;" transform="matrix(1 0 0 1 263 1989)">For optimal layout with text and other symbols, vertically align</text>
  <text style="stroke:none;fill:black;font-family:sans-serif;font-size:13;" transform="matrix(1 0 0 1 263 2007)">symbols with the adjacent text.</text>
  <line style="fill:none;stroke:#00AEEF;stroke-width:0.5;opacity:1.0;" x1="776" x2="776" y1="1919" y2="1933"/>
  <g transform="matrix(1 0 0 1 776 1933)">
   <path d="M3.31055 0.15625Q3.70117 0.15625 3.91602-0.00976562Q4.13086-0.175781 4.26758-0.585938L5.52734-4.0332L11.2891-4.0332L12.5488-0.585938Q12.6855-0.175781 12.9004-0.00976562Q13.1152 0.15625 13.4961 0.15625Q13.8867 0.15625 14.1162-0.0585938Q14.3457-0.273438 14.3457-0.644531Q14.3457-0.869141 14.2383-1.17188L9.6582-13.3691Q9.48242-13.8184 9.17969-14.043Q8.87695-14.2676 8.4082-14.2676Q7.5-14.2676 7.17773-13.3789L2.59766-1.16211Q2.49023-0.859375 2.49023-0.634766Q2.49023-0.263672 2.70996-0.0537109Q2.92969 0.15625 3.31055 0.15625ZM6.00586-5.51758L8.37891-12.0898L8.42773-12.0898L10.8008-5.51758Z"/>
  </g>
  <line style="fill:none;stroke:#00AEEF;stroke-width:0.5;opacity:1.0;" x1="793.197" x2="793.197" y1="1919" y2="1933"/>
  <text style="stroke:none;fill:black;font-family:sans-serif;font-size:13;font-weight:bold;" transform="matrix(1 0 0 1 776 1953)">Margins</text>
  <text style="stroke:none;fill:black;font-family:sans-serif;font-size:13;" transform="matrix(1 0 0 1 776 1971)">Leading and trailing margins on the left and right side of each symbol</text>
  <text style="stroke:none;fill:black;font-family:sans-serif;font-size:13;" transform="matrix(1 0 0 1 776 1989)">can be adjusted by modifying the x-location of the margin guidelines.</text>
  <text style="stroke:none;fill:black;font-family:sans-serif;font-size:13;" transform="matrix(1 0 0 1 776 2007)">Modifications are automatically applied proportionally to all</text>
  <text style="stroke:none;fill:black;font-family:sans-serif;font-size:13;" transform="matrix(1 0 0 1 776 2025)">scales and weights.</text>
  <g transform="matrix(1 0 0 1 1289 1933)">
   <path d="M2.8418 1.86523L4.54102 3.57422Q5.18555 4.22852 5.90332 4.17969Q6.62109 4.13086 7.31445 3.35938L18.0078-8.42773L17.041-9.4043L6.42578 2.27539Q6.16211 2.57812 5.89355 2.61719Q5.625 2.65625 5.27344 2.30469L4.10156 1.14258Q3.75 0.791016 3.79395 0.522461Q3.83789 0.253906 4.14062-0.0195312L15.6152-10.8203L14.6387-11.7871L3.04688-0.898438Q2.30469-0.214844 2.25098 0.498047Q2.19727 1.21094 2.8418 1.86523ZM9.25781-16.3281Q8.94531-16.0254 8.90625-15.6348Q8.86719-15.2441 9.04297-14.9512Q9.21875-14.6777 9.55566-14.541Q9.89258-14.4043 10.3809-14.5215Q11.4746-14.7754 12.5977-14.7314Q13.7207-14.6875 14.7949-13.9844L14.209-12.5293Q13.9551-11.9043 14.0674-11.4404Q14.1797-10.9766 14.5801-10.5664L16.875-8.25195Q17.2363-7.88086 17.5781-7.82227Q17.9199-7.76367 18.3398-7.8418L19.4043-8.03711L20.0684-7.36328L20.0293-6.80664Q20-6.43555 20.1221-6.12305Q20.2441-5.81055 20.6055-5.44922L21.3672-4.70703Q21.7285-4.3457 22.1533-4.33105Q22.5781-4.31641 22.9297-4.66797L25.8398-7.58789Q26.1914-7.93945 26.1816-8.35449Q26.1719-8.76953 25.8105-9.13086L25.0391-9.89258Q24.6875-10.2539 24.3799-10.3857Q24.0723-10.5176 23.7109-10.4883L23.1348-10.4395L22.4902-11.0742L22.7344-12.1973Q22.832-12.6172 22.6953-12.9834Q22.5586-13.3496 22.1191-13.7891L19.9219-15.9766Q18.6719-17.2168 17.2607-17.8369Q15.8496-18.457 14.4189-18.4814Q12.9883-18.5059 11.665-17.959Q10.3418-17.4121 9.25781-16.3281ZM10.752-15.957Q11.6602-16.6211 12.7002-16.9043Q13.7402-17.1875 14.8047-17.085Q15.8691-16.9824 16.8701-16.5137Q17.8711-16.0449 18.7012-15.2051L21.1328-12.793Q21.3086-12.6172 21.3525-12.4512Q21.3965-12.2852 21.3379-12.0312L21.0156-10.5469L22.5195-9.0625L23.5059-9.12109Q23.6914-9.13086 23.7891-9.09668Q23.8867-9.0625 24.0332-8.91602L24.6094-8.33984L22.168-5.89844L21.5918-6.47461Q21.4453-6.62109 21.4062-6.71875Q21.3672-6.81641 21.377-7.01172L21.4453-7.98828L19.9512-9.47266L18.4277-9.21875Q18.1836-9.16992 18.042-9.2041Q17.9004-9.23828 17.7148-9.41406L15.7129-11.416Q15.5176-11.5918 15.4932-11.7529Q15.4688-11.9141 15.5859-12.1875L16.4648-14.2773Q15.293-15.3711 13.8281-15.791Q12.3633-16.2109 10.8398-15.7617Q10.7227-15.7324 10.6885-15.8057Q10.6543-15.8789 10.752-15.957Z"/>
  </g>
  <text style="stroke:none;fill:black;font-family:sans-serif;font-size:13;font-weight:bold;" transform="matrix(1 0 0 1 1289 1953)">Exporting</text>
  <text style="stroke:none;fill:black;font-family:sans-serif;font-size:13;" transform="matrix(1 0 0 1 1289 1971)">Symbols should be outlined when exporting to ensure the</text>
  <text style="stroke:none;fill:black;font-family:sans-serif;font-size:13;" transform="matrix(1 0 0 1 1289 1989)">design is preserved when submitting to Xcode.</text>
  <text id="template-version" style="stroke:none;fill:black;font-family:sans-serif;font-size:13;text-anchor:end;" transform="matrix(1 0 0 1 3036 1933)">Template v.3.0</text>
  <text style="stroke:none;fill:black;font-family:sans-serif;font-size:13;text-anchor:end;" transform="matrix(1 0 0 1 3036 1951)">Requires Xcode 13 or greater</text>
  <text id="descriptive-name" style="stroke:none;fill:black;font-family:sans-serif;font-size:13;text-anchor:end;" transform="matrix(1 0 0 1 3036 1969)">Generated from wind.snow</text>
  <text style="stroke:none;fill:black;font-family:sans-serif;font-size:13;text-anchor:end;" transform="matrix(1 0 0 1 3036 1987)">Typeset at 100 points</text>
  <text style="stroke:none;fill:black;font-family:sans-serif;font-size:13;" transform="matrix(1 0 0 1 263 726)">Small</text>
  <text style="stroke:none;fill:black;font-family:sans-serif;font-size:13;" transform="matrix(1 0 0 1 263 1156)">Medium</text>
  <text style="stroke:none;fill:black;font-family:sans-serif;font-size:13;" transform="matrix(1 0 0 1 263 1586)">Large</text>
 </g>
 <g id="Guides">
  <g id="H-reference" style="fill:#27AAE1;stroke:none;" transform="matrix(1 0 0 1 339 696)">
   <path d="M0.993347 0L3.6377 0L29.3282-67.1326L30.0301-67.1326L30.0301-70.459L28.1227-70.459ZM11.6882-24.4797L46.9818-24.4797L46.2311-26.7288L12.4382-26.7288ZM55.1193 0L57.7637 0L30.6381-70.459L29.4327-70.459L29.4327-67.1326Z"/>
  </g>
  <line id="Baseline-S" style="fill:none;stroke:#27AAE1;opacity:1;stroke-width:0.5;" x1="263" x2="3036" y1="696" y2="696"/>
  <line id="Capline-S" style="fill:none;stroke:#27AAE1;opacity:1;stroke-width:0.5;" x1="263" x2="3036" y1="625.541" y2="625.541"/>
  <g id="H-reference" style="fill:#27AAE1;stroke:none;" transform="matrix(1 0 0 1 339 1126)">
   <path d="M0.993347 0L3.6377 0L29.3282-67.1326L30.0301-67.1326L30.0301-70.459L28.1227-70.459ZM11.6882-24.4797L46.9818-24.4797L46.2311-26.7288L12.4382-26.7288ZM55.1193 0L57.7637 0L30.6381-70.459L29.4327-70.459L29.4327-67.1326Z"/>
  </g>
  <line id="Baseline-M" style="fill:none;stroke:#27AAE1;opacity:1;stroke-width:0.5;" x1="263" x2="3036" y1="1126" y2="1126"/>
  <line id="Capline-M" style="fill:none;stroke:#27AAE1;opacity:1;stroke-width:0.5;" x1="263" x2="3036" y1="1055.54" y2="1055.54"/>
  <g id="H-reference" style="fill:#27AAE1;stroke:none;" transform="matrix(1 0 0 1 339 1556)">
   <path d="M0.993347 0L3.6377 0L29.3282-67.1326L30.0301-67.1326L30.0301-70.459L28.1227-70.459ZM11.6882-24.4797L46.9818-24.4797L46.2311-26.7288L12.4382-26.7288ZM55.1193 0L57.7637 0L30.6381-70.459L29.4327-70.459L29.4327-67.1326Z"/>
  </g>
  <line id="Baseline-L" style="fill:none;stroke:#27AAE1;opacity:1;stroke-width:0.5;" x1="263" x2="3036" y1="1556" y2="1556"/>
  <line id="Capline-L" style="fill:none;stroke:#27AAE1;opacity:1;stroke-width:0.5;" x1="263" x2="3036" y1="1485.54" y2="1485.54"/>
  <line id="left-margin-Ultralight-S" style="fill:none;stroke:#00AEEF;stroke-width:0.5;opacity:1.0;" x1="513.201" x2="513.201" y1="600.785" y2="720.121"/>
  <line id="right-margin-Ultralight-S" style="fill:none;stroke:#00AEEF;stroke-width:0.5;opacity:1.0;" x1="606.221" x2="606.221" y1="600.785" y2="720.121"/>
  <line id="left-margin-Regular-S" style="fill:none;stroke:#00AEEF;stroke-width:0.5;opacity:1.0;" x1="1401.7" x2="1401.7" y1="600.785" y2="720.121"/>
  <line id="right-margin-Regular-S" style="fill:none;stroke:#00AEEF;stroke-width:0.5;opacity:1.0;" x1="1497.99" x2="1497.99" y1="600.785" y2="720.121"/>
  <line id="left-margin-Black-S" style="fill:none;stroke:#00AEEF;stroke-width:0.5;opacity:1.0;" x1="2883.35" x2="2883.35" y1="600.785" y2="720.121"/>
  <line id="right-margin-Black-S" style="fill:none;stroke:#00AEEF;stroke-width:0.5;opacity:1.0;" x1="2983.45" x2="2983.45" y1="600.785" y2="720.121"/>
 </g>
 <g id="Symbols">
  <g id="Black-S" transform="matrix(1 0 0 1 2883.35 696)">
   <path class="multicolor-0:white hierarchical-1:primary SFSymbolsPreviewFFFFFF" d="M76.5625-22.4609Q81.4941-22.4609 85.3271-24.4629Q89.1602-26.4648 91.3574-29.9805Q93.5547-33.4961 93.5547-37.9395Q93.5547-42.334 91.5283-45.8008Q89.502-49.2676 86.0107-51.2939Q82.5195-53.3203 78.1738-53.3203Q73.4863-53.3203 69.4824-50.6348Q65.4785-47.9492 63.7695-43.6035Q63.0859-41.7969 63.6475-40.1367Q64.209-38.4766 65.8691-37.793Q67.6758-37.0117 69.458-37.793Q71.2402-38.5742 72.0215-40.5273Q72.7539-42.2852 74.4873-43.4082Q76.2207-44.5312 78.1738-44.5312Q81.0547-44.5312 82.9102-42.6758Q84.7656-40.8203 84.7656-37.9395Q84.7656-34.9609 82.5439-33.1055Q80.3223-31.25 76.5625-31.25Q72.2656-31.25 67.6025-32.251Q62.9395-33.252 57.9346-34.5703Q52.9297-35.8887 47.5342-36.8896Q42.1387-37.8906 36.3281-37.8906Q30.2734-37.8906 24.5117-36.9873Q18.75-36.084 13.1348-34.3262Q11.2305-33.6914 10.3516-32.1533Q9.47266-30.6152 9.96094-28.8086Q10.498-26.9043 12.1826-26.0986Q13.8672-25.293 15.8203-25.9766Q20.752-27.6367 25.8057-28.3691Q30.8594-29.1016 36.3281-29.1016Q41.8945-29.1016 46.9727-28.1006Q52.0508-27.0996 56.8848-25.7812Q61.7188-24.4629 66.5771-23.4619Q71.4355-22.4609 76.5625-22.4609ZM51.1719 6.68945Q56.4453 6.68945 59.9854 3.10059Q63.5254-0.488281 63.5254-5.81055Q63.5254-13.5254 56.0059-17.6514Q48.4863-21.7773 34.8145-21.7773Q29.541-21.7773 23.9014-20.8496Q18.2617-19.9219 13.1348-18.2617Q11.2305-17.627 10.3516-16.0889Q9.47266-14.5508 9.96094-12.7441Q10.498-10.8398 12.1826-10.0342Q13.8672-9.22852 15.8203-9.91211Q20.3125-11.4746 25.0977-12.2314Q29.8828-12.9883 34.8145-12.9883Q44.1406-12.9883 49.4385-11.0107Q54.7363-9.0332 54.7363-5.81055Q54.7363-4.10156 53.7598-3.10059Q52.7832-2.09961 51.1719-2.09961Q50-2.09961 49.0723-2.7832Q48.1445-3.4668 47.4609-4.78516Q46.6309-6.49414 44.9463-7.10449Q43.2617-7.71484 41.5527-6.88477Q39.8926-6.10352 39.3311-4.29688Q38.7695-2.49023 39.6973-0.634766Q41.3086 2.63672 44.3848 4.66309Q47.4609 6.68945 51.1719 6.68945ZM15.7227-42.8711Q24.0234-45.2148 32.4219-45.2148Q35.8398-45.2148 38.8428-44.9707Q41.8457-44.7266 44.8242-44.458Q47.8027-44.1895 51.123-44.1895Q56.7871-44.1895 60.498-47.7783Q64.209-51.3672 64.209-56.8359Q64.209-62.207 60.5957-65.8203Q56.9824-69.4336 51.6113-69.4336Q48.1934-69.4336 45.0928-67.5781Q41.9922-65.7227 40.3809-62.6465Q39.502-60.9863 39.8926-59.3262Q40.2832-57.666 41.7969-56.6895Q43.457-55.6641 45.2881-56.2256Q47.1191-56.7871 48.1445-58.5938Q48.6816-59.5215 49.6338-60.083Q50.5859-60.6445 51.6113-60.6445Q53.3203-60.6445 54.3701-59.6191Q55.4199-58.5938 55.4199-56.8359Q55.4199-55.0293 54.2725-54.0039Q53.125-52.9785 51.123-52.9785Q48.1445-52.9785 45.2148-53.2227Q42.2852-53.4668 39.1602-53.7354Q36.0352-54.0039 32.4219-54.0039Q27.832-54.0039 22.9492-53.2959Q18.0664-52.5879 13.1836-51.3184Q11.2793-50.8301 10.376-49.2432Q9.47266-47.6562 9.96094-45.8008Q10.498-43.9453 12.1094-43.1152Q13.7207-42.2852 15.7227-42.8711Z"/>
   <path class="multicolor-0:white hierarchical-0:secondary SFSymbolsPreviewFFFFFF" d="M80.3223-59.2285Q81.4453-59.2285 82.1045-60.0586Q82.7637-60.8887 82.5195-62.0605L81.9336-65.0391L84.3262-63.0859Q85.2539-62.3047 86.2549-62.4268Q87.2559-62.5488 87.7441-63.5254Q88.2812-64.502 87.915-65.5273Q87.5488-66.5527 86.4258-66.9434L83.7402-67.8711L86.4746-68.8965Q87.5977-69.2871 87.9639-70.2637Q88.3301-71.2402 87.793-72.168Q87.2559-73.1445 86.2061-73.291Q85.1562-73.4375 84.2773-72.6562L82.0312-70.8496L82.5195-73.6816Q82.7637-74.8535 82.1045-75.6836Q81.4453-76.5137 80.3223-76.5137Q79.1992-76.5137 78.54-75.6836Q77.8809-74.8535 78.0762-73.6816L78.5645-70.8984L76.3184-72.7051Q75.3906-73.4375 74.3652-73.291Q73.3398-73.1445 72.8027-72.168Q72.2656-71.2402 72.6807-70.2393Q73.0957-69.2383 74.1699-68.8477L76.9531-67.9199L74.1211-66.8945Q73.0469-66.4551 72.6562-65.4541Q72.2656-64.4531 72.8516-63.5254Q73.3887-62.5488 74.3896-62.4268Q75.3906-62.3047 76.3184-63.0859L78.5645-64.9414L78.0762-62.0605Q77.8809-60.8887 78.54-60.0586Q79.1992-59.2285 80.3223-59.2285ZM80.3223 2.7832Q81.4453 2.7832 82.1045 1.95312Q82.7637 1.12305 82.5195-0.0488281L81.9336-3.02734L84.3262-1.07422Q85.2539-0.292969 86.2549-0.415039Q87.2559-0.537109 87.7441-1.51367Q88.2812-2.49023 87.915-3.51562Q87.5488-4.54102 86.4258-4.93164L83.7402-5.85938L86.4746-6.88477Q87.5977-7.27539 87.9639-8.25195Q88.3301-9.22852 87.793-10.1562Q87.2559-11.1328 86.2061-11.2793Q85.1562-11.4258 84.2773-10.6445L82.0312-8.83789L82.5195-11.6699Q82.7637-12.8418 82.1045-13.6719Q81.4453-14.502 80.3223-14.502Q79.1992-14.502 78.54-13.6719Q77.8809-12.8418 78.0762-11.6699L78.5645-8.88672L76.3184-10.6934Q75.3906-11.4258 74.3652-11.2793Q73.3398-11.1328 72.8027-10.1562Q72.2656-9.22852 72.6807-8.22754Q73.0957-7.22656 74.1699-6.83594L76.9531-5.9082L74.1211-4.88281Q73.0469-4.44336 72.6562-3.44238Q72.2656-2.44141 72.8516-1.51367Q73.3887-0.537109 74.3896-0.415039Q75.3906-0.292969 76.3184-1.07422L78.5645-2.92969L78.0762-0.0488281Q77.8809 1.12305 78.54 1.95312Q79.1992 2.7832 80.3223 2.7832Z"/>
  </g>
  <g id="Regular-S" transform="matrix(1 0 0 1 1401.7 696)">
   <path class="multicolor-0:white hierarchical-1:primary SFSymbolsPreviewFFFFFF" d="M73.1445-24.6094Q77.6367-24.6094 81.1279-26.3916Q84.6191-28.1738 86.5967-31.3232Q88.5742-34.4727 88.5742-38.4766Q88.5742-42.5293 86.7188-45.6543Q84.8633-48.7793 81.7383-50.5371Q78.6133-52.2949 74.7559-52.2949Q69.5312-52.2949 65.9424-49.1211Q62.3535-45.9473 61.6211-41.1621Q61.4258-39.8438 62.0605-38.8672Q62.6953-37.8906 63.8672-37.6953Q65.0879-37.5 66.04-38.2324Q66.9922-38.9648 67.2852-40.5273Q67.7734-43.3594 69.8975-45.0195Q72.0215-46.6797 74.7559-46.6797Q78.1738-46.6797 80.5664-44.4336Q82.959-42.1875 82.959-38.4766Q82.959-34.8145 80.2734-32.5195Q77.5879-30.2246 73.1445-30.2246Q68.7988-30.2246 64.2578-31.2256Q59.7168-32.2266 54.8584-33.5449Q50-34.8633 44.751-35.8643Q39.502-36.8652 33.7891-36.8652Q27.9785-36.8652 22.5342-35.9863Q17.0898-35.1074 12.0117-33.3496Q10.6934-32.9102 10.1318-31.8848Q9.57031-30.8594 9.91211-29.7363Q10.2539-28.6133 11.2549-28.0273Q12.2559-27.4414 13.7207-27.9785Q18.4082-29.5898 23.3154-30.4199Q28.2227-31.25 33.7891-31.25Q39.5508-31.25 44.6045-30.2246Q49.6582-29.1992 54.3457-27.9053Q59.0332-26.6113 63.6719-25.6104Q68.3105-24.6094 73.1445-24.6094ZM48.7305 2.53906Q53.2715 2.53906 56.3965-0.488281Q59.5215-3.51562 59.5215-8.39844Q59.5215-15.332 52.71-19.043Q45.8984-22.7539 32.9102-22.7539Q27.7344-22.7539 22.29-21.8506Q16.8457-20.9473 12.0117-19.2871Q10.6934-18.8477 10.1318-17.8223Q9.57031-16.7969 9.91211-15.6738Q10.2539-14.5508 11.2549-13.9893Q12.2559-13.4277 13.7207-13.916Q18.2129-15.4785 23.0469-16.3086Q27.8809-17.1387 32.9102-17.1387Q43.2617-17.1387 48.584-14.7705Q53.9062-12.4023 53.9062-8.39844Q53.9062-5.85938 52.3682-4.46777Q50.8301-3.07617 48.7305-3.07617Q46.582-3.07617 45.3369-4.44336Q44.0918-5.81055 43.7012-8.10547Q43.5059-9.27734 42.6758-10.1318Q41.8457-10.9863 40.4297-10.8887Q38.916-10.791 38.3301-9.7168Q37.7441-8.64258 37.9395-7.37305Q38.4766-3.32031 41.3086-0.390625Q44.1406 2.53906 48.7305 2.53906ZM13.7207-42.8711Q22.0703-45.3125 30.3223-45.3125Q33.7402-45.3125 36.6943-45.0684Q39.6484-44.8242 42.5781-44.5557Q45.5078-44.2871 48.6816-44.2871Q54.0527-44.2871 57.1289-47.4854Q60.2051-50.6836 60.2051-55.3711Q60.2051-60.2539 56.9824-63.3301Q53.7598-66.4062 49.2188-66.4062Q45.9961-66.4062 43.3105-64.6729Q40.625-62.9395 39.2578-60.3027Q38.7207-59.2285 38.916-58.1055Q39.1113-56.9824 40.2344-56.3477Q41.2598-55.8105 42.4316-56.1279Q43.6035-56.4453 44.3359-57.7637Q44.9707-59.0332 46.2891-59.8877Q47.6074-60.7422 49.2188-60.7422Q51.416-60.7422 53.0029-59.3262Q54.5898-57.9102 54.5898-55.3711Q54.5898-52.8809 52.9785-51.416Q51.3672-49.9512 48.6816-49.9512Q45.7031-49.9512 42.8223-50.1953Q39.9414-50.4395 36.8896-50.708Q33.8379-50.9766 30.3223-50.9766Q25.6348-50.9766 20.9717-50.2441Q16.3086-49.5117 12.0117-48.291Q10.6445-47.9004 10.1074-46.875Q9.57031-45.8496 9.91211-44.7266Q10.2539-43.5547 11.2549-42.9932Q12.2559-42.4316 13.7207-42.8711Z"/>
   <path class="multicolor-0:white hierarchical-0:secondary SFSymbolsPreviewFFFFFF" d="M76.3184-58.8379Q77.002-58.8379 77.4414-59.3262Q77.8809-59.8145 77.832-60.498L77.5879-63.5254L80.0781-61.7676Q80.5664-61.4746 81.25-61.5967Q81.9336-61.7188 82.2754-62.2559Q82.666-62.8418 82.4463-63.5498Q82.2266-64.2578 81.543-64.502L78.8574-65.8203L81.6406-67.1387Q82.2266-67.4316 82.4463-68.0908Q82.666-68.75 82.3242-69.3848Q82.0312-69.9219 81.2988-70.0684Q80.5664-70.2148 80.0293-69.8242L77.5879-68.1152L77.8809-71.0449Q77.9297-71.7285 77.4658-72.2412Q77.002-72.7539 76.3184-72.7539Q75.6348-72.7539 75.1709-72.29Q74.707-71.8262 74.7559-71.0938L75-68.0664L72.4609-69.8242Q71.9238-70.2148 71.2646-70.0684Q70.6055-69.9219 70.3125-69.3848Q69.9219-68.75 70.1172-68.0908Q70.3125-67.4316 70.9473-67.1387L73.6816-65.8203L70.9961-64.502Q70.3125-64.2578 70.0928-63.5742Q69.873-62.8906 70.2637-62.2559Q70.5566-61.7188 71.2402-61.5723Q71.9238-61.4258 72.4609-61.7676L75-63.5254L74.8047-60.498Q74.7559-59.8145 75.1953-59.3262Q75.6348-58.8379 76.3184-58.8379ZM76.3184-3.125Q77.002-3.125 77.4414-3.6377Q77.8809-4.15039 77.832-4.83398L77.5879-7.8125L80.0781-6.10352Q80.5664-5.76172 81.25-5.88379Q81.9336-6.00586 82.2754-6.54297Q82.666-7.12891 82.4463-7.83691Q82.2266-8.54492 81.543-8.78906L78.8574-10.1074L81.6406-11.4746Q82.2266-11.7676 82.4463-12.4023Q82.666-13.0371 82.3242-13.6719Q82.0312-14.209 81.2988-14.3799Q80.5664-14.5508 80.0293-14.1602L77.5879-12.4023L77.8809-15.332Q77.9297-16.0156 77.4658-16.5527Q77.002-17.0898 76.3184-17.0898Q75.6348-17.0898 75.1709-16.6016Q74.707-16.1133 74.7559-15.3809L75-12.3535L72.4609-14.1602Q71.9238-14.502 71.2646-14.3799Q70.6055-14.2578 70.3125-13.6719Q69.9219-13.0371 70.1172-12.4023Q70.3125-11.7676 70.9473-11.4746L73.6816-10.1074L70.9961-8.78906Q70.3125-8.54492 70.0928-7.88574Q69.873-7.22656 70.2637-6.54297Q70.5566-6.00586 71.2402-5.85938Q71.9238-5.71289 72.4609-6.10352L75-7.8125L74.8047-4.83398Q74.7559-4.10156 75.1953-3.61328Q75.6348-3.125 76.3184-3.125Z"/>
  </g>
  <g id="Ultralight-S" transform="matrix(1 0 0 1 513.201 696)">
   <path class="multicolor-0:white hierarchical-1:primary SFSymbolsPreviewFFFFFF" d="M73.008-27.5612Q77.3643-27.5612 80.5149-29.1164Q83.6655-30.6717 85.3706-33.4122Q87.0758-36.1526 87.0758-39.7026Q87.0758-42.9832 85.4927-45.7222Q83.9096-48.4612 81.216-50.0828Q78.5225-51.7044 75.1648-51.7044Q70.2576-51.7044 66.8961-48.3719Q63.5345-45.0394 63.1653-40.4808Q63.1058-39.9803 63.3999-39.6622Q63.694-39.344 64.1396-39.3303Q64.5432-39.3166 64.8369-39.5721Q65.1306-39.8277 65.1962-40.3Q65.5487-44.0407 68.3083-46.8361Q71.0678-49.6315 75.1648-49.6315Q79.3549-49.6315 82.2014-46.727Q85.0479-43.8225 85.0479-39.7026Q85.0479-35.2234 81.8401-32.4287Q78.6324-29.6341 73.008-29.6341Q68.3899-29.6341 63.6673-30.6351Q58.9447-31.636 53.9276-32.9544Q48.9105-34.2728 43.5478-35.2737Q38.1851-36.2747 32.3357-36.2747Q26.162-36.2747 20.8084-35.1463Q15.4549-34.0179 10.4225-31.987Q10.0121-31.8207 9.85947-31.4308Q9.70688-31.041 9.86633-30.6442Q10.0266-30.2483 10.4145-30.0938Q10.8025-29.9393 11.2228-30.1582Q15.9561-32.4509 21.1357-33.3263Q26.3153-34.2018 32.3357-34.2018Q38.0524-34.2018 43.3331-33.1989Q48.6137-32.196 53.5736-30.9021Q58.5335-29.6082 63.3537-28.5847Q68.174-27.5612 73.008-27.5612ZM49.1394-1.41144Q52.9083-1.41144 55.4657-4.00734Q58.0231-6.60324 58.0231-10.5324Q58.0231-16.6039 51.6655-19.8605Q45.3079-23.1171 33.6365-23.1171Q27.6886-23.1171 21.5858-21.896Q15.4831-20.6749 10.4675-18.8782Q10.0121-18.7111 9.85947-18.2987Q9.70688-17.8864 9.86633-17.5354Q10.0266-17.1394 10.4145-16.9865Q10.8025-16.8335 11.2228-16.9586Q16.124-18.9293 22.0253-20.0092Q27.9266-21.0892 33.6365-21.0892Q44.3512-21.0892 50.1732-18.2896Q55.9952-15.49 55.9952-10.5324Q55.9952-7.44858 54.0257-5.44395Q52.0561-3.43933 49.1394-3.43933Q46.3547-3.43933 44.474-5.07889Q42.5934-6.71844 42.157-9.69467Q42.1432-10.1402 41.8129-10.4496Q41.4825-10.759 41.0202-10.7521Q40.551-10.7452 40.2828-10.3752Q40.0146-10.0052 40.0734-9.50699Q40.5655-5.72739 43.0569-3.56941Q45.5482-1.41144 49.1394-1.41144ZM11.2686-43.8248Q19.1643-47.3557 28.0067-47.3557Q32.151-47.3557 35.4458-46.9753Q38.7405-46.595 41.9426-46.2357Q45.1447-45.8763 48.9998-45.8763Q53.3264-45.8763 56.0165-48.4844Q58.7067-51.0925 58.7067-55.1437Q58.7067-58.9821 56.1195-61.6726Q53.5324-64.3631 49.6277-64.3631Q46.0419-64.3631 43.515-62.1529Q40.9882-59.9426 40.4388-56.8062Q40.3099-56.3675 40.596-56.0165Q40.8821-55.6656 41.3696-55.6664Q41.7595-55.629 42.0231-55.8556Q42.2867-56.0822 42.3836-56.4919Q42.8818-58.8966 44.836-60.614Q46.7903-62.3314 49.6277-62.3314Q52.6878-62.3314 54.6833-60.2116Q56.6788-58.0917 56.6788-55.1437Q56.6788-51.9272 54.5677-49.9176Q52.4567-47.908 48.9998-47.908Q45.1584-47.908 42.0277-48.2883Q38.8969-48.6687 35.6182-49.028Q32.3395-49.3874 28.0067-49.3874Q23.455-49.3874 18.9281-48.4051Q14.4012-47.4228 10.4225-45.6573Q9.96323-45.4483 9.83505-45.0813Q9.70688-44.7144 9.86633-44.3176Q10.0266-43.9178 10.4145-43.7878Q10.8025-43.6577 11.2686-43.8248Z"/>
   <path class="multicolor-0:white hierarchical-0:secondary SFSymbolsPreviewFFFFFF" d="M76.7273-58.0658Q77.2293-58.0658 77.4643-58.4179Q77.6993-58.77 77.6955-59.2262L77.5879-63.253L80.986-61.1771Q81.4293-60.8841 81.863-60.9383Q82.2968-60.9924 82.5478-61.4388Q82.8026-61.8431 82.6054-62.2105Q82.4081-62.5778 81.9519-62.822L78.4485-64.7308L81.9588-66.6847Q82.3631-66.8869 82.56-67.2737Q82.7568-67.6605 82.5058-68.1129Q82.3036-68.5593 81.8665-68.5696Q81.4293-68.5799 80.983-68.3258L77.5879-66.2079L77.6993-70.2728Q77.7023-70.7298 77.4658-71.0835Q77.2293-71.4371 76.7273-71.4371Q76.2703-71.4371 76.0334-71.0869Q75.7965-70.7367 75.7545-70.2766L75.8629-66.2048L72.4609-68.3258Q72.0146-68.5799 71.5824-68.5696Q71.1502-68.5593 70.903-68.1129Q70.694-67.6605 70.8664-67.2962Q71.0388-66.9319 71.492-66.6847L74.9985-64.7308L71.4958-62.867Q71.0388-62.6228 70.842-62.2345Q70.6451-61.8462 70.8992-61.4388Q71.1922-60.9924 71.6034-60.9821Q72.0146-60.9718 72.4609-61.2228L75.8629-63.298L75.7584-59.2262Q75.7545-58.77 76.0124-58.4179Q76.2703-58.0658 76.7273-58.0658ZM76.7273-6.84891Q77.2293-6.84891 77.4643-7.20253Q77.6993-7.55615 77.6955-8.05817L77.5879-12.0354L80.986-9.96323Q81.4293-9.71222 81.863-9.7435Q82.2968-9.77478 82.5478-10.2211Q82.8026-10.6255 82.6054-10.9928Q82.4081-11.3602 81.9519-11.6043L78.4485-13.5582L81.9588-15.4709Q82.3631-15.6731 82.56-16.0805Q82.7568-16.4879 82.5058-16.9411Q82.3036-17.3424 81.8665-17.3771Q81.4293-17.4118 80.983-17.112L77.5879-14.991L77.6993-19.0559Q77.7023-19.5122 77.4658-19.8902Q77.2293-20.2682 76.7273-20.2682Q76.2703-20.2682 76.0334-19.8936Q75.7965-19.519 75.7545-19.059L75.8629-14.9872L72.4609-17.112Q72.0146-17.408 71.5824-17.3767Q71.1502-17.3454 70.903-16.9411Q70.694-16.4879 70.8664-16.103Q71.0388-15.7181 71.492-15.4709L74.9985-13.5582L71.4958-11.6501Q71.0388-11.4059 70.842-11.0191Q70.6451-10.6323 70.8992-10.2211Q71.1922-9.82056 71.6034-9.78737Q72.0146-9.75418 72.4609-10.009L75.8629-12.0811L75.7584-8.05817Q75.7545-7.55234 76.0124-7.20062Q76.2703-6.84891 76.7273-6.84891Z"/>
  </g>
 </g>
</svg>
