<svg width="88" height="89" viewBox="0 0 88 89" fill="none" xmlns="http://www.w3.org/2000/svg">
<path d="M18.3106 58.4473H65.625C69.8568 58.4473 73.641 57.4707 76.9776 55.5176C80.3142 53.5645 82.9427 50.9522 84.8633 47.6807C86.7839 44.4092 87.7442 40.7877 87.7442 36.8164C87.7442 32.6823 86.7269 29.0039 84.6924 25.7812C82.6579 22.5586 79.891 20.0196 76.3916 18.1641C72.8922 16.3086 68.9616 15.3808 64.5996 15.3808C63.0046 12.2558 60.9701 9.54587 58.4961 7.251C56.0221 4.95607 53.2064 3.17383 50.0489 1.9043C46.8913 0.634764 43.5058 0 39.8926 0C35.0423 0 30.5908 1.13933 26.5381 3.418C22.4853 5.6966 19.165 8.75647 16.5772 12.5976C13.9892 16.4388 12.4837 20.7357 12.0606 25.4883C8.61003 26.4974 5.73729 28.4423 3.44236 31.3232C1.14745 34.2041 0 37.679 0 41.748C0 44.8405 0.716147 47.6481 2.14844 50.1709C3.58072 52.6937 5.66406 54.7038 8.39846 56.2012C11.1328 57.6986 14.4368 58.4473 18.3106 58.4473Z" fill="#808080"/>
<path d="M26.7578 87.0604L37.7441 68.0175C38.1347 67.3339 38.2405 66.6666 38.0615 66.0155C37.8825 65.3645 37.4674 64.8437 36.8163 64.453C36.1653 64.0949 35.5062 63.9973 34.8388 64.16C34.1715 64.3228 33.6425 64.746 33.2519 65.4296L22.2656 84.5214C21.9401 85.1399 21.8587 85.7828 22.0214 86.4501C22.1842 87.1174 22.5911 87.6301 23.2421 87.9882C23.8932 88.3463 24.5605 88.4358 25.2441 88.2567C25.9277 88.0777 26.4323 87.6789 26.7578 87.0604ZM41.9921 87.0604L52.9785 68.0175C53.3691 67.3339 53.4668 66.6666 53.2714 66.0155C53.0762 65.3645 52.6693 64.8437 52.0507 64.453C51.3997 64.0949 50.7406 63.9973 50.0732 64.16C49.4059 64.3228 48.8769 64.746 48.4863 65.4296L37.4999 84.5214C37.1745 85.1399 37.0931 85.7828 37.2558 86.4501C37.4186 87.1174 37.8255 87.6301 38.4765 87.9882C39.095 88.3463 39.746 88.4358 40.4296 88.2567C41.1132 88.0777 41.6341 87.6789 41.9921 87.0604ZM11.5234 87.0604L22.5097 68.0175C22.9003 67.3339 22.998 66.6666 22.8027 66.0155C22.6074 65.3645 22.2005 64.8437 21.582 64.453C20.931 64.0949 20.2718 63.9973 19.6044 64.16C18.9372 64.3228 18.4082 64.746 18.0175 65.4296L7.03124 84.5214C6.70571 85.1399 6.62431 85.7828 6.78704 86.4501C6.94984 87.1174 7.35678 87.6301 8.00784 87.9882C8.62631 88.3463 9.27734 88.4358 9.96094 88.2567C10.6445 88.0777 11.1654 87.6789 11.5234 87.0604ZM57.1288 87.1093L68.164 67.9198C68.5221 67.3013 68.6198 66.6503 68.457 65.9667C68.2942 65.2831 67.8873 64.7785 67.2363 64.453C66.5853 64.1275 65.9261 64.038 65.2587 64.1845C64.5915 64.331 64.0788 64.7297 63.7206 65.3808L52.7831 84.4726C52.3925 85.0911 52.2786 85.7421 52.4413 86.4257C52.6041 87.1093 53.011 87.6301 53.662 87.9882C54.248 88.3463 54.8828 88.4358 55.5663 88.2567C56.2499 88.0777 56.7708 87.6952 57.1288 87.1093Z" fill="#497DFA"/>
</svg>
