<?xml version="1.0" encoding="UTF-8"?>
<!--Generator: Apple Native CoreSVG 175-->
<!DOCTYPE svg
PUBLIC "-//W3C//DTD SVG 1.1//EN"
       "http://www.w3.org/Graphics/SVG/1.1/DTD/svg11.dtd">
<svg version="1.1" xmlns="http://www.w3.org/2000/svg" xmlns:xlink="http://www.w3.org/1999/xlink" width="3300" height="2200">
 <!--glyph: "uni1001E2.medium", point size: 100.0, font version: "17.3d3e1", template writer version: "65.1"-->
 <g id="Notes">
  <rect height="2200" id="artboard" style="fill:white;opacity:1" width="3300" x="0" y="0"/>
  <line style="fill:none;stroke:black;opacity:1;stroke-width:0.5;" x1="263" x2="3036" y1="292" y2="292"/>
  <text style="stroke:none;fill:black;font-family:sans-serif;font-size:13;font-weight:bold;" transform="matrix(1 0 0 1 263 322)">Weight/Scale Variations</text>
  <text style="stroke:none;fill:black;font-family:sans-serif;font-size:13;text-anchor:middle;" transform="matrix(1 0 0 1 559.711 322)">Ultralight</text>
  <text style="stroke:none;fill:black;font-family:sans-serif;font-size:13;text-anchor:middle;" transform="matrix(1 0 0 1 856.422 322)">Thin</text>
  <text style="stroke:none;fill:black;font-family:sans-serif;font-size:13;text-anchor:middle;" transform="matrix(1 0 0 1 1153.13 322)">Light</text>
  <text style="stroke:none;fill:black;font-family:sans-serif;font-size:13;text-anchor:middle;" transform="matrix(1 0 0 1 1449.84 322)">Regular</text>
  <text style="stroke:none;fill:black;font-family:sans-serif;font-size:13;text-anchor:middle;" transform="matrix(1 0 0 1 1746.56 322)">Medium</text>
  <text style="stroke:none;fill:black;font-family:sans-serif;font-size:13;text-anchor:middle;" transform="matrix(1 0 0 1 2043.27 322)">Semibold</text>
  <text style="stroke:none;fill:black;font-family:sans-serif;font-size:13;text-anchor:middle;" transform="matrix(1 0 0 1 2339.98 322)">Bold</text>
  <text style="stroke:none;fill:black;font-family:sans-serif;font-size:13;text-anchor:middle;" transform="matrix(1 0 0 1 2636.69 322)">Heavy</text>
  <text style="stroke:none;fill:black;font-family:sans-serif;font-size:13;text-anchor:middle;" transform="matrix(1 0 0 1 2933.4 322)">Black</text>
  <line style="fill:none;stroke:black;opacity:1;stroke-width:0.5;" x1="263" x2="3036" y1="1903" y2="1903"/>
  <g transform="matrix(1 0 0 1 263 1933)">
   <path d="M9.24805 0.830078Q10.8691 0.830078 12.2949 0.214844Q13.7207-0.400391 14.8096-1.49414Q15.8984-2.58789 16.5186-4.01367Q17.1387-5.43945 17.1387-7.05078Q17.1387-8.66211 16.5186-10.0879Q15.8984-11.5137 14.8047-12.6074Q13.7109-13.7012 12.2852-14.3164Q10.8594-14.9316 9.23828-14.9316Q7.62695-14.9316 6.20117-14.3164Q4.77539-13.7012 3.69141-12.6074Q2.60742-11.5137 1.9873-10.0879Q1.36719-8.66211 1.36719-7.05078Q1.36719-5.43945 1.9873-4.01367Q2.60742-2.58789 3.69629-1.49414Q4.78516-0.400391 6.21094 0.214844Q7.63672 0.830078 9.24805 0.830078ZM9.24805-0.654297Q7.91992-0.654297 6.7627-1.14746Q5.60547-1.64062 4.73145-2.51953Q3.85742-3.39844 3.36426-4.56055Q2.87109-5.72266 2.87109-7.05078Q2.87109-8.37891 3.35938-9.54102Q3.84766-10.7031 4.72168-11.582Q5.5957-12.4609 6.75293-12.9541Q7.91016-13.4473 9.23828-13.4473Q10.5762-13.4473 11.7334-12.9541Q12.8906-12.4609 13.7695-11.582Q14.6484-10.7031 15.1465-9.54102Q15.6445-8.37891 15.6445-7.05078Q15.6445-5.72266 15.1514-4.56055Q14.6582-3.39844 13.7842-2.51953Q12.9102-1.64062 11.748-1.14746Q10.5859-0.654297 9.24805-0.654297ZM5.6543-7.05078Q5.6543-6.72852 5.85938-6.52832Q6.06445-6.32812 6.40625-6.32812L8.51562-6.32812L8.51562-4.20898Q8.51562-3.88672 8.71094-3.67676Q8.90625-3.4668 9.23828-3.4668Q9.56055-3.4668 9.77051-3.67676Q9.98047-3.88672 9.98047-4.20898L9.98047-6.32812L12.0898-6.32812Q12.4219-6.32812 12.627-6.52832Q12.832-6.72852 12.832-7.05078Q12.832-7.38281 12.627-7.58789Q12.4219-7.79297 12.0898-7.79297L9.98047-7.79297L9.98047-9.90234Q9.98047-10.2344 9.77051-10.4443Q9.56055-10.6543 9.23828-10.6543Q8.90625-10.6543 8.71094-10.4443Q8.51562-10.2344 8.51562-9.90234L8.51562-7.79297L6.40625-7.79297Q6.06445-7.79297 5.85938-7.58789Q5.6543-7.38281 5.6543-7.05078Z"/>
  </g>
  <g transform="matrix(1 0 0 1 281.867 1933)">
   <path d="M11.709 2.91016Q13.75 2.91016 15.5518 2.12891Q17.3535 1.34766 18.7305-0.0292969Q20.1074-1.40625 20.8887-3.20801Q21.6699-5.00977 21.6699-7.05078Q21.6699-9.0918 20.8887-10.8936Q20.1074-12.6953 18.7305-14.0723Q17.3535-15.4492 15.5469-16.2305Q13.7402-17.0117 11.6992-17.0117Q9.6582-17.0117 7.85645-16.2305Q6.05469-15.4492 4.68262-14.0723Q3.31055-12.6953 2.5293-10.8936Q1.74805-9.0918 1.74805-7.05078Q1.74805-5.00977 2.5293-3.20801Q3.31055-1.40625 4.6875-0.0292969Q6.06445 1.34766 7.86621 2.12891Q9.66797 2.91016 11.709 2.91016ZM11.709 1.25Q9.98047 1.25 8.47656 0.605469Q6.97266-0.0390625 5.83496-1.17676Q4.69727-2.31445 4.05762-3.81836Q3.41797-5.32227 3.41797-7.05078Q3.41797-8.7793 4.05762-10.2832Q4.69727-11.7871 5.83008-12.9297Q6.96289-14.0723 8.4668-14.7119Q9.9707-15.3516 11.6992-15.3516Q13.4277-15.3516 14.9316-14.7119Q16.4355-14.0723 17.5781-12.9297Q18.7207-11.7871 19.3652-10.2832Q20.0098-8.7793 20.0098-7.05078Q20.0098-5.32227 19.3701-3.81836Q18.7305-2.31445 17.5928-1.17676Q16.4551-0.0390625 14.9463 0.605469Q13.4375 1.25 11.709 1.25ZM7.17773-7.05078Q7.17773-6.69922 7.41211-6.47461Q7.64648-6.25 8.01758-6.25L10.8887-6.25L10.8887-3.36914Q10.8887-2.99805 11.1133-2.76855Q11.3379-2.53906 11.6895-2.53906Q12.0605-2.53906 12.29-2.76855Q12.5195-2.99805 12.5195-3.36914L12.5195-6.25L15.4004-6.25Q15.7715-6.25 16.001-6.47461Q16.2305-6.69922 16.2305-7.05078Q16.2305-7.42188 16.001-7.65137Q15.7715-7.88086 15.4004-7.88086L12.5195-7.88086L12.5195-10.752Q12.5195-11.1328 12.29-11.3623Q12.0605-11.5918 11.6895-11.5918Q11.3379-11.5918 11.1133-11.3574Q10.8887-11.123 10.8887-10.752L10.8887-7.88086L8.01758-7.88086Q7.63672-7.88086 7.40723-7.65137Q7.17773-7.42188 7.17773-7.05078Z"/>
  </g>
  <g transform="matrix(1 0 0 1 305.646 1933)">
   <path d="M14.9707 5.66406Q17.0605 5.66406 18.96 5.01465Q20.8594 4.36523 22.4512 3.19336Q24.043 2.02148 25.2197 0.429688Q26.3965-1.16211 27.0459-3.06641Q27.6953-4.9707 27.6953-7.05078Q27.6953-9.14062 27.0459-11.04Q26.3965-12.9395 25.2197-14.5312Q24.043-16.123 22.4512-17.2998Q20.8594-18.4766 18.9551-19.126Q17.0508-19.7754 14.9609-19.7754Q12.8711-19.7754 10.9717-19.126Q9.07227-18.4766 7.48535-17.2998Q5.89844-16.123 4.72168-14.5312Q3.54492-12.9395 2.90039-11.04Q2.25586-9.14062 2.25586-7.05078Q2.25586-4.9707 2.90527-3.06641Q3.55469-1.16211 4.72656 0.429688Q5.89844 2.02148 7.49023 3.19336Q9.08203 4.36523 10.9814 5.01465Q12.8809 5.66406 14.9707 5.66406ZM14.9707 3.84766Q13.1641 3.84766 11.5283 3.2959Q9.89258 2.74414 8.53516 1.74805Q7.17773 0.751953 6.17676-0.610352Q5.17578-1.97266 4.62891-3.6084Q4.08203-5.24414 4.08203-7.05078Q4.08203-8.86719 4.62891-10.5029Q5.17578-12.1387 6.17188-13.501Q7.16797-14.8633 8.52539-15.8594Q9.88281-16.8555 11.5186-17.4023Q13.1543-17.9492 14.9609-17.9492Q16.7773-17.9492 18.4131-17.4023Q20.0488-16.8555 21.4111-15.8594Q22.7734-14.8633 23.7695-13.501Q24.7656-12.1387 25.3174-10.5029Q25.8691-8.86719 25.8691-7.05078Q25.8789-5.24414 25.332-3.6084Q24.7852-1.97266 23.7842-0.610352Q22.7832 0.751953 21.4209 1.74805Q20.0586 2.74414 18.4229 3.2959Q16.7871 3.84766 14.9707 3.84766ZM9.19922-7.05078Q9.19922-6.66992 9.45801-6.4209Q9.7168-6.17188 10.1172-6.17188L14.0625-6.17188L14.0625-2.2168Q14.0625-1.81641 14.3115-1.55762Q14.5605-1.29883 14.9512-1.29883Q15.3516-1.29883 15.6104-1.55273Q15.8691-1.80664 15.8691-2.2168L15.8691-6.17188L19.8242-6.17188Q20.2246-6.17188 20.4785-6.4209Q20.7324-6.66992 20.7324-7.05078Q20.7324-7.46094 20.4785-7.71484Q20.2246-7.96875 19.8242-7.96875L15.8691-7.96875L15.8691-11.9141Q15.8691-12.3242 15.6104-12.583Q15.3516-12.8418 14.9512-12.8418Q14.5605-12.8418 14.3115-12.583Q14.0625-12.3242 14.0625-11.9141L14.0625-7.96875L10.1172-7.96875Q9.70703-7.96875 9.45312-7.71484Q9.19922-7.46094 9.19922-7.05078Z"/>
  </g>
  <text style="stroke:none;fill:black;font-family:sans-serif;font-size:13;font-weight:bold;" transform="matrix(1 0 0 1 263 1953)">Design Variations</text>
  <text style="stroke:none;fill:black;font-family:sans-serif;font-size:13;" transform="matrix(1 0 0 1 263 1971)">Symbols are supported in up to nine weights and three scales.</text>
  <text style="stroke:none;fill:black;font-family:sans-serif;font-size:13;" transform="matrix(1 0 0 1 263 1989)">For optimal layout with text and other symbols, vertically align</text>
  <text style="stroke:none;fill:black;font-family:sans-serif;font-size:13;" transform="matrix(1 0 0 1 263 2007)">symbols with the adjacent text.</text>
  <line style="fill:none;stroke:#00AEEF;stroke-width:0.5;opacity:1.0;" x1="776" x2="776" y1="1919" y2="1933"/>
  <g transform="matrix(1 0 0 1 776 1933)">
   <path d="M3.31055 0.15625Q3.70117 0.15625 3.91602-0.00976562Q4.13086-0.175781 4.26758-0.585938L5.52734-4.0332L11.2891-4.0332L12.5488-0.585938Q12.6855-0.175781 12.9004-0.00976562Q13.1152 0.15625 13.4961 0.15625Q13.8867 0.15625 14.1162-0.0585938Q14.3457-0.273438 14.3457-0.644531Q14.3457-0.869141 14.2383-1.17188L9.6582-13.3691Q9.48242-13.8184 9.17969-14.043Q8.87695-14.2676 8.4082-14.2676Q7.5-14.2676 7.17773-13.3789L2.59766-1.16211Q2.49023-0.859375 2.49023-0.634766Q2.49023-0.263672 2.70996-0.0537109Q2.92969 0.15625 3.31055 0.15625ZM6.00586-5.51758L8.37891-12.0898L8.42773-12.0898L10.8008-5.51758Z"/>
  </g>
  <line style="fill:none;stroke:#00AEEF;stroke-width:0.5;opacity:1.0;" x1="793.197" x2="793.197" y1="1919" y2="1933"/>
  <text style="stroke:none;fill:black;font-family:sans-serif;font-size:13;font-weight:bold;" transform="matrix(1 0 0 1 776 1953)">Margins</text>
  <text style="stroke:none;fill:black;font-family:sans-serif;font-size:13;" transform="matrix(1 0 0 1 776 1971)">Leading and trailing margins on the left and right side of each symbol</text>
  <text style="stroke:none;fill:black;font-family:sans-serif;font-size:13;" transform="matrix(1 0 0 1 776 1989)">can be adjusted by modifying the x-location of the margin guidelines.</text>
  <text style="stroke:none;fill:black;font-family:sans-serif;font-size:13;" transform="matrix(1 0 0 1 776 2007)">Modifications are automatically applied proportionally to all</text>
  <text style="stroke:none;fill:black;font-family:sans-serif;font-size:13;" transform="matrix(1 0 0 1 776 2025)">scales and weights.</text>
  <g transform="matrix(1 0 0 1 1289 1933)">
   <path d="M2.8418 1.86523L4.54102 3.57422Q5.18555 4.22852 5.90332 4.17969Q6.62109 4.13086 7.31445 3.35938L18.0078-8.42773L17.041-9.4043L6.42578 2.27539Q6.16211 2.57812 5.89355 2.61719Q5.625 2.65625 5.27344 2.30469L4.10156 1.14258Q3.75 0.791016 3.79395 0.522461Q3.83789 0.253906 4.14062-0.0195312L15.6152-10.8203L14.6387-11.7871L3.04688-0.898438Q2.30469-0.214844 2.25098 0.498047Q2.19727 1.21094 2.8418 1.86523ZM9.25781-16.3281Q8.94531-16.0254 8.90625-15.6348Q8.86719-15.2441 9.04297-14.9512Q9.21875-14.6777 9.55566-14.541Q9.89258-14.4043 10.3809-14.5215Q11.4746-14.7754 12.5977-14.7314Q13.7207-14.6875 14.7949-13.9844L14.209-12.5293Q13.9551-11.9043 14.0674-11.4404Q14.1797-10.9766 14.5801-10.5664L16.875-8.25195Q17.2363-7.88086 17.5781-7.82227Q17.9199-7.76367 18.3398-7.8418L19.4043-8.03711L20.0684-7.36328L20.0293-6.80664Q20-6.43555 20.1221-6.12305Q20.2441-5.81055 20.6055-5.44922L21.3672-4.70703Q21.7285-4.3457 22.1533-4.33105Q22.5781-4.31641 22.9297-4.66797L25.8398-7.58789Q26.1914-7.93945 26.1816-8.35449Q26.1719-8.76953 25.8105-9.13086L25.0391-9.89258Q24.6875-10.2539 24.3799-10.3857Q24.0723-10.5176 23.7109-10.4883L23.1348-10.4395L22.4902-11.0742L22.7344-12.1973Q22.832-12.6172 22.6953-12.9834Q22.5586-13.3496 22.1191-13.7891L19.9219-15.9766Q18.6719-17.2168 17.2607-17.8369Q15.8496-18.457 14.4189-18.4814Q12.9883-18.5059 11.665-17.959Q10.3418-17.4121 9.25781-16.3281ZM10.752-15.957Q11.6602-16.6211 12.7002-16.9043Q13.7402-17.1875 14.8047-17.085Q15.8691-16.9824 16.8701-16.5137Q17.8711-16.0449 18.7012-15.2051L21.1328-12.793Q21.3086-12.6172 21.3525-12.4512Q21.3965-12.2852 21.3379-12.0312L21.0156-10.5469L22.5195-9.0625L23.5059-9.12109Q23.6914-9.13086 23.7891-9.09668Q23.8867-9.0625 24.0332-8.91602L24.6094-8.33984L22.168-5.89844L21.5918-6.47461Q21.4453-6.62109 21.4062-6.71875Q21.3672-6.81641 21.377-7.01172L21.4453-7.98828L19.9512-9.47266L18.4277-9.21875Q18.1836-9.16992 18.042-9.2041Q17.9004-9.23828 17.7148-9.41406L15.7129-11.416Q15.5176-11.5918 15.4932-11.7529Q15.4688-11.9141 15.5859-12.1875L16.4648-14.2773Q15.293-15.3711 13.8281-15.791Q12.3633-16.2109 10.8398-15.7617Q10.7227-15.7324 10.6885-15.8057Q10.6543-15.8789 10.752-15.957Z"/>
  </g>
  <text style="stroke:none;fill:black;font-family:sans-serif;font-size:13;font-weight:bold;" transform="matrix(1 0 0 1 1289 1953)">Exporting</text>
  <text style="stroke:none;fill:black;font-family:sans-serif;font-size:13;" transform="matrix(1 0 0 1 1289 1971)">Symbols should be outlined when exporting to ensure the</text>
  <text style="stroke:none;fill:black;font-family:sans-serif;font-size:13;" transform="matrix(1 0 0 1 1289 1989)">design is preserved when submitting to Xcode.</text>
  <text id="template-version" style="stroke:none;fill:black;font-family:sans-serif;font-size:13;text-anchor:end;" transform="matrix(1 0 0 1 3036 1933)">Template v.3.0</text>
  <text style="stroke:none;fill:black;font-family:sans-serif;font-size:13;text-anchor:end;" transform="matrix(1 0 0 1 3036 1951)">Requires Xcode 13 or greater</text>
  <text id="descriptive-name" style="stroke:none;fill:black;font-family:sans-serif;font-size:13;text-anchor:end;" transform="matrix(1 0 0 1 3036 1969)">Generated from smoke</text>
  <text style="stroke:none;fill:black;font-family:sans-serif;font-size:13;text-anchor:end;" transform="matrix(1 0 0 1 3036 1987)">Typeset at 100 points</text>
  <text style="stroke:none;fill:black;font-family:sans-serif;font-size:13;" transform="matrix(1 0 0 1 263 726)">Small</text>
  <text style="stroke:none;fill:black;font-family:sans-serif;font-size:13;" transform="matrix(1 0 0 1 263 1156)">Medium</text>
  <text style="stroke:none;fill:black;font-family:sans-serif;font-size:13;" transform="matrix(1 0 0 1 263 1586)">Large</text>
 </g>
 <g id="Guides">
  <g id="H-reference" style="fill:#27AAE1;stroke:none;" transform="matrix(1 0 0 1 339 696)">
   <path d="M0.993347 0L3.6377 0L29.3282-67.1326L30.0301-67.1326L30.0301-70.459L28.1227-70.459ZM11.6882-24.4797L46.9818-24.4797L46.2311-26.7288L12.4382-26.7288ZM55.1193 0L57.7637 0L30.6381-70.459L29.4327-70.459L29.4327-67.1326Z"/>
  </g>
  <line id="Baseline-S" style="fill:none;stroke:#27AAE1;opacity:1;stroke-width:0.5;" x1="263" x2="3036" y1="696" y2="696"/>
  <line id="Capline-S" style="fill:none;stroke:#27AAE1;opacity:1;stroke-width:0.5;" x1="263" x2="3036" y1="625.541" y2="625.541"/>
  <g id="H-reference" style="fill:#27AAE1;stroke:none;" transform="matrix(1 0 0 1 339 1126)">
   <path d="M0.993347 0L3.6377 0L29.3282-67.1326L30.0301-67.1326L30.0301-70.459L28.1227-70.459ZM11.6882-24.4797L46.9818-24.4797L46.2311-26.7288L12.4382-26.7288ZM55.1193 0L57.7637 0L30.6381-70.459L29.4327-70.459L29.4327-67.1326Z"/>
  </g>
  <line id="Baseline-M" style="fill:none;stroke:#27AAE1;opacity:1;stroke-width:0.5;" x1="263" x2="3036" y1="1126" y2="1126"/>
  <line id="Capline-M" style="fill:none;stroke:#27AAE1;opacity:1;stroke-width:0.5;" x1="263" x2="3036" y1="1055.54" y2="1055.54"/>
  <g id="H-reference" style="fill:#27AAE1;stroke:none;" transform="matrix(1 0 0 1 339 1556)">
   <path d="M0.993347 0L3.6377 0L29.3282-67.1326L30.0301-67.1326L30.0301-70.459L28.1227-70.459ZM11.6882-24.4797L46.9818-24.4797L46.2311-26.7288L12.4382-26.7288ZM55.1193 0L57.7637 0L30.6381-70.459L29.4327-70.459L29.4327-67.1326Z"/>
  </g>
  <line id="Baseline-L" style="fill:none;stroke:#27AAE1;opacity:1;stroke-width:0.5;" x1="263" x2="3036" y1="1556" y2="1556"/>
  <line id="Capline-L" style="fill:none;stroke:#27AAE1;opacity:1;stroke-width:0.5;" x1="263" x2="3036" y1="1485.54" y2="1485.54"/>
  <line id="left-margin-Ultralight-S" style="fill:none;stroke:#00AEEF;stroke-width:0.5;opacity:1.0;" x1="509.906" x2="509.906" y1="600.785" y2="720.121"/>
  <line id="right-margin-Ultralight-S" style="fill:none;stroke:#00AEEF;stroke-width:0.5;opacity:1.0;" x1="609.516" x2="609.516" y1="600.785" y2="720.121"/>
  <line id="left-margin-Regular-S" style="fill:none;stroke:#00AEEF;stroke-width:0.5;opacity:1.0;" x1="1399.06" x2="1399.06" y1="600.785" y2="720.121"/>
  <line id="right-margin-Regular-S" style="fill:none;stroke:#00AEEF;stroke-width:0.5;opacity:1.0;" x1="1500.63" x2="1500.63" y1="600.785" y2="720.121"/>
  <line id="left-margin-Black-S" style="fill:none;stroke:#00AEEF;stroke-width:0.5;opacity:1.0;" x1="2878.47" x2="2878.47" y1="600.785" y2="720.121"/>
  <line id="right-margin-Black-S" style="fill:none;stroke:#00AEEF;stroke-width:0.5;opacity:1.0;" x1="2988.33" x2="2988.33" y1="600.785" y2="720.121"/>
 </g>
 <g id="Symbols">
  <g id="Black-S" transform="matrix(1 0 0 1 2878.47 696)">
   <path d="M37.4512 0.830078L84.3262 0.830078Q90.2832 0.830078 94.9463-1.7334Q99.6094-4.29688 102.295-8.74023Q104.98-13.1836 104.98-18.8477Q104.98-25.0488 101.465-30.127Q97.9492-35.2051 92.1387-37.3535Q91.1133-42.4805 87.9883-46.4844Q84.8633-50.4883 80.3223-52.8076Q75.7812-55.127 70.5078-55.127Q65.8203-55.127 61.5723-53.1494Q57.3242-51.1719 54.4434-47.3145Q53.5645-47.4121 52.6611-47.4854Q51.7578-47.5586 50.8301-47.5586Q44.9219-47.5586 39.9902-44.0674Q35.0586-40.5762 33.2031-35.1074Q29.0039-34.1797 25.7324-31.6162Q22.4609-29.0527 20.6055-25.3906Q18.75-21.7285 18.75-17.4316Q18.75-12.207 21.167-8.08105Q23.584-3.95508 27.832-1.5625Q32.0801 0.830078 37.4512 0.830078ZM37.4512-11.7188Q34.6191-11.7188 32.959-13.2812Q31.2988-14.8438 31.2988-17.4805Q31.2988-20.2637 33.2275-21.875Q35.1562-23.4863 38.8672-24.2676Q40.6738-24.6582 41.4062-25.2686Q42.1387-25.8789 42.627-27.5879Q43.7988-31.4941 46.0693-33.4717Q48.3398-35.4492 52.0508-35.4492Q53.3691-35.4492 54.4434-35.2539Q55.5176-35.0586 56.7383-34.7656Q58.4473-34.2773 59.3506-34.5215Q60.2539-34.7656 61.1816-36.1328Q63.2324-39.0137 65.4541-40.7959Q67.6758-42.5781 71.0449-42.5781Q73.4863-42.5781 75.4639-41.4795Q77.4414-40.3809 78.8574-38.1104Q80.2734-35.8398 81.0059-32.2266Q81.3965-30.5664 82.0801-29.6143Q82.7637-28.6621 84.3262-28.125Q89.2578-26.5625 90.8447-24.2188Q92.4316-21.875 92.4316-18.8477Q92.4316-15.5762 90.2344-13.6475Q88.0371-11.7188 84.3262-11.7188ZM4.88281-39.0137Q4.88281-33.2031 7.6416-28.833Q10.4004-24.4629 15.1123-22.0703Q19.8242-19.6777 25.6348-19.6777L28.6621-19.6777L32.3242-31.9824L26.123-31.9824Q22.2656-31.9824 19.8486-33.9355Q17.4316-35.8887 17.4316-39.0137Q17.4316-42.041 19.7021-44.3359Q21.9727-46.6309 25.5859-47.4121Q27.2949-47.7539 28.0273-48.4131Q28.7598-49.0723 28.9551-50.6836Q29.2969-54.4434 30.6641-57.1289Q32.0312-59.8145 34.2529-61.2549Q36.4746-62.6953 39.3555-62.6953Q42.5781-62.6953 44.7754-61.1328Q46.9727-59.5703 49.3652-56.543Q50.2441-55.4199 51.4404-54.9805Q52.6367-54.541 54.248-54.9316Q55.4199-55.2734 56.5186-55.4443Q57.6172-55.6152 58.3008-55.6152Q61.5234-55.6152 63.4033-53.4424Q65.2832-51.2695 65.2832-47.7051L77.9785-47.7051Q78.2227-53.4668 75.9033-58.1055Q73.584-62.7441 69.5312-65.4541Q65.4785-68.1641 60.4004-68.1641Q59.2773-68.1641 58.0566-68.042Q56.8359-67.9199 55.7129-67.5781Q52.2949-71.7285 48.2178-73.4863Q44.1406-75.2441 39.3555-75.2441Q34.082-75.2441 29.541-72.9248Q25-70.6055 21.8994-66.6016Q18.7988-62.5977 17.7246-57.4707Q11.9629-55.3711 8.42285-50.293Q4.88281-45.2148 4.88281-39.0137Z"/>
  </g>
  <g id="Regular-S" transform="matrix(1 0 0 1 1399.06 696)">
   <path d="M33.5938-3.56445L79.248-3.56445Q84.5215-3.56445 88.4277-5.7373Q92.334-7.91016 94.5068-11.6211Q96.6797-15.332 96.6797-19.873Q96.6309-25.5371 93.2373-29.9072Q89.8438-34.2773 84.4238-35.8398Q83.8867-40.5273 81.25-44.2627Q78.6133-47.998 74.6094-50.1953Q70.6055-52.3926 65.8691-52.3926Q61.5234-52.3926 57.6172-50.4395Q53.7109-48.4863 51.0254-45.0195Q50.0977-45.166 48.999-45.3369Q47.9004-45.5078 46.8262-45.5078Q41.2598-45.459 37.0117-41.9678Q32.7637-38.4766 31.6406-33.2031Q27.7832-32.7148 24.7559-30.6641Q21.7285-28.6133 19.9707-25.4395Q18.2129-22.2656 18.2129-18.457Q18.2129-14.1602 20.2148-10.791Q22.2168-7.42188 25.6836-5.49316Q29.1504-3.56445 33.5938-3.56445ZM33.5938-10.1074Q29.6875-10.1074 27.2461-12.4023Q24.8047-14.6973 24.8047-18.457Q24.8047-21.9727 27.3193-24.3896Q29.834-26.8066 33.4961-26.8555Q35.6934-26.9531 36.6699-27.7344Q37.6465-28.5156 37.793-30.3223Q38.0371-34.0332 40.6006-36.4746Q43.1641-38.916 46.8262-38.916Q47.9492-38.916 48.7305-38.7207Q49.5117-38.5254 50.6836-38.0859Q52.3438-37.4023 53.418-37.7197Q54.4922-38.0371 55.127-39.3555Q56.4941-42.2852 59.4482-44.043Q62.4023-45.8008 65.8691-45.8008Q69.1895-45.8008 71.9238-44.165Q74.6582-42.5293 76.2939-39.7949Q77.9297-37.0605 77.9297-33.7402Q77.9297-31.5918 78.7354-30.6885Q79.541-29.7852 81.6406-29.4922Q85.2051-29.1504 87.6465-26.3428Q90.0879-23.5352 90.0879-19.873Q90.0879-15.4785 87.085-12.793Q84.082-10.1074 79.248-10.1074ZM4.88281-38.3789Q4.88281-33.9844 7.10449-30.2979Q9.32617-26.6113 13.3301-24.3896Q17.334-22.168 22.7539-22.168L23.1445-22.168L25.0488-28.7598L23.6816-28.7598Q18.2129-28.7598 14.8438-31.4453Q11.4746-34.1309 11.4746-38.3789Q11.4746-42.1387 13.9648-44.9707Q16.4551-47.8027 20.0195-48.1934Q21.875-48.3887 22.7051-49.3408Q23.5352-50.293 23.5352-52.2461Q23.4375-55.5176 25.0977-58.252Q26.7578-60.9863 29.541-62.6709Q32.3242-64.3555 35.6445-64.3555Q39.0137-64.3066 41.7236-62.6953Q44.4336-61.084 46.2891-58.0078Q47.0215-56.7871 48.1445-56.4453Q49.2676-56.1035 50.7812-56.6406Q51.6113-56.8848 52.7588-57.1533Q53.9062-57.4219 55.127-57.4219Q58.3984-57.4219 60.8398-55.127Q63.2812-52.832 63.3789-49.6582L70.1172-49.6582Q70.0684-53.6133 68.1152-56.8848Q66.1621-60.1562 62.8906-62.0605Q59.6191-63.9648 55.6152-63.9648Q54.248-63.9648 52.9541-63.8184Q51.6602-63.6719 50.6836-63.3301Q47.2656-67.2852 43.6279-69.0918Q39.9902-70.8984 35.6445-70.8984Q30.9082-70.8984 26.8799-68.7012Q22.8516-66.5039 20.2148-62.7197Q17.5781-58.9355 16.9922-54.248Q11.6211-52.7832 8.25195-48.3643Q4.88281-43.9453 4.88281-38.3789Z"/>
  </g>
  <g id="Ultralight-S" transform="matrix(1 0 0 1 509.906 696)">
   <path d="M30.6877-4.06418L78.7941-4.06418Q83.432-4.06418 87.0201-5.96428Q90.6082-7.86438 92.6678-11.235Q94.7273-14.6057 94.7273-18.9651Q94.7235-24.4926 91.0801-28.6358Q87.4367-32.7789 81.926-33.6151Q81.8436-38.3026 79.6154-42.2195Q77.3872-46.1365 73.6332-48.4699Q69.8792-50.8034 65.1428-50.8034Q60.1158-50.8034 56.255-48.6004Q52.3941-46.3974 49.9359-42.5674Q48.4627-43.0771 47.2507-43.3163Q46.0388-43.5555 44.6465-43.5555Q39.1258-43.5516 35.1955-39.9696Q31.2653-36.3876 30.5054-30.8876Q26.7845-30.8075 23.666-29.0066Q20.5475-27.2057 18.6764-24.1909Q16.8053-21.1761 16.8053-17.4583Q16.8053-13.5696 18.5802-10.5412Q20.3552-7.51266 23.4814-5.78842Q26.6075-4.06418 30.6877-4.06418ZM30.6877-6.24771Q25.5096-6.24771 22.2511-9.38263Q18.9926-12.5175 18.9926-17.4583Q18.9926-22.0634 22.2565-25.3204Q25.5203-28.5774 30.2269-28.717Q31.4705-28.7697 32.0156-29.0741Q32.5607-29.3785 32.7072-30.4588Q33.2237-35.2592 36.5593-38.3137Q39.8949-41.3681 44.6465-41.3681Q45.7695-41.3681 46.7552-41.1957Q47.7409-41.0233 48.9128-40.5838Q49.9825-40.2176 50.5573-40.3763Q51.1322-40.535 51.6762-41.4444Q53.6789-44.783 57.1323-46.6995Q60.5858-48.616 65.1428-48.616Q69.371-48.616 72.673-46.5942Q75.975-44.5724 77.8606-41.1343Q79.7462-37.6961 79.7462-33.5129Q79.7462-32.1823 80.0297-31.9145Q80.3131-31.6467 81.5498-31.4903Q86.2038-30.8762 89.3719-27.2964Q92.54-23.7167 92.54-18.9651Q92.54-13.3446 88.7196-9.79614Q84.8991-6.24771 78.7941-6.24771ZM4.88281-38.4247Q4.88281-34.5749 6.76384-31.2969Q8.64487-28.019 12.1494-26.0242Q15.654-24.0295 20.5292-24.0295L20.829-24.0295L22.1428-26.2169L20.8664-26.2169Q14.2166-26.2169 10.6434-29.8786Q7.07016-33.5403 7.07016-38.4247Q7.07016-43.4555 10.2188-46.9006Q13.3675-50.3456 17.7948-51.0994Q18.9232-51.2947 19.3672-51.77Q19.8112-52.2453 19.8112-53.5179Q19.8044-57.4699 21.8506-60.8173Q23.8968-64.1647 27.3384-66.1674Q30.78-68.1702 35.009-68.1702Q39.1045-68.1664 42.382-66.1465Q45.6596-64.1266 47.8333-60.9138Q48.4291-60.0563 49.1661-59.9873Q49.9031-59.9182 50.9628-60.183Q51.7021-60.3355 52.6226-60.4225Q53.5431-60.5095 55.0362-60.5095Q59.5337-60.5095 62.6564-57.6015Q65.7791-54.6936 66.0126-49.749L68.2098-49.749Q67.9794-53.5225 66.1625-56.4533Q64.3456-59.3842 61.4601-61.0386Q58.5747-62.693 55.1155-62.693Q53.3852-62.693 52.2049-62.5465Q51.0246-62.4001 49.6849-62.0132Q46.9025-66.0591 43.1965-68.2064Q39.4905-70.3537 35.009-70.3537Q30.2727-70.3537 26.3577-68.0428Q22.4426-65.7318 20.0787-61.8568Q17.7147-57.9819 17.6277-53.2944Q11.8935-52.1927 8.38814-48.069Q4.88281-43.9453 4.88281-38.4247Z"/>
  </g>
 </g>
</svg>
