<?xml version="1.0" encoding="UTF-8"?>
<!--Generator: Apple Native CoreSVG 175-->
<!DOCTYPE svg
PUBLIC "-//W3C//DTD SVG 1.1//EN"
       "http://www.w3.org/Graphics/SVG/1.1/DTD/svg11.dtd">
<svg version="1.1" xmlns="http://www.w3.org/2000/svg" xmlns:xlink="http://www.w3.org/1999/xlink" width="3300" height="2200">
 <!--glyph: "uni1001D0.medium", point size: 100.0, font version: "17.3d3e1", template writer version: "65.1"-->
 <style>.hierarchical-0:secondary {fill:#4D4D4D}
.hierarchical-1:primary {fill:#212121}

.SFSymbolsPreview212121 {fill:#212121;opacity:1.0}
.SFSymbolsPreview4D4D4D {fill:#4D4D4D;opacity:1.0}
</style>
 <g id="Notes">
  <rect height="2200" id="artboard" style="fill:white;opacity:1" width="3300" x="0" y="0"/>
  <line style="fill:none;stroke:black;opacity:1;stroke-width:0.5;" x1="263" x2="3036" y1="292" y2="292"/>
  <text style="stroke:none;fill:black;font-family:sans-serif;font-size:13;font-weight:bold;" transform="matrix(1 0 0 1 263 322)">Weight/Scale Variations</text>
  <text style="stroke:none;fill:black;font-family:sans-serif;font-size:13;text-anchor:middle;" transform="matrix(1 0 0 1 559.711 322)">Ultralight</text>
  <text style="stroke:none;fill:black;font-family:sans-serif;font-size:13;text-anchor:middle;" transform="matrix(1 0 0 1 856.422 322)">Thin</text>
  <text style="stroke:none;fill:black;font-family:sans-serif;font-size:13;text-anchor:middle;" transform="matrix(1 0 0 1 1153.13 322)">Light</text>
  <text style="stroke:none;fill:black;font-family:sans-serif;font-size:13;text-anchor:middle;" transform="matrix(1 0 0 1 1449.84 322)">Regular</text>
  <text style="stroke:none;fill:black;font-family:sans-serif;font-size:13;text-anchor:middle;" transform="matrix(1 0 0 1 1746.56 322)">Medium</text>
  <text style="stroke:none;fill:black;font-family:sans-serif;font-size:13;text-anchor:middle;" transform="matrix(1 0 0 1 2043.27 322)">Semibold</text>
  <text style="stroke:none;fill:black;font-family:sans-serif;font-size:13;text-anchor:middle;" transform="matrix(1 0 0 1 2339.98 322)">Bold</text>
  <text style="stroke:none;fill:black;font-family:sans-serif;font-size:13;text-anchor:middle;" transform="matrix(1 0 0 1 2636.69 322)">Heavy</text>
  <text style="stroke:none;fill:black;font-family:sans-serif;font-size:13;text-anchor:middle;" transform="matrix(1 0 0 1 2933.4 322)">Black</text>
  <line style="fill:none;stroke:black;opacity:1;stroke-width:0.5;" x1="263" x2="3036" y1="1903" y2="1903"/>
  <g transform="matrix(1 0 0 1 263 1933)">
   <path d="M9.24805 0.830078Q10.8691 0.830078 12.2949 0.214844Q13.7207-0.400391 14.8096-1.49414Q15.8984-2.58789 16.5186-4.01367Q17.1387-5.43945 17.1387-7.05078Q17.1387-8.66211 16.5186-10.0879Q15.8984-11.5137 14.8047-12.6074Q13.7109-13.7012 12.2852-14.3164Q10.8594-14.9316 9.23828-14.9316Q7.62695-14.9316 6.20117-14.3164Q4.77539-13.7012 3.69141-12.6074Q2.60742-11.5137 1.9873-10.0879Q1.36719-8.66211 1.36719-7.05078Q1.36719-5.43945 1.9873-4.01367Q2.60742-2.58789 3.69629-1.49414Q4.78516-0.400391 6.21094 0.214844Q7.63672 0.830078 9.24805 0.830078ZM9.24805-0.654297Q7.91992-0.654297 6.7627-1.14746Q5.60547-1.64062 4.73145-2.51953Q3.85742-3.39844 3.36426-4.56055Q2.87109-5.72266 2.87109-7.05078Q2.87109-8.37891 3.35938-9.54102Q3.84766-10.7031 4.72168-11.582Q5.5957-12.4609 6.75293-12.9541Q7.91016-13.4473 9.23828-13.4473Q10.5762-13.4473 11.7334-12.9541Q12.8906-12.4609 13.7695-11.582Q14.6484-10.7031 15.1465-9.54102Q15.6445-8.37891 15.6445-7.05078Q15.6445-5.72266 15.1514-4.56055Q14.6582-3.39844 13.7842-2.51953Q12.9102-1.64062 11.748-1.14746Q10.5859-0.654297 9.24805-0.654297ZM5.6543-7.05078Q5.6543-6.72852 5.85938-6.52832Q6.06445-6.32812 6.40625-6.32812L8.51562-6.32812L8.51562-4.20898Q8.51562-3.88672 8.71094-3.67676Q8.90625-3.4668 9.23828-3.4668Q9.56055-3.4668 9.77051-3.67676Q9.98047-3.88672 9.98047-4.20898L9.98047-6.32812L12.0898-6.32812Q12.4219-6.32812 12.627-6.52832Q12.832-6.72852 12.832-7.05078Q12.832-7.38281 12.627-7.58789Q12.4219-7.79297 12.0898-7.79297L9.98047-7.79297L9.98047-9.90234Q9.98047-10.2344 9.77051-10.4443Q9.56055-10.6543 9.23828-10.6543Q8.90625-10.6543 8.71094-10.4443Q8.51562-10.2344 8.51562-9.90234L8.51562-7.79297L6.40625-7.79297Q6.06445-7.79297 5.85938-7.58789Q5.6543-7.38281 5.6543-7.05078Z"/>
  </g>
  <g transform="matrix(1 0 0 1 281.867 1933)">
   <path d="M11.709 2.91016Q13.75 2.91016 15.5518 2.12891Q17.3535 1.34766 18.7305-0.0292969Q20.1074-1.40625 20.8887-3.20801Q21.6699-5.00977 21.6699-7.05078Q21.6699-9.0918 20.8887-10.8936Q20.1074-12.6953 18.7305-14.0723Q17.3535-15.4492 15.5469-16.2305Q13.7402-17.0117 11.6992-17.0117Q9.6582-17.0117 7.85645-16.2305Q6.05469-15.4492 4.68262-14.0723Q3.31055-12.6953 2.5293-10.8936Q1.74805-9.0918 1.74805-7.05078Q1.74805-5.00977 2.5293-3.20801Q3.31055-1.40625 4.6875-0.0292969Q6.06445 1.34766 7.86621 2.12891Q9.66797 2.91016 11.709 2.91016ZM11.709 1.25Q9.98047 1.25 8.47656 0.605469Q6.97266-0.0390625 5.83496-1.17676Q4.69727-2.31445 4.05762-3.81836Q3.41797-5.32227 3.41797-7.05078Q3.41797-8.7793 4.05762-10.2832Q4.69727-11.7871 5.83008-12.9297Q6.96289-14.0723 8.4668-14.7119Q9.9707-15.3516 11.6992-15.3516Q13.4277-15.3516 14.9316-14.7119Q16.4355-14.0723 17.5781-12.9297Q18.7207-11.7871 19.3652-10.2832Q20.0098-8.7793 20.0098-7.05078Q20.0098-5.32227 19.3701-3.81836Q18.7305-2.31445 17.5928-1.17676Q16.4551-0.0390625 14.9463 0.605469Q13.4375 1.25 11.709 1.25ZM7.17773-7.05078Q7.17773-6.69922 7.41211-6.47461Q7.64648-6.25 8.01758-6.25L10.8887-6.25L10.8887-3.36914Q10.8887-2.99805 11.1133-2.76855Q11.3379-2.53906 11.6895-2.53906Q12.0605-2.53906 12.29-2.76855Q12.5195-2.99805 12.5195-3.36914L12.5195-6.25L15.4004-6.25Q15.7715-6.25 16.001-6.47461Q16.2305-6.69922 16.2305-7.05078Q16.2305-7.42188 16.001-7.65137Q15.7715-7.88086 15.4004-7.88086L12.5195-7.88086L12.5195-10.752Q12.5195-11.1328 12.29-11.3623Q12.0605-11.5918 11.6895-11.5918Q11.3379-11.5918 11.1133-11.3574Q10.8887-11.123 10.8887-10.752L10.8887-7.88086L8.01758-7.88086Q7.63672-7.88086 7.40723-7.65137Q7.17773-7.42188 7.17773-7.05078Z"/>
  </g>
  <g transform="matrix(1 0 0 1 305.646 1933)">
   <path d="M14.9707 5.66406Q17.0605 5.66406 18.96 5.01465Q20.8594 4.36523 22.4512 3.19336Q24.043 2.02148 25.2197 0.429688Q26.3965-1.16211 27.0459-3.06641Q27.6953-4.9707 27.6953-7.05078Q27.6953-9.14062 27.0459-11.04Q26.3965-12.9395 25.2197-14.5312Q24.043-16.123 22.4512-17.2998Q20.8594-18.4766 18.9551-19.126Q17.0508-19.7754 14.9609-19.7754Q12.8711-19.7754 10.9717-19.126Q9.07227-18.4766 7.48535-17.2998Q5.89844-16.123 4.72168-14.5312Q3.54492-12.9395 2.90039-11.04Q2.25586-9.14062 2.25586-7.05078Q2.25586-4.9707 2.90527-3.06641Q3.55469-1.16211 4.72656 0.429688Q5.89844 2.02148 7.49023 3.19336Q9.08203 4.36523 10.9814 5.01465Q12.8809 5.66406 14.9707 5.66406ZM14.9707 3.84766Q13.1641 3.84766 11.5283 3.2959Q9.89258 2.74414 8.53516 1.74805Q7.17773 0.751953 6.17676-0.610352Q5.17578-1.97266 4.62891-3.6084Q4.08203-5.24414 4.08203-7.05078Q4.08203-8.86719 4.62891-10.5029Q5.17578-12.1387 6.17188-13.501Q7.16797-14.8633 8.52539-15.8594Q9.88281-16.8555 11.5186-17.4023Q13.1543-17.9492 14.9609-17.9492Q16.7773-17.9492 18.4131-17.4023Q20.0488-16.8555 21.4111-15.8594Q22.7734-14.8633 23.7695-13.501Q24.7656-12.1387 25.3174-10.5029Q25.8691-8.86719 25.8691-7.05078Q25.8789-5.24414 25.332-3.6084Q24.7852-1.97266 23.7842-0.610352Q22.7832 0.751953 21.4209 1.74805Q20.0586 2.74414 18.4229 3.2959Q16.7871 3.84766 14.9707 3.84766ZM9.19922-7.05078Q9.19922-6.66992 9.45801-6.4209Q9.7168-6.17188 10.1172-6.17188L14.0625-6.17188L14.0625-2.2168Q14.0625-1.81641 14.3115-1.55762Q14.5605-1.29883 14.9512-1.29883Q15.3516-1.29883 15.6104-1.55273Q15.8691-1.80664 15.8691-2.2168L15.8691-6.17188L19.8242-6.17188Q20.2246-6.17188 20.4785-6.4209Q20.7324-6.66992 20.7324-7.05078Q20.7324-7.46094 20.4785-7.71484Q20.2246-7.96875 19.8242-7.96875L15.8691-7.96875L15.8691-11.9141Q15.8691-12.3242 15.6104-12.583Q15.3516-12.8418 14.9512-12.8418Q14.5605-12.8418 14.3115-12.583Q14.0625-12.3242 14.0625-11.9141L14.0625-7.96875L10.1172-7.96875Q9.70703-7.96875 9.45312-7.71484Q9.19922-7.46094 9.19922-7.05078Z"/>
  </g>
  <text style="stroke:none;fill:black;font-family:sans-serif;font-size:13;font-weight:bold;" transform="matrix(1 0 0 1 263 1953)">Design Variations</text>
  <text style="stroke:none;fill:black;font-family:sans-serif;font-size:13;" transform="matrix(1 0 0 1 263 1971)">Symbols are supported in up to nine weights and three scales.</text>
  <text style="stroke:none;fill:black;font-family:sans-serif;font-size:13;" transform="matrix(1 0 0 1 263 1989)">For optimal layout with text and other symbols, vertically align</text>
  <text style="stroke:none;fill:black;font-family:sans-serif;font-size:13;" transform="matrix(1 0 0 1 263 2007)">symbols with the adjacent text.</text>
  <line style="fill:none;stroke:#00AEEF;stroke-width:0.5;opacity:1.0;" x1="776" x2="776" y1="1919" y2="1933"/>
  <g transform="matrix(1 0 0 1 776 1933)">
   <path d="M3.31055 0.15625Q3.70117 0.15625 3.91602-0.00976562Q4.13086-0.175781 4.26758-0.585938L5.52734-4.0332L11.2891-4.0332L12.5488-0.585938Q12.6855-0.175781 12.9004-0.00976562Q13.1152 0.15625 13.4961 0.15625Q13.8867 0.15625 14.1162-0.0585938Q14.3457-0.273438 14.3457-0.644531Q14.3457-0.869141 14.2383-1.17188L9.6582-13.3691Q9.48242-13.8184 9.17969-14.043Q8.87695-14.2676 8.4082-14.2676Q7.5-14.2676 7.17773-13.3789L2.59766-1.16211Q2.49023-0.859375 2.49023-0.634766Q2.49023-0.263672 2.70996-0.0537109Q2.92969 0.15625 3.31055 0.15625ZM6.00586-5.51758L8.37891-12.0898L8.42773-12.0898L10.8008-5.51758Z"/>
  </g>
  <line style="fill:none;stroke:#00AEEF;stroke-width:0.5;opacity:1.0;" x1="793.197" x2="793.197" y1="1919" y2="1933"/>
  <text style="stroke:none;fill:black;font-family:sans-serif;font-size:13;font-weight:bold;" transform="matrix(1 0 0 1 776 1953)">Margins</text>
  <text style="stroke:none;fill:black;font-family:sans-serif;font-size:13;" transform="matrix(1 0 0 1 776 1971)">Leading and trailing margins on the left and right side of each symbol</text>
  <text style="stroke:none;fill:black;font-family:sans-serif;font-size:13;" transform="matrix(1 0 0 1 776 1989)">can be adjusted by modifying the x-location of the margin guidelines.</text>
  <text style="stroke:none;fill:black;font-family:sans-serif;font-size:13;" transform="matrix(1 0 0 1 776 2007)">Modifications are automatically applied proportionally to all</text>
  <text style="stroke:none;fill:black;font-family:sans-serif;font-size:13;" transform="matrix(1 0 0 1 776 2025)">scales and weights.</text>
  <g transform="matrix(1 0 0 1 1289 1933)">
   <path d="M2.8418 1.86523L4.54102 3.57422Q5.18555 4.22852 5.90332 4.17969Q6.62109 4.13086 7.31445 3.35938L18.0078-8.42773L17.041-9.4043L6.42578 2.27539Q6.16211 2.57812 5.89355 2.61719Q5.625 2.65625 5.27344 2.30469L4.10156 1.14258Q3.75 0.791016 3.79395 0.522461Q3.83789 0.253906 4.14062-0.0195312L15.6152-10.8203L14.6387-11.7871L3.04688-0.898438Q2.30469-0.214844 2.25098 0.498047Q2.19727 1.21094 2.8418 1.86523ZM9.25781-16.3281Q8.94531-16.0254 8.90625-15.6348Q8.86719-15.2441 9.04297-14.9512Q9.21875-14.6777 9.55566-14.541Q9.89258-14.4043 10.3809-14.5215Q11.4746-14.7754 12.5977-14.7314Q13.7207-14.6875 14.7949-13.9844L14.209-12.5293Q13.9551-11.9043 14.0674-11.4404Q14.1797-10.9766 14.5801-10.5664L16.875-8.25195Q17.2363-7.88086 17.5781-7.82227Q17.9199-7.76367 18.3398-7.8418L19.4043-8.03711L20.0684-7.36328L20.0293-6.80664Q20-6.43555 20.1221-6.12305Q20.2441-5.81055 20.6055-5.44922L21.3672-4.70703Q21.7285-4.3457 22.1533-4.33105Q22.5781-4.31641 22.9297-4.66797L25.8398-7.58789Q26.1914-7.93945 26.1816-8.35449Q26.1719-8.76953 25.8105-9.13086L25.0391-9.89258Q24.6875-10.2539 24.3799-10.3857Q24.0723-10.5176 23.7109-10.4883L23.1348-10.4395L22.4902-11.0742L22.7344-12.1973Q22.832-12.6172 22.6953-12.9834Q22.5586-13.3496 22.1191-13.7891L19.9219-15.9766Q18.6719-17.2168 17.2607-17.8369Q15.8496-18.457 14.4189-18.4814Q12.9883-18.5059 11.665-17.959Q10.3418-17.4121 9.25781-16.3281ZM10.752-15.957Q11.6602-16.6211 12.7002-16.9043Q13.7402-17.1875 14.8047-17.085Q15.8691-16.9824 16.8701-16.5137Q17.8711-16.0449 18.7012-15.2051L21.1328-12.793Q21.3086-12.6172 21.3525-12.4512Q21.3965-12.2852 21.3379-12.0312L21.0156-10.5469L22.5195-9.0625L23.5059-9.12109Q23.6914-9.13086 23.7891-9.09668Q23.8867-9.0625 24.0332-8.91602L24.6094-8.33984L22.168-5.89844L21.5918-6.47461Q21.4453-6.62109 21.4062-6.71875Q21.3672-6.81641 21.377-7.01172L21.4453-7.98828L19.9512-9.47266L18.4277-9.21875Q18.1836-9.16992 18.042-9.2041Q17.9004-9.23828 17.7148-9.41406L15.7129-11.416Q15.5176-11.5918 15.4932-11.7529Q15.4688-11.9141 15.5859-12.1875L16.4648-14.2773Q15.293-15.3711 13.8281-15.791Q12.3633-16.2109 10.8398-15.7617Q10.7227-15.7324 10.6885-15.8057Q10.6543-15.8789 10.752-15.957Z"/>
  </g>
  <text style="stroke:none;fill:black;font-family:sans-serif;font-size:13;font-weight:bold;" transform="matrix(1 0 0 1 1289 1953)">Exporting</text>
  <text style="stroke:none;fill:black;font-family:sans-serif;font-size:13;" transform="matrix(1 0 0 1 1289 1971)">Symbols should be outlined when exporting to ensure the</text>
  <text style="stroke:none;fill:black;font-family:sans-serif;font-size:13;" transform="matrix(1 0 0 1 1289 1989)">design is preserved when submitting to Xcode.</text>
  <text id="template-version" style="stroke:none;fill:black;font-family:sans-serif;font-size:13;text-anchor:end;" transform="matrix(1 0 0 1 3036 1933)">Template v.3.0</text>
  <text style="stroke:none;fill:black;font-family:sans-serif;font-size:13;text-anchor:end;" transform="matrix(1 0 0 1 3036 1951)">Requires Xcode 13 or greater</text>
  <text id="descriptive-name" style="stroke:none;fill:black;font-family:sans-serif;font-size:13;text-anchor:end;" transform="matrix(1 0 0 1 3036 1969)">Generated from cloud.sleet</text>
  <text style="stroke:none;fill:black;font-family:sans-serif;font-size:13;text-anchor:end;" transform="matrix(1 0 0 1 3036 1987)">Typeset at 100 points</text>
  <text style="stroke:none;fill:black;font-family:sans-serif;font-size:13;" transform="matrix(1 0 0 1 263 726)">Small</text>
  <text style="stroke:none;fill:black;font-family:sans-serif;font-size:13;" transform="matrix(1 0 0 1 263 1156)">Medium</text>
  <text style="stroke:none;fill:black;font-family:sans-serif;font-size:13;" transform="matrix(1 0 0 1 263 1586)">Large</text>
 </g>
 <g id="Guides">
  <g id="H-reference" style="fill:#27AAE1;stroke:none;" transform="matrix(1 0 0 1 339 696)">
   <path d="M0.993347 0L3.6377 0L29.3282-67.1326L30.0301-67.1326L30.0301-70.459L28.1227-70.459ZM11.6882-24.4797L46.9818-24.4797L46.2311-26.7288L12.4382-26.7288ZM55.1193 0L57.7637 0L30.6381-70.459L29.4327-70.459L29.4327-67.1326Z"/>
  </g>
  <line id="Baseline-S" style="fill:none;stroke:#27AAE1;opacity:1;stroke-width:0.5;" x1="263" x2="3036" y1="696" y2="696"/>
  <line id="Capline-S" style="fill:none;stroke:#27AAE1;opacity:1;stroke-width:0.5;" x1="263" x2="3036" y1="625.541" y2="625.541"/>
  <g id="H-reference" style="fill:#27AAE1;stroke:none;" transform="matrix(1 0 0 1 339 1126)">
   <path d="M0.993347 0L3.6377 0L29.3282-67.1326L30.0301-67.1326L30.0301-70.459L28.1227-70.459ZM11.6882-24.4797L46.9818-24.4797L46.2311-26.7288L12.4382-26.7288ZM55.1193 0L57.7637 0L30.6381-70.459L29.4327-70.459L29.4327-67.1326Z"/>
  </g>
  <line id="Baseline-M" style="fill:none;stroke:#27AAE1;opacity:1;stroke-width:0.5;" x1="263" x2="3036" y1="1126" y2="1126"/>
  <line id="Capline-M" style="fill:none;stroke:#27AAE1;opacity:1;stroke-width:0.5;" x1="263" x2="3036" y1="1055.54" y2="1055.54"/>
  <g id="H-reference" style="fill:#27AAE1;stroke:none;" transform="matrix(1 0 0 1 339 1556)">
   <path d="M0.993347 0L3.6377 0L29.3282-67.1326L30.0301-67.1326L30.0301-70.459L28.1227-70.459ZM11.6882-24.4797L46.9818-24.4797L46.2311-26.7288L12.4382-26.7288ZM55.1193 0L57.7637 0L30.6381-70.459L29.4327-70.459L29.4327-67.1326Z"/>
  </g>
  <line id="Baseline-L" style="fill:none;stroke:#27AAE1;opacity:1;stroke-width:0.5;" x1="263" x2="3036" y1="1556" y2="1556"/>
  <line id="Capline-L" style="fill:none;stroke:#27AAE1;opacity:1;stroke-width:0.5;" x1="263" x2="3036" y1="1485.54" y2="1485.54"/>
  <line id="left-margin-Ultralight-S" style="fill:none;stroke:#00AEEF;stroke-width:0.5;opacity:1.0;" x1="512.046" x2="512.046" y1="600.785" y2="720.121"/>
  <line id="right-margin-Ultralight-S" style="fill:none;stroke:#00AEEF;stroke-width:0.5;opacity:1.0;" x1="607.376" x2="607.376" y1="600.785" y2="720.121"/>
  <line id="left-margin-Regular-S" style="fill:none;stroke:#00AEEF;stroke-width:0.5;opacity:1.0;" x1="1401.09" x2="1401.09" y1="600.785" y2="720.121"/>
  <line id="right-margin-Regular-S" style="fill:none;stroke:#00AEEF;stroke-width:0.5;opacity:1.0;" x1="1498.6" x2="1498.6" y1="600.785" y2="720.121"/>
  <line id="left-margin-Black-S" style="fill:none;stroke:#00AEEF;stroke-width:0.5;opacity:1.0;" x1="2881.11" x2="2881.11" y1="600.785" y2="720.121"/>
  <line id="right-margin-Black-S" style="fill:none;stroke:#00AEEF;stroke-width:0.5;opacity:1.0;" x1="2985.69" x2="2985.69" y1="600.785" y2="720.121"/>
 </g>
 <g id="Symbols">
  <g id="Black-S" transform="matrix(1 0 0 1 2881.11 696)">
   <path class="hierarchical-0:secondary SFSymbolsPreview4D4D4D" d="M51.5625 4.15039L56.3965-4.19922Q57.0801-5.41992 56.7871-6.78711Q56.4941-8.1543 55.2246-8.88672Q53.9551-9.61914 52.6855-9.2041Q51.416-8.78906 50.6348-7.4707L45.8008 0.878906Q45.1172 2.09961 45.3857 3.44238Q45.6543 4.78516 46.9238 5.51758Q48.1934 6.25 49.5361 5.81055Q50.8789 5.37109 51.5625 4.15039ZM34.8633-1.70898L36.3281-4.24805Q37.0605-5.51758 36.7432-6.86035Q36.4258-8.20312 35.1562-8.93555Q33.8867-9.66797 32.6172-9.27734Q31.3477-8.88672 30.5664-7.51953L29.1016-4.98047Q28.418-3.75977 28.6865-2.41699Q28.9551-1.07422 30.2246-0.341797Q31.4941 0.390625 32.8369-0.0488281Q34.1797-0.488281 34.8633-1.70898ZM74.9512-1.5625L76.416-4.10156Q77.1484-5.37109 76.8311-6.71387Q76.5137-8.05664 75.2441-8.78906Q73.9746-9.52148 72.7051-9.13086Q71.4355-8.74023 70.6543-7.37305L69.1895-4.83398Q68.5059-3.61328 68.7744-2.27051Q69.043-0.927734 70.3125-0.195312Q71.582 0.537109 72.9248 0.0976562Q74.2676-0.341797 74.9512-1.5625Z"/>
   <path class="hierarchical-1:primary SFSymbolsPreview212121" d="M28.1738-15.7227L76.8066-15.7227Q83.8379-15.7227 89.4775-18.9697Q95.1172-22.2168 98.3887-27.7832Q101.66-33.3496 101.66-40.2344Q101.66-47.168 98.4619-52.7588Q95.2637-58.3496 89.7217-61.6699Q84.1797-64.9902 77.1484-64.9902Q75-69.0918 71.5088-72.583Q68.0176-76.0742 62.8662-78.1738Q57.7148-80.2734 50.5371-80.2734Q42.5293-80.2734 36.084-76.8555Q29.6387-73.4375 25.4639-67.627Q21.2891-61.8164 20.1172-54.5898Q14.4531-52.4902 10.6445-47.6807Q6.83594-42.8711 6.83594-36.0352Q6.83594-30.2734 9.5459-25.6836Q12.2559-21.0938 17.0654-18.4082Q21.875-15.7227 28.1738-15.7227ZM28.6621-28.0273Q23.877-28.0273 21.5088-30.2246Q19.1406-32.4219 19.1406-35.8398Q19.1406-39.1113 21.2891-41.3086Q23.4375-43.5059 27.832-44.6289Q29.834-45.166 30.5176-46.167Q31.2012-47.168 31.543-49.1211Q32.6172-55.5664 35.3027-59.7412Q37.9883-63.916 41.8945-65.9424Q45.8008-67.9688 50.5371-67.9688Q55.8594-67.9688 60.3027-64.9414Q64.7461-61.9141 67.9199-56.1035Q68.7988-54.4922 69.8975-53.833Q70.9961-53.1738 72.998-53.1738Q78.7598-53.1738 82.3486-51.4404Q85.9375-49.707 87.6465-46.7285Q89.3555-43.75 89.3555-39.9902Q89.3555-36.6211 87.7686-33.9111Q86.1816-31.2012 83.2764-29.6143Q80.3711-28.0273 76.3184-28.0273ZM65.4785 16.0156Q66.3086 16.0156 66.7969 15.4053Q67.2852 14.7949 67.0898 13.916L66.4062 10.3516L69.2383 12.6953Q69.9219 13.2812 70.6543 13.208Q71.3867 13.1348 71.7773 12.4023Q72.168 11.6699 71.875 10.9131Q71.582 10.1562 70.752 9.86328L67.4805 8.69141L70.8008 7.4707Q71.6309 7.12891 71.9482 6.44531Q72.2656 5.76172 71.8262 5.0293Q71.4355 4.3457 70.6543 4.22363Q69.873 4.10156 69.1895 4.6875L66.4551 6.88477L67.0898 3.4668Q67.2363 2.58789 66.7725 1.97754Q66.3086 1.36719 65.4785 1.36719Q64.6484 1.36719 64.1602 1.97754Q63.6719 2.58789 63.8184 3.4668L64.4043 6.88477L61.7188 4.63867Q61.0352 4.05273 60.2539 4.19922Q59.4727 4.3457 59.082 5.0293Q58.6914 5.76172 59.0088 6.46973Q59.3262 7.17773 60.1562 7.4707L63.5254 8.64258L60.1074 9.91211Q59.3262 10.2051 59.0088 10.9375Q58.6914 11.6699 59.1309 12.4023Q59.5703 13.1348 60.3027 13.208Q61.0352 13.2812 61.7188 12.6953L64.4043 10.4492L63.8184 13.916Q63.6719 14.7949 64.1602 15.4053Q64.6484 16.0156 65.4785 16.0156ZM43.6523 21.7285Q44.4824 21.7285 44.9707 21.1182Q45.459 20.5078 45.2637 19.6289L44.5801 16.0645L47.4121 18.4082Q48.0957 18.9941 48.8281 18.9209Q49.5605 18.8477 49.9512 18.1152Q50.3418 17.3828 50.0488 16.626Q49.7559 15.8691 48.9258 15.5762L45.6543 14.4043L48.9746 13.1836Q49.8047 12.8418 50.1221 12.1582Q50.4395 11.4746 50 10.7422Q49.6094 10.0586 48.8281 9.93652Q48.0469 9.81445 47.3633 10.4004L44.6289 12.5977L45.2637 9.17969Q45.4102 8.30078 44.9463 7.69043Q44.4824 7.08008 43.6523 7.08008Q42.8223 7.08008 42.334 7.69043Q41.8457 8.30078 41.9922 9.17969L42.5781 12.5977L39.8926 10.3516Q39.209 9.76562 38.4277 9.91211Q37.6465 10.0586 37.2559 10.7422Q36.8652 11.4746 37.1826 12.1826Q37.5 12.8906 38.3301 13.1836L41.6992 14.3555L38.2812 15.625Q37.5 15.918 37.1826 16.6504Q36.8652 17.3828 37.3047 18.1152Q37.7441 18.8477 38.4766 18.9209Q39.209 18.9941 39.8926 18.4082L42.5781 16.1621L41.9922 19.6289Q41.8457 20.5078 42.334 21.1182Q42.8223 21.7285 43.6523 21.7285ZM24.4141 15.8691Q25.2441 15.8691 25.7324 15.2588Q26.2207 14.6484 26.0254 13.7695L25.3418 10.2051L28.1738 12.5488Q28.8574 13.1348 29.5898 13.0615Q30.3223 12.9883 30.7129 12.2559Q31.1035 11.5234 30.8105 10.7666Q30.5176 10.0098 29.6875 9.7168L26.416 8.54492L29.7363 7.32422Q30.5664 6.98242 30.8838 6.29883Q31.2012 5.61523 30.7617 4.88281Q30.3711 4.19922 29.5898 4.07715Q28.8086 3.95508 28.125 4.54102L25.3906 6.73828L26.0254 3.32031Q26.1719 2.44141 25.708 1.83105Q25.2441 1.2207 24.4141 1.2207Q23.584 1.2207 23.0957 1.83105Q22.6074 2.44141 22.7539 3.32031L23.3398 6.73828L20.6543 4.49219Q19.9707 3.90625 19.1895 4.05273Q18.4082 4.19922 18.0176 4.88281Q17.627 5.61523 17.9443 6.32324Q18.2617 7.03125 19.0918 7.32422L22.4609 8.49609L19.043 9.76562Q18.2617 10.0586 17.9443 10.791Q17.627 11.5234 18.0664 12.2559Q18.5059 12.9883 19.2383 13.0615Q19.9707 13.1348 20.6543 12.5488L23.3398 10.3027L22.7539 13.7695Q22.6074 14.6484 23.0957 15.2588Q23.584 15.8691 24.4141 15.8691Z"/>
  </g>
  <g id="Regular-S" transform="matrix(1 0 0 1 1401.09 696)">
   <path class="hierarchical-0:secondary SFSymbolsPreview4D4D4D" d="M46.9727 2.73438L52.6855-7.17773Q53.2227-8.1543 52.9785-9.15527Q52.7344-10.1562 51.7578-10.7422Q50.7812-11.2793 49.7559-11.0107Q48.7305-10.7422 48.1934-9.76562L42.4805 0.195312Q41.9434 1.12305 42.2119 2.12402Q42.4805 3.125 43.457 3.66211Q44.4336 4.19922 45.459 3.93066Q46.4844 3.66211 46.9727 2.73438ZM30.2734-3.125L32.6172-7.22656Q33.1543-8.1543 32.9102-9.17969Q32.666-10.2051 31.6895-10.791Q30.7129-11.3281 29.6875-11.0352Q28.6621-10.7422 28.125-9.81445L25.7812-5.66406Q25.293-4.73633 25.5371-3.73535Q25.7812-2.73438 26.7578-2.19727Q27.7344-1.66016 28.7598-1.92871Q29.7852-2.19727 30.2734-3.125ZM70.3613-2.97852L72.7051-7.08008Q73.2422-8.00781 72.998-9.0332Q72.7539-10.0586 71.7773-10.6445Q70.8008-11.1816 69.7754-10.8887Q68.75-10.5957 68.2129-9.66797L65.8691-5.51758Q65.3809-4.58984 65.625-3.58887Q65.8691-2.58789 66.8457-2.05078Q67.8223-1.51367 68.8477-1.78223Q69.873-2.05078 70.3613-2.97852Z"/>
   <path class="hierarchical-1:primary SFSymbolsPreview212121" d="M25.1465-16.748L72.4609-16.748Q78.8086-16.748 83.8135-19.6777Q88.8184-22.6074 91.6992-27.5146Q94.5801-32.4219 94.5801-38.3789Q94.5801-44.5801 91.5283-49.4141Q88.4766-54.248 83.2275-57.0312Q77.9785-59.8145 71.4355-59.8145Q69.043-64.502 65.332-67.9443Q61.6211-71.3867 56.8848-73.291Q52.1484-75.1953 46.7285-75.1953Q39.4531-75.1953 33.374-71.7773Q27.2949-68.3594 23.4131-62.5977Q19.5312-56.8359 18.8965-49.707Q13.7207-48.1934 10.2783-43.8721Q6.83594-39.5508 6.83594-33.4473Q6.83594-28.8086 8.98438-25.0244Q11.1328-21.2402 15.2344-18.9941Q19.3359-16.748 25.1465-16.748ZM25.0488-23.7793Q19.3848-23.7793 16.626-26.4893Q13.8672-29.1992 13.8672-33.2031Q13.8672-36.377 15.8203-39.0625Q17.7734-41.748 22.5586-43.0664Q24.3164-43.5059 25.0488-44.4336Q25.7812-45.3613 25.9277-47.2168Q26.416-53.3691 29.2969-58.1055Q32.1777-62.8418 36.7432-65.5029Q41.3086-68.1641 46.7285-68.1641Q52.7832-68.1641 57.6172-64.917Q62.4512-61.6699 65.5273-55.3711Q66.2598-53.8086 67.3096-53.1982Q68.3594-52.5879 70.2148-52.5879Q75.9277-52.5879 79.7852-50.6104Q83.6426-48.6328 85.5957-45.3613Q87.5488-42.0898 87.5488-38.1836Q87.5488-34.1797 85.6201-30.9326Q83.6914-27.6855 80.3955-25.7324Q77.0996-23.7793 72.9004-23.7793ZM62.9883 13.4766Q63.5742 13.4766 63.916 13.0615Q64.2578 12.6465 64.209 12.1094L63.916 8.54492L66.8945 10.5957Q67.2852 10.8887 67.8711 10.7666Q68.457 10.6445 68.7012 10.2051Q68.9941 9.76562 68.8477 9.17969Q68.7012 8.59375 68.1152 8.34961L64.8926 6.78711L68.1641 5.22461Q68.75 4.98047 68.8721 4.39453Q68.9941 3.80859 68.75 3.36914Q68.5059 2.92969 67.8955 2.83203Q67.2852 2.73438 66.8945 3.02734L63.916 5.12695L64.2578 1.51367Q64.3066 0.927734 63.9404 0.512695Q63.5742 0.0976562 62.9883 0.0976562Q62.4023 0.0976562 62.0361 0.512695Q61.6699 0.927734 61.7188 1.51367L62.0117 5.12695L58.9844 3.02734Q58.5938 2.73438 58.0322 2.80762Q57.4707 2.88086 57.1777 3.36914Q56.9336 3.80859 57.0557 4.37012Q57.1777 4.93164 57.7148 5.22461L60.9863 6.78711L57.7148 8.34961Q57.1777 8.59375 57.0312 9.15527Q56.8848 9.7168 57.1289 10.2051Q57.4219 10.6934 58.0078 10.791Q58.5938 10.8887 58.9844 10.5957L62.0117 8.54492L61.7676 12.1094Q61.7188 12.6465 62.0605 13.0615Q62.4023 13.4766 62.9883 13.4766ZM41.1621 19.1895Q41.748 19.1895 42.0898 18.7744Q42.4316 18.3594 42.3828 17.8223L42.0898 14.2578L45.0684 16.3086Q45.459 16.6016 46.0449 16.4795Q46.6309 16.3574 46.875 15.918Q47.168 15.4785 47.0215 14.8926Q46.875 14.3066 46.2891 14.0625L43.0664 12.5L46.3379 10.9375Q46.9238 10.6934 47.0459 10.1074Q47.168 9.52148 46.9238 9.08203Q46.6797 8.64258 46.0693 8.54492Q45.459 8.44727 45.0684 8.74023L42.0898 10.8398L42.4316 7.22656Q42.4805 6.64062 42.1143 6.22559Q41.748 5.81055 41.1621 5.81055Q40.5762 5.81055 40.21 6.22559Q39.8438 6.64062 39.8926 7.22656L40.1855 10.8398L37.1582 8.74023Q36.7676 8.44727 36.2061 8.52051Q35.6445 8.59375 35.3516 9.08203Q35.1074 9.52148 35.2295 10.083Q35.3516 10.6445 35.8887 10.9375L39.1602 12.5L35.8887 14.0625Q35.3516 14.3066 35.2051 14.8682Q35.0586 15.4297 35.3027 15.918Q35.5957 16.4062 36.1816 16.5039Q36.7676 16.6016 37.1582 16.3086L40.1855 14.2578L39.9414 17.8223Q39.8926 18.3594 40.2344 18.7744Q40.5762 19.1895 41.1621 19.1895ZM22.9004 13.3301Q23.4863 13.3301 23.8281 12.915Q24.1699 12.5 24.1211 11.9629L23.8281 8.39844L26.8066 10.4492Q27.1973 10.7422 27.7832 10.6201Q28.3691 10.498 28.6133 10.0586Q28.9062 9.61914 28.7598 9.0332Q28.6133 8.44727 28.0273 8.20312L24.8047 6.64062L28.0762 5.07812Q28.6621 4.83398 28.7842 4.24805Q28.9062 3.66211 28.6621 3.22266Q28.418 2.7832 27.8076 2.68555Q27.1973 2.58789 26.8066 2.88086L23.8281 4.98047L24.1699 1.36719Q24.2188 0.78125 23.8525 0.366211Q23.4863-0.0488281 22.9004-0.0488281Q22.3145-0.0488281 21.9482 0.366211Q21.582 0.78125 21.6309 1.36719L21.9238 4.98047L18.8965 2.88086Q18.5059 2.58789 17.9443 2.66113Q17.3828 2.73438 17.0898 3.22266Q16.8457 3.66211 16.9678 4.22363Q17.0898 4.78516 17.627 5.07812L20.8984 6.64062L17.627 8.20312Q17.0898 8.44727 16.9434 9.00879Q16.7969 9.57031 17.041 10.0586Q17.334 10.5469 17.9199 10.6445Q18.5059 10.7422 18.8965 10.4492L21.9238 8.39844L21.6797 11.9629Q21.6309 12.5 21.9727 12.915Q22.3145 13.3301 22.9004 13.3301Z"/>
  </g>
  <g id="Ultralight-S" transform="matrix(1 0 0 1 512.046 696)">
   <path class="hierarchical-0:secondary SFSymbolsPreview4D4D4D" d="M44.0666 1.59912L51.1414-10.6743Q51.4061-11.1511 51.3435-11.562Q51.281-11.9728 50.8949-12.2406Q50.5089-12.4146 50.0965-12.2822Q49.6841-12.1498 49.4194-11.673L42.2989 0.604248Q42.0341 1.12305 42.0982 1.53351Q42.1623 1.94397 42.5941 2.1637Q42.9802 2.42844 43.3701 2.27318Q43.7599 2.11792 44.0666 1.59912ZM27.3674-4.26025L31.073-10.7231Q31.3835-11.1969 31.2981-11.6093Q31.2126-12.0216 30.8266-12.2894Q30.4405-12.4634 30.0282-12.3295Q29.6158-12.1956 29.351-11.7218L25.5997-5.25513Q25.3387-4.73633 25.4009-4.32587Q25.4631-3.91541 25.8949-3.69568Q26.281-3.43094 26.6708-3.5862Q27.0607-3.74146 27.3674-4.26025ZM67.4553-4.11377L71.1609-10.5766Q71.4714-11.0504 71.386-11.4628Q71.3005-11.8752 70.9145-12.1429Q70.5284-12.3169 70.116-12.183Q69.7037-12.0491 69.4389-11.5753L65.6876-5.10864Q65.4266-4.58984 65.4888-4.17938Q65.551-3.76892 65.9828-3.54919Q66.3689-3.28445 66.7587-3.43971Q67.1486-3.59497 67.4553-4.11377Z"/>
   <path class="hierarchical-1:primary SFSymbolsPreview212121" d="M23.3757-18.7004L71.5981-18.7004Q77.446-18.7004 82.156-21.3806Q86.866-24.0608 89.6332-28.5591Q92.4004-33.0574 92.4004-38.6063Q92.4004-44.2619 89.5077-48.6874Q86.615-53.1128 81.6608-55.669Q76.7067-58.2253 70.5727-58.2253Q68.1801-63.1851 64.6507-66.832Q61.1214-70.4788 56.4304-72.4964Q51.7395-74.514 45.8656-74.514Q38.9992-74.514 33.3061-71.096Q27.6131-67.6781 23.9807-61.8938Q20.3484-56.1096 19.7594-49.0257Q14.402-47.6028 10.619-43.5997Q6.83594-39.5966 6.83594-33.6288Q6.83594-29.5349 8.8028-26.1597Q10.7697-22.7844 14.4623-20.7424Q18.1549-18.7004 23.3757-18.7004ZM23.3688-20.8275Q16.433-20.8275 12.698-24.6048Q8.96301-28.3821 8.96301-33.6121Q8.96301-38.4659 12.0285-42.0143Q15.094-45.5627 20.2881-46.9261Q21.183-47.139 21.5069-47.5445Q21.8307-47.95 21.8864-48.6702Q22.2839-55.1857 25.6641-60.5804Q29.0443-65.9752 34.3819-69.1811Q39.7194-72.3869 45.8656-72.3869Q54.0092-72.3869 59.7061-68.232Q65.403-64.077 68.4792-57.5508Q68.8934-56.7604 69.421-56.4453Q69.9486-56.1302 70.8961-56.1302Q76.4275-56.1302 80.8071-53.7666Q85.1868-51.403 87.73-47.4277Q90.2733-43.4525 90.2733-38.5017Q90.2733-33.6349 87.7998-29.6158Q85.3264-25.5966 81.0768-23.2121Q76.8272-20.8275 71.5836-20.8275ZM61.6257 12.0232Q62.1208 12.0232 62.3493 11.6764Q62.5778 11.3297 62.574 10.8376L62.4626 6.77414L65.9409 8.86993Q66.3773 9.11789 66.7812 9.08661Q67.1852 9.05533 67.4294 8.66089Q67.6773 8.26721 67.4854 7.88574Q67.2935 7.50427 66.8434 7.21436L63.3484 5.33371L66.8472 3.40805Q67.2966 3.16391 67.487 2.78244Q67.6773 2.40097 67.4332 1.96152Q67.189 1.56708 66.7831 1.5377Q66.3773 1.50833 65.9409 1.75552L62.4626 3.90091L62.5778-0.166321Q62.5809-0.661469 62.3508-1.00861Q62.1208-1.35574 61.6257-1.35574Q61.1763-1.35574 60.9463-1.00861Q60.7162-0.661469 60.7201-0.166321L60.7857 3.90091L57.3494 1.75552Q56.9138 1.50833 56.5109 1.53618Q56.1081 1.56403 55.8609 1.96152Q55.6168 2.40097 55.8067 2.80342Q55.9967 3.20587 56.398 3.40805L59.9876 5.33371L56.398 7.26013Q55.9517 7.54929 55.7823 7.90634Q55.6129 8.2634 55.8121 8.66089Q56.105 9.10416 56.5094 9.13353Q56.9138 9.1629 57.3494 8.91571L60.7857 6.81915L60.6781 10.8376Q60.7201 11.3297 60.9482 11.6764Q61.1763 12.0232 61.6257 12.0232ZM39.7995 17.7361Q40.2946 17.7361 40.5231 17.3893Q40.7516 17.0425 40.7478 16.5504L40.6364 12.487L44.1147 14.5828Q44.5511 14.8308 44.9551 14.7995Q45.359 14.7682 45.6032 14.3738Q45.8511 13.9801 45.6593 13.5986Q45.4674 13.2172 45.0172 12.9272L41.5222 11.0466L45.0211 9.12094Q45.4704 8.8768 45.6608 8.49533Q45.8511 8.11386 45.607 7.67441Q45.3629 7.27997 44.957 7.2506Q44.5511 7.22122 44.1147 7.46841L40.6364 9.6138L40.7516 5.54657Q40.7547 5.05142 40.5247 4.70428Q40.2946 4.35715 39.7995 4.35715Q39.3501 4.35715 39.1201 4.70428Q38.8901 5.05142 38.8939 5.54657L38.9595 9.6138L35.5232 7.46841Q35.0876 7.22122 34.6848 7.24907Q34.2819 7.27692 34.0347 7.67441Q33.7906 8.11386 33.9806 8.51631Q34.1705 8.91876 34.5718 9.12094L38.1615 11.0466L34.5718 12.973Q34.1255 13.2622 33.9561 13.6192Q33.7868 13.9763 33.9859 14.3738Q34.2789 14.817 34.6832 14.8464Q35.0876 14.8758 35.5232 14.6286L38.9595 12.532L38.8519 16.5504Q38.8939 17.0425 39.122 17.3893Q39.3501 17.7361 39.7995 17.7361ZM21.5378 11.8767Q22.0329 11.8767 22.2614 11.5299Q22.4899 11.1832 22.4861 10.6911L22.3747 6.62766L25.853 8.72345Q26.2894 8.97141 26.6933 8.94012Q27.0973 8.90884 27.3415 8.5144Q27.5894 8.12073 27.3975 7.73926Q27.2057 7.35779 26.7555 7.06787L23.2605 5.18723L26.7593 3.26157Q27.2087 3.01743 27.3991 2.63596Q27.5894 2.25449 27.3453 1.81503Q27.1011 1.42059 26.6953 1.39122Q26.2894 1.36185 25.853 1.60904L22.3747 3.75443L22.4899-0.312805Q22.493-0.807953 22.263-1.15509Q22.0329-1.50223 21.5378-1.50223Q21.0884-1.50223 20.8584-1.15509Q20.6284-0.807953 20.6322-0.312805L20.6978 3.75443L17.2615 1.60904Q16.8259 1.36185 16.423 1.38969Q16.0202 1.41754 15.773 1.81503Q15.5289 2.25449 15.7188 2.65694Q15.9088 3.05939 16.3101 3.26157L19.8997 5.18723L16.3101 7.11365Q15.8638 7.4028 15.6944 7.75986Q15.5251 8.11691 15.7242 8.5144Q16.0172 8.95767 16.4215 8.98705Q16.8259 9.01642 17.2615 8.76923L20.6978 6.67267L20.5902 10.6911Q20.6322 11.1832 20.8603 11.5299Q21.0884 11.8767 21.5378 11.8767Z"/>
  </g>
 </g>
</svg>
