<?xml version="1.0" encoding="UTF-8"?>
<!--Generator: Apple Native CoreSVG 175-->
<!DOCTYPE svg
PUBLIC "-//W3C//DTD SVG 1.1//EN"
       "http://www.w3.org/Graphics/SVG/1.1/DTD/svg11.dtd">
<svg version="1.1" xmlns="http://www.w3.org/2000/svg" xmlns:xlink="http://www.w3.org/1999/xlink" width="3300" height="2200">
 <!--glyph: "uni1001B5.medium", point size: 100.0, font version: "17.3d3e1", template writer version: "65.1"-->
 <style>.hierarchical-0:secondary {fill:#4D4D4D}
.hierarchical-1:primary {fill:#212121;-sfsymbols-clear-behind:true}

.SFSymbolsPreview212121 {fill:#212121;opacity:1.0}
.SFSymbolsPreview4D4D4D {fill:#4D4D4D;opacity:1.0}
</style>
 <g id="Notes">
  <rect height="2200" id="artboard" style="fill:white;opacity:1" width="3300" x="0" y="0"/>
  <line style="fill:none;stroke:black;opacity:1;stroke-width:0.5;" x1="263" x2="3036" y1="292" y2="292"/>
  <text style="stroke:none;fill:black;font-family:sans-serif;font-size:13;font-weight:bold;" transform="matrix(1 0 0 1 263 322)">Weight/Scale Variations</text>
  <text style="stroke:none;fill:black;font-family:sans-serif;font-size:13;text-anchor:middle;" transform="matrix(1 0 0 1 559.711 322)">Ultralight</text>
  <text style="stroke:none;fill:black;font-family:sans-serif;font-size:13;text-anchor:middle;" transform="matrix(1 0 0 1 856.422 322)">Thin</text>
  <text style="stroke:none;fill:black;font-family:sans-serif;font-size:13;text-anchor:middle;" transform="matrix(1 0 0 1 1153.13 322)">Light</text>
  <text style="stroke:none;fill:black;font-family:sans-serif;font-size:13;text-anchor:middle;" transform="matrix(1 0 0 1 1449.84 322)">Regular</text>
  <text style="stroke:none;fill:black;font-family:sans-serif;font-size:13;text-anchor:middle;" transform="matrix(1 0 0 1 1746.56 322)">Medium</text>
  <text style="stroke:none;fill:black;font-family:sans-serif;font-size:13;text-anchor:middle;" transform="matrix(1 0 0 1 2043.27 322)">Semibold</text>
  <text style="stroke:none;fill:black;font-family:sans-serif;font-size:13;text-anchor:middle;" transform="matrix(1 0 0 1 2339.98 322)">Bold</text>
  <text style="stroke:none;fill:black;font-family:sans-serif;font-size:13;text-anchor:middle;" transform="matrix(1 0 0 1 2636.69 322)">Heavy</text>
  <text style="stroke:none;fill:black;font-family:sans-serif;font-size:13;text-anchor:middle;" transform="matrix(1 0 0 1 2933.4 322)">Black</text>
  <line style="fill:none;stroke:black;opacity:1;stroke-width:0.5;" x1="263" x2="3036" y1="1903" y2="1903"/>
  <g transform="matrix(1 0 0 1 263 1933)">
   <path d="M9.24805 0.830078Q10.8691 0.830078 12.2949 0.214844Q13.7207-0.400391 14.8096-1.49414Q15.8984-2.58789 16.5186-4.01367Q17.1387-5.43945 17.1387-7.05078Q17.1387-8.66211 16.5186-10.0879Q15.8984-11.5137 14.8047-12.6074Q13.7109-13.7012 12.2852-14.3164Q10.8594-14.9316 9.23828-14.9316Q7.62695-14.9316 6.20117-14.3164Q4.77539-13.7012 3.69141-12.6074Q2.60742-11.5137 1.9873-10.0879Q1.36719-8.66211 1.36719-7.05078Q1.36719-5.43945 1.9873-4.01367Q2.60742-2.58789 3.69629-1.49414Q4.78516-0.400391 6.21094 0.214844Q7.63672 0.830078 9.24805 0.830078ZM9.24805-0.654297Q7.91992-0.654297 6.7627-1.14746Q5.60547-1.64062 4.73145-2.51953Q3.85742-3.39844 3.36426-4.56055Q2.87109-5.72266 2.87109-7.05078Q2.87109-8.37891 3.35938-9.54102Q3.84766-10.7031 4.72168-11.582Q5.5957-12.4609 6.75293-12.9541Q7.91016-13.4473 9.23828-13.4473Q10.5762-13.4473 11.7334-12.9541Q12.8906-12.4609 13.7695-11.582Q14.6484-10.7031 15.1465-9.54102Q15.6445-8.37891 15.6445-7.05078Q15.6445-5.72266 15.1514-4.56055Q14.6582-3.39844 13.7842-2.51953Q12.9102-1.64062 11.748-1.14746Q10.5859-0.654297 9.24805-0.654297ZM5.6543-7.05078Q5.6543-6.72852 5.85938-6.52832Q6.06445-6.32812 6.40625-6.32812L8.51562-6.32812L8.51562-4.20898Q8.51562-3.88672 8.71094-3.67676Q8.90625-3.4668 9.23828-3.4668Q9.56055-3.4668 9.77051-3.67676Q9.98047-3.88672 9.98047-4.20898L9.98047-6.32812L12.0898-6.32812Q12.4219-6.32812 12.627-6.52832Q12.832-6.72852 12.832-7.05078Q12.832-7.38281 12.627-7.58789Q12.4219-7.79297 12.0898-7.79297L9.98047-7.79297L9.98047-9.90234Q9.98047-10.2344 9.77051-10.4443Q9.56055-10.6543 9.23828-10.6543Q8.90625-10.6543 8.71094-10.4443Q8.51562-10.2344 8.51562-9.90234L8.51562-7.79297L6.40625-7.79297Q6.06445-7.79297 5.85938-7.58789Q5.6543-7.38281 5.6543-7.05078Z"/>
  </g>
  <g transform="matrix(1 0 0 1 281.867 1933)">
   <path d="M11.709 2.91016Q13.75 2.91016 15.5518 2.12891Q17.3535 1.34766 18.7305-0.0292969Q20.1074-1.40625 20.8887-3.20801Q21.6699-5.00977 21.6699-7.05078Q21.6699-9.0918 20.8887-10.8936Q20.1074-12.6953 18.7305-14.0723Q17.3535-15.4492 15.5469-16.2305Q13.7402-17.0117 11.6992-17.0117Q9.6582-17.0117 7.85645-16.2305Q6.05469-15.4492 4.68262-14.0723Q3.31055-12.6953 2.5293-10.8936Q1.74805-9.0918 1.74805-7.05078Q1.74805-5.00977 2.5293-3.20801Q3.31055-1.40625 4.6875-0.0292969Q6.06445 1.34766 7.86621 2.12891Q9.66797 2.91016 11.709 2.91016ZM11.709 1.25Q9.98047 1.25 8.47656 0.605469Q6.97266-0.0390625 5.83496-1.17676Q4.69727-2.31445 4.05762-3.81836Q3.41797-5.32227 3.41797-7.05078Q3.41797-8.7793 4.05762-10.2832Q4.69727-11.7871 5.83008-12.9297Q6.96289-14.0723 8.4668-14.7119Q9.9707-15.3516 11.6992-15.3516Q13.4277-15.3516 14.9316-14.7119Q16.4355-14.0723 17.5781-12.9297Q18.7207-11.7871 19.3652-10.2832Q20.0098-8.7793 20.0098-7.05078Q20.0098-5.32227 19.3701-3.81836Q18.7305-2.31445 17.5928-1.17676Q16.4551-0.0390625 14.9463 0.605469Q13.4375 1.25 11.709 1.25ZM7.17773-7.05078Q7.17773-6.69922 7.41211-6.47461Q7.64648-6.25 8.01758-6.25L10.8887-6.25L10.8887-3.36914Q10.8887-2.99805 11.1133-2.76855Q11.3379-2.53906 11.6895-2.53906Q12.0605-2.53906 12.29-2.76855Q12.5195-2.99805 12.5195-3.36914L12.5195-6.25L15.4004-6.25Q15.7715-6.25 16.001-6.47461Q16.2305-6.69922 16.2305-7.05078Q16.2305-7.42188 16.001-7.65137Q15.7715-7.88086 15.4004-7.88086L12.5195-7.88086L12.5195-10.752Q12.5195-11.1328 12.29-11.3623Q12.0605-11.5918 11.6895-11.5918Q11.3379-11.5918 11.1133-11.3574Q10.8887-11.123 10.8887-10.752L10.8887-7.88086L8.01758-7.88086Q7.63672-7.88086 7.40723-7.65137Q7.17773-7.42188 7.17773-7.05078Z"/>
  </g>
  <g transform="matrix(1 0 0 1 305.646 1933)">
   <path d="M14.9707 5.66406Q17.0605 5.66406 18.96 5.01465Q20.8594 4.36523 22.4512 3.19336Q24.043 2.02148 25.2197 0.429688Q26.3965-1.16211 27.0459-3.06641Q27.6953-4.9707 27.6953-7.05078Q27.6953-9.14062 27.0459-11.04Q26.3965-12.9395 25.2197-14.5312Q24.043-16.123 22.4512-17.2998Q20.8594-18.4766 18.9551-19.126Q17.0508-19.7754 14.9609-19.7754Q12.8711-19.7754 10.9717-19.126Q9.07227-18.4766 7.48535-17.2998Q5.89844-16.123 4.72168-14.5312Q3.54492-12.9395 2.90039-11.04Q2.25586-9.14062 2.25586-7.05078Q2.25586-4.9707 2.90527-3.06641Q3.55469-1.16211 4.72656 0.429688Q5.89844 2.02148 7.49023 3.19336Q9.08203 4.36523 10.9814 5.01465Q12.8809 5.66406 14.9707 5.66406ZM14.9707 3.84766Q13.1641 3.84766 11.5283 3.2959Q9.89258 2.74414 8.53516 1.74805Q7.17773 0.751953 6.17676-0.610352Q5.17578-1.97266 4.62891-3.6084Q4.08203-5.24414 4.08203-7.05078Q4.08203-8.86719 4.62891-10.5029Q5.17578-12.1387 6.17188-13.501Q7.16797-14.8633 8.52539-15.8594Q9.88281-16.8555 11.5186-17.4023Q13.1543-17.9492 14.9609-17.9492Q16.7773-17.9492 18.4131-17.4023Q20.0488-16.8555 21.4111-15.8594Q22.7734-14.8633 23.7695-13.501Q24.7656-12.1387 25.3174-10.5029Q25.8691-8.86719 25.8691-7.05078Q25.8789-5.24414 25.332-3.6084Q24.7852-1.97266 23.7842-0.610352Q22.7832 0.751953 21.4209 1.74805Q20.0586 2.74414 18.4229 3.2959Q16.7871 3.84766 14.9707 3.84766ZM9.19922-7.05078Q9.19922-6.66992 9.45801-6.4209Q9.7168-6.17188 10.1172-6.17188L14.0625-6.17188L14.0625-2.2168Q14.0625-1.81641 14.3115-1.55762Q14.5605-1.29883 14.9512-1.29883Q15.3516-1.29883 15.6104-1.55273Q15.8691-1.80664 15.8691-2.2168L15.8691-6.17188L19.8242-6.17188Q20.2246-6.17188 20.4785-6.4209Q20.7324-6.66992 20.7324-7.05078Q20.7324-7.46094 20.4785-7.71484Q20.2246-7.96875 19.8242-7.96875L15.8691-7.96875L15.8691-11.9141Q15.8691-12.3242 15.6104-12.583Q15.3516-12.8418 14.9512-12.8418Q14.5605-12.8418 14.3115-12.583Q14.0625-12.3242 14.0625-11.9141L14.0625-7.96875L10.1172-7.96875Q9.70703-7.96875 9.45312-7.71484Q9.19922-7.46094 9.19922-7.05078Z"/>
  </g>
  <text style="stroke:none;fill:black;font-family:sans-serif;font-size:13;font-weight:bold;" transform="matrix(1 0 0 1 263 1953)">Design Variations</text>
  <text style="stroke:none;fill:black;font-family:sans-serif;font-size:13;" transform="matrix(1 0 0 1 263 1971)">Symbols are supported in up to nine weights and three scales.</text>
  <text style="stroke:none;fill:black;font-family:sans-serif;font-size:13;" transform="matrix(1 0 0 1 263 1989)">For optimal layout with text and other symbols, vertically align</text>
  <text style="stroke:none;fill:black;font-family:sans-serif;font-size:13;" transform="matrix(1 0 0 1 263 2007)">symbols with the adjacent text.</text>
  <line style="fill:none;stroke:#00AEEF;stroke-width:0.5;opacity:1.0;" x1="776" x2="776" y1="1919" y2="1933"/>
  <g transform="matrix(1 0 0 1 776 1933)">
   <path d="M3.31055 0.15625Q3.70117 0.15625 3.91602-0.00976562Q4.13086-0.175781 4.26758-0.585938L5.52734-4.0332L11.2891-4.0332L12.5488-0.585938Q12.6855-0.175781 12.9004-0.00976562Q13.1152 0.15625 13.4961 0.15625Q13.8867 0.15625 14.1162-0.0585938Q14.3457-0.273438 14.3457-0.644531Q14.3457-0.869141 14.2383-1.17188L9.6582-13.3691Q9.48242-13.8184 9.17969-14.043Q8.87695-14.2676 8.4082-14.2676Q7.5-14.2676 7.17773-13.3789L2.59766-1.16211Q2.49023-0.859375 2.49023-0.634766Q2.49023-0.263672 2.70996-0.0537109Q2.92969 0.15625 3.31055 0.15625ZM6.00586-5.51758L8.37891-12.0898L8.42773-12.0898L10.8008-5.51758Z"/>
  </g>
  <line style="fill:none;stroke:#00AEEF;stroke-width:0.5;opacity:1.0;" x1="793.197" x2="793.197" y1="1919" y2="1933"/>
  <text style="stroke:none;fill:black;font-family:sans-serif;font-size:13;font-weight:bold;" transform="matrix(1 0 0 1 776 1953)">Margins</text>
  <text style="stroke:none;fill:black;font-family:sans-serif;font-size:13;" transform="matrix(1 0 0 1 776 1971)">Leading and trailing margins on the left and right side of each symbol</text>
  <text style="stroke:none;fill:black;font-family:sans-serif;font-size:13;" transform="matrix(1 0 0 1 776 1989)">can be adjusted by modifying the x-location of the margin guidelines.</text>
  <text style="stroke:none;fill:black;font-family:sans-serif;font-size:13;" transform="matrix(1 0 0 1 776 2007)">Modifications are automatically applied proportionally to all</text>
  <text style="stroke:none;fill:black;font-family:sans-serif;font-size:13;" transform="matrix(1 0 0 1 776 2025)">scales and weights.</text>
  <g transform="matrix(1 0 0 1 1289 1933)">
   <path d="M2.8418 1.86523L4.54102 3.57422Q5.18555 4.22852 5.90332 4.17969Q6.62109 4.13086 7.31445 3.35938L18.0078-8.42773L17.041-9.4043L6.42578 2.27539Q6.16211 2.57812 5.89355 2.61719Q5.625 2.65625 5.27344 2.30469L4.10156 1.14258Q3.75 0.791016 3.79395 0.522461Q3.83789 0.253906 4.14062-0.0195312L15.6152-10.8203L14.6387-11.7871L3.04688-0.898438Q2.30469-0.214844 2.25098 0.498047Q2.19727 1.21094 2.8418 1.86523ZM9.25781-16.3281Q8.94531-16.0254 8.90625-15.6348Q8.86719-15.2441 9.04297-14.9512Q9.21875-14.6777 9.55566-14.541Q9.89258-14.4043 10.3809-14.5215Q11.4746-14.7754 12.5977-14.7314Q13.7207-14.6875 14.7949-13.9844L14.209-12.5293Q13.9551-11.9043 14.0674-11.4404Q14.1797-10.9766 14.5801-10.5664L16.875-8.25195Q17.2363-7.88086 17.5781-7.82227Q17.9199-7.76367 18.3398-7.8418L19.4043-8.03711L20.0684-7.36328L20.0293-6.80664Q20-6.43555 20.1221-6.12305Q20.2441-5.81055 20.6055-5.44922L21.3672-4.70703Q21.7285-4.3457 22.1533-4.33105Q22.5781-4.31641 22.9297-4.66797L25.8398-7.58789Q26.1914-7.93945 26.1816-8.35449Q26.1719-8.76953 25.8105-9.13086L25.0391-9.89258Q24.6875-10.2539 24.3799-10.3857Q24.0723-10.5176 23.7109-10.4883L23.1348-10.4395L22.4902-11.0742L22.7344-12.1973Q22.832-12.6172 22.6953-12.9834Q22.5586-13.3496 22.1191-13.7891L19.9219-15.9766Q18.6719-17.2168 17.2607-17.8369Q15.8496-18.457 14.4189-18.4814Q12.9883-18.5059 11.665-17.959Q10.3418-17.4121 9.25781-16.3281ZM10.752-15.957Q11.6602-16.6211 12.7002-16.9043Q13.7402-17.1875 14.8047-17.085Q15.8691-16.9824 16.8701-16.5137Q17.8711-16.0449 18.7012-15.2051L21.1328-12.793Q21.3086-12.6172 21.3525-12.4512Q21.3965-12.2852 21.3379-12.0312L21.0156-10.5469L22.5195-9.0625L23.5059-9.12109Q23.6914-9.13086 23.7891-9.09668Q23.8867-9.0625 24.0332-8.91602L24.6094-8.33984L22.168-5.89844L21.5918-6.47461Q21.4453-6.62109 21.4062-6.71875Q21.3672-6.81641 21.377-7.01172L21.4453-7.98828L19.9512-9.47266L18.4277-9.21875Q18.1836-9.16992 18.042-9.2041Q17.9004-9.23828 17.7148-9.41406L15.7129-11.416Q15.5176-11.5918 15.4932-11.7529Q15.4688-11.9141 15.5859-12.1875L16.4648-14.2773Q15.293-15.3711 13.8281-15.791Q12.3633-16.2109 10.8398-15.7617Q10.7227-15.7324 10.6885-15.8057Q10.6543-15.8789 10.752-15.957Z"/>
  </g>
  <text style="stroke:none;fill:black;font-family:sans-serif;font-size:13;font-weight:bold;" transform="matrix(1 0 0 1 1289 1953)">Exporting</text>
  <text style="stroke:none;fill:black;font-family:sans-serif;font-size:13;" transform="matrix(1 0 0 1 1289 1971)">Symbols should be outlined when exporting to ensure the</text>
  <text style="stroke:none;fill:black;font-family:sans-serif;font-size:13;" transform="matrix(1 0 0 1 1289 1989)">design is preserved when submitting to Xcode.</text>
  <text id="template-version" style="stroke:none;fill:black;font-family:sans-serif;font-size:13;text-anchor:end;" transform="matrix(1 0 0 1 3036 1933)">Template v.3.0</text>
  <text style="stroke:none;fill:black;font-family:sans-serif;font-size:13;text-anchor:end;" transform="matrix(1 0 0 1 3036 1951)">Requires Xcode 13 or greater</text>
  <text id="descriptive-name" style="stroke:none;fill:black;font-family:sans-serif;font-size:13;text-anchor:end;" transform="matrix(1 0 0 1 3036 1969)">Generated from sun.dust</text>
  <text style="stroke:none;fill:black;font-family:sans-serif;font-size:13;text-anchor:end;" transform="matrix(1 0 0 1 3036 1987)">Typeset at 100 points</text>
  <text style="stroke:none;fill:black;font-family:sans-serif;font-size:13;" transform="matrix(1 0 0 1 263 726)">Small</text>
  <text style="stroke:none;fill:black;font-family:sans-serif;font-size:13;" transform="matrix(1 0 0 1 263 1156)">Medium</text>
  <text style="stroke:none;fill:black;font-family:sans-serif;font-size:13;" transform="matrix(1 0 0 1 263 1586)">Large</text>
 </g>
 <g id="Guides">
  <g id="H-reference" style="fill:#27AAE1;stroke:none;" transform="matrix(1 0 0 1 339 696)">
   <path d="M0.993347 0L3.6377 0L29.3282-67.1326L30.0301-67.1326L30.0301-70.459L28.1227-70.459ZM11.6882-24.4797L46.9818-24.4797L46.2311-26.7288L12.4382-26.7288ZM55.1193 0L57.7637 0L30.6381-70.459L29.4327-70.459L29.4327-67.1326Z"/>
  </g>
  <line id="Baseline-S" style="fill:none;stroke:#27AAE1;opacity:1;stroke-width:0.5;" x1="263" x2="3036" y1="696" y2="696"/>
  <line id="Capline-S" style="fill:none;stroke:#27AAE1;opacity:1;stroke-width:0.5;" x1="263" x2="3036" y1="625.541" y2="625.541"/>
  <g id="H-reference" style="fill:#27AAE1;stroke:none;" transform="matrix(1 0 0 1 339 1126)">
   <path d="M0.993347 0L3.6377 0L29.3282-67.1326L30.0301-67.1326L30.0301-70.459L28.1227-70.459ZM11.6882-24.4797L46.9818-24.4797L46.2311-26.7288L12.4382-26.7288ZM55.1193 0L57.7637 0L30.6381-70.459L29.4327-70.459L29.4327-67.1326Z"/>
  </g>
  <line id="Baseline-M" style="fill:none;stroke:#27AAE1;opacity:1;stroke-width:0.5;" x1="263" x2="3036" y1="1126" y2="1126"/>
  <line id="Capline-M" style="fill:none;stroke:#27AAE1;opacity:1;stroke-width:0.5;" x1="263" x2="3036" y1="1055.54" y2="1055.54"/>
  <g id="H-reference" style="fill:#27AAE1;stroke:none;" transform="matrix(1 0 0 1 339 1556)">
   <path d="M0.993347 0L3.6377 0L29.3282-67.1326L30.0301-67.1326L30.0301-70.459L28.1227-70.459ZM11.6882-24.4797L46.9818-24.4797L46.2311-26.7288L12.4382-26.7288ZM55.1193 0L57.7637 0L30.6381-70.459L29.4327-70.459L29.4327-67.1326Z"/>
  </g>
  <line id="Baseline-L" style="fill:none;stroke:#27AAE1;opacity:1;stroke-width:0.5;" x1="263" x2="3036" y1="1556" y2="1556"/>
  <line id="Capline-L" style="fill:none;stroke:#27AAE1;opacity:1;stroke-width:0.5;" x1="263" x2="3036" y1="1485.54" y2="1485.54"/>
  <line id="left-margin-Ultralight-S" style="fill:none;stroke:#00AEEF;stroke-width:0.5;opacity:1.0;" x1="505.805" x2="505.805" y1="600.785" y2="720.121"/>
  <line id="right-margin-Ultralight-S" style="fill:none;stroke:#00AEEF;stroke-width:0.5;opacity:1.0;" x1="613.617" x2="613.617" y1="600.785" y2="720.121"/>
  <line id="left-margin-Regular-S" style="fill:none;stroke:#00AEEF;stroke-width:0.5;opacity:1.0;" x1="1395.94" x2="1395.94" y1="600.785" y2="720.121"/>
  <line id="right-margin-Regular-S" style="fill:none;stroke:#00AEEF;stroke-width:0.5;opacity:1.0;" x1="1503.75" x2="1503.75" y1="600.785" y2="720.121"/>
  <line id="left-margin-Black-S" style="fill:none;stroke:#00AEEF;stroke-width:0.5;opacity:1.0;" x1="2879.49" x2="2879.49" y1="600.785" y2="720.121"/>
  <line id="right-margin-Black-S" style="fill:none;stroke:#00AEEF;stroke-width:0.5;opacity:1.0;" x1="2987.31" x2="2987.31" y1="600.785" y2="720.121"/>
 </g>
 <g id="Symbols">
  <g id="Black-S" transform="matrix(1 0 0 1 2879.49 696)">
   <path class="hierarchical-0:secondary SFSymbolsPreview4D4D4D" d="M36.377-29.3457L51.416-29.3457Q47.7051-30.1758 45.2637-33.252Q42.8223-36.3281 42.8223-40.3809Q42.8223-43.5059 44.3115-46.0205Q45.8008-48.5352 48.3398-50.0488Q50.8789-51.5625 53.9062-51.5625Q56.9824-51.5625 59.4971-50.0488Q62.0117-48.5352 63.501-46.0205Q64.9902-43.5059 64.9902-40.3809Q64.9902-36.3281 62.5488-33.252Q60.1074-30.1758 56.3965-29.3457L71.4355-29.3457Q73.291-31.7871 74.1455-34.5703Q75-37.3535 75-40.3809Q75-46.2402 72.168-51.0498Q69.3359-55.8594 64.5508-58.7158Q59.7656-61.5723 53.9062-61.5723Q48.0469-61.5723 43.2617-58.7158Q38.4766-55.8594 35.6445-51.0742Q32.8125-46.2891 32.8125-40.3809Q32.8125-37.3535 33.6914-34.5703Q34.5703-31.7871 36.377-29.3457ZM53.9062-68.4082Q55.9082-68.4082 57.2998-69.873Q58.6914-71.3379 58.6914-73.291L58.6914-79.541Q58.6914-81.543 57.2998-82.9834Q55.9082-84.4238 53.9062-84.4238Q51.9531-84.4238 50.5371-82.9834Q49.1211-81.543 49.1211-79.541L49.1211-73.291Q49.1211-71.3379 50.5371-69.873Q51.9531-68.4082 53.9062-68.4082ZM86.9141-37.4512L93.1641-37.4023Q95.166-37.4023 96.6064-38.8428Q98.0469-40.2832 98.0469-42.2363Q98.0469-44.2383 96.6064-45.6299Q95.166-47.0215 93.1641-47.0215L86.9141-47.0215Q84.9609-47.0215 83.4961-45.6299Q82.0312-44.2383 82.0312-42.2363Q82.0312-40.2832 83.4961-38.8672Q84.9609-37.4512 86.9141-37.4512ZM14.6484-37.4512L20.8984-37.4023Q22.9004-37.4023 24.3408-38.8428Q25.7812-40.2832 25.7812-42.2363Q25.7812-44.2383 24.3408-45.6299Q22.9004-47.0215 20.8984-47.0215L14.6484-47.0215Q12.6953-47.0215 11.2305-45.6299Q9.76562-44.2383 9.76562-42.2363Q9.76562-40.2832 11.2305-38.8672Q12.6953-37.4512 14.6484-37.4512ZM73.7793-60.1562Q75.1953-58.7891 77.2217-58.8379Q79.248-58.8867 80.6152-60.2539L85.0586-64.5996Q86.4746-66.0156 86.499-68.0664Q86.5234-70.1172 85.1074-71.4844Q83.7402-72.9004 81.7139-72.8516Q79.6875-72.8027 78.2715-71.3867L73.8281-66.9922Q72.4609-65.625 72.4365-63.5986Q72.4121-61.5723 73.7793-60.1562ZM34.0332-60.1562Q35.4492-61.5723 35.4248-63.5986Q35.4004-65.625 33.9844-66.9922L29.541-71.3867Q28.125-72.8027 26.123-72.8516Q24.1211-72.9004 22.7051-71.4844Q21.3379-70.1172 21.3379-68.0664Q21.3379-66.0156 22.7539-64.5996L27.1973-60.2539Q28.6133-58.8867 30.6396-58.8379Q32.666-58.7891 34.0332-60.1562Z"/>
   <path class="hierarchical-1:primary SFSymbolsPreview212121" d="M16.2598-22.9004L91.5527-22.9004Q93.1152-22.9004 94.1406-23.8525Q95.166-24.8047 95.166-26.2207Q95.166-27.6367 94.1406-28.5889Q93.1152-29.541 91.5527-29.541L16.2598-29.541Q14.7461-29.541 13.6963-28.5889Q12.6465-27.6367 12.6465-26.2207Q12.6465-24.8047 13.6963-23.8525Q14.7461-22.9004 16.2598-22.9004ZM62.0117-1.07422Q63.0859-1.07422 63.8184-1.83105Q64.5508-2.58789 64.5508-3.66211Q64.5508-4.73633 63.8184-5.46875Q63.0859-6.20117 62.0117-6.20117Q60.9375-6.20117 60.1807-5.46875Q59.4238-4.73633 59.4238-3.66211Q59.4238-2.58789 60.1807-1.83105Q60.9375-1.07422 62.0117-1.07422ZM45.8496-1.07422Q46.9238-1.07422 47.6562-1.83105Q48.3887-2.58789 48.3887-3.66211Q48.3887-4.73633 47.6562-5.46875Q46.9238-6.20117 45.8496-6.20117Q44.7754-6.20117 44.0186-5.46875Q43.2617-4.73633 43.2617-3.66211Q43.2617-2.58789 44.0186-1.83105Q44.7754-1.07422 45.8496-1.07422ZM13.5254-1.07422Q14.5996-1.07422 15.332-1.83105Q16.0645-2.58789 16.0645-3.66211Q16.0645-4.73633 15.332-5.46875Q14.5996-6.20117 13.5254-6.20117Q12.4512-6.20117 11.6943-5.46875Q10.9375-4.73633 10.9375-3.66211Q10.9375-2.58789 11.6943-1.83105Q12.4512-1.07422 13.5254-1.07422ZM78.1738-1.07422Q79.248-1.07422 79.9805-1.83105Q80.7129-2.58789 80.7129-3.66211Q80.7129-4.73633 79.9805-5.46875Q79.248-6.20117 78.1738-6.20117Q77.0996-6.20117 76.3428-5.46875Q75.5859-4.73633 75.5859-3.66211Q75.5859-2.58789 76.3428-1.83105Q77.0996-1.07422 78.1738-1.07422ZM29.6875-1.07422Q30.7617-1.07422 31.4941-1.83105Q32.2266-2.58789 32.2266-3.66211Q32.2266-4.73633 31.4941-5.46875Q30.7617-6.20117 29.6875-6.20117Q28.6133-6.20117 27.8564-5.46875Q27.0996-4.73633 27.0996-3.66211Q27.0996-2.58789 27.8564-1.83105Q28.6133-1.07422 29.6875-1.07422ZM94.3359-1.07422Q95.4102-1.07422 96.1426-1.83105Q96.875-2.58789 96.875-3.66211Q96.875-4.73633 96.1426-5.46875Q95.4102-6.20117 94.3359-6.20117Q93.2617-6.20117 92.5049-5.46875Q91.748-4.73633 91.748-3.66211Q91.748-2.58789 92.5049-1.83105Q93.2617-1.07422 94.3359-1.07422ZM50.7324-10.3516Q51.8066-10.3516 52.5391-11.1084Q53.2715-11.8652 53.2715-12.9395Q53.2715-14.0137 52.5391-14.7461Q51.8066-15.4785 50.7324-15.4785Q49.6582-15.4785 48.9014-14.7461Q48.1445-14.0137 48.1445-12.9395Q48.1445-11.8652 48.9014-11.1084Q49.6582-10.3516 50.7324-10.3516ZM34.5703-10.3516Q35.6445-10.3516 36.377-11.1084Q37.1094-11.8652 37.1094-12.9395Q37.1094-14.0137 36.377-14.7461Q35.6445-15.4785 34.5703-15.4785Q33.4961-15.4785 32.7393-14.7461Q31.9824-14.0137 31.9824-12.9395Q31.9824-11.8652 32.7393-11.1084Q33.4961-10.3516 34.5703-10.3516ZM83.0566-10.3516Q84.1309-10.3516 84.8633-11.1084Q85.5957-11.8652 85.5957-12.9395Q85.5957-14.0137 84.8633-14.7461Q84.1309-15.4785 83.0566-15.4785Q81.9824-15.4785 81.2256-14.7461Q80.4688-14.0137 80.4688-12.9395Q80.4688-11.8652 81.2256-11.1084Q81.9824-10.3516 83.0566-10.3516ZM66.8945-10.3516Q67.9688-10.3516 68.7012-11.1084Q69.4336-11.8652 69.4336-12.9395Q69.4336-14.0137 68.7012-14.7461Q67.9688-15.4785 66.8945-15.4785Q65.8203-15.4785 65.0635-14.7461Q64.3066-14.0137 64.3066-12.9395Q64.3066-11.8652 65.0635-11.1084Q65.8203-10.3516 66.8945-10.3516ZM18.4082-10.3516Q19.4824-10.3516 20.2148-11.1084Q20.9473-11.8652 20.9473-12.9395Q20.9473-14.0137 20.2148-14.7461Q19.4824-15.4785 18.4082-15.4785Q17.334-15.4785 16.5771-14.7461Q15.8203-14.0137 15.8203-12.9395Q15.8203-11.8652 16.5771-11.1084Q17.334-10.3516 18.4082-10.3516ZM57.1289 8.1543Q58.2031 8.1543 58.9355 7.39746Q59.668 6.64062 59.668 5.56641Q59.668 4.49219 58.9355 3.75977Q58.2031 3.02734 57.1289 3.02734Q56.0547 3.02734 55.2979 3.75977Q54.541 4.49219 54.541 5.56641Q54.541 6.64062 55.2979 7.39746Q56.0547 8.1543 57.1289 8.1543ZM40.9668 8.1543Q42.041 8.1543 42.7734 7.39746Q43.5059 6.64062 43.5059 5.56641Q43.5059 4.49219 42.7734 3.75977Q42.041 3.02734 40.9668 3.02734Q39.8926 3.02734 39.1357 3.75977Q38.3789 4.49219 38.3789 5.56641Q38.3789 6.64062 39.1357 7.39746Q39.8926 8.1543 40.9668 8.1543ZM24.8047 8.1543Q25.8789 8.1543 26.6113 7.39746Q27.3438 6.64062 27.3438 5.56641Q27.3438 4.49219 26.6113 3.75977Q25.8789 3.02734 24.8047 3.02734Q23.7305 3.02734 22.9736 3.75977Q22.2168 4.49219 22.2168 5.56641Q22.2168 6.64062 22.9736 7.39746Q23.7305 8.1543 24.8047 8.1543ZM89.4531 8.1543Q90.5273 8.1543 91.2598 7.39746Q91.9922 6.64062 91.9922 5.56641Q91.9922 4.49219 91.2598 3.75977Q90.5273 3.02734 89.4531 3.02734Q88.3789 3.02734 87.6221 3.75977Q86.8652 4.49219 86.8652 5.56641Q86.8652 6.64062 87.6221 7.39746Q88.3789 8.1543 89.4531 8.1543ZM73.291 8.1543Q74.3652 8.1543 75.0977 7.39746Q75.8301 6.64062 75.8301 5.56641Q75.8301 4.49219 75.0977 3.75977Q74.3652 3.02734 73.291 3.02734Q72.2168 3.02734 71.46 3.75977Q70.7031 4.49219 70.7031 5.56641Q70.7031 6.64062 71.46 7.39746Q72.2168 8.1543 73.291 8.1543Z"/>
  </g>
  <g id="Regular-S" transform="matrix(1 0 0 1 1395.94 696)">
   <path class="hierarchical-0:secondary SFSymbolsPreview4D4D4D" d="M37.4512-27.6855L48.9746-27.6855Q44.9707-29.1992 42.3828-32.7881Q39.7949-36.377 39.7949-40.8691Q39.7949-44.7266 41.6992-47.9492Q43.6035-51.1719 46.8262-53.0762Q50.0488-54.9805 53.9062-54.9805Q57.7637-54.9805 60.9863-53.0762Q64.209-51.1719 66.1133-47.9492Q68.0176-44.7266 68.0176-40.8691Q68.0176-36.377 65.4297-32.7881Q62.8418-29.1992 58.8379-27.6855L70.3613-27.6855Q72.6074-30.4199 73.8281-33.7891Q75.0488-37.1582 75.0488-40.8691Q75.0488-46.6797 72.168-51.4893Q69.2871-56.2988 64.4775-59.1797Q59.668-62.0605 53.9062-62.0605Q48.1445-62.0605 43.335-59.1797Q38.5254-56.2988 35.6445-51.4893Q32.7637-46.6797 32.7637-40.8691Q32.7637-37.1582 33.9844-33.7891Q35.2051-30.4199 37.4512-27.6855ZM53.9062-68.75Q55.3711-68.7988 56.4209-69.8975Q57.4707-70.9961 57.4707-72.7051L57.4707-81.0547Q57.4707-82.8125 56.4209-83.9111Q55.3711-85.0098 53.9062-85.0098Q52.4414-85.0098 51.3916-83.9111Q50.3418-82.8125 50.3418-81.0547L50.3418-72.7051Q50.3418-70.9961 51.3916-69.8486Q52.4414-68.7012 53.9062-68.75ZM85.7422-38.2812L94.0918-38.2812Q95.8496-38.2812 96.9482-39.3311Q98.0469-40.3809 98.0469-41.8457Q98.0469-43.3105 96.9482-44.3604Q95.8496-45.4102 94.0918-45.4102L85.7422-45.4102Q84.0332-45.4102 82.8857-44.3604Q81.7383-43.3105 81.7871-41.8457Q81.8359-40.3809 82.9346-39.3311Q84.0332-38.2812 85.7422-38.2812ZM13.7207-38.2812L22.0703-38.2812Q23.7793-38.2812 24.9268-39.3311Q26.0742-40.3809 26.0254-41.8457Q25.9766-43.3105 24.8779-44.3604Q23.7793-45.4102 22.0703-45.4102L13.7207-45.4102Q11.9629-45.4102 10.8643-44.3604Q9.76562-43.3105 9.76562-41.8457Q9.76562-40.3809 10.8643-39.3311Q11.9629-38.2812 13.7207-38.2812ZM73.6328-60.5957Q74.707-59.5703 76.2207-59.6191Q77.7344-59.668 78.9551-60.8887L84.8633-66.7969Q86.084-68.0176 86.1084-69.5068Q86.1328-70.9961 85.1074-72.0703Q84.082-73.1445 82.5684-73.0957Q81.0547-73.0469 79.834-71.8262L73.9258-65.918Q72.7051-64.6973 72.6318-63.1592Q72.5586-61.6211 73.6328-60.5957ZM34.1797-60.5957Q35.2051-61.6699 35.1562-63.1836Q35.1074-64.6973 33.8867-65.918L27.9785-71.8262Q26.7578-73.0469 25.2686-73.0713Q23.7793-73.0957 22.7051-72.0703Q21.6309-71.0449 21.6797-69.5312Q21.7285-68.0176 22.9492-66.7969L28.8574-60.8887Q30.0781-59.668 31.6162-59.5947Q33.1543-59.5215 34.1797-60.5957Z"/>
   <path class="hierarchical-1:primary SFSymbolsPreview212121" d="M15.2344-23.584L92.3828-23.584Q93.5059-23.584 94.2871-24.3652Q95.0684-25.1465 95.0684-26.3184Q95.0684-27.4902 94.2871-28.2715Q93.5059-29.0527 92.3828-29.0527L15.2344-29.0527Q14.1113-29.0527 13.3301-28.2715Q12.5488-27.4902 12.5488-26.3184Q12.5488-25.1465 13.3301-24.3652Q14.1113-23.584 15.2344-23.584ZM62.0117-2.19727Q62.8418-2.19727 63.4277-2.7832Q64.0137-3.36914 64.0137-4.24805Q64.0137-5.07812 63.4277-5.66406Q62.8418-6.25 62.0117-6.25Q61.1328-6.25 60.5469-5.66406Q59.9609-5.07812 59.9609-4.24805Q59.9609-3.36914 60.5469-2.7832Q61.1328-2.19727 62.0117-2.19727ZM45.8496-2.19727Q46.6797-2.19727 47.2656-2.7832Q47.8516-3.36914 47.8516-4.24805Q47.8516-5.07812 47.2656-5.66406Q46.6797-6.25 45.8496-6.25Q44.9707-6.25 44.3848-5.66406Q43.7988-5.07812 43.7988-4.24805Q43.7988-3.36914 44.3848-2.7832Q44.9707-2.19727 45.8496-2.19727ZM13.5254-2.19727Q14.3555-2.19727 14.9414-2.7832Q15.5273-3.36914 15.5273-4.24805Q15.5273-5.07812 14.9414-5.66406Q14.3555-6.25 13.5254-6.25Q12.6465-6.25 12.0605-5.66406Q11.4746-5.07812 11.4746-4.24805Q11.4746-3.36914 12.0605-2.7832Q12.6465-2.19727 13.5254-2.19727ZM78.1738-2.19727Q79.0039-2.19727 79.5898-2.7832Q80.1758-3.36914 80.1758-4.24805Q80.1758-5.07812 79.5898-5.66406Q79.0039-6.25 78.1738-6.25Q77.2949-6.25 76.709-5.66406Q76.123-5.07812 76.123-4.24805Q76.123-3.36914 76.709-2.7832Q77.2949-2.19727 78.1738-2.19727ZM29.6875-2.19727Q30.5176-2.19727 31.1035-2.7832Q31.6895-3.36914 31.6895-4.24805Q31.6895-5.07812 31.1035-5.66406Q30.5176-6.25 29.6875-6.25Q28.8086-6.25 28.2227-5.66406Q27.6367-5.07812 27.6367-4.24805Q27.6367-3.36914 28.2227-2.7832Q28.8086-2.19727 29.6875-2.19727ZM94.3359-2.19727Q95.166-2.19727 95.752-2.7832Q96.3379-3.36914 96.3379-4.24805Q96.3379-5.07812 95.752-5.66406Q95.166-6.25 94.3359-6.25Q93.457-6.25 92.8711-5.66406Q92.2852-5.07812 92.2852-4.24805Q92.2852-3.36914 92.8711-2.7832Q93.457-2.19727 94.3359-2.19727ZM50.7324-11.4746Q51.5625-11.4746 52.1484-12.0605Q52.7344-12.6465 52.7344-13.5254Q52.7344-14.3555 52.1484-14.9414Q51.5625-15.5273 50.7324-15.5273Q49.8535-15.5273 49.2676-14.9414Q48.6816-14.3555 48.6816-13.5254Q48.6816-12.6465 49.2676-12.0605Q49.8535-11.4746 50.7324-11.4746ZM34.5703-11.4746Q35.4004-11.4746 35.9863-12.0605Q36.5723-12.6465 36.5723-13.5254Q36.5723-14.3555 35.9863-14.9414Q35.4004-15.5273 34.5703-15.5273Q33.6914-15.5273 33.1055-14.9414Q32.5195-14.3555 32.5195-13.5254Q32.5195-12.6465 33.1055-12.0605Q33.6914-11.4746 34.5703-11.4746ZM83.0566-11.4746Q83.8867-11.4746 84.4727-12.0605Q85.0586-12.6465 85.0586-13.5254Q85.0586-14.3555 84.4727-14.9414Q83.8867-15.5273 83.0566-15.5273Q82.1777-15.5273 81.5918-14.9414Q81.0059-14.3555 81.0059-13.5254Q81.0059-12.6465 81.5918-12.0605Q82.1777-11.4746 83.0566-11.4746ZM66.8945-11.4746Q67.7246-11.4746 68.3105-12.0605Q68.8965-12.6465 68.8965-13.5254Q68.8965-14.3555 68.3105-14.9414Q67.7246-15.5273 66.8945-15.5273Q66.0156-15.5273 65.4297-14.9414Q64.8438-14.3555 64.8438-13.5254Q64.8438-12.6465 65.4297-12.0605Q66.0156-11.4746 66.8945-11.4746ZM18.4082-11.4746Q19.2383-11.4746 19.8242-12.0605Q20.4102-12.6465 20.4102-13.5254Q20.4102-14.3555 19.8242-14.9414Q19.2383-15.5273 18.4082-15.5273Q17.5293-15.5273 16.9434-14.9414Q16.3574-14.3555 16.3574-13.5254Q16.3574-12.6465 16.9434-12.0605Q17.5293-11.4746 18.4082-11.4746ZM57.1289 7.03125Q57.959 7.03125 58.5449 6.44531Q59.1309 5.85938 59.1309 4.98047Q59.1309 4.15039 58.5449 3.56445Q57.959 2.97852 57.1289 2.97852Q56.25 2.97852 55.6641 3.56445Q55.0781 4.15039 55.0781 4.98047Q55.0781 5.85938 55.6641 6.44531Q56.25 7.03125 57.1289 7.03125ZM40.9668 7.03125Q41.7969 7.03125 42.3828 6.44531Q42.9688 5.85938 42.9688 4.98047Q42.9688 4.15039 42.3828 3.56445Q41.7969 2.97852 40.9668 2.97852Q40.0879 2.97852 39.502 3.56445Q38.916 4.15039 38.916 4.98047Q38.916 5.85938 39.502 6.44531Q40.0879 7.03125 40.9668 7.03125ZM24.8047 7.03125Q25.6348 7.03125 26.2207 6.44531Q26.8066 5.85938 26.8066 4.98047Q26.8066 4.15039 26.2207 3.56445Q25.6348 2.97852 24.8047 2.97852Q23.9258 2.97852 23.3398 3.56445Q22.7539 4.15039 22.7539 4.98047Q22.7539 5.85938 23.3398 6.44531Q23.9258 7.03125 24.8047 7.03125ZM89.4531 7.03125Q90.2832 7.03125 90.8691 6.44531Q91.4551 5.85938 91.4551 4.98047Q91.4551 4.15039 90.8691 3.56445Q90.2832 2.97852 89.4531 2.97852Q88.5742 2.97852 87.9883 3.56445Q87.4023 4.15039 87.4023 4.98047Q87.4023 5.85938 87.9883 6.44531Q88.5742 7.03125 89.4531 7.03125ZM73.291 7.03125Q74.1211 7.03125 74.707 6.44531Q75.293 5.85938 75.293 4.98047Q75.293 4.15039 74.707 3.56445Q74.1211 2.97852 73.291 2.97852Q72.4121 2.97852 71.8262 3.56445Q71.2402 4.15039 71.2402 4.98047Q71.2402 5.85938 71.8262 6.44531Q72.4121 7.03125 73.291 7.03125Z"/>
  </g>
  <g id="Ultralight-S" transform="matrix(1 0 0 1 505.805 696)">
   <path class="hierarchical-0:secondary SFSymbolsPreview4D4D4D" d="M40.403-27.2316L43.8431-27.2316Q40.3847-29.6082 38.2961-33.4011Q36.2076-37.1941 36.2076-41.6862Q36.2076-46.5881 38.6112-50.6054Q41.0149-54.6227 45.0325-57.0038Q49.0501-59.3849 53.9062-59.3849Q58.7624-59.3849 62.78-57.0038Q66.7976-54.6227 69.2013-50.6054Q71.6049-46.5881 71.6049-41.6862Q71.6049-37.1941 69.5164-33.4011Q67.4278-29.6082 63.9694-27.2316L67.4095-27.2316Q70.3369-29.9202 72.0345-33.6754Q73.732-37.4306 73.732-41.6862Q73.732-47.1794 71.0556-51.6708Q68.3792-56.1623 63.8645-58.8615Q59.3498-61.5608 53.9062-61.5608Q48.4627-61.5608 43.948-58.8615Q39.4333-56.1623 36.7569-51.6708Q34.0805-47.1794 34.0805-41.6862Q34.0805-37.4306 35.778-33.6754Q37.4756-29.9202 40.403-27.2316ZM53.9062-69.5671Q54.3266-69.5709 54.6497-69.8975Q54.9728-70.224 54.9728-70.6161L54.9728-84.8236Q54.9728-85.2646 54.6497-85.5457Q54.3266-85.8269 53.9062-85.8269Q53.4859-85.8269 53.1628-85.5457Q52.8397-85.2646 52.8397-84.8236L52.8397-70.6161Q52.8397-70.224 53.1628-69.894Q53.4859-69.5641 53.9062-69.5671ZM82.8362-41.6412L96.9978-41.6412Q97.4388-41.5962 97.7428-41.9193Q98.0469-42.2424 98.0469-42.6628Q98.0469-43.0832 97.7428-43.3838Q97.4388-43.6844 96.9978-43.7302L82.8362-43.7302Q82.3982-43.7302 82.0911-43.4067Q81.7841-43.0832 81.7871-42.6628Q81.7902-42.2424 82.0942-41.9418Q82.3982-41.6412 82.8362-41.6412ZM10.8147-41.6412L24.9763-41.6412Q25.4143-41.6412 25.7214-41.9418Q26.0284-42.2424 26.0254-42.6628Q26.0223-43.0832 25.7183-43.4067Q25.4143-43.7302 24.9763-43.7302L10.8147-43.7302Q10.3737-43.7302 10.0697-43.4067Q9.76562-43.0832 9.76562-42.6628Q9.76562-42.2424 10.0697-41.9418Q10.3737-41.6412 10.8147-41.6412ZM73.6328-61.4128Q73.9349-61.1145 74.3816-61.1179Q74.8283-61.1214 75.0954-61.3884L85.1357-71.4287Q85.4935-71.7415 85.4725-72.1863Q85.4515-72.6311 85.1074-72.8874Q84.8541-73.1903 84.4074-73.2094Q83.9607-73.2285 83.6487-72.9614L73.6076-62.9211Q73.3406-62.6541 73.3356-62.183Q73.3307-61.7119 73.6328-61.4128ZM34.1797-61.4128Q34.4788-61.7157 34.4753-62.1849Q34.4719-62.6541 34.2049-62.9211L24.1638-72.9614Q23.8518-73.2285 23.407-73.2075Q22.9622-73.1865 22.7051-72.8874Q22.3572-72.5891 22.3381-72.1653Q22.319-71.7415 22.6768-71.4287L32.7171-61.3884Q32.9842-61.1214 33.4324-61.1389Q33.8806-61.1565 34.1797-61.4128Z"/>
   <path class="hierarchical-1:primary SFSymbolsPreview212121" d="M13.781-26.1269L94.0178-26.1269Q94.4595-26.1269 94.8093-26.4088Q95.1591-26.6907 95.1591-27.1355Q95.1591-27.581 94.8093-27.8854Q94.4595-28.1898 94.0178-28.1898L13.781-28.1898Q13.3392-28.1898 12.9894-27.8854Q12.6396-27.581 12.6396-27.1355Q12.6396-26.6907 12.9894-26.4088Q13.3392-26.1269 13.781-26.1269ZM62.0117-3.55988Q62.6144-3.55988 63.0642-4.00925Q63.5139-4.45862 63.5139-5.06516Q63.5139-5.66864 63.0642-6.11839Q62.6144-6.56815 62.0117-6.56815Q61.3602-6.56815 60.9329-6.11839Q60.5057-5.66864 60.5057-5.06516Q60.5057-4.45862 60.9329-4.00925Q61.3602-3.55988 62.0117-3.55988ZM45.8496-3.55988Q46.4523-3.55988 46.9021-4.00925Q47.3518-4.45862 47.3518-5.06516Q47.3518-5.66864 46.9021-6.11839Q46.4523-6.56815 45.8496-6.56815Q45.1981-6.56815 44.7708-6.11839Q44.3436-5.66864 44.3436-5.06516Q44.3436-4.45862 44.7708-4.00925Q45.1981-3.55988 45.8496-3.55988ZM13.5254-3.55988Q14.1281-3.55988 14.5779-4.00925Q15.0276-4.45862 15.0276-5.06516Q15.0276-5.66864 14.5779-6.11839Q14.1281-6.56815 13.5254-6.56815Q12.8738-6.56815 12.4466-6.11839Q12.0193-5.66864 12.0193-5.06516Q12.0193-4.45862 12.4466-4.00925Q12.8738-3.55988 13.5254-3.55988ZM78.1738-3.55988Q78.7766-3.55988 79.2263-4.00925Q79.6761-4.45862 79.6761-5.06516Q79.6761-5.66864 79.2263-6.11839Q78.7766-6.56815 78.1738-6.56815Q77.5223-6.56815 77.095-6.11839Q76.6678-5.66864 76.6678-5.06516Q76.6678-4.45862 77.095-4.00925Q77.5223-3.55988 78.1738-3.55988ZM29.6875-3.55988Q30.2902-3.55988 30.74-4.00925Q31.1897-4.45862 31.1897-5.06516Q31.1897-5.66864 30.74-6.11839Q30.2902-6.56815 29.6875-6.56815Q29.0359-6.56815 28.6087-6.11839Q28.1815-5.66864 28.1815-5.06516Q28.1815-4.45862 28.6087-4.00925Q29.0359-3.55988 29.6875-3.55988ZM94.3359-3.55988Q94.9387-3.55988 95.3884-4.00925Q95.8382-4.45862 95.8382-5.06516Q95.8382-5.66864 95.3884-6.11839Q94.9387-6.56815 94.3359-6.56815Q93.6844-6.56815 93.2571-6.11839Q92.8299-5.66864 92.8299-5.06516Q92.8299-4.45862 93.2571-4.00925Q93.6844-3.55988 94.3359-3.55988ZM50.7324-12.8822Q51.3351-12.8822 51.7849-13.3091Q52.2346-13.736 52.2346-14.3425Q52.2346-14.946 51.7849-15.3957Q51.3351-15.8455 50.7324-15.8455Q50.0809-15.8455 49.6536-15.3957Q49.2264-14.946 49.2264-14.3425Q49.2264-13.736 49.6536-13.3091Q50.0809-12.8822 50.7324-12.8822ZM34.5703-12.8822Q35.173-12.8822 35.6228-13.3091Q36.0725-13.736 36.0725-14.3425Q36.0725-14.946 35.6228-15.3957Q35.173-15.8455 34.5703-15.8455Q33.9188-15.8455 33.4915-15.3957Q33.0643-14.946 33.0643-14.3425Q33.0643-13.736 33.4915-13.3091Q33.9188-12.8822 34.5703-12.8822ZM83.0566-12.8822Q83.6594-12.8822 84.1091-13.3091Q84.5589-13.736 84.5589-14.3425Q84.5589-14.946 84.1091-15.3957Q83.6594-15.8455 83.0566-15.8455Q82.4051-15.8455 81.9778-15.3957Q81.5506-14.946 81.5506-14.3425Q81.5506-13.736 81.9778-13.3091Q82.4051-12.8822 83.0566-12.8822ZM66.8945-12.8822Q67.4973-12.8822 67.947-13.3091Q68.3968-13.736 68.3968-14.3425Q68.3968-14.946 67.947-15.3957Q67.4973-15.8455 66.8945-15.8455Q66.243-15.8455 65.8157-15.3957Q65.3885-14.946 65.3885-14.3425Q65.3885-13.736 65.8157-13.3091Q66.243-12.8822 66.8945-12.8822ZM18.4082-12.8822Q19.0109-12.8822 19.4607-13.3091Q19.9104-13.736 19.9104-14.3425Q19.9104-14.946 19.4607-15.3957Q19.0109-15.8455 18.4082-15.8455Q17.7567-15.8455 17.3294-15.3957Q16.9022-14.946 16.9022-14.3425Q16.9022-13.736 17.3294-13.3091Q17.7567-12.8822 18.4082-12.8822ZM57.1289 5.66864Q57.7316 5.66864 58.1814 5.21927Q58.6311 4.7699 58.6311 4.16336Q58.6311 3.55988 58.1814 3.13301Q57.7316 2.70615 57.1289 2.70615Q56.4774 2.70615 56.0501 3.13301Q55.6229 3.55988 55.6229 4.16336Q55.6229 4.7699 56.0501 5.21927Q56.4774 5.66864 57.1289 5.66864ZM40.9668 5.66864Q41.5695 5.66864 42.0193 5.21927Q42.469 4.7699 42.469 4.16336Q42.469 3.55988 42.0193 3.13301Q41.5695 2.70615 40.9668 2.70615Q40.3152 2.70615 39.888 3.13301Q39.4608 3.55988 39.4608 4.16336Q39.4608 4.7699 39.888 5.21927Q40.3152 5.66864 40.9668 5.66864ZM24.8047 5.66864Q25.4074 5.66864 25.8572 5.21927Q26.3069 4.7699 26.3069 4.16336Q26.3069 3.55988 25.8572 3.13301Q25.4074 2.70615 24.8047 2.70615Q24.1531 2.70615 23.7259 3.13301Q23.2986 3.55988 23.2986 4.16336Q23.2986 4.7699 23.7259 5.21927Q24.1531 5.66864 24.8047 5.66864ZM89.4531 5.66864Q90.0558 5.66864 90.5056 5.21927Q90.9554 4.7699 90.9554 4.16336Q90.9554 3.55988 90.5056 3.13301Q90.0558 2.70615 89.4531 2.70615Q88.8016 2.70615 88.3743 3.13301Q87.9471 3.55988 87.9471 4.16336Q87.9471 4.7699 88.3743 5.21927Q88.8016 5.66864 89.4531 5.66864ZM73.291 5.66864Q73.8937 5.66864 74.3435 5.21927Q74.7932 4.7699 74.7932 4.16336Q74.7932 3.55988 74.3435 3.13301Q73.8937 2.70615 73.291 2.70615Q72.6395 2.70615 72.2122 3.13301Q71.785 3.55988 71.785 4.16336Q71.785 4.7699 72.2122 5.21927Q72.6395 5.66864 73.291 5.66864Z"/>
  </g>
 </g>
</svg>
