<?xml version="1.0" encoding="UTF-8"?>
<!--Generator: Apple Native CoreSVG 175-->
<!DOCTYPE svg
PUBLIC "-//W3C//DTD SVG 1.1//EN"
       "http://www.w3.org/Graphics/SVG/1.1/DTD/svg11.dtd">
<svg version="1.1" xmlns="http://www.w3.org/2000/svg" xmlns:xlink="http://www.w3.org/1999/xlink" width="3300" height="2200">
 <!--glyph: "uni1001D8.medium", point size: 100.0, font version: "17.3d3e1", template writer version: "65.1"-->
 <style>.hierarchical-0:secondary {fill:#4D4D4D}
.hierarchical-1:primary {fill:#212121;-sfsymbols-clear-behind:true}

.SFSymbolsPreview212121 {fill:#212121;opacity:1.0}
.SFSymbolsPreview4D4D4D {fill:#4D4D4D;opacity:1.0}
</style>
 <g id="Notes">
  <rect height="2200" id="artboard" style="fill:white;opacity:1" width="3300" x="0" y="0"/>
  <line style="fill:none;stroke:black;opacity:1;stroke-width:0.5;" x1="263" x2="3036" y1="292" y2="292"/>
  <text style="stroke:none;fill:black;font-family:sans-serif;font-size:13;font-weight:bold;" transform="matrix(1 0 0 1 263 322)">Weight/Scale Variations</text>
  <text style="stroke:none;fill:black;font-family:sans-serif;font-size:13;text-anchor:middle;" transform="matrix(1 0 0 1 559.711 322)">Ultralight</text>
  <text style="stroke:none;fill:black;font-family:sans-serif;font-size:13;text-anchor:middle;" transform="matrix(1 0 0 1 856.422 322)">Thin</text>
  <text style="stroke:none;fill:black;font-family:sans-serif;font-size:13;text-anchor:middle;" transform="matrix(1 0 0 1 1153.13 322)">Light</text>
  <text style="stroke:none;fill:black;font-family:sans-serif;font-size:13;text-anchor:middle;" transform="matrix(1 0 0 1 1449.84 322)">Regular</text>
  <text style="stroke:none;fill:black;font-family:sans-serif;font-size:13;text-anchor:middle;" transform="matrix(1 0 0 1 1746.56 322)">Medium</text>
  <text style="stroke:none;fill:black;font-family:sans-serif;font-size:13;text-anchor:middle;" transform="matrix(1 0 0 1 2043.27 322)">Semibold</text>
  <text style="stroke:none;fill:black;font-family:sans-serif;font-size:13;text-anchor:middle;" transform="matrix(1 0 0 1 2339.98 322)">Bold</text>
  <text style="stroke:none;fill:black;font-family:sans-serif;font-size:13;text-anchor:middle;" transform="matrix(1 0 0 1 2636.69 322)">Heavy</text>
  <text style="stroke:none;fill:black;font-family:sans-serif;font-size:13;text-anchor:middle;" transform="matrix(1 0 0 1 2933.4 322)">Black</text>
  <line style="fill:none;stroke:black;opacity:1;stroke-width:0.5;" x1="263" x2="3036" y1="1903" y2="1903"/>
  <g transform="matrix(1 0 0 1 263 1933)">
   <path d="M9.24805 0.830078Q10.8691 0.830078 12.2949 0.214844Q13.7207-0.400391 14.8096-1.49414Q15.8984-2.58789 16.5186-4.01367Q17.1387-5.43945 17.1387-7.05078Q17.1387-8.66211 16.5186-10.0879Q15.8984-11.5137 14.8047-12.6074Q13.7109-13.7012 12.2852-14.3164Q10.8594-14.9316 9.23828-14.9316Q7.62695-14.9316 6.20117-14.3164Q4.77539-13.7012 3.69141-12.6074Q2.60742-11.5137 1.9873-10.0879Q1.36719-8.66211 1.36719-7.05078Q1.36719-5.43945 1.9873-4.01367Q2.60742-2.58789 3.69629-1.49414Q4.78516-0.400391 6.21094 0.214844Q7.63672 0.830078 9.24805 0.830078ZM9.24805-0.654297Q7.91992-0.654297 6.7627-1.14746Q5.60547-1.64062 4.73145-2.51953Q3.85742-3.39844 3.36426-4.56055Q2.87109-5.72266 2.87109-7.05078Q2.87109-8.37891 3.35938-9.54102Q3.84766-10.7031 4.72168-11.582Q5.5957-12.4609 6.75293-12.9541Q7.91016-13.4473 9.23828-13.4473Q10.5762-13.4473 11.7334-12.9541Q12.8906-12.4609 13.7695-11.582Q14.6484-10.7031 15.1465-9.54102Q15.6445-8.37891 15.6445-7.05078Q15.6445-5.72266 15.1514-4.56055Q14.6582-3.39844 13.7842-2.51953Q12.9102-1.64062 11.748-1.14746Q10.5859-0.654297 9.24805-0.654297ZM5.6543-7.05078Q5.6543-6.72852 5.85938-6.52832Q6.06445-6.32812 6.40625-6.32812L8.51562-6.32812L8.51562-4.20898Q8.51562-3.88672 8.71094-3.67676Q8.90625-3.4668 9.23828-3.4668Q9.56055-3.4668 9.77051-3.67676Q9.98047-3.88672 9.98047-4.20898L9.98047-6.32812L12.0898-6.32812Q12.4219-6.32812 12.627-6.52832Q12.832-6.72852 12.832-7.05078Q12.832-7.38281 12.627-7.58789Q12.4219-7.79297 12.0898-7.79297L9.98047-7.79297L9.98047-9.90234Q9.98047-10.2344 9.77051-10.4443Q9.56055-10.6543 9.23828-10.6543Q8.90625-10.6543 8.71094-10.4443Q8.51562-10.2344 8.51562-9.90234L8.51562-7.79297L6.40625-7.79297Q6.06445-7.79297 5.85938-7.58789Q5.6543-7.38281 5.6543-7.05078Z"/>
  </g>
  <g transform="matrix(1 0 0 1 281.867 1933)">
   <path d="M11.709 2.91016Q13.75 2.91016 15.5518 2.12891Q17.3535 1.34766 18.7305-0.0292969Q20.1074-1.40625 20.8887-3.20801Q21.6699-5.00977 21.6699-7.05078Q21.6699-9.0918 20.8887-10.8936Q20.1074-12.6953 18.7305-14.0723Q17.3535-15.4492 15.5469-16.2305Q13.7402-17.0117 11.6992-17.0117Q9.6582-17.0117 7.85645-16.2305Q6.05469-15.4492 4.68262-14.0723Q3.31055-12.6953 2.5293-10.8936Q1.74805-9.0918 1.74805-7.05078Q1.74805-5.00977 2.5293-3.20801Q3.31055-1.40625 4.6875-0.0292969Q6.06445 1.34766 7.86621 2.12891Q9.66797 2.91016 11.709 2.91016ZM11.709 1.25Q9.98047 1.25 8.47656 0.605469Q6.97266-0.0390625 5.83496-1.17676Q4.69727-2.31445 4.05762-3.81836Q3.41797-5.32227 3.41797-7.05078Q3.41797-8.7793 4.05762-10.2832Q4.69727-11.7871 5.83008-12.9297Q6.96289-14.0723 8.4668-14.7119Q9.9707-15.3516 11.6992-15.3516Q13.4277-15.3516 14.9316-14.7119Q16.4355-14.0723 17.5781-12.9297Q18.7207-11.7871 19.3652-10.2832Q20.0098-8.7793 20.0098-7.05078Q20.0098-5.32227 19.3701-3.81836Q18.7305-2.31445 17.5928-1.17676Q16.4551-0.0390625 14.9463 0.605469Q13.4375 1.25 11.709 1.25ZM7.17773-7.05078Q7.17773-6.69922 7.41211-6.47461Q7.64648-6.25 8.01758-6.25L10.8887-6.25L10.8887-3.36914Q10.8887-2.99805 11.1133-2.76855Q11.3379-2.53906 11.6895-2.53906Q12.0605-2.53906 12.29-2.76855Q12.5195-2.99805 12.5195-3.36914L12.5195-6.25L15.4004-6.25Q15.7715-6.25 16.001-6.47461Q16.2305-6.69922 16.2305-7.05078Q16.2305-7.42188 16.001-7.65137Q15.7715-7.88086 15.4004-7.88086L12.5195-7.88086L12.5195-10.752Q12.5195-11.1328 12.29-11.3623Q12.0605-11.5918 11.6895-11.5918Q11.3379-11.5918 11.1133-11.3574Q10.8887-11.123 10.8887-10.752L10.8887-7.88086L8.01758-7.88086Q7.63672-7.88086 7.40723-7.65137Q7.17773-7.42188 7.17773-7.05078Z"/>
  </g>
  <g transform="matrix(1 0 0 1 305.646 1933)">
   <path d="M14.9707 5.66406Q17.0605 5.66406 18.96 5.01465Q20.8594 4.36523 22.4512 3.19336Q24.043 2.02148 25.2197 0.429688Q26.3965-1.16211 27.0459-3.06641Q27.6953-4.9707 27.6953-7.05078Q27.6953-9.14062 27.0459-11.04Q26.3965-12.9395 25.2197-14.5312Q24.043-16.123 22.4512-17.2998Q20.8594-18.4766 18.9551-19.126Q17.0508-19.7754 14.9609-19.7754Q12.8711-19.7754 10.9717-19.126Q9.07227-18.4766 7.48535-17.2998Q5.89844-16.123 4.72168-14.5312Q3.54492-12.9395 2.90039-11.04Q2.25586-9.14062 2.25586-7.05078Q2.25586-4.9707 2.90527-3.06641Q3.55469-1.16211 4.72656 0.429688Q5.89844 2.02148 7.49023 3.19336Q9.08203 4.36523 10.9814 5.01465Q12.8809 5.66406 14.9707 5.66406ZM14.9707 3.84766Q13.1641 3.84766 11.5283 3.2959Q9.89258 2.74414 8.53516 1.74805Q7.17773 0.751953 6.17676-0.610352Q5.17578-1.97266 4.62891-3.6084Q4.08203-5.24414 4.08203-7.05078Q4.08203-8.86719 4.62891-10.5029Q5.17578-12.1387 6.17188-13.501Q7.16797-14.8633 8.52539-15.8594Q9.88281-16.8555 11.5186-17.4023Q13.1543-17.9492 14.9609-17.9492Q16.7773-17.9492 18.4131-17.4023Q20.0488-16.8555 21.4111-15.8594Q22.7734-14.8633 23.7695-13.501Q24.7656-12.1387 25.3174-10.5029Q25.8691-8.86719 25.8691-7.05078Q25.8789-5.24414 25.332-3.6084Q24.7852-1.97266 23.7842-0.610352Q22.7832 0.751953 21.4209 1.74805Q20.0586 2.74414 18.4229 3.2959Q16.7871 3.84766 14.9707 3.84766ZM9.19922-7.05078Q9.19922-6.66992 9.45801-6.4209Q9.7168-6.17188 10.1172-6.17188L14.0625-6.17188L14.0625-2.2168Q14.0625-1.81641 14.3115-1.55762Q14.5605-1.29883 14.9512-1.29883Q15.3516-1.29883 15.6104-1.55273Q15.8691-1.80664 15.8691-2.2168L15.8691-6.17188L19.8242-6.17188Q20.2246-6.17188 20.4785-6.4209Q20.7324-6.66992 20.7324-7.05078Q20.7324-7.46094 20.4785-7.71484Q20.2246-7.96875 19.8242-7.96875L15.8691-7.96875L15.8691-11.9141Q15.8691-12.3242 15.6104-12.583Q15.3516-12.8418 14.9512-12.8418Q14.5605-12.8418 14.3115-12.583Q14.0625-12.3242 14.0625-11.9141L14.0625-7.96875L10.1172-7.96875Q9.70703-7.96875 9.45312-7.71484Q9.19922-7.46094 9.19922-7.05078Z"/>
  </g>
  <text style="stroke:none;fill:black;font-family:sans-serif;font-size:13;font-weight:bold;" transform="matrix(1 0 0 1 263 1953)">Design Variations</text>
  <text style="stroke:none;fill:black;font-family:sans-serif;font-size:13;" transform="matrix(1 0 0 1 263 1971)">Symbols are supported in up to nine weights and three scales.</text>
  <text style="stroke:none;fill:black;font-family:sans-serif;font-size:13;" transform="matrix(1 0 0 1 263 1989)">For optimal layout with text and other symbols, vertically align</text>
  <text style="stroke:none;fill:black;font-family:sans-serif;font-size:13;" transform="matrix(1 0 0 1 263 2007)">symbols with the adjacent text.</text>
  <line style="fill:none;stroke:#00AEEF;stroke-width:0.5;opacity:1.0;" x1="776" x2="776" y1="1919" y2="1933"/>
  <g transform="matrix(1 0 0 1 776 1933)">
   <path d="M3.31055 0.15625Q3.70117 0.15625 3.91602-0.00976562Q4.13086-0.175781 4.26758-0.585938L5.52734-4.0332L11.2891-4.0332L12.5488-0.585938Q12.6855-0.175781 12.9004-0.00976562Q13.1152 0.15625 13.4961 0.15625Q13.8867 0.15625 14.1162-0.0585938Q14.3457-0.273438 14.3457-0.644531Q14.3457-0.869141 14.2383-1.17188L9.6582-13.3691Q9.48242-13.8184 9.17969-14.043Q8.87695-14.2676 8.4082-14.2676Q7.5-14.2676 7.17773-13.3789L2.59766-1.16211Q2.49023-0.859375 2.49023-0.634766Q2.49023-0.263672 2.70996-0.0537109Q2.92969 0.15625 3.31055 0.15625ZM6.00586-5.51758L8.37891-12.0898L8.42773-12.0898L10.8008-5.51758Z"/>
  </g>
  <line style="fill:none;stroke:#00AEEF;stroke-width:0.5;opacity:1.0;" x1="793.197" x2="793.197" y1="1919" y2="1933"/>
  <text style="stroke:none;fill:black;font-family:sans-serif;font-size:13;font-weight:bold;" transform="matrix(1 0 0 1 776 1953)">Margins</text>
  <text style="stroke:none;fill:black;font-family:sans-serif;font-size:13;" transform="matrix(1 0 0 1 776 1971)">Leading and trailing margins on the left and right side of each symbol</text>
  <text style="stroke:none;fill:black;font-family:sans-serif;font-size:13;" transform="matrix(1 0 0 1 776 1989)">can be adjusted by modifying the x-location of the margin guidelines.</text>
  <text style="stroke:none;fill:black;font-family:sans-serif;font-size:13;" transform="matrix(1 0 0 1 776 2007)">Modifications are automatically applied proportionally to all</text>
  <text style="stroke:none;fill:black;font-family:sans-serif;font-size:13;" transform="matrix(1 0 0 1 776 2025)">scales and weights.</text>
  <g transform="matrix(1 0 0 1 1289 1933)">
   <path d="M2.8418 1.86523L4.54102 3.57422Q5.18555 4.22852 5.90332 4.17969Q6.62109 4.13086 7.31445 3.35938L18.0078-8.42773L17.041-9.4043L6.42578 2.27539Q6.16211 2.57812 5.89355 2.61719Q5.625 2.65625 5.27344 2.30469L4.10156 1.14258Q3.75 0.791016 3.79395 0.522461Q3.83789 0.253906 4.14062-0.0195312L15.6152-10.8203L14.6387-11.7871L3.04688-0.898438Q2.30469-0.214844 2.25098 0.498047Q2.19727 1.21094 2.8418 1.86523ZM9.25781-16.3281Q8.94531-16.0254 8.90625-15.6348Q8.86719-15.2441 9.04297-14.9512Q9.21875-14.6777 9.55566-14.541Q9.89258-14.4043 10.3809-14.5215Q11.4746-14.7754 12.5977-14.7314Q13.7207-14.6875 14.7949-13.9844L14.209-12.5293Q13.9551-11.9043 14.0674-11.4404Q14.1797-10.9766 14.5801-10.5664L16.875-8.25195Q17.2363-7.88086 17.5781-7.82227Q17.9199-7.76367 18.3398-7.8418L19.4043-8.03711L20.0684-7.36328L20.0293-6.80664Q20-6.43555 20.1221-6.12305Q20.2441-5.81055 20.6055-5.44922L21.3672-4.70703Q21.7285-4.3457 22.1533-4.33105Q22.5781-4.31641 22.9297-4.66797L25.8398-7.58789Q26.1914-7.93945 26.1816-8.35449Q26.1719-8.76953 25.8105-9.13086L25.0391-9.89258Q24.6875-10.2539 24.3799-10.3857Q24.0723-10.5176 23.7109-10.4883L23.1348-10.4395L22.4902-11.0742L22.7344-12.1973Q22.832-12.6172 22.6953-12.9834Q22.5586-13.3496 22.1191-13.7891L19.9219-15.9766Q18.6719-17.2168 17.2607-17.8369Q15.8496-18.457 14.4189-18.4814Q12.9883-18.5059 11.665-17.959Q10.3418-17.4121 9.25781-16.3281ZM10.752-15.957Q11.6602-16.6211 12.7002-16.9043Q13.7402-17.1875 14.8047-17.085Q15.8691-16.9824 16.8701-16.5137Q17.8711-16.0449 18.7012-15.2051L21.1328-12.793Q21.3086-12.6172 21.3525-12.4512Q21.3965-12.2852 21.3379-12.0312L21.0156-10.5469L22.5195-9.0625L23.5059-9.12109Q23.6914-9.13086 23.7891-9.09668Q23.8867-9.0625 24.0332-8.91602L24.6094-8.33984L22.168-5.89844L21.5918-6.47461Q21.4453-6.62109 21.4062-6.71875Q21.3672-6.81641 21.377-7.01172L21.4453-7.98828L19.9512-9.47266L18.4277-9.21875Q18.1836-9.16992 18.042-9.2041Q17.9004-9.23828 17.7148-9.41406L15.7129-11.416Q15.5176-11.5918 15.4932-11.7529Q15.4688-11.9141 15.5859-12.1875L16.4648-14.2773Q15.293-15.3711 13.8281-15.791Q12.3633-16.2109 10.8398-15.7617Q10.7227-15.7324 10.6885-15.8057Q10.6543-15.8789 10.752-15.957Z"/>
  </g>
  <text style="stroke:none;fill:black;font-family:sans-serif;font-size:13;font-weight:bold;" transform="matrix(1 0 0 1 1289 1953)">Exporting</text>
  <text style="stroke:none;fill:black;font-family:sans-serif;font-size:13;" transform="matrix(1 0 0 1 1289 1971)">Symbols should be outlined when exporting to ensure the</text>
  <text style="stroke:none;fill:black;font-family:sans-serif;font-size:13;" transform="matrix(1 0 0 1 1289 1989)">design is preserved when submitting to Xcode.</text>
  <text id="template-version" style="stroke:none;fill:black;font-family:sans-serif;font-size:13;text-anchor:end;" transform="matrix(1 0 0 1 3036 1933)">Template v.3.0</text>
  <text style="stroke:none;fill:black;font-family:sans-serif;font-size:13;text-anchor:end;" transform="matrix(1 0 0 1 3036 1951)">Requires Xcode 13 or greater</text>
  <text id="descriptive-name" style="stroke:none;fill:black;font-family:sans-serif;font-size:13;text-anchor:end;" transform="matrix(1 0 0 1 3036 1969)">Generated from cloud.sun.bolt</text>
  <text style="stroke:none;fill:black;font-family:sans-serif;font-size:13;text-anchor:end;" transform="matrix(1 0 0 1 3036 1987)">Typeset at 100 points</text>
  <text style="stroke:none;fill:black;font-family:sans-serif;font-size:13;" transform="matrix(1 0 0 1 263 726)">Small</text>
  <text style="stroke:none;fill:black;font-family:sans-serif;font-size:13;" transform="matrix(1 0 0 1 263 1156)">Medium</text>
  <text style="stroke:none;fill:black;font-family:sans-serif;font-size:13;" transform="matrix(1 0 0 1 263 1586)">Large</text>
 </g>
 <g id="Guides">
  <g id="H-reference" style="fill:#27AAE1;stroke:none;" transform="matrix(1 0 0 1 339 696)">
   <path d="M0.993347 0L3.6377 0L29.3282-67.1326L30.0301-67.1326L30.0301-70.459L28.1227-70.459ZM11.6882-24.4797L46.9818-24.4797L46.2311-26.7288L12.4382-26.7288ZM55.1193 0L57.7637 0L30.6381-70.459L29.4327-70.459L29.4327-67.1326Z"/>
  </g>
  <line id="Baseline-S" style="fill:none;stroke:#27AAE1;opacity:1;stroke-width:0.5;" x1="263" x2="3036" y1="696" y2="696"/>
  <line id="Capline-S" style="fill:none;stroke:#27AAE1;opacity:1;stroke-width:0.5;" x1="263" x2="3036" y1="625.541" y2="625.541"/>
  <g id="H-reference" style="fill:#27AAE1;stroke:none;" transform="matrix(1 0 0 1 339 1126)">
   <path d="M0.993347 0L3.6377 0L29.3282-67.1326L30.0301-67.1326L30.0301-70.459L28.1227-70.459ZM11.6882-24.4797L46.9818-24.4797L46.2311-26.7288L12.4382-26.7288ZM55.1193 0L57.7637 0L30.6381-70.459L29.4327-70.459L29.4327-67.1326Z"/>
  </g>
  <line id="Baseline-M" style="fill:none;stroke:#27AAE1;opacity:1;stroke-width:0.5;" x1="263" x2="3036" y1="1126" y2="1126"/>
  <line id="Capline-M" style="fill:none;stroke:#27AAE1;opacity:1;stroke-width:0.5;" x1="263" x2="3036" y1="1055.54" y2="1055.54"/>
  <g id="H-reference" style="fill:#27AAE1;stroke:none;" transform="matrix(1 0 0 1 339 1556)">
   <path d="M0.993347 0L3.6377 0L29.3282-67.1326L30.0301-67.1326L30.0301-70.459L28.1227-70.459ZM11.6882-24.4797L46.9818-24.4797L46.2311-26.7288L12.4382-26.7288ZM55.1193 0L57.7637 0L30.6381-70.459L29.4327-70.459L29.4327-67.1326Z"/>
  </g>
  <line id="Baseline-L" style="fill:none;stroke:#27AAE1;opacity:1;stroke-width:0.5;" x1="263" x2="3036" y1="1556" y2="1556"/>
  <line id="Capline-L" style="fill:none;stroke:#27AAE1;opacity:1;stroke-width:0.5;" x1="263" x2="3036" y1="1485.54" y2="1485.54"/>
  <line id="left-margin-Ultralight-S" style="fill:none;stroke:#00AEEF;stroke-width:0.5;opacity:1.0;" x1="505.373" x2="505.373" y1="600.785" y2="720.121"/>
  <line id="right-margin-Ultralight-S" style="fill:none;stroke:#FF3B30;stroke-width:0.5;opacity:1.0;" x1="614.049" x2="614.049" y1="600.785" y2="720.121"/>
  <line id="left-margin-Regular-S" style="fill:none;stroke:#00AEEF;stroke-width:0.5;opacity:1.0;" x1="1393.99" x2="1393.99" y1="600.785" y2="720.121"/>
  <line id="right-margin-Regular-S" style="fill:none;stroke:#FF3B30;stroke-width:0.5;opacity:1.0;" x1="1505.7" x2="1505.7" y1="600.785" y2="720.121"/>
  <line id="left-margin-Black-S" style="fill:none;stroke:#00AEEF;stroke-width:0.5;opacity:1.0;" x1="2872.61" x2="2872.61" y1="600.785" y2="720.121"/>
  <line id="right-margin-Black-S" style="fill:none;stroke:#FF3B30;stroke-width:0.5;opacity:1.0;" x1="2994.19" x2="2994.19" y1="600.785" y2="720.121"/>
 </g>
 <g id="Symbols">
  <g id="Black-S" transform="matrix(1 0 0 1 2872.61 696)">
   <path class="hierarchical-0:secondary SFSymbolsPreview4D4D4D" d="M83.1055-72.9004Q77.4414-72.9004 72.8516-70.1904Q68.2617-67.4805 65.5518-62.915Q62.8418-58.3496 62.8418-52.7344Q62.8418-51.5137 62.9883-50.3174Q63.1348-49.1211 63.3789-47.998L74.1211-49.0723Q73.7305-49.9512 73.5352-51.0254Q73.3398-52.0996 73.3398-52.9297Q73.3398-55.6152 74.6582-57.7881Q75.9766-59.9609 78.1738-61.2793Q80.3711-62.5977 83.0566-62.5977Q85.7422-62.5977 87.915-61.2793Q90.0879-59.9609 91.4062-57.7881Q92.7246-55.6152 92.7246-52.9297Q92.7246-48.9258 89.8926-46.0693Q87.0605-43.2129 83.0566-43.2129L83.1055-32.9102Q88.6719-32.9102 93.2129-35.5225Q97.7539-38.1348 100.464-42.627Q103.174-47.1191 103.174-52.7344Q103.174-58.3496 100.464-62.915Q97.7539-67.4805 93.2129-70.1904Q88.6719-72.9004 83.1055-72.9004ZM82.959-78.8086Q84.9609-78.8086 86.3525-80.2734Q87.7441-81.7383 87.7441-83.6914L87.7441-89.9414Q87.7441-91.9434 86.3525-93.3838Q84.9609-94.8242 82.959-94.8242Q81.0059-94.8242 79.5898-93.3838Q78.1738-91.9434 78.1738-89.9414L78.1738-83.6914Q78.1738-81.7383 79.5898-80.2734Q81.0059-78.8086 82.959-78.8086ZM101.416-71.1426Q102.832-69.7754 104.858-69.8242Q106.885-69.873 108.252-71.2402L112.695-75.6348Q114.111-77.0508 114.136-79.0771Q114.16-81.1035 112.744-82.4707Q111.377-83.8867 109.351-83.8379Q107.324-83.7891 105.908-82.373L101.465-78.0273Q100.049-76.6602 100.049-74.6094Q100.049-72.5586 101.416-71.1426ZM57.7148-71.2891Q59.1309-69.873 61.1572-69.8486Q63.1836-69.8242 64.5508-71.1914Q65.9668-72.6074 65.918-74.585Q65.8691-76.5625 64.4531-78.0273L60.1074-82.5195Q58.7402-83.9355 56.6895-83.9355Q54.6387-83.9355 53.2227-82.5195Q51.8555-81.1523 51.9043-79.1504Q51.9531-77.1484 53.3203-75.7324ZM113.818-48.0469L120.117-48.0469Q122.119-48.0469 123.56-49.4385Q125-50.8301 125-52.7832Q125-54.7852 123.56-56.2012Q122.119-57.6172 120.117-57.6172L113.818-57.6172Q111.865-57.6172 110.4-56.2012Q108.936-54.7852 108.936-52.7832Q108.936-50.8301 110.4-49.4385Q111.865-48.0469 113.818-48.0469ZM105.859-23.1445Q107.275-21.7285 109.302-21.7041Q111.328-21.6797 112.695-23.0469Q114.111-24.4629 114.062-26.4404Q114.014-28.418 112.598-29.8828L108.252-34.375Q106.885-35.791 104.834-35.791Q102.783-35.791 101.367-34.375Q100-33.0078 100.049-31.0059Q100.098-29.0039 101.465-27.5879Z"/>
   <path class="hierarchical-1:primary SFSymbolsPreview212121" d="M23.0469-7.4707L65.4785-7.4707Q71.875-7.4707 77.002-10.4248Q82.1289-13.3789 85.1318-18.457Q88.1348-23.5352 88.1348-29.7852Q88.1348-36.084 85.2539-41.1377Q82.373-46.1914 77.4658-49.2188Q72.5586-52.2461 66.3574-52.3926Q62.793-58.9355 56.7383-62.3291Q50.6836-65.7227 42.5293-65.7227Q35.6934-65.7227 29.9316-62.793Q24.1699-59.8633 20.2881-54.6631Q16.4062-49.4629 15.1367-42.6758Q9.76562-40.918 6.5918-36.4746Q3.41797-32.0312 3.41797-26.123Q3.41797-20.752 5.98145-16.5283Q8.54492-12.3047 12.9883-9.8877Q17.4316-7.4707 23.0469-7.4707ZM23.4863-19.1895Q19.3359-19.1895 17.2607-21.0938Q15.1855-22.998 15.1855-26.0254Q15.1855-28.8086 17.041-30.7373Q18.8965-32.666 22.7539-33.6426Q24.4629-34.082 25.0732-34.9609Q25.6836-35.8398 25.9766-37.5488Q26.9531-43.1641 29.2725-46.8262Q31.5918-50.4883 35.0098-52.2705Q38.4277-54.0527 42.5293-54.0527Q47.168-54.0527 51.0498-51.3916Q54.9316-48.7305 57.7148-43.6523Q58.4961-42.2852 59.4238-41.6992Q60.3516-41.1133 62.1094-41.1133Q67.1387-41.1133 70.2881-39.5996Q73.4375-38.0859 74.9268-35.498Q76.416-32.9102 76.416-29.6387Q76.416-26.6602 75.0488-24.292Q73.6816-21.9238 71.1182-20.5566Q68.5547-19.1895 65.0391-19.1895ZM57.1289 5.27344L46.6797 5.27344L46.3379 8.20312L50.9277-0.585938Q51.2695-1.2207 51.0498-1.66016Q50.8301-2.09961 50.1465-2.09961L38.3789-2.09961Q37.5488-2.09961 37.1582-1.80664Q36.7676-1.51367 36.5234-0.878906L31.1035 11.4746Q30.8105 12.1582 31.0547 12.5977Q31.2988 13.0371 32.0801 13.0371L40.5273 13.0371L40.5273 10.5957L34.1797 25.9766Q33.7891 26.8066 34.4238 27.0996Q35.0098 27.3438 35.6445 26.7578L57.7148 7.27539Q58.3984 6.68945 58.2031 5.98145Q58.0078 5.27344 57.1289 5.27344Z"/>
  </g>
  <g id="Regular-S" transform="matrix(1 0 0 1 1393.99 696)">
   <path class="hierarchical-0:secondary SFSymbolsPreview4D4D4D" d="M75.293-67.9199Q69.9707-67.9199 65.625-65.332Q61.2793-62.7441 58.7158-58.3984Q56.1523-54.0527 56.1523-48.6816Q56.1523-48.291 56.1768-47.876Q56.2012-47.4609 56.25-47.0703L62.793-46.4355Q62.6953-46.9727 62.6221-47.5342Q62.5488-48.0957 62.5488-48.6816Q62.5488-52.2949 64.2334-55.2002Q65.918-58.1055 68.8232-59.8145Q71.7285-61.5234 75.293-61.5234Q78.9062-61.5234 81.7871-59.8145Q84.668-58.1055 86.377-55.2002Q88.0859-52.2949 88.0859-48.6816Q88.0859-44.3848 85.6445-41.0645Q83.2031-37.7441 79.3945-36.4746L79.3945-29.8828Q83.7402-30.8105 87.1338-33.5205Q90.5273-36.2305 92.5049-40.1611Q94.4824-44.0918 94.4824-48.6816Q94.4824-54.0527 91.8945-58.3984Q89.3066-62.7441 84.9609-65.332Q80.6152-67.9199 75.293-67.9199ZM75.293-73.7305Q76.8066-73.7305 77.8809-74.8291Q78.9551-75.9277 78.9551-77.3926L78.9551-85.0098Q78.9551-86.5234 77.8809-87.5977Q76.8066-88.6719 75.293-88.6719Q73.7793-88.6719 72.7051-87.5977Q71.6309-86.5234 71.6309-85.0098L71.6309-77.3926Q71.6309-75.9277 72.7051-74.8291Q73.7793-73.7305 75.293-73.7305ZM92.9688-66.3574Q93.9941-65.332 95.5566-65.3076Q97.1191-65.2832 98.1934-66.3574L103.564-71.7773Q104.639-72.8516 104.614-74.3652Q104.59-75.8789 103.564-76.9531Q102.49-78.0273 101.001-78.0273Q99.5117-78.0273 98.4375-76.9531L92.9688-71.4844Q91.9434-70.4102 91.9434-68.9209Q91.9434-67.4316 92.9688-66.3574ZM52.4414-66.3574Q53.5156-65.2832 55.0537-65.3076Q56.5918-65.332 57.6172-66.3574Q58.6426-67.4316 58.667-68.9209Q58.6914-70.4102 57.6172-71.4844L52.1484-76.9531Q51.123-78.0273 49.6094-78.0273Q48.0957-78.0273 47.0703-76.9531Q45.9961-75.8789 45.9961-74.3652Q45.9961-72.8516 47.0703-71.7773ZM103.955-45.0684L111.572-45.0684Q113.086-45.0684 114.136-46.1182Q115.186-47.168 115.186-48.6816Q115.186-50.1953 114.136-51.2695Q113.086-52.3438 111.572-52.3438L103.955-52.3438Q102.49-52.3438 101.392-51.2695Q100.293-50.1953 100.293-48.6816Q100.293-47.168 101.392-46.1182Q102.49-45.0684 103.955-45.0684ZM98.4375-20.4102Q99.5117-19.3359 101.001-19.3604Q102.49-19.3848 103.564-20.459Q104.59-21.4844 104.614-23.0225Q104.639-24.5605 103.564-25.5371L98.0957-30.957Q97.0215-31.9824 95.5322-32.0068Q94.043-32.0312 92.9688-30.957Q91.9434-29.9316 91.9434-28.3936Q91.9434-26.8555 92.9688-25.8301Z"/>
   <path class="hierarchical-1:primary SFSymbolsPreview212121" d="M20.0684-10.9375L61.3281-10.9375Q66.9434-10.9375 71.4355-13.5254Q75.9277-16.1133 78.5889-20.5322Q81.25-24.9512 81.25-30.4688Q81.25-35.9375 78.5645-40.2588Q75.8789-44.5801 71.2646-47.1436Q66.6504-49.707 60.8398-49.7559Q57.4707-56.0547 51.6846-59.5947Q45.8984-63.1348 38.916-63.1348Q32.4707-63.1348 27.0508-60.1807Q21.6309-57.2266 18.1396-52.1484Q14.6484-47.0703 14.0137-40.7715Q9.22852-39.2578 6.34766-35.2783Q3.4668-31.2988 3.4668-26.123Q3.4668-21.6309 5.56641-18.2129Q7.66602-14.7949 11.4014-12.8662Q15.1367-10.9375 20.0684-10.9375ZM19.873-17.9688Q15.2344-17.9688 12.8662-20.2637Q10.498-22.5586 10.498-25.9277Q10.498-28.7109 12.207-31.0791Q13.916-33.4473 18.0664-34.5215Q19.5801-34.9121 20.2393-35.7178Q20.8984-36.5234 21.0449-38.1348Q21.4844-43.457 23.9746-47.5098Q26.4648-51.5625 30.3467-53.833Q34.2285-56.1035 38.916-56.1035Q44.0918-56.1035 48.1934-53.3447Q52.2949-50.5859 54.9805-45.2637Q55.6641-43.8965 56.5674-43.3594Q57.4707-42.8223 59.082-42.8223Q64.0137-42.8223 67.3828-41.1133Q70.752-39.4043 72.4854-36.5479Q74.2188-33.6914 74.2188-30.2734Q74.2188-26.8555 72.5342-24.0723Q70.8496-21.2891 67.9688-19.6289Q65.0879-17.9688 61.4258-17.9688ZM52.5391 2.24609L43.8477 2.24609L43.6523 4.00391L47.9492-4.15039Q48.2422-4.78516 48.0225-5.17578Q47.8027-5.56641 47.2168-5.56641L38.0371-5.56641Q37.2559-5.56641 36.9141-5.27344Q36.5723-4.98047 36.3281-4.44336L31.3965 6.83594Q31.0547 7.51953 31.3232 7.91016Q31.5918 8.30078 32.3242 8.30078L39.502 8.30078L39.9902 6.10352L34.082 20.3125Q33.7402 21.1426 34.3262 21.3379Q34.8633 21.582 35.4492 20.9961L53.0762 4.10156Q53.6621 3.51562 53.5156 2.88086Q53.3691 2.24609 52.5391 2.24609Z"/>
  </g>
  <g id="Ultralight-S" transform="matrix(1 0 0 1 505.373 696)">
   <path class="hierarchical-0:secondary SFSymbolsPreview4D4D4D" d="M74.7482-66.9662Q69.7891-66.9662 65.7387-64.5599Q61.6882-62.1536 59.2834-58.1032Q56.8787-54.0527 56.8787-49.0448Q56.8787-49.0173 56.8806-48.9883Q56.8825-48.9594 56.8855-48.9319L59.024-48.7968Q59.0172-48.88 59.0118-48.9418Q59.0065-49.0036 59.0065-49.0448Q59.0065-53.476 61.1-57.0396Q63.1935-60.6033 66.7572-62.7209Q70.3209-64.8384 74.7482-64.8384Q79.1336-64.8384 82.6954-62.7209Q86.2572-60.6033 88.3522-57.0396Q90.4472-53.476 90.4472-49.0448Q90.4472-43.5677 87.0296-39.1346Q83.6121-34.7015 78.1685-33.0688L78.3958-30.9723Q82.5142-32.0824 85.7262-34.7469Q88.9381-37.4115 90.7566-41.1148Q92.5751-44.8181 92.5751-49.0448Q92.5751-54.0527 90.1688-58.1032Q87.7625-62.1536 83.7349-64.5599Q79.7073-66.9662 74.7482-66.9662ZM74.7932-74.0936Q75.2174-74.0936 75.5424-74.4202Q75.8675-74.7467 75.8675-75.1221L75.8675-86.2816Q75.8675-86.705 75.5424-86.9846Q75.2174-87.2643 74.7932-87.2643Q74.3698-87.2643 74.0448-86.9846Q73.7198-86.705 73.7198-86.2816L73.7198-75.1221Q73.7198-74.7467 74.0448-74.4202Q74.3698-74.0936 74.7932-74.0936ZM92.469-66.7206Q92.7681-66.4215 93.1953-66.42Q93.6226-66.4185 93.9247-66.7206L101.794-74.5926Q102.141-74.9405 102.116-75.3643Q102.092-75.7881 101.794-76.0902Q101.492-76.3474 101.092-76.3699Q100.693-76.3924 100.345-76.0902L92.469-68.1694Q92.1707-67.9123 92.1707-67.4675Q92.1707-67.0227 92.469-66.7206ZM55.6656-66.7206Q55.9227-66.4185 56.3709-66.42Q56.8192-66.4215 57.1175-66.7206Q57.4165-67.0227 57.4181-67.4675Q57.4196-67.9123 57.1175-68.1694L49.2424-76.0902Q48.8983-76.3924 48.4741-76.3699Q48.0499-76.3474 47.7516-76.0902Q47.4495-75.7881 47.4495-75.3643Q47.4495-74.9405 47.7516-74.5926ZM100.731-48.0202L111.935-48.0202Q112.405-48.0202 112.705-48.3208Q113.006-48.6214 113.006-49.0448Q113.006-49.469 112.705-49.7711Q112.405-50.0732 111.935-50.0732L100.731-50.0732Q100.311-50.0732 100.029-49.7711Q99.7482-49.469 99.7482-49.0448Q99.7482-48.6214 100.029-48.3208Q100.311-48.0202 100.731-48.0202ZM100.345-21.9994Q100.693-21.6515 101.092-21.6759Q101.492-21.7003 101.794-22.0032Q102.092-22.3015 102.116-22.7043Q102.141-23.1071 101.794-23.4482L93.9178-31.3202Q93.6157-31.6193 93.1934-31.6208Q92.7711-31.6223 92.469-31.3202Q92.1707-31.0211 92.1707-30.5958Q92.1707-30.1704 92.469-29.8714Z"/>
   <path class="hierarchical-1:primary SFSymbolsPreview212121" d="M18.9331-11.9362L61.01-11.9362Q66.1713-11.9362 70.3228-14.2971Q74.4743-16.658 76.9085-20.623Q79.3427-24.588 79.3427-29.5151Q79.3427-34.3933 76.8387-38.306Q74.3347-42.2188 70.0157-44.487Q65.6967-46.7552 60.2493-46.804Q56.926-53.1487 51.5259-57.0518Q46.1258-60.955 38.5979-60.955Q32.6073-60.955 27.5959-57.9784Q22.5845-55.0018 19.4111-49.9462Q16.2376-44.8906 15.6937-38.6826Q10.9543-37.4413 7.64198-33.9386Q4.32968-30.4359 4.32968-25.1694Q4.32968-21.5401 6.08864-18.5535Q7.8476-15.567 11.129-13.7516Q14.4104-11.9362 18.9331-11.9362ZM18.9651-14.0182Q12.9189-14.0182 9.66492-17.2894Q6.41098-20.5605 6.41098-25.1556Q6.41098-29.3922 9.11903-32.3959Q11.8271-35.3996 16.2956-36.7462Q17.0822-36.9553 17.3782-37.307Q17.6743-37.6587 17.6849-38.2713Q18.0786-43.9568 21.0228-48.6225Q23.967-53.2883 28.5984-56.081Q33.2298-58.8737 38.5979-58.8737Q45.7268-58.8737 50.6683-55.1384Q55.6099-51.403 58.3405-45.99Q58.6609-45.3041 59.1103-45.0394Q59.5596-44.7746 60.3989-44.7746Q65.1947-44.7746 69.0178-42.7254Q72.8409-40.6761 75.0511-37.1838Q77.2614-33.6914 77.2614-29.4106Q77.2614-25.1755 75.0999-21.6885Q72.9385-18.2014 69.2631-16.1098Q65.5876-14.0182 61.0168-14.0182ZM46.9536 3.01819L39.8972 3.01819L40.3831 4.04968L45.179-4.78592Q45.472-5.42068 45.2522-5.8567Q45.0325-6.29272 44.4016-6.29272L41.5794-6.29272Q40.7066-6.29272 40.3423-5.99976Q39.978-5.70679 39.7339-5.07889L35.1654 5.33752Q34.8236 6.11191 35.2058 6.50253Q35.5881 6.89316 36.2747 6.89316L41.6817 6.89316L42.17 4.55933L36.5341 18.042Q36.1473 18.9629 36.824 19.2039Q37.5427 19.4481 38.0379 18.6806L47.8088 4.78287Q48.2582 4.15115 48.0209 3.58467Q47.7837 3.01819 46.9536 3.01819Z"/>
  </g>
 </g>
</svg>
