<?xml version="1.0" encoding="UTF-8"?>
<!--Generator: Apple Native CoreSVG 175-->
<!DOCTYPE svg
PUBLIC "-//W3C//DTD SVG 1.1//EN"
       "http://www.w3.org/Graphics/SVG/1.1/DTD/svg11.dtd">
<svg version="1.1" xmlns="http://www.w3.org/2000/svg" xmlns:xlink="http://www.w3.org/1999/xlink" width="3300" height="2200">
 <!--glyph: "uni1001E7.medium", point size: 100.0, font version: "17.3d3e1", template writer version: "65.1"-->
 <style>.multicolor-0:white {fill:#FFFFFF;opacity:1.0}

.SFSymbolsPreviewFFFFFF {fill:#FFFFFF;opacity:1.0}
</style>
 <g id="Notes">
  <rect height="2200" id="artboard" style="fill:white;opacity:1" width="3300" x="0" y="0"/>
  <line style="fill:none;stroke:black;opacity:1;stroke-width:0.5;" x1="263" x2="3036" y1="292" y2="292"/>
  <text style="stroke:none;fill:black;font-family:sans-serif;font-size:13;font-weight:bold;" transform="matrix(1 0 0 1 263 322)">Weight/Scale Variations</text>
  <text style="stroke:none;fill:black;font-family:sans-serif;font-size:13;text-anchor:middle;" transform="matrix(1 0 0 1 559.711 322)">Ultralight</text>
  <text style="stroke:none;fill:black;font-family:sans-serif;font-size:13;text-anchor:middle;" transform="matrix(1 0 0 1 856.422 322)">Thin</text>
  <text style="stroke:none;fill:black;font-family:sans-serif;font-size:13;text-anchor:middle;" transform="matrix(1 0 0 1 1153.13 322)">Light</text>
  <text style="stroke:none;fill:black;font-family:sans-serif;font-size:13;text-anchor:middle;" transform="matrix(1 0 0 1 1449.84 322)">Regular</text>
  <text style="stroke:none;fill:black;font-family:sans-serif;font-size:13;text-anchor:middle;" transform="matrix(1 0 0 1 1746.56 322)">Medium</text>
  <text style="stroke:none;fill:black;font-family:sans-serif;font-size:13;text-anchor:middle;" transform="matrix(1 0 0 1 2043.27 322)">Semibold</text>
  <text style="stroke:none;fill:black;font-family:sans-serif;font-size:13;text-anchor:middle;" transform="matrix(1 0 0 1 2339.98 322)">Bold</text>
  <text style="stroke:none;fill:black;font-family:sans-serif;font-size:13;text-anchor:middle;" transform="matrix(1 0 0 1 2636.69 322)">Heavy</text>
  <text style="stroke:none;fill:black;font-family:sans-serif;font-size:13;text-anchor:middle;" transform="matrix(1 0 0 1 2933.4 322)">Black</text>
  <line style="fill:none;stroke:black;opacity:1;stroke-width:0.5;" x1="263" x2="3036" y1="1903" y2="1903"/>
  <g transform="matrix(1 0 0 1 263 1933)">
   <path d="M9.24805 0.830078Q10.8691 0.830078 12.2949 0.214844Q13.7207-0.400391 14.8096-1.49414Q15.8984-2.58789 16.5186-4.01367Q17.1387-5.43945 17.1387-7.05078Q17.1387-8.66211 16.5186-10.0879Q15.8984-11.5137 14.8047-12.6074Q13.7109-13.7012 12.2852-14.3164Q10.8594-14.9316 9.23828-14.9316Q7.62695-14.9316 6.20117-14.3164Q4.77539-13.7012 3.69141-12.6074Q2.60742-11.5137 1.9873-10.0879Q1.36719-8.66211 1.36719-7.05078Q1.36719-5.43945 1.9873-4.01367Q2.60742-2.58789 3.69629-1.49414Q4.78516-0.400391 6.21094 0.214844Q7.63672 0.830078 9.24805 0.830078ZM9.24805-0.654297Q7.91992-0.654297 6.7627-1.14746Q5.60547-1.64062 4.73145-2.51953Q3.85742-3.39844 3.36426-4.56055Q2.87109-5.72266 2.87109-7.05078Q2.87109-8.37891 3.35938-9.54102Q3.84766-10.7031 4.72168-11.582Q5.5957-12.4609 6.75293-12.9541Q7.91016-13.4473 9.23828-13.4473Q10.5762-13.4473 11.7334-12.9541Q12.8906-12.4609 13.7695-11.582Q14.6484-10.7031 15.1465-9.54102Q15.6445-8.37891 15.6445-7.05078Q15.6445-5.72266 15.1514-4.56055Q14.6582-3.39844 13.7842-2.51953Q12.9102-1.64062 11.748-1.14746Q10.5859-0.654297 9.24805-0.654297ZM5.6543-7.05078Q5.6543-6.72852 5.85938-6.52832Q6.06445-6.32812 6.40625-6.32812L8.51562-6.32812L8.51562-4.20898Q8.51562-3.88672 8.71094-3.67676Q8.90625-3.4668 9.23828-3.4668Q9.56055-3.4668 9.77051-3.67676Q9.98047-3.88672 9.98047-4.20898L9.98047-6.32812L12.0898-6.32812Q12.4219-6.32812 12.627-6.52832Q12.832-6.72852 12.832-7.05078Q12.832-7.38281 12.627-7.58789Q12.4219-7.79297 12.0898-7.79297L9.98047-7.79297L9.98047-9.90234Q9.98047-10.2344 9.77051-10.4443Q9.56055-10.6543 9.23828-10.6543Q8.90625-10.6543 8.71094-10.4443Q8.51562-10.2344 8.51562-9.90234L8.51562-7.79297L6.40625-7.79297Q6.06445-7.79297 5.85938-7.58789Q5.6543-7.38281 5.6543-7.05078Z"/>
  </g>
  <g transform="matrix(1 0 0 1 281.867 1933)">
   <path d="M11.709 2.91016Q13.75 2.91016 15.5518 2.12891Q17.3535 1.34766 18.7305-0.0292969Q20.1074-1.40625 20.8887-3.20801Q21.6699-5.00977 21.6699-7.05078Q21.6699-9.0918 20.8887-10.8936Q20.1074-12.6953 18.7305-14.0723Q17.3535-15.4492 15.5469-16.2305Q13.7402-17.0117 11.6992-17.0117Q9.6582-17.0117 7.85645-16.2305Q6.05469-15.4492 4.68262-14.0723Q3.31055-12.6953 2.5293-10.8936Q1.74805-9.0918 1.74805-7.05078Q1.74805-5.00977 2.5293-3.20801Q3.31055-1.40625 4.6875-0.0292969Q6.06445 1.34766 7.86621 2.12891Q9.66797 2.91016 11.709 2.91016ZM11.709 1.25Q9.98047 1.25 8.47656 0.605469Q6.97266-0.0390625 5.83496-1.17676Q4.69727-2.31445 4.05762-3.81836Q3.41797-5.32227 3.41797-7.05078Q3.41797-8.7793 4.05762-10.2832Q4.69727-11.7871 5.83008-12.9297Q6.96289-14.0723 8.4668-14.7119Q9.9707-15.3516 11.6992-15.3516Q13.4277-15.3516 14.9316-14.7119Q16.4355-14.0723 17.5781-12.9297Q18.7207-11.7871 19.3652-10.2832Q20.0098-8.7793 20.0098-7.05078Q20.0098-5.32227 19.3701-3.81836Q18.7305-2.31445 17.5928-1.17676Q16.4551-0.0390625 14.9463 0.605469Q13.4375 1.25 11.709 1.25ZM7.17773-7.05078Q7.17773-6.69922 7.41211-6.47461Q7.64648-6.25 8.01758-6.25L10.8887-6.25L10.8887-3.36914Q10.8887-2.99805 11.1133-2.76855Q11.3379-2.53906 11.6895-2.53906Q12.0605-2.53906 12.29-2.76855Q12.5195-2.99805 12.5195-3.36914L12.5195-6.25L15.4004-6.25Q15.7715-6.25 16.001-6.47461Q16.2305-6.69922 16.2305-7.05078Q16.2305-7.42188 16.001-7.65137Q15.7715-7.88086 15.4004-7.88086L12.5195-7.88086L12.5195-10.752Q12.5195-11.1328 12.29-11.3623Q12.0605-11.5918 11.6895-11.5918Q11.3379-11.5918 11.1133-11.3574Q10.8887-11.123 10.8887-10.752L10.8887-7.88086L8.01758-7.88086Q7.63672-7.88086 7.40723-7.65137Q7.17773-7.42188 7.17773-7.05078Z"/>
  </g>
  <g transform="matrix(1 0 0 1 305.646 1933)">
   <path d="M14.9707 5.66406Q17.0605 5.66406 18.96 5.01465Q20.8594 4.36523 22.4512 3.19336Q24.043 2.02148 25.2197 0.429688Q26.3965-1.16211 27.0459-3.06641Q27.6953-4.9707 27.6953-7.05078Q27.6953-9.14062 27.0459-11.04Q26.3965-12.9395 25.2197-14.5312Q24.043-16.123 22.4512-17.2998Q20.8594-18.4766 18.9551-19.126Q17.0508-19.7754 14.9609-19.7754Q12.8711-19.7754 10.9717-19.126Q9.07227-18.4766 7.48535-17.2998Q5.89844-16.123 4.72168-14.5312Q3.54492-12.9395 2.90039-11.04Q2.25586-9.14062 2.25586-7.05078Q2.25586-4.9707 2.90527-3.06641Q3.55469-1.16211 4.72656 0.429688Q5.89844 2.02148 7.49023 3.19336Q9.08203 4.36523 10.9814 5.01465Q12.8809 5.66406 14.9707 5.66406ZM14.9707 3.84766Q13.1641 3.84766 11.5283 3.2959Q9.89258 2.74414 8.53516 1.74805Q7.17773 0.751953 6.17676-0.610352Q5.17578-1.97266 4.62891-3.6084Q4.08203-5.24414 4.08203-7.05078Q4.08203-8.86719 4.62891-10.5029Q5.17578-12.1387 6.17188-13.501Q7.16797-14.8633 8.52539-15.8594Q9.88281-16.8555 11.5186-17.4023Q13.1543-17.9492 14.9609-17.9492Q16.7773-17.9492 18.4131-17.4023Q20.0488-16.8555 21.4111-15.8594Q22.7734-14.8633 23.7695-13.501Q24.7656-12.1387 25.3174-10.5029Q25.8691-8.86719 25.8691-7.05078Q25.8789-5.24414 25.332-3.6084Q24.7852-1.97266 23.7842-0.610352Q22.7832 0.751953 21.4209 1.74805Q20.0586 2.74414 18.4229 3.2959Q16.7871 3.84766 14.9707 3.84766ZM9.19922-7.05078Q9.19922-6.66992 9.45801-6.4209Q9.7168-6.17188 10.1172-6.17188L14.0625-6.17188L14.0625-2.2168Q14.0625-1.81641 14.3115-1.55762Q14.5605-1.29883 14.9512-1.29883Q15.3516-1.29883 15.6104-1.55273Q15.8691-1.80664 15.8691-2.2168L15.8691-6.17188L19.8242-6.17188Q20.2246-6.17188 20.4785-6.4209Q20.7324-6.66992 20.7324-7.05078Q20.7324-7.46094 20.4785-7.71484Q20.2246-7.96875 19.8242-7.96875L15.8691-7.96875L15.8691-11.9141Q15.8691-12.3242 15.6104-12.583Q15.3516-12.8418 14.9512-12.8418Q14.5605-12.8418 14.3115-12.583Q14.0625-12.3242 14.0625-11.9141L14.0625-7.96875L10.1172-7.96875Q9.70703-7.96875 9.45312-7.71484Q9.19922-7.46094 9.19922-7.05078Z"/>
  </g>
  <text style="stroke:none;fill:black;font-family:sans-serif;font-size:13;font-weight:bold;" transform="matrix(1 0 0 1 263 1953)">Design Variations</text>
  <text style="stroke:none;fill:black;font-family:sans-serif;font-size:13;" transform="matrix(1 0 0 1 263 1971)">Symbols are supported in up to nine weights and three scales.</text>
  <text style="stroke:none;fill:black;font-family:sans-serif;font-size:13;" transform="matrix(1 0 0 1 263 1989)">For optimal layout with text and other symbols, vertically align</text>
  <text style="stroke:none;fill:black;font-family:sans-serif;font-size:13;" transform="matrix(1 0 0 1 263 2007)">symbols with the adjacent text.</text>
  <line style="fill:none;stroke:#00AEEF;stroke-width:0.5;opacity:1.0;" x1="776" x2="776" y1="1919" y2="1933"/>
  <g transform="matrix(1 0 0 1 776 1933)">
   <path d="M3.31055 0.15625Q3.70117 0.15625 3.91602-0.00976562Q4.13086-0.175781 4.26758-0.585938L5.52734-4.0332L11.2891-4.0332L12.5488-0.585938Q12.6855-0.175781 12.9004-0.00976562Q13.1152 0.15625 13.4961 0.15625Q13.8867 0.15625 14.1162-0.0585938Q14.3457-0.273438 14.3457-0.644531Q14.3457-0.869141 14.2383-1.17188L9.6582-13.3691Q9.48242-13.8184 9.17969-14.043Q8.87695-14.2676 8.4082-14.2676Q7.5-14.2676 7.17773-13.3789L2.59766-1.16211Q2.49023-0.859375 2.49023-0.634766Q2.49023-0.263672 2.70996-0.0537109Q2.92969 0.15625 3.31055 0.15625ZM6.00586-5.51758L8.37891-12.0898L8.42773-12.0898L10.8008-5.51758Z"/>
  </g>
  <line style="fill:none;stroke:#00AEEF;stroke-width:0.5;opacity:1.0;" x1="793.197" x2="793.197" y1="1919" y2="1933"/>
  <text style="stroke:none;fill:black;font-family:sans-serif;font-size:13;font-weight:bold;" transform="matrix(1 0 0 1 776 1953)">Margins</text>
  <text style="stroke:none;fill:black;font-family:sans-serif;font-size:13;" transform="matrix(1 0 0 1 776 1971)">Leading and trailing margins on the left and right side of each symbol</text>
  <text style="stroke:none;fill:black;font-family:sans-serif;font-size:13;" transform="matrix(1 0 0 1 776 1989)">can be adjusted by modifying the x-location of the margin guidelines.</text>
  <text style="stroke:none;fill:black;font-family:sans-serif;font-size:13;" transform="matrix(1 0 0 1 776 2007)">Modifications are automatically applied proportionally to all</text>
  <text style="stroke:none;fill:black;font-family:sans-serif;font-size:13;" transform="matrix(1 0 0 1 776 2025)">scales and weights.</text>
  <g transform="matrix(1 0 0 1 1289 1933)">
   <path d="M2.8418 1.86523L4.54102 3.57422Q5.18555 4.22852 5.90332 4.17969Q6.62109 4.13086 7.31445 3.35938L18.0078-8.42773L17.041-9.4043L6.42578 2.27539Q6.16211 2.57812 5.89355 2.61719Q5.625 2.65625 5.27344 2.30469L4.10156 1.14258Q3.75 0.791016 3.79395 0.522461Q3.83789 0.253906 4.14062-0.0195312L15.6152-10.8203L14.6387-11.7871L3.04688-0.898438Q2.30469-0.214844 2.25098 0.498047Q2.19727 1.21094 2.8418 1.86523ZM9.25781-16.3281Q8.94531-16.0254 8.90625-15.6348Q8.86719-15.2441 9.04297-14.9512Q9.21875-14.6777 9.55566-14.541Q9.89258-14.4043 10.3809-14.5215Q11.4746-14.7754 12.5977-14.7314Q13.7207-14.6875 14.7949-13.9844L14.209-12.5293Q13.9551-11.9043 14.0674-11.4404Q14.1797-10.9766 14.5801-10.5664L16.875-8.25195Q17.2363-7.88086 17.5781-7.82227Q17.9199-7.76367 18.3398-7.8418L19.4043-8.03711L20.0684-7.36328L20.0293-6.80664Q20-6.43555 20.1221-6.12305Q20.2441-5.81055 20.6055-5.44922L21.3672-4.70703Q21.7285-4.3457 22.1533-4.33105Q22.5781-4.31641 22.9297-4.66797L25.8398-7.58789Q26.1914-7.93945 26.1816-8.35449Q26.1719-8.76953 25.8105-9.13086L25.0391-9.89258Q24.6875-10.2539 24.3799-10.3857Q24.0723-10.5176 23.7109-10.4883L23.1348-10.4395L22.4902-11.0742L22.7344-12.1973Q22.832-12.6172 22.6953-12.9834Q22.5586-13.3496 22.1191-13.7891L19.9219-15.9766Q18.6719-17.2168 17.2607-17.8369Q15.8496-18.457 14.4189-18.4814Q12.9883-18.5059 11.665-17.959Q10.3418-17.4121 9.25781-16.3281ZM10.752-15.957Q11.6602-16.6211 12.7002-16.9043Q13.7402-17.1875 14.8047-17.085Q15.8691-16.9824 16.8701-16.5137Q17.8711-16.0449 18.7012-15.2051L21.1328-12.793Q21.3086-12.6172 21.3525-12.4512Q21.3965-12.2852 21.3379-12.0312L21.0156-10.5469L22.5195-9.0625L23.5059-9.12109Q23.6914-9.13086 23.7891-9.09668Q23.8867-9.0625 24.0332-8.91602L24.6094-8.33984L22.168-5.89844L21.5918-6.47461Q21.4453-6.62109 21.4062-6.71875Q21.3672-6.81641 21.377-7.01172L21.4453-7.98828L19.9512-9.47266L18.4277-9.21875Q18.1836-9.16992 18.042-9.2041Q17.9004-9.23828 17.7148-9.41406L15.7129-11.416Q15.5176-11.5918 15.4932-11.7529Q15.4688-11.9141 15.5859-12.1875L16.4648-14.2773Q15.293-15.3711 13.8281-15.791Q12.3633-16.2109 10.8398-15.7617Q10.7227-15.7324 10.6885-15.8057Q10.6543-15.8789 10.752-15.957Z"/>
  </g>
  <text style="stroke:none;fill:black;font-family:sans-serif;font-size:13;font-weight:bold;" transform="matrix(1 0 0 1 1289 1953)">Exporting</text>
  <text style="stroke:none;fill:black;font-family:sans-serif;font-size:13;" transform="matrix(1 0 0 1 1289 1971)">Symbols should be outlined when exporting to ensure the</text>
  <text style="stroke:none;fill:black;font-family:sans-serif;font-size:13;" transform="matrix(1 0 0 1 1289 1989)">design is preserved when submitting to Xcode.</text>
  <text id="template-version" style="stroke:none;fill:black;font-family:sans-serif;font-size:13;text-anchor:end;" transform="matrix(1 0 0 1 3036 1933)">Template v.3.0</text>
  <text style="stroke:none;fill:black;font-family:sans-serif;font-size:13;text-anchor:end;" transform="matrix(1 0 0 1 3036 1951)">Requires Xcode 13 or greater</text>
  <text id="descriptive-name" style="stroke:none;fill:black;font-family:sans-serif;font-size:13;text-anchor:end;" transform="matrix(1 0 0 1 3036 1969)">Generated from tornado</text>
  <text style="stroke:none;fill:black;font-family:sans-serif;font-size:13;text-anchor:end;" transform="matrix(1 0 0 1 3036 1987)">Typeset at 100 points</text>
  <text style="stroke:none;fill:black;font-family:sans-serif;font-size:13;" transform="matrix(1 0 0 1 263 726)">Small</text>
  <text style="stroke:none;fill:black;font-family:sans-serif;font-size:13;" transform="matrix(1 0 0 1 263 1156)">Medium</text>
  <text style="stroke:none;fill:black;font-family:sans-serif;font-size:13;" transform="matrix(1 0 0 1 263 1586)">Large</text>
 </g>
 <g id="Guides">
  <g id="H-reference" style="fill:#27AAE1;stroke:none;" transform="matrix(1 0 0 1 339 696)">
   <path d="M0.993347 0L3.6377 0L29.3282-67.1326L30.0301-67.1326L30.0301-70.459L28.1227-70.459ZM11.6882-24.4797L46.9818-24.4797L46.2311-26.7288L12.4382-26.7288ZM55.1193 0L57.7637 0L30.6381-70.459L29.4327-70.459L29.4327-67.1326Z"/>
  </g>
  <line id="Baseline-S" style="fill:none;stroke:#27AAE1;opacity:1;stroke-width:0.5;" x1="263" x2="3036" y1="696" y2="696"/>
  <line id="Capline-S" style="fill:none;stroke:#27AAE1;opacity:1;stroke-width:0.5;" x1="263" x2="3036" y1="625.541" y2="625.541"/>
  <g id="H-reference" style="fill:#27AAE1;stroke:none;" transform="matrix(1 0 0 1 339 1126)">
   <path d="M0.993347 0L3.6377 0L29.3282-67.1326L30.0301-67.1326L30.0301-70.459L28.1227-70.459ZM11.6882-24.4797L46.9818-24.4797L46.2311-26.7288L12.4382-26.7288ZM55.1193 0L57.7637 0L30.6381-70.459L29.4327-70.459L29.4327-67.1326Z"/>
  </g>
  <line id="Baseline-M" style="fill:none;stroke:#27AAE1;opacity:1;stroke-width:0.5;" x1="263" x2="3036" y1="1126" y2="1126"/>
  <line id="Capline-M" style="fill:none;stroke:#27AAE1;opacity:1;stroke-width:0.5;" x1="263" x2="3036" y1="1055.54" y2="1055.54"/>
  <g id="H-reference" style="fill:#27AAE1;stroke:none;" transform="matrix(1 0 0 1 339 1556)">
   <path d="M0.993347 0L3.6377 0L29.3282-67.1326L30.0301-67.1326L30.0301-70.459L28.1227-70.459ZM11.6882-24.4797L46.9818-24.4797L46.2311-26.7288L12.4382-26.7288ZM55.1193 0L57.7637 0L30.6381-70.459L29.4327-70.459L29.4327-67.1326Z"/>
  </g>
  <line id="Baseline-L" style="fill:none;stroke:#27AAE1;opacity:1;stroke-width:0.5;" x1="263" x2="3036" y1="1556" y2="1556"/>
  <line id="Capline-L" style="fill:none;stroke:#27AAE1;opacity:1;stroke-width:0.5;" x1="263" x2="3036" y1="1485.54" y2="1485.54"/>
  <line id="left-margin-Ultralight-S" style="fill:none;stroke:#00AEEF;stroke-width:0.5;opacity:1.0;" x1="518.584" x2="518.584" y1="600.785" y2="720.121"/>
  <line id="right-margin-Ultralight-S" style="fill:none;stroke:#00AEEF;stroke-width:0.5;opacity:1.0;" x1="600.838" x2="600.838" y1="600.785" y2="720.121"/>
  <line id="left-margin-Regular-S" style="fill:none;stroke:#00AEEF;stroke-width:0.5;opacity:1.0;" x1="1406.27" x2="1406.27" y1="600.785" y2="720.121"/>
  <line id="right-margin-Regular-S" style="fill:none;stroke:#00AEEF;stroke-width:0.5;opacity:1.0;" x1="1493.42" x2="1493.42" y1="600.785" y2="720.121"/>
  <line id="left-margin-Black-S" style="fill:none;stroke:#00AEEF;stroke-width:0.5;opacity:1.0;" x1="2885.04" x2="2885.04" y1="600.785" y2="720.121"/>
  <line id="right-margin-Black-S" style="fill:none;stroke:#00AEEF;stroke-width:0.5;opacity:1.0;" x1="2981.76" x2="2981.76" y1="600.785" y2="720.121"/>
 </g>
 <g id="Symbols">
  <g id="Black-S" transform="matrix(1 0 0 1 2885.04 696)">
   <path class="multicolor-0:white SFSymbolsPreviewFFFFFF" d="M47.8516-45.2637Q60.8398-45.2637 70.2637-47.2168Q79.6875-49.1699 84.79-52.7588Q89.8926-56.3477 89.8926-61.2793Q89.8926-65.6738 86.4014-68.7988Q82.9102-71.9238 76.2451-73.584Q69.5801-75.2441 60.0586-75.2441Q51.1719-75.2441 43.5303-74.1455Q35.8887-73.0469 29.6387-70.8008Q27.2949-69.9707 26.6846-67.9688Q26.0742-65.9668 26.709-64.3066Q27.4902-62.4023 29.3213-61.6943Q31.1523-60.9863 33.7891-61.7676Q38.7207-63.2812 44.8975-64.502Q51.0742-65.7227 59.5703-65.7227Q64.6973-65.7227 69.1162-65.1855Q73.5352-64.6484 76.2451-63.6719Q78.9551-62.6953 78.9551-61.3281Q78.9551-59.9609 76.1719-58.8135Q73.3887-57.666 68.7988-56.8115Q64.209-55.957 58.6182-55.4932Q53.0273-55.0293 47.4121-55.0293Q32.4219-55.0293 25.0977-57.7393Q17.7734-60.4492 17.7734-65.625Q17.7734-69.6777 21.5332-72.4854Q25.293-75.293 32.373-77.1484Q34.8633-77.832 35.7422-79.6143Q36.6211-81.3965 35.9863-83.3984Q34.668-87.6953 29.0527-86.377Q17.8711-83.7891 12.3535-77.9053Q6.83594-72.0215 6.83594-65.4297Q6.83594-55.8594 17.4072-50.5615Q27.9785-45.2637 47.8516-45.2637ZM48.9746-30.4199Q58.8867-30.4199 67.7734-31.8115Q76.6602-33.2031 83.0078-35.498Q85.1562-36.2793 85.8398-38.0615Q86.5234-39.8438 85.6934-41.6016Q84.9121-43.3105 83.1787-43.7744Q81.4453-44.2383 79.2969-43.5547Q73.4863-41.6504 65.4541-40.4297Q57.4219-39.209 48.9746-39.209Q44.5312-39.209 39.8682-39.5752Q35.2051-39.9414 30.6641-40.7227Q26.123-41.5039 22.0703-42.6758Q19.9707-43.3105 18.335-42.6514Q16.6992-41.9922 16.1621-40.1367Q15.625-38.1836 16.6748-36.5723Q17.7246-34.9609 19.9219-34.2773Q26.6113-32.2754 34.2529-31.3477Q41.8945-30.4199 48.9746-30.4199ZM52.2461-15.7715Q60.4004-15.8691 67.9199-16.9678Q75.4395-18.0664 82.7148-20.166Q84.8633-20.8008 85.7666-22.5342Q86.6699-24.2676 85.9375-26.1719Q85.3027-27.832 83.8135-28.54Q82.3242-29.248 80.127-28.6133Q73.1934-26.6602 66.2598-25.6104Q59.3262-24.5605 51.7578-24.5605Q48.7305-24.5605 45.5811-24.7314Q42.4316-24.9023 40.0879-25.2441Q37.8418-25.5859 36.4502-24.585Q35.0586-23.584 34.7168-21.9238Q34.375-20.0684 35.4004-18.4326Q36.4258-16.7969 38.7695-16.5039Q41.3574-16.1621 44.6777-15.9424Q47.998-15.7227 52.2461-15.7715ZM47.6562-1.80664Q51.4648-1.41602 56.0059-1.44043Q60.5469-1.46484 65.0146-1.9043Q69.4824-2.34375 72.9492-3.17383Q75.0977-3.71094 76.001-5.32227Q76.9043-6.93359 76.416-8.74023Q75.9277-10.6445 74.292-11.4258Q72.6562-12.207 70.5078-11.7676Q65.9668-10.8398 60.1318-10.498Q54.2969-10.1562 48.8281-10.498Q46.5332-10.6445 45.1416-9.57031Q43.75-8.49609 43.5059-6.73828Q43.3105-5.22461 44.2871-3.6377Q45.2637-2.05078 47.6562-1.80664ZM44.9707 12.4512Q47.168 12.6465 49.4141 12.6465Q51.6602 12.6465 54.1504 12.4023Q56.0547 12.207 57.2021 10.9863Q58.3496 9.76562 58.2031 7.8125Q58.0566 5.95703 56.6895 4.83398Q55.3223 3.71094 53.1738 3.95508Q49.3164 4.39453 45.9473 4.00391Q43.8477 3.75977 42.4561 4.88281Q41.0645 6.00586 40.918 7.86133Q40.7715 9.81445 41.9189 11.0352Q43.0664 12.2559 44.9707 12.4512Z"/>
  </g>
  <g id="Regular-S" transform="matrix(1 0 0 1 1406.27 696)">
   <path class="multicolor-0:white SFSymbolsPreviewFFFFFF" d="M43.0664-43.4082Q55.127-43.4082 63.4277-45.3125Q71.7285-47.2168 76.0254-50.4639Q80.3223-53.7109 80.3223-57.8613Q80.3223-61.7188 76.9531-64.4775Q73.584-67.2363 67.627-68.7256Q61.6699-70.2148 53.9551-70.2148Q45.1172-70.2148 38.3301-68.7012Q31.543-67.1875 26.5137-64.7461Q24.9512-64.0137 24.585-62.6709Q24.2188-61.3281 24.7559-60.2539Q25.3906-58.9844 26.8066-58.6426Q28.2227-58.3008 29.4922-58.8379Q34.082-60.7422 39.9414-62.3047Q45.8008-63.8672 53.5156-63.8672Q59.9121-63.8672 64.3555-62.9883Q68.7988-62.1094 71.1426-60.7422Q73.4863-59.375 73.4863-57.9102Q73.4863-56.543 71.46-55.1758Q69.4336-53.8086 65.5029-52.6367Q61.5723-51.4648 55.835-50.7324Q50.0977-50 42.7246-50Q28.4668-50 21.0693-52.71Q13.6719-55.4199 13.6719-60.6934Q13.6719-63.6719 16.8457-66.7725Q20.0195-69.873 28.418-72.6074Q30.0293-73.1445 30.6641-74.3164Q31.2988-75.4883 30.8594-76.8555Q29.8828-79.6875 26.2207-78.5645Q16.3086-75.5859 11.5723-70.7764Q6.83594-65.9668 6.83594-60.498Q6.83594-52.0996 16.0156-47.7539Q25.1953-43.4082 43.0664-43.4082ZM44.1895-30.6152Q53.1738-30.6152 61.1816-32.0068Q69.1895-33.3984 75.0977-35.791Q76.3184-36.2793 76.8311-37.4268Q77.3438-38.5742 76.7578-39.6973Q76.123-40.7715 75.0244-41.0156Q73.9258-41.2598 72.4609-40.7227Q67.2363-38.7695 59.8877-37.5Q52.5391-36.2305 44.1895-36.2305Q40.1367-36.2305 35.8398-36.5723Q31.543-36.9141 27.3193-37.5977Q23.0957-38.2812 19.3359-39.4043Q17.8711-39.8438 16.7725-39.4043Q15.6738-38.9648 15.332-37.7441Q14.9902-36.5234 15.5762-35.4736Q16.1621-34.4238 17.6758-33.9844Q23.7305-32.3242 30.7373-31.4697Q37.7441-30.6152 44.1895-30.6152ZM46.6797-17.9688Q54.1016-18.0176 61.1816-19.0918Q68.2617-20.166 74.8535-22.4121Q76.6113-22.998 76.9775-24.1699Q77.3438-25.3418 76.9531-26.3672Q76.5137-27.4902 75.3662-27.832Q74.2188-28.1738 72.5586-27.6367Q66.0156-25.5371 59.6924-24.5605Q53.3691-23.584 46.6797-23.584Q43.8477-23.584 41.0156-23.7793Q38.1836-23.9746 35.8398-24.3164Q34.2773-24.5117 33.3252-23.9258Q32.373-23.3398 32.1777-22.168Q31.9824-20.9961 32.6172-20.0195Q33.252-19.043 34.9609-18.75Q37.1094-18.3594 40.0879-18.1396Q43.0664-17.9199 46.6797-17.9688ZM43.2617-6.05469Q46.7773-5.66406 50.6104-5.61523Q54.4434-5.56641 58.3496-5.98145Q62.2559-6.39648 65.8691-7.37305Q67.3828-7.76367 67.9199-8.88672Q68.457-10.0098 68.1152-11.1328Q67.7246-12.3535 66.6504-12.793Q65.5762-13.2324 64.0137-12.8418Q59.375-11.6699 54.2969-11.3037Q49.2188-10.9375 44.1895-11.5723Q42.627-11.7188 41.626-11.0596Q40.625-10.4004 40.4785-9.22852Q40.332-8.00781 40.9912-7.10449Q41.6504-6.20117 43.2617-6.05469ZM40.625 6.25Q42.5293 6.49414 44.4824 6.49414Q46.4355 6.49414 48.3398 6.25Q49.8535 6.05469 50.5371 5.2002Q51.2207 4.3457 51.123 3.125Q51.0254 2.09961 50.1709 1.41602Q49.3164 0.732422 47.7539 0.927734Q44.4336 1.31836 41.1133 0.927734Q39.5996 0.78125 38.7451 1.44043Q37.8906 2.09961 37.7441 3.125Q37.5977 4.24805 38.3057 5.15137Q39.0137 6.05469 40.625 6.25Z"/>
  </g>
  <g id="Ultralight-S" transform="matrix(1 0 0 1 518.584 696)">
   <path class="multicolor-0:white SFSymbolsPreviewFFFFFF" d="M40.2512-43.6356Q50.3586-43.6356 58.3191-45.1763Q66.2796-46.7171 70.8488-49.4648Q75.4181-52.2125 75.4181-55.8632Q75.4181-58.9485 72.3667-61.2305Q69.3153-63.5124 63.8351-64.7976Q58.3549-66.0828 51.0941-66.0828Q43.4822-66.0828 36.8542-64.6145Q30.2261-63.1462 24.9245-60.7956Q24.3156-60.5171 24.0856-60.0372Q23.8556-59.5573 24.1203-59.1187Q24.3462-58.712 24.8539-58.6426Q25.3616-58.5732 25.9499-58.8379Q30.5397-60.833 36.7172-62.4184Q42.8947-64.0038 51.0635-64.0038Q57.7324-64.0038 62.7434-62.9658Q67.7544-61.9278 70.5296-60.1067Q73.3047-58.2855 73.3047-55.867Q73.3047-53.7727 70.8015-51.9516Q68.2983-50.1305 63.7775-48.7316Q59.2567-47.3328 53.2467-46.5321Q47.2366-45.7314 40.2267-45.7314Q25.2884-45.7314 17.1188-48.9182Q8.94928-52.1049 8.94928-58.1505Q8.94928-62.1735 13.0314-65.8871Q17.1135-69.6007 25.0122-72.0169Q25.4433-72.1458 25.692-72.4773Q25.9407-72.8088 25.8186-73.2681Q25.5234-74.2386 24.3591-73.8869Q16.0362-71.4081 11.4361-67.1436Q6.83594-62.8792 6.83594-58.1367Q6.83594-51.1917 15.4026-47.4136Q23.9693-43.6356 40.2512-43.6356ZM41.51-31.9778Q50.3128-31.9778 58.139-33.2558Q65.9653-34.5337 71.6011-37.1536Q72.1405-37.3688 72.3354-37.767Q72.5304-38.1653 72.3534-38.562Q72.1268-39.0007 71.6866-39.0633Q71.2463-39.1258 70.6902-38.9061Q64.875-36.4082 57.2994-35.207Q49.7238-34.0057 41.51-34.0057Q37.1399-34.0057 32.4795-34.3929Q27.8191-34.7801 23.5275-35.4862Q19.236-36.1923 15.976-37.1338Q15.419-37.3009 15.0017-37.1567Q14.5844-37.0125 14.4691-36.5631Q14.3089-36.1145 14.5542-35.746Q14.7995-35.3775 15.3145-35.2562Q20.6879-33.596 27.8538-32.7869Q35.0197-31.9778 41.51-31.9778ZM44.455-20.33Q52.285-20.3331 59.2064-21.5893Q66.1278-22.8455 71.9475-24.7734Q72.4335-24.9504 72.641-25.3506Q72.8485-25.7507 72.6845-26.1856Q72.5174-26.6273 72.0966-26.7422Q71.6759-26.857 71.1052-26.683Q65.5159-24.6742 58.6704-23.4932Q51.825-22.3122 44.455-22.3122Q41.3048-22.3122 38.2229-22.485Q35.141-22.6578 32.5706-23.0446Q32.0526-23.1491 31.6906-22.9492Q31.3286-22.7493 31.2698-22.3495Q31.1653-21.904 31.414-21.5633Q31.6628-21.2227 32.2815-21.1113Q34.6115-20.7664 37.8174-20.5467Q41.0233-20.327 44.455-20.33ZM40.7639-9.27887Q44.0979-8.84247 47.9309-8.77113Q51.7639-8.6998 55.6248-9.16023Q59.4856-9.62067 62.8723-10.733Q63.3415-10.8513 63.5605-11.2705Q63.7794-11.6898 63.62-12.0865Q63.456-12.5351 63.0402-12.6568Q62.6244-12.7785 62.0613-12.6144Q57.2861-11.261 51.6632-10.8494Q46.0403-10.4378 41.1018-11.2091Q40.538-11.2648 40.173-11.0825Q39.8079-10.9001 39.7522-10.5003Q39.6507-10.051 39.9014-9.69276Q40.152-9.33456 40.7639-9.27887ZM38.1729 2.16293Q39.5775 2.45285 41.9621 2.38457Q44.3466 2.31628 46.0243 2.07214Q46.5385 2.0134 46.7682 1.68114Q46.9978 1.34888 46.9452 0.900269Q46.8933 0.510406 46.5157 0.258255Q46.138 0.00610352 45.4834 0.15564Q41.9815 0.773621 38.4796 0.246429Q37.9196 0.145721 37.5645 0.350571Q37.2093 0.55542 37.1536 0.945282Q37.0529 1.38702 37.3066 1.72272Q37.5603 2.05841 38.1729 2.16293Z"/>
  </g>
 </g>
</svg>
