<?xml version="1.0" encoding="UTF-8"?>
<!--Generator: Apple Native CoreSVG 175-->
<!DOCTYPE svg
PUBLIC "-//W3C//DTD SVG 1.1//EN"
       "http://www.w3.org/Graphics/SVG/1.1/DTD/svg11.dtd">
<svg version="1.1" xmlns="http://www.w3.org/2000/svg" xmlns:xlink="http://www.w3.org/1999/xlink" width="3300" height="2200">
 <!--glyph: "uni100EDE.medium", point size: 100.0, font version: "17.3d3e1", template writer version: "65.1"-->
 <style>.hierarchical-0:secondary {fill:#4D4D4D}
.hierarchical-1:primary {fill:#212121;-sfsymbols-clear-behind:true}

.SFSymbolsPreview212121 {fill:#212121;opacity:1.0}
.SFSymbolsPreview4D4D4D {fill:#4D4D4D;opacity:1.0}
</style>
 <g id="Notes">
  <rect height="2200" id="artboard" style="fill:white;opacity:1" width="3300" x="0" y="0"/>
  <line style="fill:none;stroke:black;opacity:1;stroke-width:0.5;" x1="263" x2="3036" y1="292" y2="292"/>
  <text style="stroke:none;fill:black;font-family:sans-serif;font-size:13;font-weight:bold;" transform="matrix(1 0 0 1 263 322)">Weight/Scale Variations</text>
  <text style="stroke:none;fill:black;font-family:sans-serif;font-size:13;text-anchor:middle;" transform="matrix(1 0 0 1 559.711 322)">Ultralight</text>
  <text style="stroke:none;fill:black;font-family:sans-serif;font-size:13;text-anchor:middle;" transform="matrix(1 0 0 1 856.422 322)">Thin</text>
  <text style="stroke:none;fill:black;font-family:sans-serif;font-size:13;text-anchor:middle;" transform="matrix(1 0 0 1 1153.13 322)">Light</text>
  <text style="stroke:none;fill:black;font-family:sans-serif;font-size:13;text-anchor:middle;" transform="matrix(1 0 0 1 1449.84 322)">Regular</text>
  <text style="stroke:none;fill:black;font-family:sans-serif;font-size:13;text-anchor:middle;" transform="matrix(1 0 0 1 1746.56 322)">Medium</text>
  <text style="stroke:none;fill:black;font-family:sans-serif;font-size:13;text-anchor:middle;" transform="matrix(1 0 0 1 2043.27 322)">Semibold</text>
  <text style="stroke:none;fill:black;font-family:sans-serif;font-size:13;text-anchor:middle;" transform="matrix(1 0 0 1 2339.98 322)">Bold</text>
  <text style="stroke:none;fill:black;font-family:sans-serif;font-size:13;text-anchor:middle;" transform="matrix(1 0 0 1 2636.69 322)">Heavy</text>
  <text style="stroke:none;fill:black;font-family:sans-serif;font-size:13;text-anchor:middle;" transform="matrix(1 0 0 1 2933.4 322)">Black</text>
  <line style="fill:none;stroke:black;opacity:1;stroke-width:0.5;" x1="263" x2="3036" y1="1903" y2="1903"/>
  <g transform="matrix(1 0 0 1 263 1933)">
   <path d="M9.24805 0.830078Q10.8691 0.830078 12.2949 0.214844Q13.7207-0.400391 14.8096-1.49414Q15.8984-2.58789 16.5186-4.01367Q17.1387-5.43945 17.1387-7.05078Q17.1387-8.66211 16.5186-10.0879Q15.8984-11.5137 14.8047-12.6074Q13.7109-13.7012 12.2852-14.3164Q10.8594-14.9316 9.23828-14.9316Q7.62695-14.9316 6.20117-14.3164Q4.77539-13.7012 3.69141-12.6074Q2.60742-11.5137 1.9873-10.0879Q1.36719-8.66211 1.36719-7.05078Q1.36719-5.43945 1.9873-4.01367Q2.60742-2.58789 3.69629-1.49414Q4.78516-0.400391 6.21094 0.214844Q7.63672 0.830078 9.24805 0.830078ZM9.24805-0.654297Q7.91992-0.654297 6.7627-1.14746Q5.60547-1.64062 4.73145-2.51953Q3.85742-3.39844 3.36426-4.56055Q2.87109-5.72266 2.87109-7.05078Q2.87109-8.37891 3.35938-9.54102Q3.84766-10.7031 4.72168-11.582Q5.5957-12.4609 6.75293-12.9541Q7.91016-13.4473 9.23828-13.4473Q10.5762-13.4473 11.7334-12.9541Q12.8906-12.4609 13.7695-11.582Q14.6484-10.7031 15.1465-9.54102Q15.6445-8.37891 15.6445-7.05078Q15.6445-5.72266 15.1514-4.56055Q14.6582-3.39844 13.7842-2.51953Q12.9102-1.64062 11.748-1.14746Q10.5859-0.654297 9.24805-0.654297ZM5.6543-7.05078Q5.6543-6.72852 5.85938-6.52832Q6.06445-6.32812 6.40625-6.32812L8.51562-6.32812L8.51562-4.20898Q8.51562-3.88672 8.71094-3.67676Q8.90625-3.4668 9.23828-3.4668Q9.56055-3.4668 9.77051-3.67676Q9.98047-3.88672 9.98047-4.20898L9.98047-6.32812L12.0898-6.32812Q12.4219-6.32812 12.627-6.52832Q12.832-6.72852 12.832-7.05078Q12.832-7.38281 12.627-7.58789Q12.4219-7.79297 12.0898-7.79297L9.98047-7.79297L9.98047-9.90234Q9.98047-10.2344 9.77051-10.4443Q9.56055-10.6543 9.23828-10.6543Q8.90625-10.6543 8.71094-10.4443Q8.51562-10.2344 8.51562-9.90234L8.51562-7.79297L6.40625-7.79297Q6.06445-7.79297 5.85938-7.58789Q5.6543-7.38281 5.6543-7.05078Z"/>
  </g>
  <g transform="matrix(1 0 0 1 281.867 1933)">
   <path d="M11.709 2.91016Q13.75 2.91016 15.5518 2.12891Q17.3535 1.34766 18.7305-0.0292969Q20.1074-1.40625 20.8887-3.20801Q21.6699-5.00977 21.6699-7.05078Q21.6699-9.0918 20.8887-10.8936Q20.1074-12.6953 18.7305-14.0723Q17.3535-15.4492 15.5469-16.2305Q13.7402-17.0117 11.6992-17.0117Q9.6582-17.0117 7.85645-16.2305Q6.05469-15.4492 4.68262-14.0723Q3.31055-12.6953 2.5293-10.8936Q1.74805-9.0918 1.74805-7.05078Q1.74805-5.00977 2.5293-3.20801Q3.31055-1.40625 4.6875-0.0292969Q6.06445 1.34766 7.86621 2.12891Q9.66797 2.91016 11.709 2.91016ZM11.709 1.25Q9.98047 1.25 8.47656 0.605469Q6.97266-0.0390625 5.83496-1.17676Q4.69727-2.31445 4.05762-3.81836Q3.41797-5.32227 3.41797-7.05078Q3.41797-8.7793 4.05762-10.2832Q4.69727-11.7871 5.83008-12.9297Q6.96289-14.0723 8.4668-14.7119Q9.9707-15.3516 11.6992-15.3516Q13.4277-15.3516 14.9316-14.7119Q16.4355-14.0723 17.5781-12.9297Q18.7207-11.7871 19.3652-10.2832Q20.0098-8.7793 20.0098-7.05078Q20.0098-5.32227 19.3701-3.81836Q18.7305-2.31445 17.5928-1.17676Q16.4551-0.0390625 14.9463 0.605469Q13.4375 1.25 11.709 1.25ZM7.17773-7.05078Q7.17773-6.69922 7.41211-6.47461Q7.64648-6.25 8.01758-6.25L10.8887-6.25L10.8887-3.36914Q10.8887-2.99805 11.1133-2.76855Q11.3379-2.53906 11.6895-2.53906Q12.0605-2.53906 12.29-2.76855Q12.5195-2.99805 12.5195-3.36914L12.5195-6.25L15.4004-6.25Q15.7715-6.25 16.001-6.47461Q16.2305-6.69922 16.2305-7.05078Q16.2305-7.42188 16.001-7.65137Q15.7715-7.88086 15.4004-7.88086L12.5195-7.88086L12.5195-10.752Q12.5195-11.1328 12.29-11.3623Q12.0605-11.5918 11.6895-11.5918Q11.3379-11.5918 11.1133-11.3574Q10.8887-11.123 10.8887-10.752L10.8887-7.88086L8.01758-7.88086Q7.63672-7.88086 7.40723-7.65137Q7.17773-7.42188 7.17773-7.05078Z"/>
  </g>
  <g transform="matrix(1 0 0 1 305.646 1933)">
   <path d="M14.9707 5.66406Q17.0605 5.66406 18.96 5.01465Q20.8594 4.36523 22.4512 3.19336Q24.043 2.02148 25.2197 0.429688Q26.3965-1.16211 27.0459-3.06641Q27.6953-4.9707 27.6953-7.05078Q27.6953-9.14062 27.0459-11.04Q26.3965-12.9395 25.2197-14.5312Q24.043-16.123 22.4512-17.2998Q20.8594-18.4766 18.9551-19.126Q17.0508-19.7754 14.9609-19.7754Q12.8711-19.7754 10.9717-19.126Q9.07227-18.4766 7.48535-17.2998Q5.89844-16.123 4.72168-14.5312Q3.54492-12.9395 2.90039-11.04Q2.25586-9.14062 2.25586-7.05078Q2.25586-4.9707 2.90527-3.06641Q3.55469-1.16211 4.72656 0.429688Q5.89844 2.02148 7.49023 3.19336Q9.08203 4.36523 10.9814 5.01465Q12.8809 5.66406 14.9707 5.66406ZM14.9707 3.84766Q13.1641 3.84766 11.5283 3.2959Q9.89258 2.74414 8.53516 1.74805Q7.17773 0.751953 6.17676-0.610352Q5.17578-1.97266 4.62891-3.6084Q4.08203-5.24414 4.08203-7.05078Q4.08203-8.86719 4.62891-10.5029Q5.17578-12.1387 6.17188-13.501Q7.16797-14.8633 8.52539-15.8594Q9.88281-16.8555 11.5186-17.4023Q13.1543-17.9492 14.9609-17.9492Q16.7773-17.9492 18.4131-17.4023Q20.0488-16.8555 21.4111-15.8594Q22.7734-14.8633 23.7695-13.501Q24.7656-12.1387 25.3174-10.5029Q25.8691-8.86719 25.8691-7.05078Q25.8789-5.24414 25.332-3.6084Q24.7852-1.97266 23.7842-0.610352Q22.7832 0.751953 21.4209 1.74805Q20.0586 2.74414 18.4229 3.2959Q16.7871 3.84766 14.9707 3.84766ZM9.19922-7.05078Q9.19922-6.66992 9.45801-6.4209Q9.7168-6.17188 10.1172-6.17188L14.0625-6.17188L14.0625-2.2168Q14.0625-1.81641 14.3115-1.55762Q14.5605-1.29883 14.9512-1.29883Q15.3516-1.29883 15.6104-1.55273Q15.8691-1.80664 15.8691-2.2168L15.8691-6.17188L19.8242-6.17188Q20.2246-6.17188 20.4785-6.4209Q20.7324-6.66992 20.7324-7.05078Q20.7324-7.46094 20.4785-7.71484Q20.2246-7.96875 19.8242-7.96875L15.8691-7.96875L15.8691-11.9141Q15.8691-12.3242 15.6104-12.583Q15.3516-12.8418 14.9512-12.8418Q14.5605-12.8418 14.3115-12.583Q14.0625-12.3242 14.0625-11.9141L14.0625-7.96875L10.1172-7.96875Q9.70703-7.96875 9.45312-7.71484Q9.19922-7.46094 9.19922-7.05078Z"/>
  </g>
  <text style="stroke:none;fill:black;font-family:sans-serif;font-size:13;font-weight:bold;" transform="matrix(1 0 0 1 263 1953)">Design Variations</text>
  <text style="stroke:none;fill:black;font-family:sans-serif;font-size:13;" transform="matrix(1 0 0 1 263 1971)">Symbols are supported in up to nine weights and three scales.</text>
  <text style="stroke:none;fill:black;font-family:sans-serif;font-size:13;" transform="matrix(1 0 0 1 263 1989)">For optimal layout with text and other symbols, vertically align</text>
  <text style="stroke:none;fill:black;font-family:sans-serif;font-size:13;" transform="matrix(1 0 0 1 263 2007)">symbols with the adjacent text.</text>
  <line style="fill:none;stroke:#00AEEF;stroke-width:0.5;opacity:1.0;" x1="776" x2="776" y1="1919" y2="1933"/>
  <g transform="matrix(1 0 0 1 776 1933)">
   <path d="M3.31055 0.15625Q3.70117 0.15625 3.91602-0.00976562Q4.13086-0.175781 4.26758-0.585938L5.52734-4.0332L11.2891-4.0332L12.5488-0.585938Q12.6855-0.175781 12.9004-0.00976562Q13.1152 0.15625 13.4961 0.15625Q13.8867 0.15625 14.1162-0.0585938Q14.3457-0.273438 14.3457-0.644531Q14.3457-0.869141 14.2383-1.17188L9.6582-13.3691Q9.48242-13.8184 9.17969-14.043Q8.87695-14.2676 8.4082-14.2676Q7.5-14.2676 7.17773-13.3789L2.59766-1.16211Q2.49023-0.859375 2.49023-0.634766Q2.49023-0.263672 2.70996-0.0537109Q2.92969 0.15625 3.31055 0.15625ZM6.00586-5.51758L8.37891-12.0898L8.42773-12.0898L10.8008-5.51758Z"/>
  </g>
  <line style="fill:none;stroke:#00AEEF;stroke-width:0.5;opacity:1.0;" x1="793.197" x2="793.197" y1="1919" y2="1933"/>
  <text style="stroke:none;fill:black;font-family:sans-serif;font-size:13;font-weight:bold;" transform="matrix(1 0 0 1 776 1953)">Margins</text>
  <text style="stroke:none;fill:black;font-family:sans-serif;font-size:13;" transform="matrix(1 0 0 1 776 1971)">Leading and trailing margins on the left and right side of each symbol</text>
  <text style="stroke:none;fill:black;font-family:sans-serif;font-size:13;" transform="matrix(1 0 0 1 776 1989)">can be adjusted by modifying the x-location of the margin guidelines.</text>
  <text style="stroke:none;fill:black;font-family:sans-serif;font-size:13;" transform="matrix(1 0 0 1 776 2007)">Modifications are automatically applied proportionally to all</text>
  <text style="stroke:none;fill:black;font-family:sans-serif;font-size:13;" transform="matrix(1 0 0 1 776 2025)">scales and weights.</text>
  <g transform="matrix(1 0 0 1 1289 1933)">
   <path d="M2.8418 1.86523L4.54102 3.57422Q5.18555 4.22852 5.90332 4.17969Q6.62109 4.13086 7.31445 3.35938L18.0078-8.42773L17.041-9.4043L6.42578 2.27539Q6.16211 2.57812 5.89355 2.61719Q5.625 2.65625 5.27344 2.30469L4.10156 1.14258Q3.75 0.791016 3.79395 0.522461Q3.83789 0.253906 4.14062-0.0195312L15.6152-10.8203L14.6387-11.7871L3.04688-0.898438Q2.30469-0.214844 2.25098 0.498047Q2.19727 1.21094 2.8418 1.86523ZM9.25781-16.3281Q8.94531-16.0254 8.90625-15.6348Q8.86719-15.2441 9.04297-14.9512Q9.21875-14.6777 9.55566-14.541Q9.89258-14.4043 10.3809-14.5215Q11.4746-14.7754 12.5977-14.7314Q13.7207-14.6875 14.7949-13.9844L14.209-12.5293Q13.9551-11.9043 14.0674-11.4404Q14.1797-10.9766 14.5801-10.5664L16.875-8.25195Q17.2363-7.88086 17.5781-7.82227Q17.9199-7.76367 18.3398-7.8418L19.4043-8.03711L20.0684-7.36328L20.0293-6.80664Q20-6.43555 20.1221-6.12305Q20.2441-5.81055 20.6055-5.44922L21.3672-4.70703Q21.7285-4.3457 22.1533-4.33105Q22.5781-4.31641 22.9297-4.66797L25.8398-7.58789Q26.1914-7.93945 26.1816-8.35449Q26.1719-8.76953 25.8105-9.13086L25.0391-9.89258Q24.6875-10.2539 24.3799-10.3857Q24.0723-10.5176 23.7109-10.4883L23.1348-10.4395L22.4902-11.0742L22.7344-12.1973Q22.832-12.6172 22.6953-12.9834Q22.5586-13.3496 22.1191-13.7891L19.9219-15.9766Q18.6719-17.2168 17.2607-17.8369Q15.8496-18.457 14.4189-18.4814Q12.9883-18.5059 11.665-17.959Q10.3418-17.4121 9.25781-16.3281ZM10.752-15.957Q11.6602-16.6211 12.7002-16.9043Q13.7402-17.1875 14.8047-17.085Q15.8691-16.9824 16.8701-16.5137Q17.8711-16.0449 18.7012-15.2051L21.1328-12.793Q21.3086-12.6172 21.3525-12.4512Q21.3965-12.2852 21.3379-12.0312L21.0156-10.5469L22.5195-9.0625L23.5059-9.12109Q23.6914-9.13086 23.7891-9.09668Q23.8867-9.0625 24.0332-8.91602L24.6094-8.33984L22.168-5.89844L21.5918-6.47461Q21.4453-6.62109 21.4062-6.71875Q21.3672-6.81641 21.377-7.01172L21.4453-7.98828L19.9512-9.47266L18.4277-9.21875Q18.1836-9.16992 18.042-9.2041Q17.9004-9.23828 17.7148-9.41406L15.7129-11.416Q15.5176-11.5918 15.4932-11.7529Q15.4688-11.9141 15.5859-12.1875L16.4648-14.2773Q15.293-15.3711 13.8281-15.791Q12.3633-16.2109 10.8398-15.7617Q10.7227-15.7324 10.6885-15.8057Q10.6543-15.8789 10.752-15.957Z"/>
  </g>
  <text style="stroke:none;fill:black;font-family:sans-serif;font-size:13;font-weight:bold;" transform="matrix(1 0 0 1 1289 1953)">Exporting</text>
  <text style="stroke:none;fill:black;font-family:sans-serif;font-size:13;" transform="matrix(1 0 0 1 1289 1971)">Symbols should be outlined when exporting to ensure the</text>
  <text style="stroke:none;fill:black;font-family:sans-serif;font-size:13;" transform="matrix(1 0 0 1 1289 1989)">design is preserved when submitting to Xcode.</text>
  <text id="template-version" style="stroke:none;fill:black;font-family:sans-serif;font-size:13;text-anchor:end;" transform="matrix(1 0 0 1 3036 1933)">Template v.3.0</text>
  <text style="stroke:none;fill:black;font-family:sans-serif;font-size:13;text-anchor:end;" transform="matrix(1 0 0 1 3036 1951)">Requires Xcode 13 or greater</text>
  <text id="descriptive-name" style="stroke:none;fill:black;font-family:sans-serif;font-size:13;text-anchor:end;" transform="matrix(1 0 0 1 3036 1969)">Generated from sun.and.horizon</text>
  <text style="stroke:none;fill:black;font-family:sans-serif;font-size:13;text-anchor:end;" transform="matrix(1 0 0 1 3036 1987)">Typeset at 100 points</text>
  <text style="stroke:none;fill:black;font-family:sans-serif;font-size:13;" transform="matrix(1 0 0 1 263 726)">Small</text>
  <text style="stroke:none;fill:black;font-family:sans-serif;font-size:13;" transform="matrix(1 0 0 1 263 1156)">Medium</text>
  <text style="stroke:none;fill:black;font-family:sans-serif;font-size:13;" transform="matrix(1 0 0 1 263 1586)">Large</text>
 </g>
 <g id="Guides">
  <g id="H-reference" style="fill:#27AAE1;stroke:none;" transform="matrix(1 0 0 1 339 696)">
   <path d="M0.993347 0L3.6377 0L29.3282-67.1326L30.0301-67.1326L30.0301-70.459L28.1227-70.459ZM11.6882-24.4797L46.9818-24.4797L46.2311-26.7288L12.4382-26.7288ZM55.1193 0L57.7637 0L30.6381-70.459L29.4327-70.459L29.4327-67.1326Z"/>
  </g>
  <line id="Baseline-S" style="fill:none;stroke:#27AAE1;opacity:1;stroke-width:0.5;" x1="263" x2="3036" y1="696" y2="696"/>
  <line id="Capline-S" style="fill:none;stroke:#27AAE1;opacity:1;stroke-width:0.5;" x1="263" x2="3036" y1="625.541" y2="625.541"/>
  <g id="H-reference" style="fill:#27AAE1;stroke:none;" transform="matrix(1 0 0 1 339 1126)">
   <path d="M0.993347 0L3.6377 0L29.3282-67.1326L30.0301-67.1326L30.0301-70.459L28.1227-70.459ZM11.6882-24.4797L46.9818-24.4797L46.2311-26.7288L12.4382-26.7288ZM55.1193 0L57.7637 0L30.6381-70.459L29.4327-70.459L29.4327-67.1326Z"/>
  </g>
  <line id="Baseline-M" style="fill:none;stroke:#27AAE1;opacity:1;stroke-width:0.5;" x1="263" x2="3036" y1="1126" y2="1126"/>
  <line id="Capline-M" style="fill:none;stroke:#27AAE1;opacity:1;stroke-width:0.5;" x1="263" x2="3036" y1="1055.54" y2="1055.54"/>
  <g id="H-reference" style="fill:#27AAE1;stroke:none;" transform="matrix(1 0 0 1 339 1556)">
   <path d="M0.993347 0L3.6377 0L29.3282-67.1326L30.0301-67.1326L30.0301-70.459L28.1227-70.459ZM11.6882-24.4797L46.9818-24.4797L46.2311-26.7288L12.4382-26.7288ZM55.1193 0L57.7637 0L30.6381-70.459L29.4327-70.459L29.4327-67.1326Z"/>
  </g>
  <line id="Baseline-L" style="fill:none;stroke:#27AAE1;opacity:1;stroke-width:0.5;" x1="263" x2="3036" y1="1556" y2="1556"/>
  <line id="Capline-L" style="fill:none;stroke:#27AAE1;opacity:1;stroke-width:0.5;" x1="263" x2="3036" y1="1485.54" y2="1485.54"/>
  <line id="left-margin-Ultralight-S" style="fill:none;stroke:#00AEEF;stroke-width:0.5;opacity:1.0;" x1="500.922" x2="500.922" y1="600.785" y2="720.121"/>
  <line id="right-margin-Ultralight-S" style="fill:none;stroke:#00AEEF;stroke-width:0.5;opacity:1.0;" x1="618.5" x2="618.5" y1="600.785" y2="720.121"/>
  <line id="left-margin-Regular-S" style="fill:none;stroke:#00AEEF;stroke-width:0.5;opacity:1.0;" x1="1391.06" x2="1391.06" y1="600.785" y2="720.121"/>
  <line id="right-margin-Regular-S" style="fill:none;stroke:#00AEEF;stroke-width:0.5;opacity:1.0;" x1="1508.63" x2="1508.63" y1="600.785" y2="720.121"/>
  <line id="left-margin-Black-S" style="fill:none;stroke:#00AEEF;stroke-width:0.5;opacity:1.0;" x1="2874.61" x2="2874.61" y1="600.785" y2="720.121"/>
  <line id="right-margin-Black-S" style="fill:none;stroke:#00AEEF;stroke-width:0.5;opacity:1.0;" x1="2992.19" x2="2992.19" y1="600.785" y2="720.121"/>
 </g>
 <g id="Symbols">
  <g id="Black-S" transform="matrix(1 0 0 1 2874.61 696)">
   <path class="hierarchical-0:secondary SFSymbolsPreview4D4D4D" d="M41.1621-18.6035L55.0781-18.6035Q52.5391-19.7266 50.5371-22.7051Q48.5352-25.6836 48.5352-29.3945Q48.5352-32.373 49.9268-34.7412Q51.3184-37.1094 53.6621-38.4766Q56.0059-39.8438 58.7891-39.8438Q61.6211-39.8438 63.9404-38.4766Q66.2598-37.1094 67.6514-34.7412Q69.043-32.373 69.043-29.3945Q69.043-25.6836 67.041-22.7051Q65.0391-19.7266 62.5-18.6035L76.416-18.6035Q78.2715-20.9473 79.0771-23.7549Q79.8828-26.5625 79.8828-29.4434Q79.8828-35.4004 77.0508-40.2344Q74.2188-45.0684 69.4336-47.9004Q64.6484-50.7324 58.7891-50.7324Q52.9785-50.7324 48.1689-47.9004Q43.3594-45.0684 40.5273-40.2344Q37.6953-35.4004 37.6953-29.4434Q37.6953-26.5625 38.501-23.7549Q39.3066-20.9473 41.1621-18.6035ZM38.916-49.3164Q40.332-50.7324 40.3076-52.7588Q40.2832-54.7852 38.8672-56.1523L34.4238-60.5469Q33.0078-61.9629 31.0059-62.0117Q29.0039-62.0605 27.5879-60.6445Q26.2207-59.2773 26.2207-57.2266Q26.2207-55.1758 27.6367-53.7598L32.0801-49.4141Q33.4961-48.0469 35.5225-47.998Q37.5488-47.9492 38.916-49.3164ZM19.5312-28.5645L25.7812-28.5645Q27.7832-28.5645 29.2236-29.9805Q30.6641-31.3965 30.6641-33.3496Q30.6641-35.3516 29.2236-36.7432Q27.7832-38.1348 25.7812-38.1348L19.5312-38.1348Q17.5781-38.1348 16.1133-36.7432Q14.6484-35.3516 14.6484-33.3496Q14.6484-31.3965 16.1133-29.9805Q17.5781-28.5645 19.5312-28.5645ZM91.7969-28.5645L98.0469-28.5645Q100.049-28.5645 101.489-29.9805Q102.93-31.3965 102.93-33.3496Q102.93-35.3516 101.489-36.7432Q100.049-38.1348 98.0469-38.1348L91.7969-38.1348Q89.8438-38.1348 88.3789-36.7432Q86.9141-35.3516 86.9141-33.3496Q86.9141-31.3965 88.3789-29.9805Q89.8438-28.5645 91.7969-28.5645ZM78.6621-49.3164Q80.0781-47.9492 82.1045-47.998Q84.1309-48.0469 85.498-49.4141L89.9414-53.7598Q91.3574-55.1758 91.3818-57.2266Q91.4062-59.2773 89.9902-60.6445Q88.623-62.0605 86.5967-62.0117Q84.5703-61.9629 83.1543-60.5469L78.7109-56.1523Q77.3438-54.7852 77.3193-52.7588Q77.2949-50.7324 78.6621-49.3164ZM58.7891-57.5684Q60.791-57.5684 62.1826-59.0332Q63.5742-60.498 63.5742-62.4512L63.5742-68.7012Q63.5742-70.7031 62.1826-72.1436Q60.791-73.584 58.7891-73.584Q56.8359-73.584 55.4199-72.1436Q54.0039-70.7031 54.0039-68.7012L54.0039-62.4512Q54.0039-60.498 55.4199-59.0332Q56.8359-57.5684 58.7891-57.5684Z"/>
   <path class="hierarchical-1:primary SFSymbolsPreview212121" d="M15.8691-7.32422L101.709-7.32422Q104.297-7.32422 106.055-9.25293Q107.812-11.1816 107.812-13.6719Q107.812-16.2598 106.055-18.1396Q104.297-20.0195 101.709-20.0195L15.8691-20.0195Q13.3301-20.0195 11.5479-18.1152Q9.76562-16.2109 9.76562-13.6719Q9.76562-11.2793 11.5479-9.30176Q13.3301-7.32422 15.8691-7.32422Z"/>
  </g>
  <g id="Regular-S" transform="matrix(1 0 0 1 1391.06 696)">
   <path class="hierarchical-0:secondary SFSymbolsPreview4D4D4D" d="M42.334-16.8945L53.8574-16.8945Q49.8535-18.3594 47.2656-21.9482Q44.6777-25.5371 44.6777-30.0293Q44.6777-33.9355 46.582-37.1338Q48.4863-40.332 51.709-42.2607Q54.9316-44.1895 58.7891-44.1895Q62.6465-44.1895 65.8691-42.2607Q69.0918-40.332 70.9961-37.1338Q72.9004-33.9355 72.9004-30.0293Q72.9004-25.5371 70.3125-21.9482Q67.7246-18.3594 63.7207-16.8945L75.2441-16.8945Q77.4902-19.5801 78.7109-22.9492Q79.9316-26.3184 79.9316-30.0293Q79.9316-35.8398 77.0508-40.6494Q74.1699-45.459 69.3604-48.3643Q64.5508-51.2695 58.7891-51.2695Q53.0273-51.2695 48.2178-48.3643Q43.4082-45.459 40.5273-40.6494Q37.6465-35.8398 37.6465-30.0293Q37.6465-26.3184 38.8672-22.9492Q40.0879-19.5801 42.334-16.8945ZM39.0625-49.7559Q40.0879-50.8301 40.0391-52.3682Q39.9902-53.9062 38.7695-55.127L32.8613-61.0352Q31.6406-62.2559 30.1514-62.2559Q28.6621-62.2559 27.5879-61.2305Q26.5137-60.2539 26.5381-58.7158Q26.5625-57.1777 27.832-55.957L33.7402-50.0488Q34.9609-48.8281 36.499-48.7793Q38.0371-48.7305 39.0625-49.7559ZM18.6035-27.4414L26.9531-27.4414Q28.6621-27.4414 29.8096-28.4912Q30.957-29.541 30.9082-31.0059Q30.8594-32.5195 29.7607-33.5449Q28.6621-34.5703 26.9531-34.5703L18.6035-34.5703Q16.8457-34.5703 15.7471-33.5449Q14.6484-32.5195 14.6484-31.0059Q14.6484-29.541 15.7471-28.4912Q16.8457-27.4414 18.6035-27.4414ZM90.625-27.4414L98.9746-27.4414Q100.732-27.4414 101.831-28.4912Q102.93-29.541 102.93-31.0059Q102.93-32.5195 101.831-33.5449Q100.732-34.5703 98.9746-34.5703L90.625-34.5703Q88.916-34.5703 87.7686-33.5449Q86.6211-32.5195 86.6699-31.0059Q86.7188-29.541 87.8174-28.4912Q88.916-27.4414 90.625-27.4414ZM78.5156-49.7559Q79.5898-48.7793 81.1035-48.8037Q82.6172-48.8281 83.8379-50.0488L89.7461-55.957Q90.9668-57.1777 90.9912-58.6914Q91.0156-60.2051 89.9902-61.2305Q88.9648-62.3047 87.4512-62.2803Q85.9375-62.2559 84.7168-61.0352L78.8086-55.127Q77.5879-53.9062 77.5146-52.3438Q77.4414-50.7812 78.5156-49.7559ZM58.7891-57.9102Q60.2539-57.959 61.3037-59.082Q62.3535-60.2051 62.3535-61.9141L62.3535-70.2637Q62.3535-71.9727 61.3037-73.0713Q60.2539-74.1699 58.7891-74.1699Q57.3242-74.1699 56.2744-73.0713Q55.2246-71.9727 55.2246-70.2637L55.2246-61.9141Q55.2246-60.2051 56.2744-59.0576Q57.3242-57.9102 58.7891-57.9102Z"/>
   <path class="hierarchical-1:primary SFSymbolsPreview212121" d="M13.5742-11.1816L104.004-11.1816Q105.566-11.1816 106.689-12.2314Q107.812-13.2812 107.812-14.6973Q107.812-16.1621 106.689-17.1875Q105.566-18.2129 104.004-18.2129L13.5742-18.2129Q12.0117-18.2129 10.8887-17.1875Q9.76562-16.1621 9.76562-14.6973Q9.76562-13.2812 10.8887-12.2314Q12.0117-11.1816 13.5742-11.1816Z"/>
  </g>
  <g id="Ultralight-S" transform="matrix(1 0 0 1 500.922 696)">
   <path class="hierarchical-0:secondary SFSymbolsPreview4D4D4D" d="M45.2858-15.078L48.7259-15.078Q45.2675-17.4515 43.1789-21.2673Q41.0904-25.0832 41.0904-29.5753Q41.0904-34.4353 43.494-38.4506Q45.8977-42.466 49.9153-44.849Q53.933-47.2321 58.7891-47.2321Q63.6452-47.2321 67.6628-44.849Q71.6805-42.466 74.0841-38.4506Q76.4877-34.4353 76.4877-29.5753Q76.4877-25.0832 74.3992-21.2673Q72.3106-17.4515 68.8522-15.078L72.2923-15.078Q75.2197-17.8093 76.9173-21.5416Q78.6148-25.2739 78.6148-29.5753Q78.6148-35.0227 75.9384-39.537Q73.262-44.0514 68.7473-46.7297Q64.2326-49.408 58.7891-49.408Q53.3455-49.408 48.8308-46.7297Q44.3161-44.0514 41.6397-39.537Q38.9633-35.0227 38.9633-29.5753Q38.9633-25.2739 40.6609-21.5416Q42.3584-17.8093 45.2858-15.078ZM39.0625-49.3019Q39.3616-49.604 39.3581-50.0523Q39.3547-50.5005 39.0877-50.7675L29.0466-60.8078Q28.7346-61.1206 28.2898-61.0977Q27.845-61.0748 27.5879-60.7765Q27.24-60.4813 27.219-60.033Q27.198-59.5848 27.5597-59.317L37.5999-49.2767Q37.867-49.0097 38.3152-49.0063Q38.7634-49.0028 39.0625-49.3019ZM15.6975-29.4846L29.8592-29.4846Q30.3421-29.4846 30.6267-29.808Q30.9113-30.1315 30.9082-30.5519Q30.9052-30.9753 30.6011-31.2969Q30.2971-31.6185 29.8592-31.6185L15.6975-31.6185Q15.2565-31.6185 14.9525-31.2969Q14.6484-30.9753 14.6484-30.5519Q14.6484-30.1315 14.9525-29.808Q15.2565-29.4846 15.6975-29.4846ZM87.719-29.4846L101.881-29.4846Q102.322-29.4846 102.626-29.808Q102.93-30.1315 102.93-30.5519Q102.93-30.9753 102.626-31.2969Q102.322-31.6185 101.881-31.6185L87.719-31.6185Q87.281-31.6185 86.974-31.2969Q86.6669-30.9753 86.6699-30.5519Q86.673-30.1315 86.977-29.808Q87.281-29.4846 87.719-29.4846ZM78.5156-49.3019Q78.8177-49.0067 79.2645-49.0082Q79.7112-49.0097 79.9782-49.2767L90.0185-59.317Q90.3763-59.5848 90.3553-60.0311Q90.3343-60.4774 89.9902-60.7765Q89.7369-61.0786 89.2902-61.0996Q88.8435-61.1206 88.5315-60.8078L78.4904-50.7675Q78.2234-50.5005 78.2185-50.0504Q78.2135-49.6002 78.5156-49.3019ZM58.7891-57.4562Q59.2094-57.4593 59.5325-57.7652Q59.8557-58.0711 59.8557-58.4633L59.8557-72.6707Q59.8557-73.1079 59.5325-73.4119Q59.2094-73.716 58.7891-73.716Q58.3687-73.716 58.0456-73.4119Q57.7225-73.1079 57.7225-72.6707L57.7225-58.4633Q57.7225-58.0711 58.0456-57.7637Q58.3687-57.4562 58.7891-57.4562Z"/>
   <path class="hierarchical-1:primary SFSymbolsPreview212121" d="M10.9856-13.9061L106.593-13.9061Q107.111-13.9061 107.462-14.2067Q107.812-14.5073 107.812-14.9696Q107.812-15.4358 107.462-15.7345Q107.111-16.0332 106.593-16.0332L10.9856-16.0332Q10.4675-16.0332 10.1166-15.7345Q9.76562-15.4358 9.76562-14.9696Q9.76562-14.5073 10.1166-14.2067Q10.4675-13.9061 10.9856-13.9061Z"/>
  </g>
 </g>
</svg>
