<svg width="112" height="78" viewBox="0 0 112 78" fill="none" xmlns="http://www.w3.org/2000/svg">
<path d="M16.2598 77.3926H57.5196C61.1979 77.3926 64.5101 76.5462 67.4561 74.8535C70.402 73.1608 72.7376 70.8659 74.4629 67.9687C76.1881 65.0716 77.0508 61.8164 77.0508 58.2031C77.0508 54.6224 76.1719 51.4078 74.4141 48.5595C72.6563 45.7112 70.2474 43.457 67.1875 41.7968C64.1276 40.1367 60.6608 39.2903 56.7871 39.2578C55.3223 36.4909 53.4913 34.1064 51.294 32.1045C49.0967 30.1025 46.6146 28.5644 43.8477 27.4902C41.0807 26.416 38.151 25.8789 35.0586 25.8789C30.8594 25.8789 26.9694 26.8636 23.3887 28.833C19.8079 30.8024 16.8701 33.4635 14.5752 36.8164C12.2802 40.1693 10.9375 43.9453 10.5469 48.1445C7.32422 49.1536 4.76074 50.9521 2.85645 53.54C0.95215 56.1279 0 59.1308 0 62.5488C0 66.9433 1.4974 70.5159 4.49219 73.2666C7.48698 76.0172 11.4095 77.3926 16.2598 77.3926Z" fill="#808080"/>
<path d="M81.8848 56.25C84.6192 54.2969 86.7595 51.9206 88.3057 49.1211C89.8519 46.3216 90.625 43.2779 90.625 39.9902C90.625 36.442 89.7623 33.2112 88.0371 30.2978C86.3118 27.3844 84.0006 25.0651 81.1035 23.3398C78.2063 21.6145 74.9837 20.7519 71.4356 20.7519C68.0827 20.7519 65.0065 21.5494 62.2071 23.1445C59.4075 24.7396 57.1614 26.8392 55.4688 29.4433C57.1614 31.1035 58.5774 32.9915 59.7168 35.1074C64.0136 35.4655 67.7653 36.556 70.9717 38.3789C74.1781 40.2018 76.7171 42.6351 78.5889 45.6787C80.4606 48.7223 81.5592 52.2461 81.8848 56.25ZM71.4356 14.9414C72.4446 14.9414 73.3073 14.5752 74.0235 13.8427C74.7396 13.1103 75.0977 12.2558 75.0977 11.2793V3.6621C75.0977 2.65297 74.7396 1.79034 74.0235 1.0742C73.3073 0.35807 72.4446 0 71.4356 0C70.4264 0 69.5638 0.35807 68.8477 1.0742C68.1315 1.79034 67.7735 2.65297 67.7735 3.6621V11.2793C67.7735 12.2558 68.1315 13.1103 68.8477 13.8427C69.5638 14.5752 70.4264 14.9414 71.4356 14.9414ZM100.098 43.6523H107.715C108.724 43.6523 109.579 43.2942 110.279 42.5781C110.979 41.862 111.329 40.9993 111.329 39.9902C111.329 38.9811 110.979 38.1184 110.279 37.4023C109.579 36.6862 108.724 36.3281 107.715 36.3281H100.098C99.1209 36.3281 98.2666 36.6862 97.5346 37.4023C96.8019 38.1184 96.4356 38.9811 96.4356 39.9902C96.4356 40.9993 96.8019 41.862 97.5346 42.5781C98.2666 43.2942 99.1209 43.6523 100.098 43.6523ZM89.1114 22.3144C89.7949 22.998 90.6575 23.3479 91.6992 23.3642C92.7408 23.3805 93.6198 23.0305 94.336 22.3144L99.7066 16.8945C100.423 16.1784 100.773 15.3157 100.757 14.3066C100.741 13.2975 100.391 12.4348 99.7066 11.7187C98.9906 11.0351 98.1362 10.6933 97.1436 10.6933C96.1507 10.6933 95.2962 11.0351 94.5801 11.7187L89.1114 17.1875C88.4278 17.9036 88.086 18.7581 88.086 19.7509C88.086 20.7438 88.4278 21.5983 89.1114 22.3144ZM48.584 22.3144C49.3001 23.0305 50.1709 23.3805 51.1963 23.3642C52.2217 23.3479 53.0762 22.998 53.7598 22.3144C54.4434 21.5983 54.7933 20.7438 54.8096 19.7509C54.8258 18.7581 54.4759 17.9036 53.7598 17.1875L48.291 11.7187C47.6074 11.0351 46.761 10.6933 45.752 10.6933C44.7428 10.6933 43.8965 11.0351 43.2129 11.7187C42.4967 12.4348 42.1387 13.2975 42.1387 14.3066C42.1387 15.3157 42.4967 16.1784 43.2129 16.8945L48.584 22.3144ZM94.5801 68.2617C95.2962 68.9778 96.1507 69.3278 97.1436 69.3115C98.1362 69.2952 98.9906 68.929 99.7066 68.2129C100.391 67.5293 100.741 66.6829 100.757 65.6738C100.773 64.6647 100.423 63.8183 99.7066 63.1347L94.2383 57.7148C93.5221 57.0312 92.6676 56.6813 91.6748 56.665C90.682 56.6487 89.8275 56.9987 89.1114 57.7148C88.4278 58.3984 88.086 59.2529 88.086 60.2783C88.086 61.3037 88.4278 62.1582 89.1114 62.8418L94.5801 68.2617Z" fill="#FFD60A"/>
</svg>
