<svg width="89" height="91" viewBox="0 0 89 91" fill="none" xmlns="http://www.w3.org/2000/svg">
<path d="M59.9566 37.7294C54.8581 37.7294 50.4446 36.7369 46.716 34.7518C42.9874 32.7666 40.1106 29.9375 38.0855 26.2644C36.0604 22.5913 35.0478 18.199 35.0478 13.0876C35.0478 12.1129 35.1312 10.9955 35.298 9.73544C35.4648 8.4754 35.6852 7.2451 35.9591 6.04452C36.2331 4.84394 36.525 3.87514 36.8347 3.13812C36.9777 2.78152 37.067 2.48435 37.1027 2.2466C37.1385 2.00885 37.1564 1.81867 37.1564 1.67606C37.1564 1.29565 37.0134 0.921206 36.7275 0.552725C36.4416 0.184244 36.0008 0 35.4052 0C35.2385 0 34.9823 0.0237625 34.6369 0.0712833C34.2914 0.118853 33.94 0.213945 33.5827 0.356556C30.0804 1.73549 27.007 3.81574 24.3625 6.59731C21.7179 9.37888 19.6631 12.5943 18.1978 16.2436C16.7326 19.893 16 23.7028 16 27.673C16 31.8572 16.7445 35.6968 18.2336 39.1916C19.7226 42.6864 21.8013 45.6997 24.4697 48.2317C27.1381 50.7636 30.2591 52.725 33.8328 54.1158C37.4065 55.5065 41.2899 56.2019 45.4831 56.2019C49.5809 56.2019 53.3989 55.459 56.9369 53.9731C60.4748 52.4872 63.5244 50.4902 66.0856 47.982C68.6467 45.4739 70.511 42.6863 71.6784 39.6195C71.7975 39.2391 71.8809 38.8825 71.9286 38.5497C71.9762 38.2169 72 37.9791 72 37.8364C72 37.2659 71.8094 36.8201 71.4282 36.4991C71.047 36.1782 70.6539 36.0177 70.2489 36.0177C69.8915 36.0177 69.4389 36.101 68.8909 36.2674C67.795 36.624 66.4548 36.9568 64.8705 37.2659C63.2861 37.5749 61.6481 37.7294 59.9566 37.7294Z" fill="#FFD60A"/>
<path d="M8.44728 61.4257H85.5957C86.3444 61.4257 86.9792 61.1653 87.5 60.6445C88.0209 60.1237 88.2813 59.4727 88.2813 58.6914C88.2813 57.9102 88.0209 57.2591 87.5 56.7383C86.9792 56.2175 86.3444 55.957 85.5957 55.957H8.44728C7.69855 55.957 7.06378 56.2175 6.54298 56.7383C6.02211 57.2591 5.76168 57.9102 5.76168 58.6914C5.76168 59.4727 6.02211 60.1237 6.54298 60.6445C7.06378 61.1653 7.69855 61.4257 8.44728 61.4257ZM2.68558 76.1231H79.834C80.5827 76.1231 81.2175 75.8626 81.7383 75.3418C82.2591 74.821 82.5196 74.1699 82.5196 73.3886C82.5196 72.6074 82.2591 71.9564 81.7383 71.4355C81.2175 70.9147 80.5827 70.6543 79.834 70.6543H2.68558C1.93685 70.6543 1.30208 70.9147 0.78128 71.4355C0.260426 71.9564 0 72.6074 0 73.3886C0 74.1699 0.260426 74.821 0.78128 75.3418C1.30208 75.8626 1.93685 76.1231 2.68558 76.1231ZM8.44728 90.8203H85.5957C86.3444 90.8203 86.9792 90.5599 87.5 90.0391C88.0209 89.5182 88.2813 88.8672 88.2813 88.0859C88.2813 87.3047 88.0209 86.6536 87.5 86.1328C86.9792 85.612 86.3444 85.3516 85.5957 85.3516H8.44728C7.69855 85.3516 7.06378 85.612 6.54298 86.1328C6.02211 86.6536 5.76168 87.3047 5.76168 88.0859C5.76168 88.8672 6.02211 89.5182 6.54298 90.0391C7.06378 90.5599 7.69855 90.8203 8.44728 90.8203Z" fill="#808080"/>
</svg>
