<svg width="88" height="93" viewBox="0 0 88 93" fill="none" xmlns="http://www.w3.org/2000/svg">
<path d="M18.3106 58.4473H65.625C69.8568 58.4473 73.641 57.4707 76.9776 55.5176C80.3142 53.5645 82.9427 50.9522 84.8633 47.6807C86.7839 44.4092 87.7442 40.7877 87.7442 36.8164C87.7442 32.6823 86.7269 29.0039 84.6924 25.7812C82.6579 22.5586 79.891 20.0196 76.3916 18.1641C72.8922 16.3086 68.9616 15.3808 64.5996 15.3808C63.0046 12.2558 60.9701 9.54587 58.4961 7.251C56.0221 4.95607 53.2064 3.17383 50.0489 1.9043C46.8913 0.634764 43.5058 0 39.8926 0C35.0423 0 30.5908 1.13933 26.5381 3.418C22.4853 5.6966 19.165 8.75647 16.5772 12.5976C13.9892 16.4388 12.4837 20.7357 12.0606 25.4883C8.61003 26.4974 5.73729 28.4423 3.44236 31.3232C1.14745 34.2041 0 37.679 0 41.748C0 44.8405 0.716147 47.6481 2.14844 50.1709C3.58072 52.6937 5.66406 54.7038 8.39846 56.2012C11.1328 57.6986 14.4368 58.4473 18.3106 58.4473ZM54.2481 72.0215H45.2149L45.0196 73.8769L49.4629 65.2832C49.6907 64.8926 49.7314 64.5508 49.585 64.2578C49.4385 63.9648 49.1537 63.8183 48.7305 63.8183H39.209C38.3626 63.8183 37.7604 64.2089 37.4024 64.9902L32.2266 76.8066C32.0312 77.2624 32.0231 77.6286 32.2022 77.9053C32.3812 78.182 32.7148 78.3203 33.2032 78.3203H40.6739L41.1621 76.0742L35.0586 90.8691C34.8307 91.455 34.9121 91.8294 35.3028 91.9922C35.6608 92.1224 36.0514 91.9922 36.4746 91.6015L54.7852 73.9746C55.2409 73.5514 55.4037 73.1201 55.2735 72.6806C55.1433 72.2412 54.8015 72.0215 54.2481 72.0215Z" fill="#808080"/>
<path d="M63.5743 77.1973C64.1928 77.5553 64.8438 77.6367 65.5274 77.4414C66.211 77.2461 66.7318 76.8392 67.0899 76.2207L71.8262 68.0664C72.1843 67.4154 72.2738 66.748 72.0948 66.0644C71.9157 65.3809 71.517 64.86 70.8985 64.5019C70.2149 64.1113 69.5476 64.0137 68.8965 64.209C68.2455 64.4043 67.7247 64.8112 67.334 65.4297L62.5489 73.7305C62.1908 74.3164 62.1013 74.943 62.2803 75.6103C62.4594 76.2777 62.8907 76.8066 63.5743 77.1973ZM70.8985 87.8906C71.5495 88.2487 72.2168 88.3301 72.9004 88.1348C73.584 87.9395 74.1048 87.5326 74.4629 86.9141L79.1504 78.7598C79.541 78.1087 79.6469 77.4414 79.4678 76.7578C79.2888 76.0742 78.8738 75.5534 78.2227 75.1953C77.5716 74.8047 76.9125 74.707 76.2452 74.9023C75.5779 75.0976 75.0489 75.5046 74.6582 76.123L69.9219 84.4238C69.5638 85.0097 69.4743 85.6364 69.6534 86.3037C69.8324 86.971 70.2474 87.5 70.8985 87.8906ZM17.334 87.8906C17.9525 88.2487 18.6036 88.3301 19.2871 88.1348C19.9707 87.9395 20.4915 87.5326 20.8496 86.9141L25.586 78.7598C25.9766 78.1087 26.0742 77.4414 25.8789 76.7578C25.6836 76.0742 25.2767 75.5534 24.6582 75.1953C23.9747 74.8047 23.3074 74.707 22.6563 74.9023C22.0052 75.0976 21.4844 75.5046 21.0938 76.123L16.3086 84.4238C15.9831 85.0097 15.9017 85.6364 16.0645 86.3037C16.2272 86.971 16.6504 87.5 17.334 87.8906ZM9.96099 77.1973C10.612 77.5553 11.2793 77.6367 11.9629 77.4414C12.6465 77.2461 13.1673 76.8392 13.5254 76.2207L18.2129 68.0664C18.6036 67.4154 18.7094 66.748 18.5303 66.0644C18.3513 65.3809 17.9363 64.86 17.2852 64.5019C16.6341 64.1113 15.975 64.0137 15.3077 64.209C14.6404 64.4043 14.1277 64.8112 13.7696 65.4297L8.98439 73.7305C8.62632 74.3164 8.53682 74.943 8.71589 75.6103C8.89489 76.2777 9.30992 76.8066 9.96099 77.1973Z" fill="#497DFA"/>
</svg>
