<svg width="89" height="91" viewBox="0 0 89 91" fill="none" xmlns="http://www.w3.org/2000/svg">
<path d="M65.0879 44.0918C65.0879 40.2832 64.1357 36.7838 62.2315 33.5937C60.3271 30.4036 57.7881 27.8564 54.6143 25.9521C51.4404 24.0478 47.9492 23.0957 44.1406 23.0957C40.332 23.0957 36.8408 24.0478 33.667 25.9521C30.4932 27.8564 27.9541 30.4036 26.0498 33.5937C24.1455 36.7838 23.1934 40.2832 23.1934 44.0918C23.1934 45.3287 23.3073 46.5494 23.5352 47.7539C23.763 48.9583 24.0723 50.0976 24.4629 51.1718H63.8184C64.209 50.0976 64.5182 48.9583 64.7461 47.7539C64.974 46.5494 65.0879 45.3287 65.0879 44.0918ZM44.1406 16.2597C45.1172 16.2272 45.9554 15.8447 46.6553 15.1123C47.3551 14.3798 47.7051 13.444 47.7051 12.3047V3.955C47.7051 2.78314 47.3551 1.831 46.6553 1.0986C45.9554 0.366202 45.1172 0 44.1406 0C43.164 0 42.3258 0.366202 41.626 1.0986C40.9261 1.831 40.5762 2.78314 40.5762 3.955V12.3047C40.5762 13.444 40.9261 14.3961 41.626 15.1611C42.3258 15.9261 43.164 16.2923 44.1406 16.2597ZM24.4141 24.414C25.0977 23.7304 25.4232 22.8759 25.3906 21.8506C25.358 20.8252 24.9349 19.9056 24.1211 19.0918L18.2129 13.1836C17.3991 12.3698 16.4958 11.9547 15.503 11.9384C14.5101 11.9221 13.6556 12.2558 12.9395 12.9394C12.2233 13.623 11.8815 14.4694 11.9141 15.4785C11.9466 16.4876 12.3698 17.4154 13.1836 18.2617L19.0918 24.1211C19.9056 24.9674 20.8252 25.4069 21.8506 25.4394C22.876 25.472 23.7305 25.1302 24.4141 24.414ZM75.9766 46.7285H84.3262C85.498 46.7285 86.4502 46.3786 87.1826 45.6787C87.915 44.9788 88.2813 44.1406 88.2813 43.164C88.2813 42.1875 87.915 41.3493 87.1826 40.6494C86.4502 39.9495 85.498 39.5996 84.3262 39.5996H75.9766C74.8373 39.5996 73.8851 39.9495 73.1201 40.6494C72.3551 41.3493 71.989 42.1875 72.0215 43.164C72.054 44.1406 72.4365 44.9788 73.169 45.6787C73.9014 46.3786 74.8373 46.7285 75.9766 46.7285ZM63.8672 24.414C64.5833 25.0976 65.446 25.4313 66.4551 25.415C67.4642 25.3987 68.3757 24.9674 69.1895 24.1211L75.0977 18.2617C75.9115 17.4154 76.3265 16.4958 76.3428 15.5029C76.359 14.51 76.0254 13.6555 75.3418 12.9394C74.6582 12.2558 73.8118 11.9221 72.8028 11.9384C71.7936 11.9547 70.8822 12.3698 70.0684 13.1836L64.1602 19.0918C63.3464 19.9056 62.915 20.8252 62.8662 21.8506C62.8174 22.8759 63.151 23.7304 63.8672 24.414ZM3.95508 46.7285H12.3047C13.444 46.7285 14.3962 46.3786 15.1612 45.6787C15.9261 44.9788 16.2923 44.1406 16.2598 43.164C16.2272 42.1875 15.8447 41.3493 15.1123 40.6494C14.3799 39.9495 13.444 39.5996 12.3047 39.5996H3.95508C2.78321 39.5996 1.83108 39.9495 1.09868 40.6494C0.366226 41.3493 0 42.1875 0 43.164C0 44.1406 0.366226 44.9788 1.09868 45.6787C1.83108 46.3786 2.78321 46.7285 3.95508 46.7285Z" fill="#FFD60A"/>
<path d="M8.44728 61.4257H85.5957C86.3444 61.4257 86.9792 61.1653 87.5 60.6445C88.0209 60.1237 88.2813 59.4727 88.2813 58.6914C88.2813 57.9102 88.0209 57.2591 87.5 56.7383C86.9792 56.2175 86.3444 55.957 85.5957 55.957H8.44728C7.69855 55.957 7.06378 56.2175 6.54298 56.7383C6.02211 57.2591 5.76168 57.9102 5.76168 58.6914C5.76168 59.4727 6.02211 60.1237 6.54298 60.6445C7.06378 61.1653 7.69855 61.4257 8.44728 61.4257ZM2.68558 76.1231H79.834C80.5827 76.1231 81.2175 75.8626 81.7383 75.3418C82.2591 74.821 82.5196 74.1699 82.5196 73.3886C82.5196 72.6074 82.2591 71.9564 81.7383 71.4355C81.2175 70.9147 80.5827 70.6543 79.834 70.6543H2.68558C1.93685 70.6543 1.30208 70.9147 0.78128 71.4355C0.260426 71.9564 0 72.6074 0 73.3886C0 74.1699 0.260426 74.821 0.78128 75.3418C1.30208 75.8626 1.93685 76.1231 2.68558 76.1231ZM8.44728 90.8203H85.5957C86.3444 90.8203 86.9792 90.5599 87.5 90.0391C88.0209 89.5182 88.2813 88.8672 88.2813 88.0859C88.2813 87.3047 88.0209 86.6536 87.5 86.1328C86.9792 85.612 86.3444 85.3516 85.5957 85.3516H8.44728C7.69855 85.3516 7.06378 85.612 6.54298 86.1328C6.02211 86.6536 5.76168 87.3047 5.76168 88.0859C5.76168 88.8672 6.02211 89.5182 6.54298 90.0391C7.06378 90.5599 7.69855 90.8203 8.44728 90.8203Z" fill="#808080"/>
</svg>
