<?xml version="1.0" encoding="UTF-8"?>
<!--Generator: Apple Native CoreSVG 175-->
<!DOCTYPE svg
PUBLIC "-//W3C//DTD SVG 1.1//EN"
       "http://www.w3.org/Graphics/SVG/1.1/DTD/svg11.dtd">
<svg version="1.1" xmlns="http://www.w3.org/2000/svg" xmlns:xlink="http://www.w3.org/1999/xlink" width="3300" height="2200">
 <!--glyph: "uni1001B7.medium", point size: 100.0, font version: "17.3d3e1", template writer version: "65.1"-->
 <style>.hierarchical-0:secondary {fill:#4D4D4D}
.hierarchical-1:primary {fill:#212121;-sfsymbols-clear-behind:true}

.SFSymbolsPreview212121 {fill:#212121;opacity:1.0}
.SFSymbolsPreview4D4D4D {fill:#4D4D4D;opacity:1.0}
</style>
 <g id="Notes">
  <rect height="2200" id="artboard" style="fill:white;opacity:1" width="3300" x="0" y="0"/>
  <line style="fill:none;stroke:black;opacity:1;stroke-width:0.5;" x1="263" x2="3036" y1="292" y2="292"/>
  <text style="stroke:none;fill:black;font-family:sans-serif;font-size:13;font-weight:bold;" transform="matrix(1 0 0 1 263 322)">Weight/Scale Variations</text>
  <text style="stroke:none;fill:black;font-family:sans-serif;font-size:13;text-anchor:middle;" transform="matrix(1 0 0 1 559.711 322)">Ultralight</text>
  <text style="stroke:none;fill:black;font-family:sans-serif;font-size:13;text-anchor:middle;" transform="matrix(1 0 0 1 856.422 322)">Thin</text>
  <text style="stroke:none;fill:black;font-family:sans-serif;font-size:13;text-anchor:middle;" transform="matrix(1 0 0 1 1153.13 322)">Light</text>
  <text style="stroke:none;fill:black;font-family:sans-serif;font-size:13;text-anchor:middle;" transform="matrix(1 0 0 1 1449.84 322)">Regular</text>
  <text style="stroke:none;fill:black;font-family:sans-serif;font-size:13;text-anchor:middle;" transform="matrix(1 0 0 1 1746.56 322)">Medium</text>
  <text style="stroke:none;fill:black;font-family:sans-serif;font-size:13;text-anchor:middle;" transform="matrix(1 0 0 1 2043.27 322)">Semibold</text>
  <text style="stroke:none;fill:black;font-family:sans-serif;font-size:13;text-anchor:middle;" transform="matrix(1 0 0 1 2339.98 322)">Bold</text>
  <text style="stroke:none;fill:black;font-family:sans-serif;font-size:13;text-anchor:middle;" transform="matrix(1 0 0 1 2636.69 322)">Heavy</text>
  <text style="stroke:none;fill:black;font-family:sans-serif;font-size:13;text-anchor:middle;" transform="matrix(1 0 0 1 2933.4 322)">Black</text>
  <line style="fill:none;stroke:black;opacity:1;stroke-width:0.5;" x1="263" x2="3036" y1="1903" y2="1903"/>
  <g transform="matrix(1 0 0 1 263 1933)">
   <path d="M9.24805 0.830078Q10.8691 0.830078 12.2949 0.214844Q13.7207-0.400391 14.8096-1.49414Q15.8984-2.58789 16.5186-4.01367Q17.1387-5.43945 17.1387-7.05078Q17.1387-8.66211 16.5186-10.0879Q15.8984-11.5137 14.8047-12.6074Q13.7109-13.7012 12.2852-14.3164Q10.8594-14.9316 9.23828-14.9316Q7.62695-14.9316 6.20117-14.3164Q4.77539-13.7012 3.69141-12.6074Q2.60742-11.5137 1.9873-10.0879Q1.36719-8.66211 1.36719-7.05078Q1.36719-5.43945 1.9873-4.01367Q2.60742-2.58789 3.69629-1.49414Q4.78516-0.400391 6.21094 0.214844Q7.63672 0.830078 9.24805 0.830078ZM9.24805-0.654297Q7.91992-0.654297 6.7627-1.14746Q5.60547-1.64062 4.73145-2.51953Q3.85742-3.39844 3.36426-4.56055Q2.87109-5.72266 2.87109-7.05078Q2.87109-8.37891 3.35938-9.54102Q3.84766-10.7031 4.72168-11.582Q5.5957-12.4609 6.75293-12.9541Q7.91016-13.4473 9.23828-13.4473Q10.5762-13.4473 11.7334-12.9541Q12.8906-12.4609 13.7695-11.582Q14.6484-10.7031 15.1465-9.54102Q15.6445-8.37891 15.6445-7.05078Q15.6445-5.72266 15.1514-4.56055Q14.6582-3.39844 13.7842-2.51953Q12.9102-1.64062 11.748-1.14746Q10.5859-0.654297 9.24805-0.654297ZM5.6543-7.05078Q5.6543-6.72852 5.85938-6.52832Q6.06445-6.32812 6.40625-6.32812L8.51562-6.32812L8.51562-4.20898Q8.51562-3.88672 8.71094-3.67676Q8.90625-3.4668 9.23828-3.4668Q9.56055-3.4668 9.77051-3.67676Q9.98047-3.88672 9.98047-4.20898L9.98047-6.32812L12.0898-6.32812Q12.4219-6.32812 12.627-6.52832Q12.832-6.72852 12.832-7.05078Q12.832-7.38281 12.627-7.58789Q12.4219-7.79297 12.0898-7.79297L9.98047-7.79297L9.98047-9.90234Q9.98047-10.2344 9.77051-10.4443Q9.56055-10.6543 9.23828-10.6543Q8.90625-10.6543 8.71094-10.4443Q8.51562-10.2344 8.51562-9.90234L8.51562-7.79297L6.40625-7.79297Q6.06445-7.79297 5.85938-7.58789Q5.6543-7.38281 5.6543-7.05078Z"/>
  </g>
  <g transform="matrix(1 0 0 1 281.867 1933)">
   <path d="M11.709 2.91016Q13.75 2.91016 15.5518 2.12891Q17.3535 1.34766 18.7305-0.0292969Q20.1074-1.40625 20.8887-3.20801Q21.6699-5.00977 21.6699-7.05078Q21.6699-9.0918 20.8887-10.8936Q20.1074-12.6953 18.7305-14.0723Q17.3535-15.4492 15.5469-16.2305Q13.7402-17.0117 11.6992-17.0117Q9.6582-17.0117 7.85645-16.2305Q6.05469-15.4492 4.68262-14.0723Q3.31055-12.6953 2.5293-10.8936Q1.74805-9.0918 1.74805-7.05078Q1.74805-5.00977 2.5293-3.20801Q3.31055-1.40625 4.6875-0.0292969Q6.06445 1.34766 7.86621 2.12891Q9.66797 2.91016 11.709 2.91016ZM11.709 1.25Q9.98047 1.25 8.47656 0.605469Q6.97266-0.0390625 5.83496-1.17676Q4.69727-2.31445 4.05762-3.81836Q3.41797-5.32227 3.41797-7.05078Q3.41797-8.7793 4.05762-10.2832Q4.69727-11.7871 5.83008-12.9297Q6.96289-14.0723 8.4668-14.7119Q9.9707-15.3516 11.6992-15.3516Q13.4277-15.3516 14.9316-14.7119Q16.4355-14.0723 17.5781-12.9297Q18.7207-11.7871 19.3652-10.2832Q20.0098-8.7793 20.0098-7.05078Q20.0098-5.32227 19.3701-3.81836Q18.7305-2.31445 17.5928-1.17676Q16.4551-0.0390625 14.9463 0.605469Q13.4375 1.25 11.709 1.25ZM7.17773-7.05078Q7.17773-6.69922 7.41211-6.47461Q7.64648-6.25 8.01758-6.25L10.8887-6.25L10.8887-3.36914Q10.8887-2.99805 11.1133-2.76855Q11.3379-2.53906 11.6895-2.53906Q12.0605-2.53906 12.29-2.76855Q12.5195-2.99805 12.5195-3.36914L12.5195-6.25L15.4004-6.25Q15.7715-6.25 16.001-6.47461Q16.2305-6.69922 16.2305-7.05078Q16.2305-7.42188 16.001-7.65137Q15.7715-7.88086 15.4004-7.88086L12.5195-7.88086L12.5195-10.752Q12.5195-11.1328 12.29-11.3623Q12.0605-11.5918 11.6895-11.5918Q11.3379-11.5918 11.1133-11.3574Q10.8887-11.123 10.8887-10.752L10.8887-7.88086L8.01758-7.88086Q7.63672-7.88086 7.40723-7.65137Q7.17773-7.42188 7.17773-7.05078Z"/>
  </g>
  <g transform="matrix(1 0 0 1 305.646 1933)">
   <path d="M14.9707 5.66406Q17.0605 5.66406 18.96 5.01465Q20.8594 4.36523 22.4512 3.19336Q24.043 2.02148 25.2197 0.429688Q26.3965-1.16211 27.0459-3.06641Q27.6953-4.9707 27.6953-7.05078Q27.6953-9.14062 27.0459-11.04Q26.3965-12.9395 25.2197-14.5312Q24.043-16.123 22.4512-17.2998Q20.8594-18.4766 18.9551-19.126Q17.0508-19.7754 14.9609-19.7754Q12.8711-19.7754 10.9717-19.126Q9.07227-18.4766 7.48535-17.2998Q5.89844-16.123 4.72168-14.5312Q3.54492-12.9395 2.90039-11.04Q2.25586-9.14062 2.25586-7.05078Q2.25586-4.9707 2.90527-3.06641Q3.55469-1.16211 4.72656 0.429688Q5.89844 2.02148 7.49023 3.19336Q9.08203 4.36523 10.9814 5.01465Q12.8809 5.66406 14.9707 5.66406ZM14.9707 3.84766Q13.1641 3.84766 11.5283 3.2959Q9.89258 2.74414 8.53516 1.74805Q7.17773 0.751953 6.17676-0.610352Q5.17578-1.97266 4.62891-3.6084Q4.08203-5.24414 4.08203-7.05078Q4.08203-8.86719 4.62891-10.5029Q5.17578-12.1387 6.17188-13.501Q7.16797-14.8633 8.52539-15.8594Q9.88281-16.8555 11.5186-17.4023Q13.1543-17.9492 14.9609-17.9492Q16.7773-17.9492 18.4131-17.4023Q20.0488-16.8555 21.4111-15.8594Q22.7734-14.8633 23.7695-13.501Q24.7656-12.1387 25.3174-10.5029Q25.8691-8.86719 25.8691-7.05078Q25.8789-5.24414 25.332-3.6084Q24.7852-1.97266 23.7842-0.610352Q22.7832 0.751953 21.4209 1.74805Q20.0586 2.74414 18.4229 3.2959Q16.7871 3.84766 14.9707 3.84766ZM9.19922-7.05078Q9.19922-6.66992 9.45801-6.4209Q9.7168-6.17188 10.1172-6.17188L14.0625-6.17188L14.0625-2.2168Q14.0625-1.81641 14.3115-1.55762Q14.5605-1.29883 14.9512-1.29883Q15.3516-1.29883 15.6104-1.55273Q15.8691-1.80664 15.8691-2.2168L15.8691-6.17188L19.8242-6.17188Q20.2246-6.17188 20.4785-6.4209Q20.7324-6.66992 20.7324-7.05078Q20.7324-7.46094 20.4785-7.71484Q20.2246-7.96875 19.8242-7.96875L15.8691-7.96875L15.8691-11.9141Q15.8691-12.3242 15.6104-12.583Q15.3516-12.8418 14.9512-12.8418Q14.5605-12.8418 14.3115-12.583Q14.0625-12.3242 14.0625-11.9141L14.0625-7.96875L10.1172-7.96875Q9.70703-7.96875 9.45312-7.71484Q9.19922-7.46094 9.19922-7.05078Z"/>
  </g>
  <text style="stroke:none;fill:black;font-family:sans-serif;font-size:13;font-weight:bold;" transform="matrix(1 0 0 1 263 1953)">Design Variations</text>
  <text style="stroke:none;fill:black;font-family:sans-serif;font-size:13;" transform="matrix(1 0 0 1 263 1971)">Symbols are supported in up to nine weights and three scales.</text>
  <text style="stroke:none;fill:black;font-family:sans-serif;font-size:13;" transform="matrix(1 0 0 1 263 1989)">For optimal layout with text and other symbols, vertically align</text>
  <text style="stroke:none;fill:black;font-family:sans-serif;font-size:13;" transform="matrix(1 0 0 1 263 2007)">symbols with the adjacent text.</text>
  <line style="fill:none;stroke:#00AEEF;stroke-width:0.5;opacity:1.0;" x1="776" x2="776" y1="1919" y2="1933"/>
  <g transform="matrix(1 0 0 1 776 1933)">
   <path d="M3.31055 0.15625Q3.70117 0.15625 3.91602-0.00976562Q4.13086-0.175781 4.26758-0.585938L5.52734-4.0332L11.2891-4.0332L12.5488-0.585938Q12.6855-0.175781 12.9004-0.00976562Q13.1152 0.15625 13.4961 0.15625Q13.8867 0.15625 14.1162-0.0585938Q14.3457-0.273438 14.3457-0.644531Q14.3457-0.869141 14.2383-1.17188L9.6582-13.3691Q9.48242-13.8184 9.17969-14.043Q8.87695-14.2676 8.4082-14.2676Q7.5-14.2676 7.17773-13.3789L2.59766-1.16211Q2.49023-0.859375 2.49023-0.634766Q2.49023-0.263672 2.70996-0.0537109Q2.92969 0.15625 3.31055 0.15625ZM6.00586-5.51758L8.37891-12.0898L8.42773-12.0898L10.8008-5.51758Z"/>
  </g>
  <line style="fill:none;stroke:#00AEEF;stroke-width:0.5;opacity:1.0;" x1="793.197" x2="793.197" y1="1919" y2="1933"/>
  <text style="stroke:none;fill:black;font-family:sans-serif;font-size:13;font-weight:bold;" transform="matrix(1 0 0 1 776 1953)">Margins</text>
  <text style="stroke:none;fill:black;font-family:sans-serif;font-size:13;" transform="matrix(1 0 0 1 776 1971)">Leading and trailing margins on the left and right side of each symbol</text>
  <text style="stroke:none;fill:black;font-family:sans-serif;font-size:13;" transform="matrix(1 0 0 1 776 1989)">can be adjusted by modifying the x-location of the margin guidelines.</text>
  <text style="stroke:none;fill:black;font-family:sans-serif;font-size:13;" transform="matrix(1 0 0 1 776 2007)">Modifications are automatically applied proportionally to all</text>
  <text style="stroke:none;fill:black;font-family:sans-serif;font-size:13;" transform="matrix(1 0 0 1 776 2025)">scales and weights.</text>
  <g transform="matrix(1 0 0 1 1289 1933)">
   <path d="M2.8418 1.86523L4.54102 3.57422Q5.18555 4.22852 5.90332 4.17969Q6.62109 4.13086 7.31445 3.35938L18.0078-8.42773L17.041-9.4043L6.42578 2.27539Q6.16211 2.57812 5.89355 2.61719Q5.625 2.65625 5.27344 2.30469L4.10156 1.14258Q3.75 0.791016 3.79395 0.522461Q3.83789 0.253906 4.14062-0.0195312L15.6152-10.8203L14.6387-11.7871L3.04688-0.898438Q2.30469-0.214844 2.25098 0.498047Q2.19727 1.21094 2.8418 1.86523ZM9.25781-16.3281Q8.94531-16.0254 8.90625-15.6348Q8.86719-15.2441 9.04297-14.9512Q9.21875-14.6777 9.55566-14.541Q9.89258-14.4043 10.3809-14.5215Q11.4746-14.7754 12.5977-14.7314Q13.7207-14.6875 14.7949-13.9844L14.209-12.5293Q13.9551-11.9043 14.0674-11.4404Q14.1797-10.9766 14.5801-10.5664L16.875-8.25195Q17.2363-7.88086 17.5781-7.82227Q17.9199-7.76367 18.3398-7.8418L19.4043-8.03711L20.0684-7.36328L20.0293-6.80664Q20-6.43555 20.1221-6.12305Q20.2441-5.81055 20.6055-5.44922L21.3672-4.70703Q21.7285-4.3457 22.1533-4.33105Q22.5781-4.31641 22.9297-4.66797L25.8398-7.58789Q26.1914-7.93945 26.1816-8.35449Q26.1719-8.76953 25.8105-9.13086L25.0391-9.89258Q24.6875-10.2539 24.3799-10.3857Q24.0723-10.5176 23.7109-10.4883L23.1348-10.4395L22.4902-11.0742L22.7344-12.1973Q22.832-12.6172 22.6953-12.9834Q22.5586-13.3496 22.1191-13.7891L19.9219-15.9766Q18.6719-17.2168 17.2607-17.8369Q15.8496-18.457 14.4189-18.4814Q12.9883-18.5059 11.665-17.959Q10.3418-17.4121 9.25781-16.3281ZM10.752-15.957Q11.6602-16.6211 12.7002-16.9043Q13.7402-17.1875 14.8047-17.085Q15.8691-16.9824 16.8701-16.5137Q17.8711-16.0449 18.7012-15.2051L21.1328-12.793Q21.3086-12.6172 21.3525-12.4512Q21.3965-12.2852 21.3379-12.0312L21.0156-10.5469L22.5195-9.0625L23.5059-9.12109Q23.6914-9.13086 23.7891-9.09668Q23.8867-9.0625 24.0332-8.91602L24.6094-8.33984L22.168-5.89844L21.5918-6.47461Q21.4453-6.62109 21.4062-6.71875Q21.3672-6.81641 21.377-7.01172L21.4453-7.98828L19.9512-9.47266L18.4277-9.21875Q18.1836-9.16992 18.042-9.2041Q17.9004-9.23828 17.7148-9.41406L15.7129-11.416Q15.5176-11.5918 15.4932-11.7529Q15.4688-11.9141 15.5859-12.1875L16.4648-14.2773Q15.293-15.3711 13.8281-15.791Q12.3633-16.2109 10.8398-15.7617Q10.7227-15.7324 10.6885-15.8057Q10.6543-15.8789 10.752-15.957Z"/>
  </g>
  <text style="stroke:none;fill:black;font-family:sans-serif;font-size:13;font-weight:bold;" transform="matrix(1 0 0 1 1289 1953)">Exporting</text>
  <text style="stroke:none;fill:black;font-family:sans-serif;font-size:13;" transform="matrix(1 0 0 1 1289 1971)">Symbols should be outlined when exporting to ensure the</text>
  <text style="stroke:none;fill:black;font-family:sans-serif;font-size:13;" transform="matrix(1 0 0 1 1289 1989)">design is preserved when submitting to Xcode.</text>
  <text id="template-version" style="stroke:none;fill:black;font-family:sans-serif;font-size:13;text-anchor:end;" transform="matrix(1 0 0 1 3036 1933)">Template v.3.0</text>
  <text style="stroke:none;fill:black;font-family:sans-serif;font-size:13;text-anchor:end;" transform="matrix(1 0 0 1 3036 1951)">Requires Xcode 13 or greater</text>
  <text id="descriptive-name" style="stroke:none;fill:black;font-family:sans-serif;font-size:13;text-anchor:end;" transform="matrix(1 0 0 1 3036 1969)">Generated from sun.haze</text>
  <text style="stroke:none;fill:black;font-family:sans-serif;font-size:13;text-anchor:end;" transform="matrix(1 0 0 1 3036 1987)">Typeset at 100 points</text>
  <text style="stroke:none;fill:black;font-family:sans-serif;font-size:13;" transform="matrix(1 0 0 1 263 726)">Small</text>
  <text style="stroke:none;fill:black;font-family:sans-serif;font-size:13;" transform="matrix(1 0 0 1 263 1156)">Medium</text>
  <text style="stroke:none;fill:black;font-family:sans-serif;font-size:13;" transform="matrix(1 0 0 1 263 1586)">Large</text>
 </g>
 <g id="Guides">
  <g id="H-reference" style="fill:#27AAE1;stroke:none;" transform="matrix(1 0 0 1 339 696)">
   <path d="M0.993347 0L3.6377 0L29.3282-67.1326L30.0301-67.1326L30.0301-70.459L28.1227-70.459ZM11.6882-24.4797L46.9818-24.4797L46.2311-26.7288L12.4382-26.7288ZM55.1193 0L57.7637 0L30.6381-70.459L29.4327-70.459L29.4327-67.1326Z"/>
  </g>
  <line id="Baseline-S" style="fill:none;stroke:#27AAE1;opacity:1;stroke-width:0.5;" x1="263" x2="3036" y1="696" y2="696"/>
  <line id="Capline-S" style="fill:none;stroke:#27AAE1;opacity:1;stroke-width:0.5;" x1="263" x2="3036" y1="625.541" y2="625.541"/>
  <g id="H-reference" style="fill:#27AAE1;stroke:none;" transform="matrix(1 0 0 1 339 1126)">
   <path d="M0.993347 0L3.6377 0L29.3282-67.1326L30.0301-67.1326L30.0301-70.459L28.1227-70.459ZM11.6882-24.4797L46.9818-24.4797L46.2311-26.7288L12.4382-26.7288ZM55.1193 0L57.7637 0L30.6381-70.459L29.4327-70.459L29.4327-67.1326Z"/>
  </g>
  <line id="Baseline-M" style="fill:none;stroke:#27AAE1;opacity:1;stroke-width:0.5;" x1="263" x2="3036" y1="1126" y2="1126"/>
  <line id="Capline-M" style="fill:none;stroke:#27AAE1;opacity:1;stroke-width:0.5;" x1="263" x2="3036" y1="1055.54" y2="1055.54"/>
  <g id="H-reference" style="fill:#27AAE1;stroke:none;" transform="matrix(1 0 0 1 339 1556)">
   <path d="M0.993347 0L3.6377 0L29.3282-67.1326L30.0301-67.1326L30.0301-70.459L28.1227-70.459ZM11.6882-24.4797L46.9818-24.4797L46.2311-26.7288L12.4382-26.7288ZM55.1193 0L57.7637 0L30.6381-70.459L29.4327-70.459L29.4327-67.1326Z"/>
  </g>
  <line id="Baseline-L" style="fill:none;stroke:#27AAE1;opacity:1;stroke-width:0.5;" x1="263" x2="3036" y1="1556" y2="1556"/>
  <line id="Capline-L" style="fill:none;stroke:#27AAE1;opacity:1;stroke-width:0.5;" x1="263" x2="3036" y1="1485.54" y2="1485.54"/>
  <line id="left-margin-Ultralight-S" style="fill:none;stroke:#00AEEF;stroke-width:0.5;opacity:1.0;" x1="505.805" x2="505.805" y1="600.785" y2="720.121"/>
  <line id="right-margin-Ultralight-S" style="fill:none;stroke:#00AEEF;stroke-width:0.5;opacity:1.0;" x1="613.617" x2="613.617" y1="600.785" y2="720.121"/>
  <line id="left-margin-Regular-S" style="fill:none;stroke:#00AEEF;stroke-width:0.5;opacity:1.0;" x1="1395.94" x2="1395.94" y1="600.785" y2="720.121"/>
  <line id="right-margin-Regular-S" style="fill:none;stroke:#00AEEF;stroke-width:0.5;opacity:1.0;" x1="1503.75" x2="1503.75" y1="600.785" y2="720.121"/>
  <line id="left-margin-Black-S" style="fill:none;stroke:#00AEEF;stroke-width:0.5;opacity:1.0;" x1="2879.49" x2="2879.49" y1="600.785" y2="720.121"/>
  <line id="right-margin-Black-S" style="fill:none;stroke:#00AEEF;stroke-width:0.5;opacity:1.0;" x1="2987.31" x2="2987.31" y1="600.785" y2="720.121"/>
 </g>
 <g id="Symbols">
  <g id="Black-S" transform="matrix(1 0 0 1 2879.49 696)">
   <path class="hierarchical-0:secondary SFSymbolsPreview4D4D4D" d="M36.377-29.4922L51.416-29.4922Q47.7051-30.3223 45.2637-33.3984Q42.8223-36.4746 42.8223-40.5273Q42.8223-43.6523 44.3115-46.167Q45.8008-48.6816 48.3398-50.1953Q50.8789-51.709 53.9062-51.709Q56.9824-51.709 59.4971-50.1953Q62.0117-48.6816 63.501-46.167Q64.9902-43.6523 64.9902-40.5273Q64.9902-36.4746 62.5488-33.3984Q60.1074-30.3223 56.3965-29.4922L71.4355-29.4922Q73.291-31.9336 74.1455-34.7168Q75-37.5 75-40.5273Q75-46.3867 72.168-51.1963Q69.3359-56.0059 64.5508-58.8623Q59.7656-61.7188 53.9062-61.7188Q48.0469-61.7188 43.2617-58.8623Q38.4766-56.0059 35.6445-51.2207Q32.8125-46.4355 32.8125-40.5273Q32.8125-37.5 33.6914-34.7168Q34.5703-31.9336 36.377-29.4922ZM53.9062-68.5547Q55.9082-68.5547 57.2998-70.0195Q58.6914-71.4844 58.6914-73.4375L58.6914-79.6875Q58.6914-81.6895 57.2998-83.1299Q55.9082-84.5703 53.9062-84.5703Q51.9531-84.5703 50.5371-83.1299Q49.1211-81.6895 49.1211-79.6875L49.1211-73.4375Q49.1211-71.4844 50.5371-70.0195Q51.9531-68.5547 53.9062-68.5547ZM34.0332-60.3027Q35.4492-61.7188 35.4248-63.7451Q35.4004-65.7715 33.9844-67.1387L29.541-71.5332Q28.125-72.9492 26.123-72.998Q24.1211-73.0469 22.7051-71.6309Q21.3379-70.2637 21.3379-68.2129Q21.3379-66.1621 22.7539-64.7461L27.1973-60.4004Q28.6133-59.0332 30.6396-58.9844Q32.666-58.9355 34.0332-60.3027ZM86.9141-37.5977L93.1641-37.5488Q95.166-37.5488 96.6064-38.9893Q98.0469-40.4297 98.0469-42.3828Q98.0469-44.3848 96.6064-45.7764Q95.166-47.168 93.1641-47.168L86.9141-47.168Q84.9609-47.168 83.4961-45.7764Q82.0312-44.3848 82.0312-42.3828Q82.0312-40.4297 83.4961-39.0137Q84.9609-37.5977 86.9141-37.5977ZM73.7793-60.3027Q75.1953-58.9355 77.2217-58.9844Q79.248-59.0332 80.6152-60.4004L85.0586-64.7461Q86.4746-66.1621 86.499-68.2129Q86.5234-70.2637 85.1074-71.6309Q83.7402-73.0469 81.7139-72.998Q79.6875-72.9492 78.2715-71.5332L73.8281-67.1387Q72.4609-65.7715 72.4365-63.7451Q72.4121-61.7188 73.7793-60.3027ZM14.6484-37.5977L20.8984-37.5488Q22.9004-37.5488 24.3408-38.9893Q25.7812-40.4297 25.7812-42.3828Q25.7812-44.3848 24.3408-45.7764Q22.9004-47.168 20.8984-47.168L14.6484-47.168Q12.6953-47.168 11.2305-45.7764Q9.76562-44.3848 9.76562-42.3828Q9.76562-40.4297 11.2305-39.0137Q12.6953-37.5977 14.6484-37.5977Z"/>
   <path class="hierarchical-1:primary SFSymbolsPreview212121" d="M13.3789-8.34961L88.6719-8.34961Q90.2344-8.34961 91.2598-9.30176Q92.2852-10.2539 92.2852-11.6699Q92.2852-13.0859 91.2598-14.0381Q90.2344-14.9902 88.6719-14.9902L13.3789-14.9902Q11.8652-14.9902 10.8154-14.0381Q9.76562-13.0859 9.76562-11.6699Q9.76562-10.2539 10.8154-9.30176Q11.8652-8.34961 13.3789-8.34961ZM19.1406 6.34766L94.4336 6.34766Q95.9961 6.34766 97.0215 5.39551Q98.0469 4.44336 98.0469 3.02734Q98.0469 1.61133 97.0215 0.65918Q95.9961-0.292969 94.4336-0.292969L19.1406-0.292969Q17.627-0.292969 16.5771 0.65918Q15.5273 1.61133 15.5273 3.02734Q15.5273 4.44336 16.5771 5.39551Q17.627 6.34766 19.1406 6.34766ZM19.1406-23.0469L94.4336-23.0469Q95.9961-23.0469 97.0215-23.999Q98.0469-24.9512 98.0469-26.3672Q98.0469-27.7832 97.0215-28.7354Q95.9961-29.6875 94.4336-29.6875L19.1406-29.6875Q17.627-29.6875 16.5771-28.7354Q15.5273-27.7832 15.5273-26.3672Q15.5273-24.9512 16.5771-23.999Q17.627-23.0469 19.1406-23.0469Z"/>
  </g>
  <g id="Regular-S" transform="matrix(1 0 0 1 1395.94 696)">
   <path class="hierarchical-0:secondary SFSymbolsPreview4D4D4D" d="M37.4512-28.1738L48.9746-28.1738Q44.9707-29.6875 42.3828-33.2764Q39.7949-36.8652 39.7949-41.3574Q39.7949-45.2148 41.6992-48.4375Q43.6035-51.6602 46.8262-53.5645Q50.0488-55.4688 53.9062-55.4688Q57.7637-55.4688 60.9863-53.5645Q64.209-51.6602 66.1133-48.4375Q68.0176-45.2148 68.0176-41.3574Q68.0176-36.8652 65.4297-33.2764Q62.8418-29.6875 58.8379-28.1738L70.3613-28.1738Q72.6074-30.9082 73.8281-34.2529Q75.0488-37.5977 75.0488-41.3574Q75.0488-47.168 72.168-51.9775Q69.2871-56.7871 64.4775-59.668Q59.668-62.5488 53.9062-62.5488Q48.1445-62.5488 43.335-59.668Q38.5254-56.7871 35.6445-51.9775Q32.7637-47.168 32.7637-41.3574Q32.7637-37.5977 33.9844-34.2529Q35.2051-30.9082 37.4512-28.1738ZM53.9062-69.2383Q55.3711-69.2871 56.4209-70.3857Q57.4707-71.4844 57.4707-73.1934L57.4707-81.543Q57.4707-83.3008 56.4209-84.3994Q55.3711-85.498 53.9062-85.498Q52.4414-85.498 51.3916-84.3994Q50.3418-83.3008 50.3418-81.543L50.3418-73.1934Q50.3418-71.4844 51.3916-70.3369Q52.4414-69.1895 53.9062-69.2383ZM34.1797-61.084Q35.2051-62.1094 35.1562-63.6475Q35.1074-65.1855 33.8867-66.4062L27.9785-72.3145Q26.7578-73.5352 25.2686-73.5596Q23.7793-73.584 22.7051-72.5586Q21.6309-71.5332 21.6797-70.0195Q21.7285-68.5059 22.9492-67.2363L28.8574-61.377Q30.0781-60.1074 31.6162-60.0586Q33.1543-60.0098 34.1797-61.084ZM85.7422-38.7695L94.0918-38.7695Q95.8496-38.7695 96.9482-39.8193Q98.0469-40.8691 98.0469-42.334Q98.0469-43.7988 96.9482-44.8486Q95.8496-45.8984 94.0918-45.8984L85.7422-45.8984Q84.0332-45.8984 82.8857-44.8486Q81.7383-43.7988 81.7871-42.334Q81.8359-40.8691 82.9346-39.8193Q84.0332-38.7695 85.7422-38.7695ZM73.6328-61.084Q74.707-60.0586 76.2207-60.083Q77.7344-60.1074 78.9551-61.377L84.8633-67.2363Q86.084-68.5059 86.1084-69.9951Q86.1328-71.4844 85.1074-72.5586Q84.082-73.584 82.5684-73.5596Q81.0547-73.5352 79.834-72.3145L73.9258-66.4062Q72.7051-65.1855 72.6318-63.6475Q72.5586-62.1094 73.6328-61.084ZM13.7207-38.7695L22.0703-38.7695Q23.7793-38.7695 24.9268-39.8193Q26.0742-40.8691 26.0254-42.334Q25.9766-43.7988 24.8779-44.8486Q23.7793-45.8984 22.0703-45.8984L13.7207-45.8984Q11.9629-45.8984 10.8643-44.8486Q9.76562-43.7988 9.76562-42.334Q9.76562-40.8691 10.8643-39.8193Q11.9629-38.7695 13.7207-38.7695Z"/>
   <path class="hierarchical-1:primary SFSymbolsPreview212121" d="M12.4512-9.375L89.5996-9.375Q90.7227-9.375 91.5039-10.1562Q92.2852-10.9375 92.2852-12.1094Q92.2852-13.2812 91.5039-14.0625Q90.7227-14.8438 89.5996-14.8438L12.4512-14.8438Q11.3281-14.8438 10.5469-14.0625Q9.76562-13.2812 9.76562-12.1094Q9.76562-10.9375 10.5469-10.1562Q11.3281-9.375 12.4512-9.375ZM18.2129 5.32227L95.3613 5.32227Q96.4844 5.32227 97.2656 4.54102Q98.0469 3.75977 98.0469 2.58789Q98.0469 1.41602 97.2656 0.634766Q96.4844-0.146484 95.3613-0.146484L18.2129-0.146484Q17.0898-0.146484 16.3086 0.634766Q15.5273 1.41602 15.5273 2.58789Q15.5273 3.75977 16.3086 4.54102Q17.0898 5.32227 18.2129 5.32227ZM18.2129-24.0723L95.3613-24.0723Q96.4844-24.0723 97.2656-24.8535Q98.0469-25.6348 98.0469-26.8066Q98.0469-27.9785 97.2656-28.7598Q96.4844-29.541 95.3613-29.541L18.2129-29.541Q17.0898-29.541 16.3086-28.7598Q15.5273-27.9785 15.5273-26.8066Q15.5273-25.6348 16.3086-24.8535Q17.0898-24.0723 18.2129-24.0723Z"/>
  </g>
  <g id="Ultralight-S" transform="matrix(1 0 0 1 505.805 696)">
   <path class="hierarchical-0:secondary SFSymbolsPreview4D4D4D" d="M40.403-25.9491L43.8431-25.9491Q40.3847-28.3249 38.2961-32.1182Q36.2076-35.9116 36.2076-40.4495Q36.2076-45.3056 38.6112-49.3229Q41.0149-53.3401 45.0325-55.7213Q49.0501-58.1024 53.9062-58.1024Q58.7624-58.1024 62.78-55.7213Q66.7976-53.3401 69.2013-49.3229Q71.6049-45.3056 71.6049-40.4495Q71.6049-35.9116 69.5164-32.1182Q67.4278-28.3249 63.9694-25.9491L67.4095-25.9491Q70.3369-28.6377 72.0345-32.391Q73.732-36.1443 73.732-40.4495Q73.732-45.8961 71.0556-50.4108Q68.3792-54.9255 63.8645-57.6019Q59.3498-60.2783 53.9062-60.2783Q48.4627-60.2783 43.948-57.6019Q39.4333-54.9255 36.7569-50.4108Q34.0805-45.8961 34.0805-40.4495Q34.0805-36.1443 35.778-32.391Q37.4756-28.6377 40.403-25.9491ZM53.9062-68.3304Q54.3266-68.3334 54.6497-68.6375Q54.9728-68.9415 54.9728-69.3336L54.9728-83.5411Q54.9728-83.9821 54.6497-84.2861Q54.3266-84.5901 53.9062-84.5901Q53.4859-84.5901 53.1628-84.2861Q52.8397-83.9821 52.8397-83.5411L52.8397-69.3336Q52.8397-68.9415 53.1628-68.634Q53.4859-68.3266 53.9062-68.3304ZM34.1797-60.1761Q34.4788-60.4294 34.4753-60.9001Q34.4719-61.3708 34.2049-61.6379L24.1638-71.6789Q23.8518-71.946 23.407-71.925Q22.9622-71.904 22.7051-71.6507Q22.3572-71.3516 22.3381-70.9049Q22.319-70.4582 22.6768-70.1424L32.7171-60.1051Q32.9842-59.8351 33.4324-59.8541Q33.8806-59.8732 34.1797-60.1761ZM82.8362-40.3587L96.9978-40.3587Q97.4388-40.3137 97.7428-40.6368Q98.0469-40.9599 98.0469-41.4261Q98.0469-41.8007 97.7428-42.1242Q97.4388-42.4477 96.9978-42.4477L82.8362-42.4477Q82.3982-42.4477 82.0911-42.1471Q81.7841-41.8465 81.7871-41.4261Q81.7902-41.0057 82.0942-40.6822Q82.3982-40.3587 82.8362-40.3587ZM73.6328-60.1761Q73.9349-59.877 74.3816-59.856Q74.8283-59.8351 75.0954-60.1051L85.1357-70.1424Q85.4935-70.4582 85.4725-70.903Q85.4515-71.3478 85.1074-71.6507Q84.8541-71.904 84.4074-71.925Q83.9607-71.946 83.6487-71.6789L73.6076-61.6379Q73.3406-61.3708 73.3356-60.9001Q73.3307-60.4294 73.6328-60.1761ZM10.8147-40.3587L24.9763-40.3587Q25.4143-40.3587 25.7214-40.6593Q26.0284-40.9599 26.0254-41.4261Q26.0223-41.8007 25.7183-42.1242Q25.4143-42.4477 24.9763-42.4477L10.8147-42.4477Q10.3737-42.4477 10.0697-42.1471Q9.76562-41.8465 9.76562-41.4261Q9.76562-41.0057 10.0697-40.6822Q10.3737-40.3587 10.8147-40.3587Z"/>
   <path class="hierarchical-1:primary SFSymbolsPreview212121" d="M10.907-10.1471L91.1438-10.1471Q91.5855-10.1471 91.9353-10.4515Q92.2852-10.7559 92.2852-11.2015Q92.2852-11.6013 91.9353-11.9057Q91.5855-12.2101 91.1438-12.2101L10.907-12.2101Q10.4652-12.2101 10.1154-11.9057Q9.76562-11.6013 9.76562-11.2015Q9.76562-10.7559 10.1154-10.4515Q10.4652-10.1471 10.907-10.1471ZM16.6687 4.55017L96.9055 4.55017Q97.3473 4.55017 97.6971 4.24576Q98.0469 3.94135 98.0469 3.49579Q98.0469 3.09601 97.6971 2.7916Q97.3473 2.48718 96.9055 2.48718L16.6687 2.48718Q16.227 2.48718 15.8772 2.7916Q15.5273 3.09601 15.5273 3.49579Q15.5273 3.94135 15.8772 4.24576Q16.227 4.55017 16.6687 4.55017ZM16.6687-24.8444L96.9055-24.8444Q97.3473-24.8444 97.6971-25.1488Q98.0469-25.4532 98.0469-25.8987Q98.0469-26.2985 97.6971-26.6029Q97.3473-26.9073 96.9055-26.9073L16.6687-26.9073Q16.227-26.9073 15.8772-26.6029Q15.5273-26.2985 15.5273-25.8987Q15.5273-25.4532 15.8772-25.1488Q16.227-24.8444 16.6687-24.8444Z"/>
  </g>
 </g>
</svg>
