<?xml version="1.0" encoding="UTF-8"?>
<!--Generator: Apple Native CoreSVG 175-->
<!DOCTYPE svg
PUBLIC "-//W3C//DTD SVG 1.1//EN"
       "http://www.w3.org/Graphics/SVG/1.1/DTD/svg11.dtd">
<svg version="1.1" xmlns="http://www.w3.org/2000/svg" xmlns:xlink="http://www.w3.org/1999/xlink" width="3300" height="2200">
 <!--glyph: "uni1001BF.medium", point size: 100.0, font version: "17.3d3e1", template writer version: "65.1"-->
 <style>.multicolor-0:systemYellowColor {fill:#FFCC00;opacity:1.0}

.SFSymbolsPreviewFFCC00 {fill:#FFCC00;opacity:1.0}
</style>
 <g id="Notes">
  <rect height="2200" id="artboard" style="fill:white;opacity:1" width="3300" x="0" y="0"/>
  <line style="fill:none;stroke:black;opacity:1;stroke-width:0.5;" x1="263" x2="3036" y1="292" y2="292"/>
  <text style="stroke:none;fill:black;font-family:sans-serif;font-size:13;font-weight:bold;" transform="matrix(1 0 0 1 263 322)">Weight/Scale Variations</text>
  <text style="stroke:none;fill:black;font-family:sans-serif;font-size:13;text-anchor:middle;" transform="matrix(1 0 0 1 559.711 322)">Ultralight</text>
  <text style="stroke:none;fill:black;font-family:sans-serif;font-size:13;text-anchor:middle;" transform="matrix(1 0 0 1 856.422 322)">Thin</text>
  <text style="stroke:none;fill:black;font-family:sans-serif;font-size:13;text-anchor:middle;" transform="matrix(1 0 0 1 1153.13 322)">Light</text>
  <text style="stroke:none;fill:black;font-family:sans-serif;font-size:13;text-anchor:middle;" transform="matrix(1 0 0 1 1449.84 322)">Regular</text>
  <text style="stroke:none;fill:black;font-family:sans-serif;font-size:13;text-anchor:middle;" transform="matrix(1 0 0 1 1746.56 322)">Medium</text>
  <text style="stroke:none;fill:black;font-family:sans-serif;font-size:13;text-anchor:middle;" transform="matrix(1 0 0 1 2043.27 322)">Semibold</text>
  <text style="stroke:none;fill:black;font-family:sans-serif;font-size:13;text-anchor:middle;" transform="matrix(1 0 0 1 2339.98 322)">Bold</text>
  <text style="stroke:none;fill:black;font-family:sans-serif;font-size:13;text-anchor:middle;" transform="matrix(1 0 0 1 2636.69 322)">Heavy</text>
  <text style="stroke:none;fill:black;font-family:sans-serif;font-size:13;text-anchor:middle;" transform="matrix(1 0 0 1 2933.4 322)">Black</text>
  <line style="fill:none;stroke:black;opacity:1;stroke-width:0.5;" x1="263" x2="3036" y1="1903" y2="1903"/>
  <g transform="matrix(1 0 0 1 263 1933)">
   <path d="M9.24805 0.830078Q10.8691 0.830078 12.2949 0.214844Q13.7207-0.400391 14.8096-1.49414Q15.8984-2.58789 16.5186-4.01367Q17.1387-5.43945 17.1387-7.05078Q17.1387-8.66211 16.5186-10.0879Q15.8984-11.5137 14.8047-12.6074Q13.7109-13.7012 12.2852-14.3164Q10.8594-14.9316 9.23828-14.9316Q7.62695-14.9316 6.20117-14.3164Q4.77539-13.7012 3.69141-12.6074Q2.60742-11.5137 1.9873-10.0879Q1.36719-8.66211 1.36719-7.05078Q1.36719-5.43945 1.9873-4.01367Q2.60742-2.58789 3.69629-1.49414Q4.78516-0.400391 6.21094 0.214844Q7.63672 0.830078 9.24805 0.830078ZM9.24805-0.654297Q7.91992-0.654297 6.7627-1.14746Q5.60547-1.64062 4.73145-2.51953Q3.85742-3.39844 3.36426-4.56055Q2.87109-5.72266 2.87109-7.05078Q2.87109-8.37891 3.35938-9.54102Q3.84766-10.7031 4.72168-11.582Q5.5957-12.4609 6.75293-12.9541Q7.91016-13.4473 9.23828-13.4473Q10.5762-13.4473 11.7334-12.9541Q12.8906-12.4609 13.7695-11.582Q14.6484-10.7031 15.1465-9.54102Q15.6445-8.37891 15.6445-7.05078Q15.6445-5.72266 15.1514-4.56055Q14.6582-3.39844 13.7842-2.51953Q12.9102-1.64062 11.748-1.14746Q10.5859-0.654297 9.24805-0.654297ZM5.6543-7.05078Q5.6543-6.72852 5.85938-6.52832Q6.06445-6.32812 6.40625-6.32812L8.51562-6.32812L8.51562-4.20898Q8.51562-3.88672 8.71094-3.67676Q8.90625-3.4668 9.23828-3.4668Q9.56055-3.4668 9.77051-3.67676Q9.98047-3.88672 9.98047-4.20898L9.98047-6.32812L12.0898-6.32812Q12.4219-6.32812 12.627-6.52832Q12.832-6.72852 12.832-7.05078Q12.832-7.38281 12.627-7.58789Q12.4219-7.79297 12.0898-7.79297L9.98047-7.79297L9.98047-9.90234Q9.98047-10.2344 9.77051-10.4443Q9.56055-10.6543 9.23828-10.6543Q8.90625-10.6543 8.71094-10.4443Q8.51562-10.2344 8.51562-9.90234L8.51562-7.79297L6.40625-7.79297Q6.06445-7.79297 5.85938-7.58789Q5.6543-7.38281 5.6543-7.05078Z"/>
  </g>
  <g transform="matrix(1 0 0 1 281.867 1933)">
   <path d="M11.709 2.91016Q13.75 2.91016 15.5518 2.12891Q17.3535 1.34766 18.7305-0.0292969Q20.1074-1.40625 20.8887-3.20801Q21.6699-5.00977 21.6699-7.05078Q21.6699-9.0918 20.8887-10.8936Q20.1074-12.6953 18.7305-14.0723Q17.3535-15.4492 15.5469-16.2305Q13.7402-17.0117 11.6992-17.0117Q9.6582-17.0117 7.85645-16.2305Q6.05469-15.4492 4.68262-14.0723Q3.31055-12.6953 2.5293-10.8936Q1.74805-9.0918 1.74805-7.05078Q1.74805-5.00977 2.5293-3.20801Q3.31055-1.40625 4.6875-0.0292969Q6.06445 1.34766 7.86621 2.12891Q9.66797 2.91016 11.709 2.91016ZM11.709 1.25Q9.98047 1.25 8.47656 0.605469Q6.97266-0.0390625 5.83496-1.17676Q4.69727-2.31445 4.05762-3.81836Q3.41797-5.32227 3.41797-7.05078Q3.41797-8.7793 4.05762-10.2832Q4.69727-11.7871 5.83008-12.9297Q6.96289-14.0723 8.4668-14.7119Q9.9707-15.3516 11.6992-15.3516Q13.4277-15.3516 14.9316-14.7119Q16.4355-14.0723 17.5781-12.9297Q18.7207-11.7871 19.3652-10.2832Q20.0098-8.7793 20.0098-7.05078Q20.0098-5.32227 19.3701-3.81836Q18.7305-2.31445 17.5928-1.17676Q16.4551-0.0390625 14.9463 0.605469Q13.4375 1.25 11.709 1.25ZM7.17773-7.05078Q7.17773-6.69922 7.41211-6.47461Q7.64648-6.25 8.01758-6.25L10.8887-6.25L10.8887-3.36914Q10.8887-2.99805 11.1133-2.76855Q11.3379-2.53906 11.6895-2.53906Q12.0605-2.53906 12.29-2.76855Q12.5195-2.99805 12.5195-3.36914L12.5195-6.25L15.4004-6.25Q15.7715-6.25 16.001-6.47461Q16.2305-6.69922 16.2305-7.05078Q16.2305-7.42188 16.001-7.65137Q15.7715-7.88086 15.4004-7.88086L12.5195-7.88086L12.5195-10.752Q12.5195-11.1328 12.29-11.3623Q12.0605-11.5918 11.6895-11.5918Q11.3379-11.5918 11.1133-11.3574Q10.8887-11.123 10.8887-10.752L10.8887-7.88086L8.01758-7.88086Q7.63672-7.88086 7.40723-7.65137Q7.17773-7.42188 7.17773-7.05078Z"/>
  </g>
  <g transform="matrix(1 0 0 1 305.646 1933)">
   <path d="M14.9707 5.66406Q17.0605 5.66406 18.96 5.01465Q20.8594 4.36523 22.4512 3.19336Q24.043 2.02148 25.2197 0.429688Q26.3965-1.16211 27.0459-3.06641Q27.6953-4.9707 27.6953-7.05078Q27.6953-9.14062 27.0459-11.04Q26.3965-12.9395 25.2197-14.5312Q24.043-16.123 22.4512-17.2998Q20.8594-18.4766 18.9551-19.126Q17.0508-19.7754 14.9609-19.7754Q12.8711-19.7754 10.9717-19.126Q9.07227-18.4766 7.48535-17.2998Q5.89844-16.123 4.72168-14.5312Q3.54492-12.9395 2.90039-11.04Q2.25586-9.14062 2.25586-7.05078Q2.25586-4.9707 2.90527-3.06641Q3.55469-1.16211 4.72656 0.429688Q5.89844 2.02148 7.49023 3.19336Q9.08203 4.36523 10.9814 5.01465Q12.8809 5.66406 14.9707 5.66406ZM14.9707 3.84766Q13.1641 3.84766 11.5283 3.2959Q9.89258 2.74414 8.53516 1.74805Q7.17773 0.751953 6.17676-0.610352Q5.17578-1.97266 4.62891-3.6084Q4.08203-5.24414 4.08203-7.05078Q4.08203-8.86719 4.62891-10.5029Q5.17578-12.1387 6.17188-13.501Q7.16797-14.8633 8.52539-15.8594Q9.88281-16.8555 11.5186-17.4023Q13.1543-17.9492 14.9609-17.9492Q16.7773-17.9492 18.4131-17.4023Q20.0488-16.8555 21.4111-15.8594Q22.7734-14.8633 23.7695-13.501Q24.7656-12.1387 25.3174-10.5029Q25.8691-8.86719 25.8691-7.05078Q25.8789-5.24414 25.332-3.6084Q24.7852-1.97266 23.7842-0.610352Q22.7832 0.751953 21.4209 1.74805Q20.0586 2.74414 18.4229 3.2959Q16.7871 3.84766 14.9707 3.84766ZM9.19922-7.05078Q9.19922-6.66992 9.45801-6.4209Q9.7168-6.17188 10.1172-6.17188L14.0625-6.17188L14.0625-2.2168Q14.0625-1.81641 14.3115-1.55762Q14.5605-1.29883 14.9512-1.29883Q15.3516-1.29883 15.6104-1.55273Q15.8691-1.80664 15.8691-2.2168L15.8691-6.17188L19.8242-6.17188Q20.2246-6.17188 20.4785-6.4209Q20.7324-6.66992 20.7324-7.05078Q20.7324-7.46094 20.4785-7.71484Q20.2246-7.96875 19.8242-7.96875L15.8691-7.96875L15.8691-11.9141Q15.8691-12.3242 15.6104-12.583Q15.3516-12.8418 14.9512-12.8418Q14.5605-12.8418 14.3115-12.583Q14.0625-12.3242 14.0625-11.9141L14.0625-7.96875L10.1172-7.96875Q9.70703-7.96875 9.45312-7.71484Q9.19922-7.46094 9.19922-7.05078Z"/>
  </g>
  <text style="stroke:none;fill:black;font-family:sans-serif;font-size:13;font-weight:bold;" transform="matrix(1 0 0 1 263 1953)">Design Variations</text>
  <text style="stroke:none;fill:black;font-family:sans-serif;font-size:13;" transform="matrix(1 0 0 1 263 1971)">Symbols are supported in up to nine weights and three scales.</text>
  <text style="stroke:none;fill:black;font-family:sans-serif;font-size:13;" transform="matrix(1 0 0 1 263 1989)">For optimal layout with text and other symbols, vertically align</text>
  <text style="stroke:none;fill:black;font-family:sans-serif;font-size:13;" transform="matrix(1 0 0 1 263 2007)">symbols with the adjacent text.</text>
  <line style="fill:none;stroke:#00AEEF;stroke-width:0.5;opacity:1.0;" x1="776" x2="776" y1="1919" y2="1933"/>
  <g transform="matrix(1 0 0 1 776 1933)">
   <path d="M3.31055 0.15625Q3.70117 0.15625 3.91602-0.00976562Q4.13086-0.175781 4.26758-0.585938L5.52734-4.0332L11.2891-4.0332L12.5488-0.585938Q12.6855-0.175781 12.9004-0.00976562Q13.1152 0.15625 13.4961 0.15625Q13.8867 0.15625 14.1162-0.0585938Q14.3457-0.273438 14.3457-0.644531Q14.3457-0.869141 14.2383-1.17188L9.6582-13.3691Q9.48242-13.8184 9.17969-14.043Q8.87695-14.2676 8.4082-14.2676Q7.5-14.2676 7.17773-13.3789L2.59766-1.16211Q2.49023-0.859375 2.49023-0.634766Q2.49023-0.263672 2.70996-0.0537109Q2.92969 0.15625 3.31055 0.15625ZM6.00586-5.51758L8.37891-12.0898L8.42773-12.0898L10.8008-5.51758Z"/>
  </g>
  <line style="fill:none;stroke:#00AEEF;stroke-width:0.5;opacity:1.0;" x1="793.197" x2="793.197" y1="1919" y2="1933"/>
  <text style="stroke:none;fill:black;font-family:sans-serif;font-size:13;font-weight:bold;" transform="matrix(1 0 0 1 776 1953)">Margins</text>
  <text style="stroke:none;fill:black;font-family:sans-serif;font-size:13;" transform="matrix(1 0 0 1 776 1971)">Leading and trailing margins on the left and right side of each symbol</text>
  <text style="stroke:none;fill:black;font-family:sans-serif;font-size:13;" transform="matrix(1 0 0 1 776 1989)">can be adjusted by modifying the x-location of the margin guidelines.</text>
  <text style="stroke:none;fill:black;font-family:sans-serif;font-size:13;" transform="matrix(1 0 0 1 776 2007)">Modifications are automatically applied proportionally to all</text>
  <text style="stroke:none;fill:black;font-family:sans-serif;font-size:13;" transform="matrix(1 0 0 1 776 2025)">scales and weights.</text>
  <g transform="matrix(1 0 0 1 1289 1933)">
   <path d="M2.8418 1.86523L4.54102 3.57422Q5.18555 4.22852 5.90332 4.17969Q6.62109 4.13086 7.31445 3.35938L18.0078-8.42773L17.041-9.4043L6.42578 2.27539Q6.16211 2.57812 5.89355 2.61719Q5.625 2.65625 5.27344 2.30469L4.10156 1.14258Q3.75 0.791016 3.79395 0.522461Q3.83789 0.253906 4.14062-0.0195312L15.6152-10.8203L14.6387-11.7871L3.04688-0.898438Q2.30469-0.214844 2.25098 0.498047Q2.19727 1.21094 2.8418 1.86523ZM9.25781-16.3281Q8.94531-16.0254 8.90625-15.6348Q8.86719-15.2441 9.04297-14.9512Q9.21875-14.6777 9.55566-14.541Q9.89258-14.4043 10.3809-14.5215Q11.4746-14.7754 12.5977-14.7314Q13.7207-14.6875 14.7949-13.9844L14.209-12.5293Q13.9551-11.9043 14.0674-11.4404Q14.1797-10.9766 14.5801-10.5664L16.875-8.25195Q17.2363-7.88086 17.5781-7.82227Q17.9199-7.76367 18.3398-7.8418L19.4043-8.03711L20.0684-7.36328L20.0293-6.80664Q20-6.43555 20.1221-6.12305Q20.2441-5.81055 20.6055-5.44922L21.3672-4.70703Q21.7285-4.3457 22.1533-4.33105Q22.5781-4.31641 22.9297-4.66797L25.8398-7.58789Q26.1914-7.93945 26.1816-8.35449Q26.1719-8.76953 25.8105-9.13086L25.0391-9.89258Q24.6875-10.2539 24.3799-10.3857Q24.0723-10.5176 23.7109-10.4883L23.1348-10.4395L22.4902-11.0742L22.7344-12.1973Q22.832-12.6172 22.6953-12.9834Q22.5586-13.3496 22.1191-13.7891L19.9219-15.9766Q18.6719-17.2168 17.2607-17.8369Q15.8496-18.457 14.4189-18.4814Q12.9883-18.5059 11.665-17.959Q10.3418-17.4121 9.25781-16.3281ZM10.752-15.957Q11.6602-16.6211 12.7002-16.9043Q13.7402-17.1875 14.8047-17.085Q15.8691-16.9824 16.8701-16.5137Q17.8711-16.0449 18.7012-15.2051L21.1328-12.793Q21.3086-12.6172 21.3525-12.4512Q21.3965-12.2852 21.3379-12.0312L21.0156-10.5469L22.5195-9.0625L23.5059-9.12109Q23.6914-9.13086 23.7891-9.09668Q23.8867-9.0625 24.0332-8.91602L24.6094-8.33984L22.168-5.89844L21.5918-6.47461Q21.4453-6.62109 21.4062-6.71875Q21.3672-6.81641 21.377-7.01172L21.4453-7.98828L19.9512-9.47266L18.4277-9.21875Q18.1836-9.16992 18.042-9.2041Q17.9004-9.23828 17.7148-9.41406L15.7129-11.416Q15.5176-11.5918 15.4932-11.7529Q15.4688-11.9141 15.5859-12.1875L16.4648-14.2773Q15.293-15.3711 13.8281-15.791Q12.3633-16.2109 10.8398-15.7617Q10.7227-15.7324 10.6885-15.8057Q10.6543-15.8789 10.752-15.957Z"/>
  </g>
  <text style="stroke:none;fill:black;font-family:sans-serif;font-size:13;font-weight:bold;" transform="matrix(1 0 0 1 1289 1953)">Exporting</text>
  <text style="stroke:none;fill:black;font-family:sans-serif;font-size:13;" transform="matrix(1 0 0 1 1289 1971)">Symbols should be outlined when exporting to ensure the</text>
  <text style="stroke:none;fill:black;font-family:sans-serif;font-size:13;" transform="matrix(1 0 0 1 1289 1989)">design is preserved when submitting to Xcode.</text>
  <text id="template-version" style="stroke:none;fill:black;font-family:sans-serif;font-size:13;text-anchor:end;" transform="matrix(1 0 0 1 3036 1933)">Template v.3.0</text>
  <text style="stroke:none;fill:black;font-family:sans-serif;font-size:13;text-anchor:end;" transform="matrix(1 0 0 1 3036 1951)">Requires Xcode 13 or greater</text>
  <text id="descriptive-name" style="stroke:none;fill:black;font-family:sans-serif;font-size:13;text-anchor:end;" transform="matrix(1 0 0 1 3036 1969)">Generated from sparkles</text>
  <text style="stroke:none;fill:black;font-family:sans-serif;font-size:13;text-anchor:end;" transform="matrix(1 0 0 1 3036 1987)">Typeset at 100 points</text>
  <text style="stroke:none;fill:black;font-family:sans-serif;font-size:13;" transform="matrix(1 0 0 1 263 726)">Small</text>
  <text style="stroke:none;fill:black;font-family:sans-serif;font-size:13;" transform="matrix(1 0 0 1 263 1156)">Medium</text>
  <text style="stroke:none;fill:black;font-family:sans-serif;font-size:13;" transform="matrix(1 0 0 1 263 1586)">Large</text>
 </g>
 <g id="Guides">
  <g id="H-reference" style="fill:#27AAE1;stroke:none;" transform="matrix(1 0 0 1 339 696)">
   <path d="M0.993347 0L3.6377 0L29.3282-67.1326L30.0301-67.1326L30.0301-70.459L28.1227-70.459ZM11.6882-24.4797L46.9818-24.4797L46.2311-26.7288L12.4382-26.7288ZM55.1193 0L57.7637 0L30.6381-70.459L29.4327-70.459L29.4327-67.1326Z"/>
  </g>
  <line id="Baseline-S" style="fill:none;stroke:#27AAE1;opacity:1;stroke-width:0.5;" x1="263" x2="3036" y1="696" y2="696"/>
  <line id="Capline-S" style="fill:none;stroke:#27AAE1;opacity:1;stroke-width:0.5;" x1="263" x2="3036" y1="625.541" y2="625.541"/>
  <g id="H-reference" style="fill:#27AAE1;stroke:none;" transform="matrix(1 0 0 1 339 1126)">
   <path d="M0.993347 0L3.6377 0L29.3282-67.1326L30.0301-67.1326L30.0301-70.459L28.1227-70.459ZM11.6882-24.4797L46.9818-24.4797L46.2311-26.7288L12.4382-26.7288ZM55.1193 0L57.7637 0L30.6381-70.459L29.4327-70.459L29.4327-67.1326Z"/>
  </g>
  <line id="Baseline-M" style="fill:none;stroke:#27AAE1;opacity:1;stroke-width:0.5;" x1="263" x2="3036" y1="1126" y2="1126"/>
  <line id="Capline-M" style="fill:none;stroke:#27AAE1;opacity:1;stroke-width:0.5;" x1="263" x2="3036" y1="1055.54" y2="1055.54"/>
  <g id="H-reference" style="fill:#27AAE1;stroke:none;" transform="matrix(1 0 0 1 339 1556)">
   <path d="M0.993347 0L3.6377 0L29.3282-67.1326L30.0301-67.1326L30.0301-70.459L28.1227-70.459ZM11.6882-24.4797L46.9818-24.4797L46.2311-26.7288L12.4382-26.7288ZM55.1193 0L57.7637 0L30.6381-70.459L29.4327-70.459L29.4327-67.1326Z"/>
  </g>
  <line id="Baseline-L" style="fill:none;stroke:#27AAE1;opacity:1;stroke-width:0.5;" x1="263" x2="3036" y1="1556" y2="1556"/>
  <line id="Capline-L" style="fill:none;stroke:#27AAE1;opacity:1;stroke-width:0.5;" x1="263" x2="3036" y1="1485.54" y2="1485.54"/>
  <line id="left-margin-Ultralight-S" style="fill:none;stroke:#00AEEF;stroke-width:0.5;opacity:1.0;" x1="517.683" x2="517.683" y1="600.785" y2="720.121"/>
  <line id="right-margin-Ultralight-S" style="fill:none;stroke:#00AEEF;stroke-width:0.5;opacity:1.0;" x1="601.739" x2="601.739" y1="600.785" y2="720.121"/>
  <line id="left-margin-Regular-S" style="fill:none;stroke:#00AEEF;stroke-width:0.5;opacity:1.0;" x1="1406.36" x2="1406.36" y1="600.785" y2="720.121"/>
  <line id="right-margin-Regular-S" style="fill:none;stroke:#00AEEF;stroke-width:0.5;opacity:1.0;" x1="1493.33" x2="1493.33" y1="600.785" y2="720.121"/>
  <line id="left-margin-Black-S" style="fill:none;stroke:#00AEEF;stroke-width:0.5;opacity:1.0;" x1="2886.92" x2="2886.92" y1="600.785" y2="720.121"/>
  <line id="right-margin-Black-S" style="fill:none;stroke:#00AEEF;stroke-width:0.5;opacity:1.0;" x1="2979.88" x2="2979.88" y1="600.785" y2="720.121"/>
 </g>
 <g id="Symbols">
  <g id="Black-S" transform="matrix(1 0 0 1 2886.92 696)">
   <path class="multicolor-0:systemYellowColor SFSymbolsPreviewFFCC00" d="M52.832 8.54492Q54.3945 8.54492 55.542 7.51953Q56.6895 6.49414 56.9336 4.88281Q57.8125-1.02539 58.8135-5.0293Q59.8145-9.0332 61.3525-11.6211Q62.8906-14.209 65.4297-15.7227Q67.9688-17.2363 71.8262-18.1152Q75.6836-18.9941 81.3477-19.6289Q83.0078-19.8242 84.082-20.9961Q85.1562-22.168 85.1562-23.7793Q85.1562-25.3418 84.1064-26.5137Q83.0566-27.6855 81.3965-27.9297Q75.7812-28.7598 71.9482-29.6631Q68.1152-30.5664 65.6494-32.0801Q63.1836-33.5938 61.6455-36.1084Q60.1074-38.623 59.0332-42.5781Q57.959-46.5332 56.9336-52.4414Q56.6406-54.0527 55.5176-55.0781Q54.3945-56.1035 52.832-56.1035Q51.2695-56.1035 50.1221-55.0781Q48.9746-54.0527 48.7305-52.4414Q47.8516-46.5332 46.8506-42.5293Q45.8496-38.5254 44.3115-35.9375Q42.7734-33.3496 40.2344-31.8359Q37.6953-30.3223 33.8379-29.4434Q29.9805-28.5645 24.3164-27.9297Q22.6562-27.7344 21.582-26.5625Q20.5078-25.3906 20.5078-23.7793Q20.5078-22.2168 21.5576-21.0449Q22.6074-19.873 24.2676-19.6289Q29.9316-18.8477 33.7402-17.9199Q37.5488-16.9922 40.0146-15.4785Q42.4805-13.9648 44.0186-11.4502Q45.5566-8.93555 46.6309-4.98047Q47.7051-1.02539 48.7305 4.88281Q49.0234 6.49414 50.1709 7.51953Q51.3184 8.54492 52.832 8.54492ZM23.7305-34.375Q25.6836-34.375 25.9277-36.3281Q26.416-39.9902 26.8799-42.041Q27.3438-44.0918 28.3936-45.1416Q29.4434-46.1914 31.6162-46.7773Q33.7891-47.3633 37.7441-48.0469Q39.6484-48.3887 39.6484-50.2441Q39.6484-52.1973 37.6953-52.4414Q33.8379-52.9785 31.665-53.4668Q29.4922-53.9551 28.418-55.0049Q27.3438-56.0547 26.8799-58.1787Q26.416-60.3027 25.9277-64.1113Q25.6836-66.1133 23.7305-66.1133Q21.7773-66.1133 21.5332-64.0625Q21.0938-60.4492 20.6299-58.3984Q20.166-56.3477 19.1162-55.2979Q18.0664-54.248 15.8691-53.6865Q13.6719-53.125 9.7168-52.4414Q7.8125-52.0996 7.8125-50.2441Q7.8125-48.3398 9.96094-48.0469Q13.7695-47.5098 15.918-46.9727Q18.0664-46.4355 19.1162-45.3613Q20.166-44.2871 20.6299-42.1875Q21.0938-40.0879 21.5332-36.4258Q21.7773-34.375 23.7305-34.375ZM42.4805-63.1348Q43.6523-63.1348 43.8477-64.3555Q44.2871-67.3828 44.7266-68.6768Q45.166-69.9707 46.5576-70.4834Q47.9492-70.9961 51.1719-71.6309Q52.3926-71.875 52.3926-72.998Q52.3926-74.2188 51.123-74.3652Q47.9004-74.8047 46.5332-75.2686Q45.166-75.7324 44.7266-77.0996Q44.2871-78.4668 43.8477-81.5918Q43.7012-82.8613 42.4805-82.8613Q41.2598-82.8613 41.1133-81.543Q40.7715-78.6133 40.332-77.3193Q39.8926-76.0254 38.4766-75.5371Q37.0605-75.0488 33.7891-74.3652Q32.5684-74.1211 32.5684-72.998Q32.5684-71.875 33.9355-71.6309Q37.1094-71.0938 38.4521-70.6055Q39.7949-70.1172 40.2588-68.7988Q40.7227-67.4805 41.1133-64.4043Q41.2598-63.1348 42.4805-63.1348Z"/>
  </g>
  <g id="Regular-S" transform="matrix(1 0 0 1 1406.36 696)">
   <path class="multicolor-0:systemYellowColor SFSymbolsPreviewFFCC00" d="M48.877 4.93164Q49.6582 4.93164 50.2197 4.41895Q50.7812 3.90625 50.9277 3.07617Q51.7578-3.07617 52.8076-7.2998Q53.8574-11.5234 55.542-14.3066Q57.2266-17.0898 59.9609-18.7988Q62.6953-20.5078 66.8701-21.5088Q71.0449-22.5098 77.1484-23.2422Q78.0273-23.3398 78.5889-23.9258Q79.1504-24.5117 79.1504-25.293Q79.1504-26.123 78.5889-26.709Q78.0273-27.2949 77.1484-27.3926Q71.0449-28.125 66.8701-29.126Q62.6953-30.127 59.9609-31.8359Q57.2266-33.5449 55.542-36.3281Q53.8574-39.1113 52.8076-43.335Q51.7578-47.5586 50.9277-53.6621Q50.7812-54.541 50.2197-55.0537Q49.6582-55.5664 48.877-55.5664Q48.0469-55.5664 47.5098-55.0537Q46.9727-54.541 46.8262-53.6621Q45.9473-47.5586 44.8975-43.335Q43.8477-39.1113 42.1631-36.3281Q40.4785-33.5449 37.7441-31.8359Q35.0098-30.127 30.835-29.126Q26.6602-28.125 20.5566-27.3926Q19.6777-27.2949 19.1406-26.709Q18.6035-26.123 18.6035-25.293Q18.6035-24.5117 19.1406-23.9258Q19.6777-23.3398 20.5566-23.2422Q26.6602-22.4121 30.8105-21.3623Q34.9609-20.3125 37.6953-18.6279Q40.4297-16.9434 42.1143-14.209Q43.7988-11.4746 44.8486-7.27539Q45.8984-3.07617 46.8262 3.07617Q46.9727 3.90625 47.5098 4.41895Q48.0469 4.93164 48.877 4.93164ZM22.9492-37.1582Q24.2188-37.1582 24.3652-38.4766Q24.8535-42.2852 25.3906-44.4336Q25.9277-46.582 27.0752-47.6807Q28.2227-48.7793 30.4932-49.3896Q32.7637-50 36.7188-50.7812Q38.0371-51.0254 38.0371-52.1973Q38.0371-53.5156 36.7188-53.6621Q32.7637-54.1992 30.4688-54.7363Q28.1738-55.2734 27.0508-56.4209Q25.9277-57.5684 25.3906-59.79Q24.8535-62.0117 24.3652-65.918Q24.2188-67.2852 22.9492-67.2852Q21.6309-67.2852 21.4844-65.8691Q21.0449-62.0605 20.5078-59.9121Q19.9707-57.7637 18.7988-56.6895Q17.627-55.6152 15.332-55.0049Q13.0371-54.3945 9.13086-53.6621Q7.8125-53.418 7.8125-52.1973Q7.8125-50.9766 9.32617-50.7812Q13.1836-50.1465 15.4297-49.585Q17.6758-49.0234 18.8232-47.9004Q19.9707-46.7773 20.5078-44.5801Q21.0449-42.3828 21.4844-38.5742Q21.6309-37.1582 22.9492-37.1582ZM41.2598-63.6719Q42.041-63.6719 42.1875-64.4531Q42.8223-67.627 43.3105-68.9941Q43.7988-70.3613 45.1904-70.9229Q46.582-71.4844 49.8535-72.1191Q50.6836-72.3145 50.6836-73.0469Q50.6836-73.7793 49.8535-73.9746Q46.582-74.6094 45.1904-75.1709Q43.7988-75.7324 43.3105-77.124Q42.8223-78.5156 42.1875-81.6406Q42.041-82.4707 41.2598-82.4707Q40.5273-82.4707 40.3809-81.6406Q39.7461-78.5156 39.2578-77.124Q38.7695-75.7324 37.3779-75.1709Q35.9863-74.6094 32.7148-73.9746Q31.8848-73.7793 31.8848-73.0469Q31.8848-72.3145 32.7148-72.1191Q35.9863-71.4844 37.3779-70.9229Q38.7695-70.3613 39.2578-68.9941Q39.7461-67.627 40.3809-64.4531Q40.5273-63.6719 41.2598-63.6719Z"/>
  </g>
  <g id="Ultralight-S" transform="matrix(1 0 0 1 517.683 696)">
   <path class="multicolor-0:systemYellowColor SFSymbolsPreviewFFCC00" d="M46.8338 4.52271Q47.3427 4.52271 47.6543 4.21448Q47.966 3.90625 48.0217 3.48511Q48.6702-3.5759 49.5155-8.25348Q50.3609-12.9311 51.9772-15.7372Q53.5934-18.5432 56.419-20.0703Q59.2445-21.5973 63.805-22.3713Q68.3655-23.1453 75.1961-23.6961Q75.666-23.7488 75.9552-24.0395Q76.2444-24.3301 76.2444-24.7932Q76.2444-25.2602 75.9552-25.5508Q75.666-25.8415 75.1961-25.8484Q68.3655-26.445 63.805-27.1961Q59.2445-27.9472 56.419-29.4746Q53.5934-31.002 51.9772-33.8306Q50.3609-36.6592 49.5155-41.3143Q48.6702-45.9694 48.0217-53.0716Q47.966-53.4966 47.6543-53.7823Q47.3427-54.068 46.8338-54.068Q46.3211-54.068 46.011-53.7823Q45.7008-53.4966 45.6451-53.0716Q44.9936-45.9694 44.1483-41.3143Q43.3029-36.6592 41.7091-33.8306Q40.1154-31.002 37.2673-29.4746Q34.4193-27.9472 29.8584-27.1961Q25.2975-26.445 18.4677-25.8484Q17.9977-25.8415 17.7101-25.5508Q17.4225-25.2602 17.4225-24.7932Q17.4225-24.3301 17.7101-24.0395Q17.9977-23.7488 18.4677-23.6961Q25.2525-22.9118 29.789-22.0661Q34.3254-21.2204 37.1277-19.7403Q39.93-18.2602 41.5237-15.5033Q43.1175-12.7464 44.0086-8.16116Q44.8997-3.5759 45.6451 3.48511Q45.7008 3.90625 46.011 4.21448Q46.3211 4.52271 46.8338 4.52271ZM20.8603-38.7474Q21.3127-38.7474 21.4134-39.2029Q22.0383-43.0573 22.5525-45.1603Q23.0667-47.2633 24.1234-48.2937Q25.1801-49.324 27.3373-49.889Q29.4945-50.4539 33.4038-51.2352Q33.905-51.3435 33.905-51.7883Q33.905-52.2438 33.4038-52.2995Q29.4945-53.1097 27.3357-53.6694Q25.177-54.229 24.1219-55.2402Q23.0667-56.2515 22.5525-58.3595Q22.0383-60.4675 21.4134-64.3288Q21.3127-64.8331 20.8603-64.8331Q20.4048-64.8331 20.3033-64.325Q19.6823-60.5164 19.1906-58.4133Q18.6989-56.3103 17.6636-55.2814Q16.6283-54.2526 14.4466-53.6652Q12.265-53.0777 8.31375-52.2995Q7.8125-52.2369 7.8125-51.7883Q7.8125-51.3397 8.32748-51.2352Q12.2757-50.4646 14.4535-49.9031Q16.6313-49.3416 17.6651-48.3093Q18.6989-47.2771 19.1906-45.1706Q19.6823-43.0641 20.3033-39.2097Q20.4048-38.7474 20.8603-38.7474ZM39.9879-64.2166Q40.5426-64.2166 40.5983-64.7713Q40.9607-67.6727 41.4036-69.1986Q41.8465-70.7245 43.3514-71.4222Q44.8563-72.1199 48.3551-72.5281Q48.9128-72.6326 48.9128-73.1377Q48.9128-73.6885 48.3551-73.7473Q44.8563-74.1554 43.3514-74.8531Q41.8465-75.5508 41.4036-77.0786Q40.9607-78.6064 40.5983-81.5041Q40.5426-82.0618 39.9879-82.0618Q39.4829-82.0618 39.4272-81.5041Q39.0648-78.6064 38.6219-77.0786Q38.179-75.5508 36.6741-74.8531Q35.1692-74.1554 31.6254-73.7473Q31.1127-73.6885 31.1127-73.1377Q31.1127-72.6326 31.6254-72.5281Q35.1692-72.1199 36.6741-71.4222Q38.179-70.7245 38.6219-69.1986Q39.0648-67.6727 39.4272-64.7713Q39.4829-64.2166 39.9879-64.2166Z"/>
  </g>
 </g>
</svg>
