<svg width="88" height="89" viewBox="0 0 88 89" fill="none" xmlns="http://www.w3.org/2000/svg">
<path d="M18.3106 58.4473H65.625C69.8568 58.4473 73.641 57.4707 76.9776 55.5176C80.3142 53.5645 82.9427 50.9522 84.8633 47.6807C86.7839 44.4092 87.7442 40.7877 87.7442 36.8164C87.7442 32.6823 86.7269 29.0039 84.6924 25.7812C82.6579 22.5586 79.891 20.0196 76.3916 18.1641C72.8922 16.3086 68.9616 15.3808 64.5996 15.3808C63.0046 12.2558 60.9701 9.54587 58.4961 7.251C56.0221 4.95607 53.2064 3.17383 50.0489 1.9043C46.8913 0.634764 43.5058 0 39.8926 0C35.0423 0 30.5908 1.13933 26.5381 3.418C22.4853 5.6966 19.165 8.75647 16.5772 12.5976C13.9892 16.4388 12.4837 20.7357 12.0606 25.4883C8.61003 26.4974 5.73729 28.4423 3.44236 31.3232C1.14745 34.2041 0 37.679 0 41.748C0 44.8405 0.716147 47.6481 2.14844 50.1709C3.58072 52.6937 5.66406 54.7038 8.39846 56.2012C11.1328 57.6986 14.4368 58.4473 18.3106 58.4473Z" fill="#808080"/>
<path d="M19.7265 76.1718L24.4628 67.9687C24.8535 67.3176 24.9512 66.6585 24.7558 65.9911C24.5605 65.3238 24.1536 64.7948 23.5351 64.4042C22.8515 64.0462 22.1842 63.9566 21.5331 64.1356C20.8821 64.3147 20.3613 64.7298 19.9706 65.3808L15.1855 73.6816C14.86 74.2675 14.7786 74.8941 14.9413 75.5615C15.1041 76.2288 15.5273 76.7415 16.2109 77.0995C16.8294 77.4576 17.4804 77.5471 18.164 77.3681C18.8476 77.1891 19.3685 76.7903 19.7265 76.1718ZM31.6406 86.9628L36.3769 78.7597C36.7675 78.1087 36.8652 77.4495 36.6699 76.7822C36.4746 76.1148 36.0677 75.5859 35.4492 75.1952C34.7982 74.8372 34.139 74.7477 33.4716 74.9267C32.8043 75.1057 32.2753 75.5208 31.8847 76.1718L27.1484 84.4238C26.7904 85.0422 26.7008 85.6851 26.8798 86.3524C27.0589 87.0198 27.4739 87.5325 28.1249 87.8905C28.7435 88.2486 29.3945 88.3381 30.0781 88.1591C30.7617 87.9801 31.2826 87.5813 31.6406 86.9628ZM50.1464 76.123L54.8828 67.9199C55.2734 67.2688 55.3711 66.6096 55.1757 65.9423C54.9805 65.275 54.5736 64.746 53.955 64.3554C53.2714 63.9973 52.6041 63.9078 51.9531 64.0868C51.3021 64.2659 50.7812 64.681 50.3906 65.332L45.6542 73.6327C45.2962 74.2187 45.1985 74.8453 45.3613 75.5126C45.5241 76.1799 45.9472 76.6926 46.6308 77.0507C47.2493 77.4088 47.9003 77.4983 48.5839 77.3193C49.2675 77.1402 49.7884 76.7415 50.1464 76.123ZM62.0605 86.914L66.7968 78.7109C67.1875 78.0598 67.2933 77.4007 67.1142 76.7333C66.9352 76.066 66.5201 75.537 65.8691 75.1464C65.2181 74.7883 64.5589 74.6988 63.8915 74.8779C63.2243 75.0569 62.6953 75.4719 62.3046 76.123L57.5683 84.4238C57.2103 85.0097 57.1207 85.6363 57.2997 86.3036C57.4788 86.971 57.8939 87.4837 58.5449 87.8417C59.1959 88.1998 59.8632 88.2893 60.5468 88.1102C61.2304 87.9312 61.735 87.5325 62.0605 86.914Z" fill="#497DFA"/>
</svg>
