<svg width="95" height="99" viewBox="0 0 95 99" fill="none" xmlns="http://www.w3.org/2000/svg">
<path d="M21.3379 64.5507H69.9707C74.6582 64.5507 78.8818 63.4684 82.6416 61.3037C86.4014 59.139 89.3718 56.2011 91.5528 52.4902C93.7336 48.7793 94.8241 44.6289 94.8241 40.039C94.8241 35.4166 93.758 31.2418 91.626 27.5146C89.4938 23.7874 86.5804 20.817 82.8858 18.6035C79.1911 16.39 75 15.2832 70.3125 15.2832C68.8802 12.5488 67.0003 10.0179 64.6729 7.6904C62.3454 5.36293 59.4645 3.49934 56.0303 2.0996C52.596 0.699868 48.4863 0 43.7012 0C38.3626 0 33.5449 1.1393 29.2481 3.4179C24.9512 5.69657 21.4112 8.77273 18.628 12.6464C15.8448 16.5201 14.0625 20.8659 13.2813 25.6836C9.50519 27.0833 6.34763 29.3864 3.80856 32.5927C1.26952 35.7991 0 39.6809 0 44.2382C0 48.0794 0.90332 51.5299 2.70996 54.5898C4.51663 57.6497 7.02313 60.0748 10.2295 61.8652C13.4359 63.6555 17.1387 64.5507 21.3379 64.5507Z" fill="#808080"/>
<path d="M32.3243 96.5332L43.3594 77.5391C43.8151 76.7253 43.9453 75.8626 43.75 74.9512C43.5547 74.0397 43.0339 73.3398 42.1875 72.8516C41.3412 72.3633 40.4867 72.2656 39.6241 72.5586C38.7614 72.8516 38.086 73.4212 37.5977 74.2676L26.5625 93.2617C26.1068 94.0755 25.9684 94.93 26.1475 95.8252C26.3266 96.7204 26.8393 97.4121 27.6856 97.9004C28.5319 98.3887 29.4027 98.4863 30.2979 98.1933C31.1931 97.9004 31.8686 97.347 32.3243 96.5332ZM47.461 96.582L58.4961 77.5879C58.9518 76.7741 59.0821 75.9115 58.8868 75C58.6915 74.0885 58.1706 73.3887 57.3243 72.9004C56.4779 72.4121 55.6234 72.3145 54.7608 72.6074C53.8981 72.9004 53.2227 73.4701 52.7344 74.3164L41.6993 93.3105C41.2436 94.1243 41.1052 94.9788 41.2842 95.874C41.4633 96.7692 41.976 97.461 42.8223 97.9492C43.6686 98.4375 44.5394 98.5352 45.4346 98.2422C46.3298 97.9492 47.0053 97.3958 47.461 96.582ZM16.9922 96.582L28.0274 77.5879C28.4831 76.7741 28.6133 75.9115 28.418 75C28.2227 74.0885 27.7018 73.3887 26.8555 72.9004C26.0092 72.4121 25.1547 72.3145 24.292 72.6074C23.4294 72.9004 22.754 73.4701 22.2657 74.3164L11.2305 93.3105C10.7748 94.1243 10.6364 94.9788 10.8155 95.874C10.9945 96.7692 11.5072 97.461 12.3536 97.9492C13.1999 98.4375 14.0707 98.5352 14.9659 98.2422C15.861 97.9492 16.5365 97.3958 16.9922 96.582ZM62.793 96.5332L73.8282 77.5391C74.2839 76.7253 74.4141 75.8626 74.2188 74.9512C74.0235 74.0397 73.5026 73.3398 72.6563 72.8516C71.81 72.3633 70.9555 72.2656 70.0928 72.5586C69.2302 72.8516 68.5547 73.4212 68.0664 74.2676L57.0313 93.2617C56.5756 94.0755 56.4372 94.93 56.6162 95.8252C56.7953 96.7204 57.308 97.4121 58.1543 97.9004C59.0007 98.3887 59.8715 98.4863 60.7666 98.1933C61.6618 97.9004 62.3373 97.347 62.793 96.5332Z" fill="#497DFA"/>
</svg>
