<svg width="99" height="82" viewBox="0 0 99 82" fill="none" xmlns="http://www.w3.org/2000/svg">
<path d="M69.9706 62.0605C69.9706 58.2519 69.0185 54.7525 67.1143 51.5625C65.2099 48.3723 62.6709 45.8252 59.4971 43.9209C56.3233 42.0166 52.8321 41.0644 49.0235 41.0644C45.2149 41.0644 41.7236 42.0166 38.5498 43.9209C35.376 45.8252 32.8369 48.3723 30.9326 51.5625C29.0283 54.7525 28.0762 58.2519 28.0762 62.0605C28.0762 64.5345 28.5156 66.9433 29.3946 69.2871H68.6524C69.5312 66.9433 69.9706 64.5345 69.9706 62.0605ZM23.9746 42.1387C24.7884 42.9525 25.708 43.3756 26.7334 43.4082C27.7588 43.4407 28.6133 43.0989 29.2969 42.3828C29.9805 41.6992 30.306 40.8447 30.2735 39.8193C30.2409 38.7939 29.8177 37.8743 29.0039 37.0605L23.0957 31.1523C22.2819 30.3385 21.3786 29.9234 20.3858 29.9072C19.3929 29.8909 18.5384 30.2246 17.8223 30.9082C17.1061 31.5918 16.7562 32.4463 16.7725 33.4717C16.7887 34.4971 17.22 35.4167 18.0664 36.2305L23.9746 42.1387ZM68.75 42.3828C69.4661 43.0664 70.3287 43.4001 71.3379 43.3838C72.347 43.3675 73.2585 42.9525 74.0723 42.1387L79.9805 36.2305C80.7943 35.4167 81.2093 34.5052 81.2256 33.4961C81.2418 32.487 80.9081 31.6243 80.2245 30.9082C79.5409 30.2246 78.6946 29.8909 77.6856 29.9072C76.6764 29.9234 75.7649 30.3385 74.9511 31.1523L69.043 37.0605C68.2292 37.8743 67.7978 38.7939 67.749 39.8193C67.7002 40.8447 68.0338 41.6992 68.75 42.3828ZM8.83785 64.6973H17.1875C18.3268 64.6973 19.279 64.3473 20.044 63.6474C20.8089 62.9475 21.1751 62.1093 21.1426 61.1328C21.11 60.1563 20.7275 59.318 19.9951 58.6182C19.2627 57.9182 18.3268 57.5683 17.1875 57.5683H8.83785C7.66598 57.5683 6.71385 57.9182 5.98145 58.6182C5.24898 59.318 4.88275 60.1563 4.88275 61.1328C4.88275 62.1093 5.24898 62.9475 5.98145 63.6474C6.71385 64.3473 7.66598 64.6973 8.83785 64.6973ZM80.8594 64.6973H89.209C90.3806 64.6973 91.3327 64.3473 92.0654 63.6474C92.798 62.9475 93.1644 62.1093 93.1644 61.1328C93.1644 60.1563 92.798 59.318 92.0654 58.6182C91.3327 57.9182 90.3806 57.5683 89.209 57.5683H80.8594C79.72 57.5683 78.7679 57.9182 78.003 58.6182C77.238 59.318 76.8717 60.1563 76.9043 61.1328C76.9369 62.1093 77.3194 62.9475 78.0518 63.6474C78.7842 64.3473 79.72 64.6973 80.8594 64.6973Z" fill="#FFD60A"/>
<path d="M3.80858 81.1035H94.2384C95.2797 81.1035 96.1747 80.7617 96.9234 80.0781C97.6721 79.3945 98.0464 78.5644 98.0464 77.5879C98.0464 76.6439 97.6721 75.8219 96.9234 75.1221C96.1747 74.4222 95.2797 74.0723 94.2384 74.0723H3.80858C2.76691 74.0723 1.87175 74.4222 1.12308 75.1221C0.374359 75.8219 0 76.6439 0 77.5879C0 78.5644 0.374359 79.3945 1.12308 80.0781C1.87175 80.7617 2.76691 81.1035 3.80858 81.1035ZM49.0235 31.9824C50 31.9824 50.8382 31.6081 51.5381 30.8594C52.2379 30.1107 52.5879 29.1992 52.5879 28.125V14.209L52.0508 8.6914L54.5899 11.7187L58.9844 16.1621C59.2774 16.455 59.6273 16.691 60.0342 16.8701C60.4411 17.0492 60.8561 17.1387 61.2793 17.1387C62.1582 17.1387 62.8744 16.8701 63.4278 16.333C63.9811 15.7959 64.2578 15.1041 64.2578 14.2578C64.2578 13.8021 64.1764 13.3952 64.0137 13.0371C63.8509 12.679 63.6068 12.3372 63.2813 12.0117L51.3672 1.12299C50.5534 0.374327 49.7721 0 49.0235 0C48.2747 0 47.4935 0.374327 46.6797 1.12299L34.7656 12.0117C34.4401 12.3372 34.196 12.679 34.0332 13.0371C33.8704 13.3952 33.7891 13.8021 33.7891 14.2578C33.7891 15.1041 34.0658 15.7959 34.6192 16.333C35.1725 16.8701 35.8886 17.1387 36.7676 17.1387C37.1908 17.1387 37.6058 17.0492 38.0127 16.8701C38.4196 16.691 38.7695 16.455 39.0625 16.1621L43.9453 11.2305L45.9961 8.6914L45.459 14.209V28.125C45.459 29.1992 45.8089 30.1107 46.5088 30.8594C47.2086 31.6081 48.0469 31.9824 49.0235 31.9824Z" fill="#808080"/>
</svg>
