<svg width="83" height="68" viewBox="0 0 83 68" fill="none" xmlns="http://www.w3.org/2000/svg">
<path d="M15.8442 21.4844C19.2946 21.4844 22.4766 20.9961 25.3901 20.0195C28.3035 19.043 31.0622 17.8385 33.6664 16.4062C36.2706 14.9739 38.8503 13.5417 41.4057 12.1094C43.961 10.6771 46.6059 9.47263 49.3403 8.4961C52.0746 7.5195 55.0531 7.0312 58.2758 7.0312C60.0662 7.0312 61.8158 7.25906 63.5248 7.7148C65.2338 8.17053 67.0648 8.9518 69.018 10.0586C69.9294 10.5794 70.7921 10.7096 71.6059 10.4492C72.4197 10.1888 73.0544 9.73306 73.5102 9.082C74.0636 8.30073 74.267 7.3893 74.1205 6.3477C73.974 5.30596 73.266 4.42703 71.9965 3.7109C67.7647 1.23697 63.1912 0 58.2758 0C54.7927 0 51.5945 0.488265 48.6811 1.4648C45.7677 2.4414 43.0089 3.64583 40.4047 5.0781C37.8005 6.51043 35.2289 7.94273 32.6899 9.375C30.1508 10.8073 27.5059 12.0117 24.7553 12.9883C22.0046 13.9648 19.0342 14.4531 15.8442 14.4531C14.0538 14.4531 12.3041 14.2252 10.5951 13.7695C8.88613 13.3138 7.0551 12.5325 5.10196 11.4258C4.1905 10.9049 3.31973 10.7747 2.48966 11.0351C1.6596 11.2956 1.03296 11.7676 0.609764 12.4512C0.0889236 13.2324 -0.0982532 14.1438 0.0482335 15.1855C0.19472 16.2272 0.870164 17.0898 2.07456 17.7734C6.3389 20.2474 10.9288 21.4844 15.8442 21.4844ZM15.893 41.9922C18.9203 41.9922 21.7198 41.6178 24.2914 40.8691C26.863 40.1204 29.3126 39.152 31.6401 37.9639C33.9675 36.7757 36.238 35.5387 38.4516 34.2529C40.6651 32.9671 42.9193 31.779 45.2143 30.6885C47.5092 29.598 49.9262 28.776 52.4653 28.2227C53.1488 26.9532 53.8324 25.6836 54.516 24.4141C55.1996 23.1446 55.8832 21.8587 56.5668 20.5566C53.3116 20.7519 50.3005 21.3623 47.5336 22.3877C44.7666 23.4131 42.1299 24.6257 39.6235 26.0254C37.1169 27.4251 34.6348 28.8086 32.1772 30.1758C29.7194 31.543 27.1641 32.6823 24.5112 33.5937C21.8582 34.5052 18.9854 34.9609 15.893 34.9609C14.1026 34.9609 12.3529 34.733 10.644 34.2773C8.93496 33.8216 7.1039 33.0403 5.15076 31.9336C4.2393 31.4127 3.36853 31.2825 2.53846 31.543C1.7084 31.8034 1.08176 32.2754 0.658563 32.959C0.137743 33.7403 -0.0494231 34.6517 0.0970635 35.6934C0.24353 36.7351 0.918996 37.5977 2.12346 38.2812C6.38773 40.7552 10.9776 41.9922 15.893 41.9922ZM15.8442 62.5C18.7087 62.5 21.378 62.1501 23.852 61.4502C26.3259 60.7503 28.6859 59.8551 30.9321 58.7646C33.1781 57.6741 35.3591 56.5185 37.475 55.2978C39.5909 54.0771 41.7556 52.9297 43.9692 51.8555C43.839 50.944 43.8796 49.7152 44.0912 48.1689C44.3028 46.6227 44.6039 45.1986 44.9946 43.8965C42.5206 44.9382 40.1361 46.1182 37.8412 47.4365C35.5463 48.7549 33.2595 50.0244 30.9809 51.2451C28.7022 52.4658 26.3259 53.475 23.852 54.2725C21.378 55.07 18.7087 55.4687 15.8442 55.4687C14.0538 55.4687 12.3041 55.2408 10.5951 54.7851C8.88613 54.3294 7.0551 53.5482 5.10196 52.4414C4.1905 51.9205 3.31973 51.7903 2.48966 52.0508C1.6596 52.3112 1.03296 52.7832 0.609764 53.4668C0.0889236 54.2481 -0.0982532 55.1595 0.0482335 56.2012C0.19472 57.2428 0.870164 58.1055 2.07456 58.7891C6.3389 61.263 10.9288 62.5 15.8442 62.5Z" fill="#497DFA"/>
<path d="M66.1372 67.2851C69.2296 67.2851 72.0373 66.5608 74.5601 65.1123C77.0829 63.6637 79.0848 61.7106 80.5659 59.2529C82.047 56.7952 82.7876 54.069 82.7876 51.0742C82.7876 48.5676 82.283 46.1181 81.274 43.7256C80.2648 41.333 79.2232 39.1276 78.149 37.1094L69.5552 21.1426C68.8065 19.7428 67.6672 19.043 66.1372 19.043C64.6398 19.043 63.5167 19.7428 62.7681 21.1426L54.1743 37.1094C53.1001 39.1276 52.0666 41.333 51.0738 43.7256C50.0809 46.1181 49.5845 48.5676 49.5845 51.0742C49.5845 54.069 50.325 56.7952 51.8062 59.2529C53.2873 61.7106 55.2811 63.6637 57.7876 65.1123C60.2941 66.5608 63.0773 67.2851 66.1372 67.2851Z" fill="#497DFA"/>
</svg>
