<svg width="101" height="66" viewBox="0 0 101 66" fill="none" xmlns="http://www.w3.org/2000/svg">
<path d="M16.2598 65.625H57.5196C61.1654 65.625 64.4694 64.7786 67.4317 63.0859C70.3939 61.3932 72.7376 59.1064 74.4629 56.2256C76.1881 53.3447 77.0508 50.0976 77.0508 46.4844C77.0508 42.9036 76.1637 39.6891 74.3897 36.8408C72.6156 33.9925 70.2067 31.7383 67.1631 30.0781C64.1195 28.4179 60.6608 27.5716 56.7871 27.5391C55.3223 24.7396 53.4831 22.347 51.2696 20.3613C49.056 18.3756 46.5739 16.8457 43.8233 15.7715C41.0726 14.6973 38.151 14.1602 35.0586 14.1602C30.8594 14.1602 26.9775 15.1449 23.4131 17.1143C19.8486 19.0837 16.9108 21.7448 14.5996 25.0977C12.2884 28.4505 10.9375 32.2266 10.5469 36.4258C7.32421 37.4349 4.76074 39.2334 2.85644 41.8213C0.952147 44.4091 0 47.4121 0 50.8301C0 55.2246 1.50553 58.789 4.5166 61.5234C7.52764 64.2578 11.442 65.625 16.2598 65.625Z" fill="#808080"/>
<path d="M81.836 45.8008C84.7006 45.3125 87.2884 44.4011 89.5996 43.0664C91.9108 41.7318 93.8965 40.1612 95.5567 38.3545C97.2169 36.5478 98.4947 34.6842 99.3901 32.7637C100.285 30.8431 100.732 29.0365 100.732 27.3438C100.732 26.53 100.553 25.8464 100.195 25.293C99.8371 24.7396 99.3327 24.4629 98.6821 24.4629C97.9981 24.4629 97.2247 24.6826 96.3621 25.1221C95.4996 25.5616 94.4417 26.001 93.1885 26.4404C91.9352 26.8799 90.3646 27.0996 88.4766 27.0996C83.8867 27.0996 80.2409 25.8301 77.5391 23.291C74.8373 20.7519 73.4864 17.3991 73.4864 13.2324C73.4864 11.5071 73.7305 9.94463 74.2188 8.5449C74.707 7.14516 75.1872 5.9082 75.6592 4.834C76.1312 3.7598 76.3672 2.84833 76.3672 2.09959C76.3672 0.699861 75.5696 0 73.9746 0C71.7936 0.0325333 69.4011 0.821928 66.7969 2.36819C64.1927 3.91439 61.8246 6.03843 59.6924 8.7403C57.5602 11.4421 56.1035 14.5183 55.3223 17.9688C55.9733 18.5547 56.6081 19.2627 57.2266 20.0928C57.845 20.9229 58.4147 21.875 58.9356 22.9492C63.3301 23.3073 67.2526 24.5768 70.7032 26.7578C74.1536 28.9388 76.8636 31.6976 78.833 35.0342C80.8024 38.3708 81.8034 41.9597 81.836 45.8008Z" fill="#FFD60A"/>
</svg>
