<svg width="99" height="82" viewBox="0 0 99 82" fill="none" xmlns="http://www.w3.org/2000/svg">
<path d="M69.9707 62.0605C69.9707 58.2519 69.0186 54.7525 67.1143 51.5625C65.21 48.3723 62.6709 45.8252 59.4971 43.9209C56.3233 42.0166 52.8321 41.0644 49.0235 41.0644C45.2149 41.0644 41.7237 42.0166 38.5498 43.9209C35.376 45.8252 32.8369 48.3723 30.9326 51.5625C29.0283 54.7525 28.0762 58.2519 28.0762 62.0605C28.0762 64.5345 28.5157 66.9433 29.3946 69.2871H68.6524C69.5313 66.9433 69.9707 64.5345 69.9707 62.0605ZM23.9746 42.1387C24.7884 42.9525 25.708 43.3756 26.7334 43.4082C27.7588 43.4407 28.6133 43.0989 29.2969 42.3828C29.9805 41.6992 30.306 40.8447 30.2735 39.8193C30.2409 38.7939 29.8177 37.8743 29.0039 37.0605L23.0957 31.1523C22.2819 30.3385 21.3786 29.9234 20.3858 29.9072C19.3929 29.8909 18.5384 30.2246 17.8223 30.9082C17.1062 31.5918 16.7562 32.4463 16.7725 33.4717C16.7888 34.4971 17.2201 35.4167 18.0664 36.2305L23.9746 42.1387ZM68.75 42.3828C69.4661 43.0664 70.3288 43.4001 71.3379 43.3838C72.347 43.3675 73.2585 42.9525 74.0723 42.1387L79.9805 36.2305C80.7943 35.4167 81.2093 34.5052 81.2256 33.4961C81.2419 32.487 80.9082 31.6243 80.2246 30.9082C79.541 30.2246 78.6947 29.8909 77.6856 29.9072C76.6765 29.9234 75.765 30.3385 74.9512 31.1523L69.043 37.0605C68.2292 37.8743 67.7979 38.7939 67.749 39.8193C67.7002 40.8447 68.0339 41.6992 68.75 42.3828ZM8.83791 64.6973H17.1875C18.3268 64.6973 19.279 64.3473 20.044 63.6474C20.8089 62.9475 21.1751 62.1093 21.1426 61.1328C21.1101 60.1563 20.7276 59.318 19.9951 58.6182C19.2627 57.9182 18.3268 57.5683 17.1875 57.5683H8.83791C7.66605 57.5683 6.71391 57.9182 5.98151 58.6182C5.24905 59.318 4.88281 60.1563 4.88281 61.1328C4.88281 62.1093 5.24905 62.9475 5.98151 63.6474C6.71391 64.3473 7.66605 64.6973 8.83791 64.6973ZM80.8594 64.6973H89.209C90.3806 64.6973 91.3327 64.3473 92.0654 63.6474C92.7981 62.9475 93.1644 62.1093 93.1644 61.1328C93.1644 60.1563 92.7981 59.318 92.0654 58.6182C91.3327 57.9182 90.3806 57.5683 89.209 57.5683H80.8594C79.7201 57.5683 78.7679 57.9182 78.003 58.6182C77.238 59.318 76.8718 60.1563 76.9043 61.1328C76.9369 62.1093 77.3194 62.9475 78.0518 63.6474C78.7842 64.3473 79.7201 64.6973 80.8594 64.6973Z" fill="#FFD60A"/>
<path d="M3.80858 81.1035H94.2384C95.2797 81.1035 96.1747 80.7617 96.9234 80.0781C97.6721 79.3945 98.0464 78.5644 98.0464 77.5879C98.0464 76.6439 97.6721 75.8219 96.9234 75.1221C96.1747 74.4222 95.2797 74.0723 94.2384 74.0723H3.80858C2.76691 74.0723 1.87175 74.4222 1.12308 75.1221C0.374359 75.8219 0 76.6439 0 77.5879C0 78.5644 0.374359 79.3945 1.12308 80.0781C1.87175 80.7617 2.76691 81.1035 3.80858 81.1035ZM49.0235 0C48.0469 0 47.2086 0.374327 46.5088 1.12299C45.8089 1.87173 45.459 2.7832 45.459 3.8574V17.7734L45.9961 23.291L43.9453 20.7519L39.0625 15.8691C38.7695 15.5436 38.4196 15.2913 38.0127 15.1123C37.6058 14.9332 37.1908 14.8437 36.7676 14.8437C35.8886 14.8437 35.1725 15.1123 34.6192 15.6494C34.0658 16.1865 33.7891 16.8783 33.7891 17.7246C33.7891 18.1803 33.8704 18.5872 34.0332 18.9453C34.196 19.3034 34.4401 19.6452 34.7656 19.9707L46.6797 30.8594C47.4935 31.6081 48.2747 31.9824 49.0235 31.9824C49.7721 31.9824 50.5534 31.6081 51.3672 30.8594L63.2813 19.9707C63.6068 19.6452 63.8509 19.3034 64.0137 18.9453C64.1764 18.5872 64.2578 18.1803 64.2578 17.7246C64.2578 16.8783 63.9811 16.1865 63.4278 15.6494C62.8744 15.1123 62.1582 14.8437 61.2793 14.8437C60.8561 14.8437 60.4411 14.9332 60.0342 15.1123C59.6273 15.2913 59.2774 15.5436 58.9844 15.8691L54.5899 20.2637L52.0508 23.291L52.5879 17.7734V3.8574C52.5879 2.7832 52.2379 1.87173 51.5381 1.12299C50.8382 0.374327 50 0 49.0235 0Z" fill="#808080"/>
</svg>
