<svg width="88" height="90" viewBox="0 0 88 90" fill="none" xmlns="http://www.w3.org/2000/svg">
<path d="M18.3106 58.4473H65.625C69.8568 58.4473 73.641 57.4707 76.9776 55.5176C80.3142 53.5645 82.9427 50.9522 84.8633 47.6807C86.7839 44.4092 87.7442 40.7877 87.7442 36.8164C87.7442 32.6823 86.7269 29.0039 84.6924 25.7812C82.6579 22.5586 79.891 20.0196 76.3916 18.1641C72.8922 16.3086 68.9616 15.3808 64.5996 15.3808C63.0046 12.2558 60.9701 9.54587 58.4961 7.251C56.0221 4.95607 53.2064 3.17383 50.0489 1.9043C46.8913 0.634764 43.5058 0 39.8926 0C35.0423 0 30.5908 1.13933 26.5381 3.418C22.4853 5.6966 19.165 8.75647 16.5772 12.5976C13.9892 16.4388 12.4837 20.7357 12.0606 25.4883C8.61003 26.4974 5.73729 28.4423 3.44236 31.3232C1.14745 34.2041 0 37.679 0 41.748C0 44.8405 0.716147 47.6481 2.14844 50.1709C3.58072 52.6937 5.66406 54.7038 8.39846 56.2012C11.1328 57.6986 14.4368 58.4473 18.3106 58.4473Z" fill="#808080"/>
<path d="M40.1367 77.9296L45.8495 68.0175C46.2077 67.3664 46.3053 66.7072 46.1425 66.0399C45.9798 65.3726 45.5729 64.8437 44.9218 64.453C44.2708 64.0949 43.6035 64.0054 42.9199 64.1845C42.2363 64.3635 41.7155 64.7785 41.3574 65.4296L35.6445 75.3905C35.2865 76.009 35.1969 76.6519 35.3759 77.3192C35.555 77.9865 35.97 78.4992 36.621 78.8573C37.2721 79.2154 37.9394 79.3049 38.623 79.1259C39.3066 78.9468 39.8112 78.5481 40.1367 77.9296ZM56.2988 84.0331C57.4707 84.0331 58.4798 83.6018 59.3261 82.7392C60.1725 81.8765 60.5956 80.843 60.5956 79.6386C60.5956 78.4992 60.1725 77.4983 59.3261 76.6356C58.4798 75.773 57.4707 75.3417 56.2988 75.3417C55.0944 75.3417 54.069 75.773 53.2226 76.6356C52.3763 77.4983 51.9531 78.4992 51.9531 79.6386C51.9531 80.843 52.3763 81.8765 53.2226 82.7392C54.069 83.6018 55.0944 84.0331 56.2988 84.0331ZM32.9101 89.746C34.082 89.746 35.0911 89.3147 35.9374 88.452C36.7838 87.5894 37.207 86.5559 37.207 85.3514C37.207 84.2121 36.7838 83.2112 35.9374 82.3485C35.0911 81.4859 34.082 81.0546 32.9101 81.0546C31.7057 81.0546 30.6803 81.4859 29.8339 82.3485C28.9876 83.2112 28.5644 84.2121 28.5644 85.3514C28.5644 86.5559 28.9876 87.5894 29.8339 88.452C30.6803 89.3147 31.7057 89.746 32.9101 89.746ZM16.2109 83.8866C17.3828 83.8866 18.3919 83.4553 19.2382 82.5927C20.0846 81.73 20.5078 80.6965 20.5078 79.4921C20.5078 78.3528 20.0846 77.3518 19.2382 76.4892C18.3919 75.6265 17.3828 75.1952 16.2109 75.1952C15.0065 75.1952 13.9811 75.6265 13.1347 76.4892C12.2884 77.3518 11.8652 78.3528 11.8652 79.4921C11.8652 80.6965 12.2884 81.73 13.1347 82.5927C13.9811 83.4553 15.0065 83.8866 16.2109 83.8866ZM23.4374 72.0702L25.7812 67.9686C26.1393 67.3501 26.237 66.6991 26.0742 66.0155C25.9114 65.3319 25.5045 64.7948 24.8535 64.4042C24.2025 64.0461 23.5351 63.9647 22.8515 64.16C22.1679 64.3553 21.6471 64.7623 21.289 65.3808L18.9452 69.5311C18.6198 70.1496 18.5384 70.7925 18.7011 71.4599C18.8639 72.1272 19.2708 72.6399 19.9218 72.9979C20.5729 73.356 21.2402 73.4455 21.9238 73.2665C22.6074 73.0875 23.112 72.6887 23.4374 72.0702ZM63.5253 72.2167L65.8691 68.1151C66.2272 67.4966 66.3248 66.8456 66.162 66.162C65.9993 65.4784 65.5924 64.9413 64.9413 64.5507C64.2903 64.1926 63.623 64.1112 62.9394 64.3065C62.2558 64.5018 61.735 64.9087 61.3769 65.5272L59.0331 69.6776C58.7077 70.2961 58.6263 70.939 58.789 71.6063C58.9518 72.2737 59.3587 72.7863 60.0097 73.1444C60.6608 73.5025 61.3281 73.592 62.0117 73.413C62.6953 73.2339 63.1998 72.8352 63.5253 72.2167Z" fill="#497DFA"/>
</svg>
