<?xml version="1.0" encoding="UTF-8"?>
<!--Generator: Apple Native CoreSVG 175-->
<!DOCTYPE svg
PUBLIC "-//W3C//DTD SVG 1.1//EN"
       "http://www.w3.org/Graphics/SVG/1.1/DTD/svg11.dtd">
<svg version="1.1" xmlns="http://www.w3.org/2000/svg" xmlns:xlink="http://www.w3.org/1999/xlink" width="3300" height="2200">
 <!--glyph: "uni1001E5.medium", point size: 100.0, font version: "17.3d3e1", template writer version: "65.1"-->
 <style>.multicolor-0:white {fill:#FFFFFF;opacity:1.0}

.SFSymbolsPreviewFFFFFF {fill:#FFFFFF;opacity:1.0}
</style>
 <g id="Notes">
  <rect height="2200" id="artboard" style="fill:white;opacity:1" width="3300" x="0" y="0"/>
  <line style="fill:none;stroke:black;opacity:1;stroke-width:0.5;" x1="263" x2="3036" y1="292" y2="292"/>
  <text style="stroke:none;fill:black;font-family:sans-serif;font-size:13;font-weight:bold;" transform="matrix(1 0 0 1 263 322)">Weight/Scale Variations</text>
  <text style="stroke:none;fill:black;font-family:sans-serif;font-size:13;text-anchor:middle;" transform="matrix(1 0 0 1 559.711 322)">Ultralight</text>
  <text style="stroke:none;fill:black;font-family:sans-serif;font-size:13;text-anchor:middle;" transform="matrix(1 0 0 1 856.422 322)">Thin</text>
  <text style="stroke:none;fill:black;font-family:sans-serif;font-size:13;text-anchor:middle;" transform="matrix(1 0 0 1 1153.13 322)">Light</text>
  <text style="stroke:none;fill:black;font-family:sans-serif;font-size:13;text-anchor:middle;" transform="matrix(1 0 0 1 1449.84 322)">Regular</text>
  <text style="stroke:none;fill:black;font-family:sans-serif;font-size:13;text-anchor:middle;" transform="matrix(1 0 0 1 1746.56 322)">Medium</text>
  <text style="stroke:none;fill:black;font-family:sans-serif;font-size:13;text-anchor:middle;" transform="matrix(1 0 0 1 2043.27 322)">Semibold</text>
  <text style="stroke:none;fill:black;font-family:sans-serif;font-size:13;text-anchor:middle;" transform="matrix(1 0 0 1 2339.98 322)">Bold</text>
  <text style="stroke:none;fill:black;font-family:sans-serif;font-size:13;text-anchor:middle;" transform="matrix(1 0 0 1 2636.69 322)">Heavy</text>
  <text style="stroke:none;fill:black;font-family:sans-serif;font-size:13;text-anchor:middle;" transform="matrix(1 0 0 1 2933.4 322)">Black</text>
  <line style="fill:none;stroke:black;opacity:1;stroke-width:0.5;" x1="263" x2="3036" y1="1903" y2="1903"/>
  <g transform="matrix(1 0 0 1 263 1933)">
   <path d="M9.24805 0.830078Q10.8691 0.830078 12.2949 0.214844Q13.7207-0.400391 14.8096-1.49414Q15.8984-2.58789 16.5186-4.01367Q17.1387-5.43945 17.1387-7.05078Q17.1387-8.66211 16.5186-10.0879Q15.8984-11.5137 14.8047-12.6074Q13.7109-13.7012 12.2852-14.3164Q10.8594-14.9316 9.23828-14.9316Q7.62695-14.9316 6.20117-14.3164Q4.77539-13.7012 3.69141-12.6074Q2.60742-11.5137 1.9873-10.0879Q1.36719-8.66211 1.36719-7.05078Q1.36719-5.43945 1.9873-4.01367Q2.60742-2.58789 3.69629-1.49414Q4.78516-0.400391 6.21094 0.214844Q7.63672 0.830078 9.24805 0.830078ZM9.24805-0.654297Q7.91992-0.654297 6.7627-1.14746Q5.60547-1.64062 4.73145-2.51953Q3.85742-3.39844 3.36426-4.56055Q2.87109-5.72266 2.87109-7.05078Q2.87109-8.37891 3.35938-9.54102Q3.84766-10.7031 4.72168-11.582Q5.5957-12.4609 6.75293-12.9541Q7.91016-13.4473 9.23828-13.4473Q10.5762-13.4473 11.7334-12.9541Q12.8906-12.4609 13.7695-11.582Q14.6484-10.7031 15.1465-9.54102Q15.6445-8.37891 15.6445-7.05078Q15.6445-5.72266 15.1514-4.56055Q14.6582-3.39844 13.7842-2.51953Q12.9102-1.64062 11.748-1.14746Q10.5859-0.654297 9.24805-0.654297ZM5.6543-7.05078Q5.6543-6.72852 5.85938-6.52832Q6.06445-6.32812 6.40625-6.32812L8.51562-6.32812L8.51562-4.20898Q8.51562-3.88672 8.71094-3.67676Q8.90625-3.4668 9.23828-3.4668Q9.56055-3.4668 9.77051-3.67676Q9.98047-3.88672 9.98047-4.20898L9.98047-6.32812L12.0898-6.32812Q12.4219-6.32812 12.627-6.52832Q12.832-6.72852 12.832-7.05078Q12.832-7.38281 12.627-7.58789Q12.4219-7.79297 12.0898-7.79297L9.98047-7.79297L9.98047-9.90234Q9.98047-10.2344 9.77051-10.4443Q9.56055-10.6543 9.23828-10.6543Q8.90625-10.6543 8.71094-10.4443Q8.51562-10.2344 8.51562-9.90234L8.51562-7.79297L6.40625-7.79297Q6.06445-7.79297 5.85938-7.58789Q5.6543-7.38281 5.6543-7.05078Z"/>
  </g>
  <g transform="matrix(1 0 0 1 281.867 1933)">
   <path d="M11.709 2.91016Q13.75 2.91016 15.5518 2.12891Q17.3535 1.34766 18.7305-0.0292969Q20.1074-1.40625 20.8887-3.20801Q21.6699-5.00977 21.6699-7.05078Q21.6699-9.0918 20.8887-10.8936Q20.1074-12.6953 18.7305-14.0723Q17.3535-15.4492 15.5469-16.2305Q13.7402-17.0117 11.6992-17.0117Q9.6582-17.0117 7.85645-16.2305Q6.05469-15.4492 4.68262-14.0723Q3.31055-12.6953 2.5293-10.8936Q1.74805-9.0918 1.74805-7.05078Q1.74805-5.00977 2.5293-3.20801Q3.31055-1.40625 4.6875-0.0292969Q6.06445 1.34766 7.86621 2.12891Q9.66797 2.91016 11.709 2.91016ZM11.709 1.25Q9.98047 1.25 8.47656 0.605469Q6.97266-0.0390625 5.83496-1.17676Q4.69727-2.31445 4.05762-3.81836Q3.41797-5.32227 3.41797-7.05078Q3.41797-8.7793 4.05762-10.2832Q4.69727-11.7871 5.83008-12.9297Q6.96289-14.0723 8.4668-14.7119Q9.9707-15.3516 11.6992-15.3516Q13.4277-15.3516 14.9316-14.7119Q16.4355-14.0723 17.5781-12.9297Q18.7207-11.7871 19.3652-10.2832Q20.0098-8.7793 20.0098-7.05078Q20.0098-5.32227 19.3701-3.81836Q18.7305-2.31445 17.5928-1.17676Q16.4551-0.0390625 14.9463 0.605469Q13.4375 1.25 11.709 1.25ZM7.17773-7.05078Q7.17773-6.69922 7.41211-6.47461Q7.64648-6.25 8.01758-6.25L10.8887-6.25L10.8887-3.36914Q10.8887-2.99805 11.1133-2.76855Q11.3379-2.53906 11.6895-2.53906Q12.0605-2.53906 12.29-2.76855Q12.5195-2.99805 12.5195-3.36914L12.5195-6.25L15.4004-6.25Q15.7715-6.25 16.001-6.47461Q16.2305-6.69922 16.2305-7.05078Q16.2305-7.42188 16.001-7.65137Q15.7715-7.88086 15.4004-7.88086L12.5195-7.88086L12.5195-10.752Q12.5195-11.1328 12.29-11.3623Q12.0605-11.5918 11.6895-11.5918Q11.3379-11.5918 11.1133-11.3574Q10.8887-11.123 10.8887-10.752L10.8887-7.88086L8.01758-7.88086Q7.63672-7.88086 7.40723-7.65137Q7.17773-7.42188 7.17773-7.05078Z"/>
  </g>
  <g transform="matrix(1 0 0 1 305.646 1933)">
   <path d="M14.9707 5.66406Q17.0605 5.66406 18.96 5.01465Q20.8594 4.36523 22.4512 3.19336Q24.043 2.02148 25.2197 0.429688Q26.3965-1.16211 27.0459-3.06641Q27.6953-4.9707 27.6953-7.05078Q27.6953-9.14062 27.0459-11.04Q26.3965-12.9395 25.2197-14.5312Q24.043-16.123 22.4512-17.2998Q20.8594-18.4766 18.9551-19.126Q17.0508-19.7754 14.9609-19.7754Q12.8711-19.7754 10.9717-19.126Q9.07227-18.4766 7.48535-17.2998Q5.89844-16.123 4.72168-14.5312Q3.54492-12.9395 2.90039-11.04Q2.25586-9.14062 2.25586-7.05078Q2.25586-4.9707 2.90527-3.06641Q3.55469-1.16211 4.72656 0.429688Q5.89844 2.02148 7.49023 3.19336Q9.08203 4.36523 10.9814 5.01465Q12.8809 5.66406 14.9707 5.66406ZM14.9707 3.84766Q13.1641 3.84766 11.5283 3.2959Q9.89258 2.74414 8.53516 1.74805Q7.17773 0.751953 6.17676-0.610352Q5.17578-1.97266 4.62891-3.6084Q4.08203-5.24414 4.08203-7.05078Q4.08203-8.86719 4.62891-10.5029Q5.17578-12.1387 6.17188-13.501Q7.16797-14.8633 8.52539-15.8594Q9.88281-16.8555 11.5186-17.4023Q13.1543-17.9492 14.9609-17.9492Q16.7773-17.9492 18.4131-17.4023Q20.0488-16.8555 21.4111-15.8594Q22.7734-14.8633 23.7695-13.501Q24.7656-12.1387 25.3174-10.5029Q25.8691-8.86719 25.8691-7.05078Q25.8789-5.24414 25.332-3.6084Q24.7852-1.97266 23.7842-0.610352Q22.7832 0.751953 21.4209 1.74805Q20.0586 2.74414 18.4229 3.2959Q16.7871 3.84766 14.9707 3.84766ZM9.19922-7.05078Q9.19922-6.66992 9.45801-6.4209Q9.7168-6.17188 10.1172-6.17188L14.0625-6.17188L14.0625-2.2168Q14.0625-1.81641 14.3115-1.55762Q14.5605-1.29883 14.9512-1.29883Q15.3516-1.29883 15.6104-1.55273Q15.8691-1.80664 15.8691-2.2168L15.8691-6.17188L19.8242-6.17188Q20.2246-6.17188 20.4785-6.4209Q20.7324-6.66992 20.7324-7.05078Q20.7324-7.46094 20.4785-7.71484Q20.2246-7.96875 19.8242-7.96875L15.8691-7.96875L15.8691-11.9141Q15.8691-12.3242 15.6104-12.583Q15.3516-12.8418 14.9512-12.8418Q14.5605-12.8418 14.3115-12.583Q14.0625-12.3242 14.0625-11.9141L14.0625-7.96875L10.1172-7.96875Q9.70703-7.96875 9.45312-7.71484Q9.19922-7.46094 9.19922-7.05078Z"/>
  </g>
  <text style="stroke:none;fill:black;font-family:sans-serif;font-size:13;font-weight:bold;" transform="matrix(1 0 0 1 263 1953)">Design Variations</text>
  <text style="stroke:none;fill:black;font-family:sans-serif;font-size:13;" transform="matrix(1 0 0 1 263 1971)">Symbols are supported in up to nine weights and three scales.</text>
  <text style="stroke:none;fill:black;font-family:sans-serif;font-size:13;" transform="matrix(1 0 0 1 263 1989)">For optimal layout with text and other symbols, vertically align</text>
  <text style="stroke:none;fill:black;font-family:sans-serif;font-size:13;" transform="matrix(1 0 0 1 263 2007)">symbols with the adjacent text.</text>
  <line style="fill:none;stroke:#00AEEF;stroke-width:0.5;opacity:1.0;" x1="776" x2="776" y1="1919" y2="1933"/>
  <g transform="matrix(1 0 0 1 776 1933)">
   <path d="M3.31055 0.15625Q3.70117 0.15625 3.91602-0.00976562Q4.13086-0.175781 4.26758-0.585938L5.52734-4.0332L11.2891-4.0332L12.5488-0.585938Q12.6855-0.175781 12.9004-0.00976562Q13.1152 0.15625 13.4961 0.15625Q13.8867 0.15625 14.1162-0.0585938Q14.3457-0.273438 14.3457-0.644531Q14.3457-0.869141 14.2383-1.17188L9.6582-13.3691Q9.48242-13.8184 9.17969-14.043Q8.87695-14.2676 8.4082-14.2676Q7.5-14.2676 7.17773-13.3789L2.59766-1.16211Q2.49023-0.859375 2.49023-0.634766Q2.49023-0.263672 2.70996-0.0537109Q2.92969 0.15625 3.31055 0.15625ZM6.00586-5.51758L8.37891-12.0898L8.42773-12.0898L10.8008-5.51758Z"/>
  </g>
  <line style="fill:none;stroke:#00AEEF;stroke-width:0.5;opacity:1.0;" x1="793.197" x2="793.197" y1="1919" y2="1933"/>
  <text style="stroke:none;fill:black;font-family:sans-serif;font-size:13;font-weight:bold;" transform="matrix(1 0 0 1 776 1953)">Margins</text>
  <text style="stroke:none;fill:black;font-family:sans-serif;font-size:13;" transform="matrix(1 0 0 1 776 1971)">Leading and trailing margins on the left and right side of each symbol</text>
  <text style="stroke:none;fill:black;font-family:sans-serif;font-size:13;" transform="matrix(1 0 0 1 776 1989)">can be adjusted by modifying the x-location of the margin guidelines.</text>
  <text style="stroke:none;fill:black;font-family:sans-serif;font-size:13;" transform="matrix(1 0 0 1 776 2007)">Modifications are automatically applied proportionally to all</text>
  <text style="stroke:none;fill:black;font-family:sans-serif;font-size:13;" transform="matrix(1 0 0 1 776 2025)">scales and weights.</text>
  <g transform="matrix(1 0 0 1 1289 1933)">
   <path d="M2.8418 1.86523L4.54102 3.57422Q5.18555 4.22852 5.90332 4.17969Q6.62109 4.13086 7.31445 3.35938L18.0078-8.42773L17.041-9.4043L6.42578 2.27539Q6.16211 2.57812 5.89355 2.61719Q5.625 2.65625 5.27344 2.30469L4.10156 1.14258Q3.75 0.791016 3.79395 0.522461Q3.83789 0.253906 4.14062-0.0195312L15.6152-10.8203L14.6387-11.7871L3.04688-0.898438Q2.30469-0.214844 2.25098 0.498047Q2.19727 1.21094 2.8418 1.86523ZM9.25781-16.3281Q8.94531-16.0254 8.90625-15.6348Q8.86719-15.2441 9.04297-14.9512Q9.21875-14.6777 9.55566-14.541Q9.89258-14.4043 10.3809-14.5215Q11.4746-14.7754 12.5977-14.7314Q13.7207-14.6875 14.7949-13.9844L14.209-12.5293Q13.9551-11.9043 14.0674-11.4404Q14.1797-10.9766 14.5801-10.5664L16.875-8.25195Q17.2363-7.88086 17.5781-7.82227Q17.9199-7.76367 18.3398-7.8418L19.4043-8.03711L20.0684-7.36328L20.0293-6.80664Q20-6.43555 20.1221-6.12305Q20.2441-5.81055 20.6055-5.44922L21.3672-4.70703Q21.7285-4.3457 22.1533-4.33105Q22.5781-4.31641 22.9297-4.66797L25.8398-7.58789Q26.1914-7.93945 26.1816-8.35449Q26.1719-8.76953 25.8105-9.13086L25.0391-9.89258Q24.6875-10.2539 24.3799-10.3857Q24.0723-10.5176 23.7109-10.4883L23.1348-10.4395L22.4902-11.0742L22.7344-12.1973Q22.832-12.6172 22.6953-12.9834Q22.5586-13.3496 22.1191-13.7891L19.9219-15.9766Q18.6719-17.2168 17.2607-17.8369Q15.8496-18.457 14.4189-18.4814Q12.9883-18.5059 11.665-17.959Q10.3418-17.4121 9.25781-16.3281ZM10.752-15.957Q11.6602-16.6211 12.7002-16.9043Q13.7402-17.1875 14.8047-17.085Q15.8691-16.9824 16.8701-16.5137Q17.8711-16.0449 18.7012-15.2051L21.1328-12.793Q21.3086-12.6172 21.3525-12.4512Q21.3965-12.2852 21.3379-12.0312L21.0156-10.5469L22.5195-9.0625L23.5059-9.12109Q23.6914-9.13086 23.7891-9.09668Q23.8867-9.0625 24.0332-8.91602L24.6094-8.33984L22.168-5.89844L21.5918-6.47461Q21.4453-6.62109 21.4062-6.71875Q21.3672-6.81641 21.377-7.01172L21.4453-7.98828L19.9512-9.47266L18.4277-9.21875Q18.1836-9.16992 18.042-9.2041Q17.9004-9.23828 17.7148-9.41406L15.7129-11.416Q15.5176-11.5918 15.4932-11.7529Q15.4688-11.9141 15.5859-12.1875L16.4648-14.2773Q15.293-15.3711 13.8281-15.791Q12.3633-16.2109 10.8398-15.7617Q10.7227-15.7324 10.6885-15.8057Q10.6543-15.8789 10.752-15.957Z"/>
  </g>
  <text style="stroke:none;fill:black;font-family:sans-serif;font-size:13;font-weight:bold;" transform="matrix(1 0 0 1 1289 1953)">Exporting</text>
  <text style="stroke:none;fill:black;font-family:sans-serif;font-size:13;" transform="matrix(1 0 0 1 1289 1971)">Symbols should be outlined when exporting to ensure the</text>
  <text style="stroke:none;fill:black;font-family:sans-serif;font-size:13;" transform="matrix(1 0 0 1 1289 1989)">design is preserved when submitting to Xcode.</text>
  <text id="template-version" style="stroke:none;fill:black;font-family:sans-serif;font-size:13;text-anchor:end;" transform="matrix(1 0 0 1 3036 1933)">Template v.3.0</text>
  <text style="stroke:none;fill:black;font-family:sans-serif;font-size:13;text-anchor:end;" transform="matrix(1 0 0 1 3036 1951)">Requires Xcode 13 or greater</text>
  <text id="descriptive-name" style="stroke:none;fill:black;font-family:sans-serif;font-size:13;text-anchor:end;" transform="matrix(1 0 0 1 3036 1969)">Generated from snowflake</text>
  <text style="stroke:none;fill:black;font-family:sans-serif;font-size:13;text-anchor:end;" transform="matrix(1 0 0 1 3036 1987)">Typeset at 100 points</text>
  <text style="stroke:none;fill:black;font-family:sans-serif;font-size:13;" transform="matrix(1 0 0 1 263 726)">Small</text>
  <text style="stroke:none;fill:black;font-family:sans-serif;font-size:13;" transform="matrix(1 0 0 1 263 1156)">Medium</text>
  <text style="stroke:none;fill:black;font-family:sans-serif;font-size:13;" transform="matrix(1 0 0 1 263 1586)">Large</text>
 </g>
 <g id="Guides">
  <g id="H-reference" style="fill:#27AAE1;stroke:none;" transform="matrix(1 0 0 1 339 696)">
   <path d="M0.993347 0L3.6377 0L29.3282-67.1326L30.0301-67.1326L30.0301-70.459L28.1227-70.459ZM11.6882-24.4797L46.9818-24.4797L46.2311-26.7288L12.4382-26.7288ZM55.1193 0L57.7637 0L30.6381-70.459L29.4327-70.459L29.4327-67.1326Z"/>
  </g>
  <line id="Baseline-S" style="fill:none;stroke:#27AAE1;opacity:1;stroke-width:0.5;" x1="263" x2="3036" y1="696" y2="696"/>
  <line id="Capline-S" style="fill:none;stroke:#27AAE1;opacity:1;stroke-width:0.5;" x1="263" x2="3036" y1="625.541" y2="625.541"/>
  <g id="H-reference" style="fill:#27AAE1;stroke:none;" transform="matrix(1 0 0 1 339 1126)">
   <path d="M0.993347 0L3.6377 0L29.3282-67.1326L30.0301-67.1326L30.0301-70.459L28.1227-70.459ZM11.6882-24.4797L46.9818-24.4797L46.2311-26.7288L12.4382-26.7288ZM55.1193 0L57.7637 0L30.6381-70.459L29.4327-70.459L29.4327-67.1326Z"/>
  </g>
  <line id="Baseline-M" style="fill:none;stroke:#27AAE1;opacity:1;stroke-width:0.5;" x1="263" x2="3036" y1="1126" y2="1126"/>
  <line id="Capline-M" style="fill:none;stroke:#27AAE1;opacity:1;stroke-width:0.5;" x1="263" x2="3036" y1="1055.54" y2="1055.54"/>
  <g id="H-reference" style="fill:#27AAE1;stroke:none;" transform="matrix(1 0 0 1 339 1556)">
   <path d="M0.993347 0L3.6377 0L29.3282-67.1326L30.0301-67.1326L30.0301-70.459L28.1227-70.459ZM11.6882-24.4797L46.9818-24.4797L46.2311-26.7288L12.4382-26.7288ZM55.1193 0L57.7637 0L30.6381-70.459L29.4327-70.459L29.4327-67.1326Z"/>
  </g>
  <line id="Baseline-L" style="fill:none;stroke:#27AAE1;opacity:1;stroke-width:0.5;" x1="263" x2="3036" y1="1556" y2="1556"/>
  <line id="Capline-L" style="fill:none;stroke:#27AAE1;opacity:1;stroke-width:0.5;" x1="263" x2="3036" y1="1485.54" y2="1485.54"/>
  <line id="left-margin-Ultralight-S" style="fill:none;stroke:#00AEEF;stroke-width:0.5;opacity:1.0;" x1="520.531" x2="520.531" y1="600.785" y2="720.121"/>
  <line id="right-margin-Ultralight-S" style="fill:none;stroke:#00AEEF;stroke-width:0.5;opacity:1.0;" x1="598.891" x2="598.891" y1="600.785" y2="720.121"/>
  <line id="left-margin-Regular-S" style="fill:none;stroke:#00AEEF;stroke-width:0.5;opacity:1.0;" x1="1408.78" x2="1408.78" y1="600.785" y2="720.121"/>
  <line id="right-margin-Regular-S" style="fill:none;stroke:#00AEEF;stroke-width:0.5;opacity:1.0;" x1="1490.91" x2="1490.91" y1="600.785" y2="720.121"/>
  <line id="left-margin-Black-S" style="fill:none;stroke:#00AEEF;stroke-width:0.5;opacity:1.0;" x1="2889.58" x2="2889.58" y1="600.785" y2="720.121"/>
  <line id="right-margin-Black-S" style="fill:none;stroke:#00AEEF;stroke-width:0.5;opacity:1.0;" x1="2977.22" x2="2977.22" y1="600.785" y2="720.121"/>
 </g>
 <g id="Symbols">
  <g id="Black-S" transform="matrix(1 0 0 1 2889.58 696)">
   <path class="multicolor-0:white SFSymbolsPreviewFFFFFF" d="M43.7988 6.64062Q46.0449 6.64062 47.3877 5.2002Q48.7305 3.75977 48.7305 1.41602L48.7305-4.39453L50.8301-2.29492Q52.3438-0.78125 54.1504-0.78125Q55.957-0.78125 57.2266-2.39258Q58.3496-3.85742 58.1543-5.56641Q57.959-7.27539 56.2012-8.44727L48.7305-13.3301L48.7305-17.4805L47.6562-28.418L56.7383-22.0215L60.2539-19.9707L60.791-11.1328Q60.9375-9.0332 62.3535-8.03223Q63.7695-7.03125 65.5273-7.27539Q67.5781-7.51953 68.4814-9.08203Q69.3848-10.6445 68.8477-12.6465L68.0664-15.4785L73.0957-12.5977Q75.1465-11.4258 77.0752-11.8896Q79.0039-12.3535 80.0293-14.3066Q81.1035-16.2109 80.5664-18.1396Q80.0293-20.0684 78.0273-21.1914L73.0469-24.1211L75.8789-24.8535Q77.8809-25.3906 78.8086-26.9531Q79.7363-28.5156 78.9062-30.4688Q78.2227-32.1289 76.6602-32.8125Q75.0977-33.4961 73.1934-32.5684L65.2344-28.6133L61.6699-30.6641L51.6113-35.2539L61.6699-39.8438L65.2344-41.8945L73.1934-37.8906Q75.0977-36.9629 76.6602-37.6953Q78.2227-38.4277 78.9551-40.0879Q79.7852-41.9434 78.8574-43.5303Q77.9297-45.1172 75.8789-45.6543L73.0469-46.3867L78.0273-49.3164Q80.0781-50.4883 80.6152-52.3682Q81.1523-54.248 80.0781-56.1523Q79.0039-58.0566 77.0508-58.5449Q75.0977-59.0332 73.0957-57.9102L68.0664-55.0293L68.8477-57.8125Q69.4336-59.8633 68.5059-61.4502Q67.5781-63.0371 65.5273-63.2324Q63.7695-63.4766 62.3535-62.4756Q60.9375-61.4746 60.791-59.375L60.2539-50.4395L56.7383-48.3887L47.6562-41.9922L48.7305-53.0273L48.7305-57.1777L56.2012-62.0605Q57.959-63.2324 58.1299-64.9414Q58.3008-66.6504 57.2266-68.1152Q56.0059-69.7266 54.1748-69.7266Q52.3438-69.7266 50.8301-68.2129L48.7305-66.1133L48.7305-71.9238Q48.7305-74.2676 47.3877-75.708Q46.0449-77.1484 43.7988-77.1484Q41.6016-77.1484 40.2344-75.6836Q38.8672-74.2188 38.8672-71.9238L38.8672-66.1133L36.7676-68.2129Q35.3027-69.7266 33.4961-69.7266Q31.6895-69.7266 30.3711-68.1152Q29.2969-66.6504 29.4678-64.9414Q29.6387-63.2324 31.3965-62.0605L38.8672-57.1777L38.8672-53.0273L39.9414-41.9434L30.8594-48.3887L27.3438-50.4883L26.8066-59.375Q26.6602-61.4746 25.2441-62.4756Q23.8281-63.4766 22.0703-63.2324Q20.0195-63.0371 19.1406-61.4502Q18.2617-59.8633 18.75-57.8613L19.5312-55.0293L14.502-57.9102Q12.5488-59.0332 10.5957-58.5449Q8.64258-58.0566 7.51953-56.1523Q6.49414-54.248 7.03125-52.3438Q7.56836-50.4395 9.52148-49.3164L14.5508-46.3867L11.7188-45.6543Q9.7168-45.1172 8.81348-43.5059Q7.91016-41.8945 8.69141-40.0391Q9.42383-38.3789 10.9619-37.6709Q12.5-36.9629 14.4043-37.8906L22.3145-41.8945L25.9277-39.8438L35.9863-35.2539L25.9277-30.6641L22.3633-28.6133L14.4043-32.6172Q12.5-33.5938 10.9375-32.8613Q9.375-32.1289 8.64258-30.4199Q7.86133-28.5645 8.78906-26.9775Q9.7168-25.3906 11.7188-24.8535L14.5508-24.1211L9.57031-21.1914Q7.61719-20.0684 7.03125-18.1396Q6.44531-16.2109 7.51953-14.3066Q8.64258-12.3535 10.5713-11.8896Q12.5-11.4258 14.502-12.5977L19.5312-15.4785L18.75-12.6953Q18.2129-10.6445 19.1162-9.08203Q20.0195-7.51953 22.0703-7.27539Q23.877-7.08008 25.2686-8.05664Q26.6602-9.0332 26.8066-11.1328L27.3438-20.0684L30.8594-22.1191L39.9414-28.5156L38.8672-17.4805L38.8672-13.3301L31.3965-8.44727Q29.6387-7.27539 29.4922-5.56641Q29.3457-3.85742 30.3711-2.39258Q31.6406-0.78125 33.4717-0.78125Q35.3027-0.78125 36.7676-2.29492L38.8672-4.39453L38.8672 1.41602Q38.8672 3.71094 40.2344 5.17578Q41.6016 6.64062 43.7988 6.64062Z"/>
  </g>
  <g id="Regular-S" transform="matrix(1 0 0 1 1408.78 696)">
   <path class="multicolor-0:white SFSymbolsPreviewFFFFFF" d="M41.0645 3.75977Q42.5293 3.75977 43.335 2.85645Q44.1406 1.95312 44.1406 0.537109L44.1406-6.88477L50-3.61328Q51.2207-2.92969 52.3438-3.07617Q53.4668-3.22266 54.1992-4.44336Q54.7363-5.46875 54.3945-6.5918Q54.0527-7.71484 52.832-8.44727L44.1406-13.3301L44.1406-17.5293L43.2129-31.4941L54.9316-23.7305L58.5449-21.6309L58.4473-11.6699Q58.4473-10.2539 59.2285-9.35059Q60.0098-8.44727 61.1816-8.44727Q62.5977-8.44727 63.3057-9.35059Q64.0137-10.2539 64.0137-11.6699L64.0625-18.5059L70.6055-14.6973Q71.8262-13.9648 72.9736-14.2578Q74.1211-14.5508 74.8047-15.7227Q75.4883-16.9434 75.1709-18.1396Q74.8535-19.3359 73.6328-20.0195L67.1387-23.7305L72.998-27.1973Q74.1699-27.9297 74.6094-28.9795Q75.0488-30.0293 74.3652-31.2012Q73.7305-32.2754 72.5586-32.5195Q71.3867-32.7637 70.166-32.0312L61.6211-26.9531L57.959-29.0527L45.3613-35.2539L57.959-41.4551L61.5723-43.5547L70.166-38.4766Q71.3867-37.7441 72.583-37.9883Q73.7793-38.2324 74.3652-39.2578Q75.0488-40.4785 74.6094-41.5527Q74.1699-42.627 72.998-43.3105L67.1387-46.7773L73.6328-50.4883Q74.8535-51.2207 75.1953-52.3682Q75.5371-53.5156 74.8047-54.7852Q74.1699-55.957 72.998-56.25Q71.8262-56.543 70.6055-55.8105L64.0625-52.0996L64.0137-58.8867Q64.0137-60.2539 63.3057-61.1572Q62.5977-62.0605 61.2305-62.0605Q60.0586-62.0605 59.2529-61.1816Q58.4473-60.3027 58.4473-58.8867L58.5449-48.9258L54.9316-46.7773L43.2129-39.0137L44.1406-53.0273L44.1406-57.1777L52.832-62.0605Q54.0527-62.793 54.3945-63.916Q54.7363-65.0391 54.1992-66.0645Q53.4668-67.2852 52.3438-67.4316Q51.2207-67.5781 50-66.9434L44.1406-63.623L44.1406-71.0449Q44.1406-72.4609 43.335-73.3643Q42.5293-74.2676 41.0645-74.2676Q39.6973-74.2676 38.8672-73.3643Q38.0371-72.4609 38.0371-71.0449L38.0371-63.623L32.0801-66.9434Q30.8594-67.5781 29.7607-67.4316Q28.6621-67.2852 27.9297-66.0645Q27.3438-65.0391 27.71-63.916Q28.0762-62.793 29.2969-62.1094L38.0371-57.1777L38.0371-53.0273L38.916-39.0137L27.2461-46.7773L23.584-48.9258L23.6816-58.8867Q23.7305-60.3027 22.9248-61.1816Q22.1191-62.0605 20.9473-62.0605Q19.5312-62.0605 18.8232-61.1572Q18.1152-60.2539 18.1152-58.8867L18.0664-52.0996L11.5723-55.8105Q10.4004-56.4941 9.2041-56.2256Q8.00781-55.957 7.32422-54.7852Q6.5918-53.5156 6.95801-52.3438Q7.32422-51.1719 8.49609-50.4883L14.9902-46.7773L9.13086-43.3105Q7.95898-42.627 7.54395-41.5771Q7.12891-40.5273 7.76367-39.2578Q8.34961-38.2324 9.5459-37.9883Q10.7422-37.7441 11.9629-38.4766L20.5566-43.5059L24.1699-41.4551L36.7676-35.2539L24.1699-29.0527L20.5566-26.9531L11.9629-32.0312Q10.7422-32.7637 9.57031-32.5195Q8.39844-32.2754 7.86133-31.25Q7.17773-29.9805 7.56836-28.9551Q7.95898-27.9297 9.13086-27.1973L14.9902-23.7305L8.49609-20.0195Q7.32422-19.3359 6.98242-18.1396Q6.64062-16.9434 7.32422-15.7227Q8.00781-14.502 9.2041-14.2578Q10.4004-14.0137 11.5723-14.6973L18.0664-18.4082L18.1152-11.6699Q18.1152-10.2539 18.8232-9.35059Q19.5312-8.44727 20.9473-8.44727Q22.1191-8.44727 22.9248-9.35059Q23.7305-10.2539 23.6816-11.6699L23.6328-21.6309L27.2461-23.6816L38.916-31.4941L38.0371-17.5293L38.0371-13.3301L29.2969-8.44727Q28.0762-7.71484 27.71-6.5918Q27.3438-5.46875 27.9297-4.44336Q28.6621-3.22266 29.7607-3.07617Q30.8594-2.92969 32.0801-3.61328L38.0371-6.88477L38.0371 0.537109Q38.0371 1.95312 38.8672 2.85645Q39.6973 3.75977 41.0645 3.75977Z"/>
  </g>
  <g id="Ultralight-S" transform="matrix(1 0 0 1 520.531 696)">
   <path class="multicolor-0:white SFSymbolsPreviewFFFFFF" d="M39.1571 1.89819Q39.5775 1.89819 39.8384 1.58501Q40.0993 1.27182 40.0993 0.764465L40.0993-11.38L49.8184-5.70221Q50.267-5.47256 50.6634-5.52826Q51.0597-5.58395 51.2932-5.98755Q51.5121-6.33163 51.3748-6.68259Q51.2375-7.03354 50.7889-7.26624L40.0993-13.4209L40.0993-21.344L39.9437-33.7646L50.7996-27.4544L57.637-23.5832L57.6302-11.261Q57.6302-10.7079 57.8892-10.4176Q58.1482-10.1273 58.548-10.1273Q58.9645-10.1273 59.1961-10.4176Q59.4276-10.7079 59.4276-11.261L59.4307-22.5021L69.9242-16.423Q70.4185-16.1896 70.7939-16.2556Q71.1693-16.3216 71.3539-16.6763Q71.5378-17.0799 71.402-17.4358Q71.2662-17.7917 70.8626-18.0214L60.3271-24.0486L70.1828-29.8309Q70.6276-30.1094 70.7493-30.4325Q70.871-30.7556 70.6413-31.1104Q70.3247-31.4583 70.0382-31.5434Q69.7517-31.6284 69.3031-31.3957L58.4427-25.1823L51.6922-29.0527L40.3206-35.2539L51.738-41.4093L58.5754-45.4163L69.2123-39.2029Q69.6609-38.9702 70.0401-39.0553Q70.4193-39.1403 70.6871-39.4852Q70.871-39.843 70.7268-40.1905Q70.5826-40.538 70.137-40.8127L60.3729-46.4592L70.9084-52.4864Q71.357-52.7191 71.4718-53.0945Q71.5866-53.4698 71.3989-53.9223Q71.1731-54.2313 70.7729-54.2973Q70.3728-54.3633 69.9699-54.0848L59.4307-47.9675L59.3819-59.3864Q59.3819-59.9358 59.1507-60.1807Q58.9195-60.4256 58.4602-60.3806Q58.0605-60.3806 57.8453-60.1372Q57.6302-59.8938 57.6302-59.3864L57.5912-46.9276L50.7996-43.0084L39.9437-36.6982L40.0993-49.2584L40.0993-57.1777L50.7889-63.3324Q51.2375-63.5651 51.3748-63.916Q51.5121-64.267 51.2932-64.6111Q51.0597-65.0146 50.6634-65.0703Q50.267-65.126 49.8184-64.9002L40.0993-59.2186L40.0993-71.3631Q40.0993-71.8704 39.8384-72.1836Q39.5775-72.4968 39.1571-72.4968Q38.7436-72.4968 38.504-72.1836Q38.2645-71.8704 38.2645-71.3631L38.2645-59.1728L28.3562-64.9002Q27.9076-65.126 27.581-65.0703Q27.2545-65.0146 27.0218-64.6111Q26.844-64.267 26.9608-63.9385Q27.0775-63.6101 27.4803-63.3812L38.2645-57.132L38.2645-49.2584L38.4621-36.6982L27.5185-43.0084L20.723-46.9276L20.7298-59.3864Q20.7336-59.8938 20.5181-60.1372Q20.3026-60.3806 19.8578-60.3806Q19.3947-60.3806 19.1864-60.1357Q18.9781-59.8907 18.9781-59.3864L18.9293-47.9675L8.43887-54.0848Q7.9483-54.3144 7.5695-54.2728Q7.1907-54.2313 6.96106-53.9223Q6.77338-53.4698 6.88972-53.093Q7.00607-52.7161 7.45163-52.4864L17.9871-46.4592L8.22296-40.8127Q7.73163-40.538 7.61185-40.192Q7.49207-39.846 7.67288-39.4394Q7.94067-39.0953 8.31985-39.0327Q8.69904-38.9702 9.19266-39.2029L19.7845-45.4132L26.622-41.4093L38.0394-35.2539L26.6678-29.0527L19.8303-25.1366L9.05685-31.3957Q8.60825-31.6284 8.29887-31.5659Q7.9895-31.5033 7.72476-31.1592Q7.54089-30.7068 7.63626-30.4081Q7.73163-30.1094 8.17719-29.8309L18.0328-24.0486L7.49741-18.0214Q7.05185-17.7467 6.91452-17.3904Q6.77719-17.0341 6.96106-16.7213Q7.1907-16.3185 7.59201-16.256Q7.99332-16.1934 8.43887-16.423L18.9293-22.4953L18.9323-11.261Q18.9323-10.7079 19.1635-10.4176Q19.3947-10.1273 19.812-10.1273Q20.2118-10.1273 20.4727-10.4176Q20.7336-10.7079 20.7298-11.261L20.7268-23.5832L27.5185-27.4506L38.4621-33.7646L38.2645-21.344L38.2645-13.4666L27.4803-7.22122Q27.0775-6.98853 26.9608-6.66008Q26.844-6.33163 27.0218-5.98755Q27.2545-5.58395 27.581-5.52826Q27.9076-5.47256 28.3562-5.70221L38.2645-11.4258L38.2645 0.764465Q38.2645 1.27182 38.504 1.58501Q38.7436 1.89819 39.1571 1.89819Z"/>
  </g>
 </g>
</svg>
