<svg width="52" height="86" viewBox="0 0 52 86" fill="none" xmlns="http://www.w3.org/2000/svg">
<path d="M20.4102 85.2051C24.1536 85.2051 27.5635 84.2936 30.6397 82.4707C33.7158 80.6478 36.1735 78.1901 38.0127 75.0977C39.8519 72.0052 40.7715 68.5873 40.7715 64.8438C40.7715 61.9141 40.1774 59.1553 38.9893 56.5674C37.8011 53.9795 36.0677 51.6439 33.7891 49.5606C33.1706 48.9747 32.8614 48.2585 32.8614 47.4121L32.9102 13.6719C32.9102 10.9375 32.3893 8.54493 31.3477 6.4942C30.306 4.4434 28.8493 2.84833 26.9776 1.709C25.1058 0.569666 22.9166 0 20.4102 0C16.6666 0 13.6393 1.2614 11.3282 3.7842C9.01698 6.307 7.86138 9.6029 7.86138 13.6719L7.91018 47.4121C7.91018 48.2585 7.60091 48.9747 6.98238 49.5606C4.70378 51.6439 2.97041 53.9795 1.78228 56.5674C0.594093 59.1553 0 61.9141 0 64.8438C0 68.5873 0.919593 72.0052 2.75878 75.0977C4.59798 78.1901 7.06381 80.6478 10.1563 82.4707C13.2487 84.2936 16.6666 85.2051 20.4102 85.2051ZM20.4102 78.8575C17.8386 78.8575 15.4867 78.2308 13.3545 76.9776C11.2223 75.7243 9.52965 74.0316 8.27638 71.8994C7.02311 69.7673 6.39648 67.4154 6.39648 64.8438C6.39648 62.4675 6.94988 60.2539 8.05668 58.2032C9.16341 56.1524 10.7096 54.476 12.6953 53.1739C13.2487 52.7832 13.6474 52.3926 13.8916 52.002C14.1357 51.6113 14.2578 51.0417 14.2578 50.293V13.9649C14.2578 11.6862 14.8274 9.85517 15.9668 8.4717C17.1061 7.08824 18.5872 6.3965 20.4102 6.3965C22.2005 6.3965 23.6572 7.08824 24.7803 8.4717C25.9033 9.85517 26.4649 11.6862 26.4649 13.9649V50.293C26.4649 51.0417 26.5869 51.6113 26.8311 52.002C27.0752 52.3926 27.4902 52.7832 28.0762 53.1739C30.0618 54.476 31.6081 56.1524 32.7149 58.2032C33.8216 60.2539 34.375 62.4675 34.375 64.8438C34.375 67.4154 33.7483 69.7673 32.4951 71.8994C31.2419 74.0316 29.5573 75.7243 27.4414 76.9776C25.3255 78.2308 22.9818 78.8575 20.4102 78.8575ZM20.3614 73.6817C22.8353 73.6817 24.9349 72.819 26.6602 71.0938C28.3854 69.3685 29.2481 67.2689 29.2481 64.795C29.2481 63.0697 28.8086 61.5316 27.9297 60.1807C27.0508 58.8298 25.9115 57.78 24.5117 57.0313C23.8932 56.7058 23.47 56.364 23.2422 56.0059C23.0143 55.6478 22.9004 55.0293 22.9004 54.1504V33.5938C22.9004 32.6498 22.6562 31.9092 22.168 31.3721C21.6797 30.835 21.0775 30.5664 20.3614 30.5664C19.6778 30.5664 19.0918 30.835 18.6035 31.3721C18.1152 31.9092 17.8711 32.6498 17.8711 33.5938V54.1504C17.8711 55.0293 17.7571 55.6478 17.5293 56.0059C17.3014 56.364 16.8782 56.7058 16.2598 57.0313C14.86 57.78 13.7207 58.8298 12.8418 60.1807C11.9629 61.5316 11.5235 63.0697 11.5235 64.795C11.5235 67.2689 12.3861 69.3685 14.1114 71.0938C15.8366 72.819 17.9199 73.6817 20.3614 73.6817Z" fill="white"/>
<path d="M40.3321 14.209H48.7793C49.528 14.209 50.1302 13.9567 50.586 13.4522C51.0417 12.9476 51.2696 12.3698 51.2696 11.7188C51.2696 11.0352 51.0417 10.4411 50.586 9.93658C50.1302 9.43198 49.528 9.17969 48.7793 9.17969H40.3321C39.5508 9.17969 38.9323 9.43198 38.4766 9.93658C38.0208 10.4411 37.793 11.0352 37.793 11.7188C37.793 12.3698 38.0208 12.9476 38.4766 13.4522C38.9323 13.9567 39.5508 14.209 40.3321 14.209ZM40.3321 35.6934H48.7793C49.528 35.6934 50.1302 35.4411 50.586 34.9366C51.0417 34.432 51.2696 33.8542 51.2696 33.2032C51.2696 32.5196 51.0417 31.9255 50.586 31.4209C50.1302 30.9164 49.528 30.6641 48.7793 30.6641H40.3321C39.5508 30.6641 38.9323 30.9164 38.4766 31.4209C38.0208 31.9255 37.793 32.5196 37.793 33.2032C37.793 33.8542 38.0208 34.432 38.4766 34.9366C38.9323 35.4411 39.5508 35.6934 40.3321 35.6934ZM40.3321 46.4356H48.7793C49.528 46.4356 50.1302 46.1833 50.586 45.6787C51.0417 45.1742 51.2696 44.5964 51.2696 43.9453C51.2696 43.2618 51.0417 42.6677 50.586 42.1631C50.1302 41.6586 49.528 41.4063 48.7793 41.4063H40.3321C39.5508 41.4063 38.9323 41.6586 38.4766 42.1631C38.0208 42.6677 37.793 43.2618 37.793 43.9453C37.793 44.5964 38.0208 45.1742 38.4766 45.6787C38.9323 46.1833 39.5508 46.4356 40.3321 46.4356ZM40.3321 24.9512H48.7793C49.528 24.9512 50.1302 24.6989 50.586 24.1944C51.0417 23.6898 51.2696 23.112 51.2696 22.461C51.2696 21.7774 51.0417 21.1833 50.586 20.6787C50.1302 20.1742 49.528 19.9219 48.7793 19.9219H40.3321C39.5508 19.9219 38.9323 20.1742 38.4766 20.6787C38.0208 21.1833 37.793 21.7774 37.793 22.461C37.793 23.112 38.0208 23.6898 38.4766 24.1944C38.9323 24.6989 39.5508 24.9512 40.3321 24.9512Z" fill="white"/>
</svg>
