<svg width="102" height="99" viewBox="0 0 102 99" fill="none" xmlns="http://www.w3.org/2000/svg">
<path d="M16.2597 65.5284H57.5195C61.1654 65.5284 64.4694 64.682 67.4316 62.9893C70.3939 61.2966 72.7377 59.0017 74.4629 56.1046C76.1882 53.2075 77.0508 49.9685 77.0508 46.3878C77.0508 42.8071 76.1638 39.5925 74.3896 36.7442C72.6156 33.8959 70.2067 31.6417 67.1631 29.9815C64.1195 28.3214 60.6608 27.475 56.7871 27.4425C55.3223 24.643 53.4831 22.2423 51.2695 20.2403C49.056 18.2384 46.5739 16.7084 43.8232 15.6505C41.0726 14.5926 38.151 14.0636 35.0586 14.0636C30.8594 14.0636 26.9775 15.0402 23.4131 16.9933C19.8487 18.9464 16.9108 21.6075 14.5996 24.9767C12.2884 28.3458 10.9375 32.13 10.5469 36.3292C7.32423 37.3057 4.76074 39.0961 2.85644 41.7003C0.952147 44.3044 0 47.2992 0 50.6847C0 55.1118 1.50553 58.6925 4.5166 61.4268C7.52768 64.1612 11.4421 65.5284 16.2597 65.5284ZM49.0722 79.2003H40.3808L40.1855 80.9581L44.4336 72.8038C44.6615 72.4132 44.7022 72.0795 44.5556 71.8028C44.4092 71.5261 44.1243 71.3878 43.7011 71.3878H34.5703C34.0495 71.3878 33.6751 71.4854 33.4472 71.6807C33.2194 71.8761 33.0241 72.1528 32.8613 72.5108L27.8808 83.7901C27.6856 84.2458 27.6693 84.6121 27.832 84.8888C27.9948 85.1654 28.3203 85.3038 28.8086 85.3038H35.9863L36.4746 83.0577L30.5664 97.2667C30.3711 97.8201 30.4688 98.1782 30.8594 98.3409C31.2175 98.4711 31.5918 98.3409 31.9824 97.9503L49.5605 81.0557C49.9837 80.6651 50.1384 80.2582 50.0244 79.835C49.9105 79.4119 49.5931 79.2003 49.0722 79.2003Z" fill="#808080"/>
<path d="M82.3242 45.8018C85.1888 45.3135 87.7767 44.4021 90.0879 43.0675C92.3991 41.7328 94.3848 40.1622 96.0449 38.3556C97.7049 36.5489 98.9746 34.6772 99.8539 32.7403C100.733 30.8034 101.172 29.0049 101.172 27.3448C101.172 26.4985 101.001 25.8067 100.659 25.2696C100.318 24.7325 99.8213 24.464 99.1699 24.464C98.4866 24.464 97.7136 24.6837 96.8509 25.1231C95.9881 25.5626 94.93 25.9939 93.6767 26.4171C92.4235 26.8402 90.8529 27.0518 88.9648 27.0518C84.375 27.0518 80.7292 25.7904 78.0273 23.2677C75.3255 20.7449 73.9747 17.3839 73.9747 13.1847C73.9747 11.4594 74.2188 9.89692 74.7071 8.49718C75.1953 7.09745 75.6754 5.86045 76.1474 4.78618C76.6194 3.71198 76.8554 2.81682 76.8554 2.10068C76.8554 0.668349 76.0579 -0.0315118 74.4629 0.00108821C72.2819 0.00108821 69.8893 0.782318 67.2851 2.34478C64.681 3.90732 62.3128 6.03135 60.1806 8.71689C58.0485 11.4024 56.5918 14.4867 55.8105 17.9698C56.4291 18.5557 57.0557 19.2556 57.6904 20.0694C58.3252 20.8832 58.903 21.8435 59.4238 22.9503C63.8184 23.3084 67.7328 24.5779 71.167 26.7589C74.6012 28.9399 77.3112 31.6986 79.2969 35.0352C81.2826 38.3718 82.2917 41.9607 82.3242 45.8018Z" fill="#FFD60A"/>
</svg>
