<svg width="112" height="111" viewBox="0 0 112 111" fill="none" xmlns="http://www.w3.org/2000/svg">
<path d="M16.2597 77.2949H57.5195C61.1654 77.2949 64.4694 76.4485 67.4316 74.7559C70.3939 73.0631 72.7377 70.7682 74.4629 67.8711C76.1882 64.9739 77.0508 61.7187 77.0508 58.1055C77.0508 54.5247 76.1638 51.3183 74.3896 48.4863C72.6156 45.6543 70.2067 43.4082 67.1631 41.748C64.1195 40.0878 60.6608 39.2415 56.7871 39.209C55.3223 36.4095 53.4831 34.0088 51.2695 32.0068C49.056 30.0048 46.5739 28.4749 43.8232 27.417C41.0726 26.359 38.151 25.8301 35.0586 25.8301C30.8594 25.8301 26.9775 26.8066 23.4131 28.7598C19.8487 30.7129 16.9108 33.374 14.5996 36.7432C12.2884 40.1123 10.9375 43.8965 10.5469 48.0957C7.32423 49.0722 4.76074 50.8626 2.85644 53.4668C0.952147 56.0709 0 59.0657 0 62.4512C0 66.8782 1.50553 70.459 4.5166 73.1934C7.52768 75.9277 11.4421 77.2949 16.2597 77.2949Z" fill="#808080"/>
<path d="M81.7871 56.25C84.5215 54.2969 86.6618 51.9206 88.208 49.1211C89.7542 46.3216 90.5273 43.278 90.5273 39.9902C90.5273 36.4421 89.6647 33.2113 87.9394 30.2978C86.2141 27.3844 83.9029 25.0651 81.0058 23.3398C78.1087 21.6145 74.886 20.7519 71.3379 20.7519C67.985 20.7519 64.9089 21.5494 62.1094 23.1445C59.3099 24.7396 57.0638 26.8392 55.3711 29.4434C57.0638 31.1035 58.4798 32.9915 59.6191 35.1074C63.916 35.4655 67.6676 36.556 70.874 38.3789C74.0804 40.2018 76.6195 42.627 78.4912 45.6543C80.3629 48.6816 81.4616 52.2135 81.7871 56.25ZM71.3379 14.9414C72.347 14.9414 73.2096 14.5752 73.9258 13.8428C74.6419 13.1103 75 12.2558 75 11.2793V3.6621C75 2.65297 74.6419 1.79034 73.9258 1.0742C73.2096 0.35807 72.347 0 71.3379 0C70.3288 0 69.4661 0.35807 68.75 1.0742C68.0339 1.79034 67.6758 2.65297 67.6758 3.6621V11.2793C67.6758 12.2558 68.0339 13.1103 68.75 13.8428C69.4661 14.5752 70.3288 14.9414 71.3379 14.9414ZM89.0137 22.3145C89.6973 22.998 90.5599 23.348 91.6015 23.3643C92.6432 23.3806 93.5221 23.0306 94.2383 22.3145L99.6089 16.8945C100.326 16.1784 100.676 15.3157 100.659 14.3066C100.643 13.2975 100.293 12.4349 99.6089 11.7187C98.8929 11.0352 98.0386 10.6852 97.0459 10.6689C96.053 10.6526 95.1985 11.0026 94.4824 11.7187L89.0137 17.1875C88.3301 17.9036 87.9883 18.7581 87.9883 19.751C87.9883 20.7438 88.3301 21.5983 89.0137 22.3145ZM48.4863 22.3145C49.2024 23.0306 50.0732 23.3806 51.0986 23.3643C52.124 23.348 52.9785 22.998 53.6621 22.3145C54.3457 21.5983 54.6956 20.7438 54.7119 19.751C54.7282 18.7581 54.3782 17.9036 53.6621 17.1875L48.1933 11.7187C47.5097 11.0026 46.6634 10.6526 45.6543 10.6689C44.6452 10.6852 43.7988 11.0352 43.1152 11.7187C42.3991 12.4349 42.041 13.2975 42.041 14.3066C42.041 15.3157 42.3991 16.1784 43.1152 16.8945L48.4863 22.3145ZM99.9999 43.6035H107.617C108.626 43.6035 109.481 43.2536 110.181 42.5537C110.881 41.8538 111.231 40.9993 111.231 39.9902C111.231 38.9811 110.881 38.1185 110.181 37.4023C109.481 36.6862 108.626 36.3281 107.617 36.3281H99.9999C99.0232 36.3281 98.1689 36.6862 97.4369 37.4023C96.7042 38.1185 96.3379 38.9811 96.3379 39.9902C96.3379 40.9993 96.7042 41.8538 97.4369 42.5537C98.1689 43.2536 99.0232 43.6035 99.9999 43.6035ZM94.4824 68.2617C95.1985 68.9778 96.053 69.3278 97.0459 69.3115C98.0386 69.2952 98.8929 68.929 99.6089 68.2129C100.293 67.5293 100.643 66.6748 100.659 65.6494C100.676 64.624 100.326 63.7858 99.6089 63.1348L94.1406 57.7148C93.4245 57.0313 92.57 56.6813 91.5771 56.665C90.5843 56.6487 89.7299 56.9987 89.0137 57.7148C88.3301 58.3984 87.9883 59.2529 87.9883 60.2783C87.9883 61.3037 88.3301 62.1582 89.0137 62.8418L94.4824 68.2617Z" fill="#FFD60A"/>
<path d="M49.0719 90.9668H40.3805L40.1852 92.7246L44.4333 84.5703C44.6611 84.1471 44.7018 83.8053 44.5553 83.5449C44.4088 83.2845 44.124 83.1543 43.7008 83.1543H34.57C34.0491 83.1543 33.6747 83.252 33.4469 83.4473C33.219 83.6426 33.0237 83.9193 32.861 84.2773L27.8805 95.5566C27.6852 96.0124 27.6689 96.3704 27.8317 96.6309C27.9944 96.8913 28.3199 97.0215 28.8083 97.0215H35.986L36.4743 94.8242L30.5661 109.033C30.3707 109.587 30.4684 109.928 30.8591 110.059C31.2171 110.221 31.5915 110.107 31.9821 109.717L49.5602 92.8223C49.9834 92.4316 50.138 92.0247 50.0241 91.6016C49.9101 91.1784 49.5927 90.9668 49.0719 90.9668Z" fill="#FFD60A"/>
</svg>
