<?xml version="1.0" encoding="UTF-8"?>
<!--Generator: Apple Native CoreSVG 175-->
<!DOCTYPE svg
PUBLIC "-//W3C//DTD SVG 1.1//EN"
       "http://www.w3.org/Graphics/SVG/1.1/DTD/svg11.dtd">
<svg version="1.1" xmlns="http://www.w3.org/2000/svg" xmlns:xlink="http://www.w3.org/1999/xlink" width="3300" height="2200">
 <!--glyph: "uni1001DA.medium", point size: 100.0, font version: "17.3d3e1", template writer version: "65.1"-->
 <style>.hierarchical-0:secondary {fill:#4D4D4D}
.hierarchical-1:primary {fill:#212121;-sfsymbols-clear-behind:true}

.SFSymbolsPreview212121 {fill:#212121;opacity:1.0}
.SFSymbolsPreview4D4D4D {fill:#4D4D4D;opacity:1.0}
</style>
 <g id="Notes">
  <rect height="2200" id="artboard" style="fill:white;opacity:1" width="3300" x="0" y="0"/>
  <line style="fill:none;stroke:black;opacity:1;stroke-width:0.5;" x1="263" x2="3036" y1="292" y2="292"/>
  <text style="stroke:none;fill:black;font-family:sans-serif;font-size:13;font-weight:bold;" transform="matrix(1 0 0 1 263 322)">Weight/Scale Variations</text>
  <text style="stroke:none;fill:black;font-family:sans-serif;font-size:13;text-anchor:middle;" transform="matrix(1 0 0 1 559.711 322)">Ultralight</text>
  <text style="stroke:none;fill:black;font-family:sans-serif;font-size:13;text-anchor:middle;" transform="matrix(1 0 0 1 856.422 322)">Thin</text>
  <text style="stroke:none;fill:black;font-family:sans-serif;font-size:13;text-anchor:middle;" transform="matrix(1 0 0 1 1153.13 322)">Light</text>
  <text style="stroke:none;fill:black;font-family:sans-serif;font-size:13;text-anchor:middle;" transform="matrix(1 0 0 1 1449.84 322)">Regular</text>
  <text style="stroke:none;fill:black;font-family:sans-serif;font-size:13;text-anchor:middle;" transform="matrix(1 0 0 1 1746.56 322)">Medium</text>
  <text style="stroke:none;fill:black;font-family:sans-serif;font-size:13;text-anchor:middle;" transform="matrix(1 0 0 1 2043.27 322)">Semibold</text>
  <text style="stroke:none;fill:black;font-family:sans-serif;font-size:13;text-anchor:middle;" transform="matrix(1 0 0 1 2339.98 322)">Bold</text>
  <text style="stroke:none;fill:black;font-family:sans-serif;font-size:13;text-anchor:middle;" transform="matrix(1 0 0 1 2636.69 322)">Heavy</text>
  <text style="stroke:none;fill:black;font-family:sans-serif;font-size:13;text-anchor:middle;" transform="matrix(1 0 0 1 2933.4 322)">Black</text>
  <line style="fill:none;stroke:black;opacity:1;stroke-width:0.5;" x1="263" x2="3036" y1="1903" y2="1903"/>
  <g transform="matrix(1 0 0 1 263 1933)">
   <path d="M9.24805 0.830078Q10.8691 0.830078 12.2949 0.214844Q13.7207-0.400391 14.8096-1.49414Q15.8984-2.58789 16.5186-4.01367Q17.1387-5.43945 17.1387-7.05078Q17.1387-8.66211 16.5186-10.0879Q15.8984-11.5137 14.8047-12.6074Q13.7109-13.7012 12.2852-14.3164Q10.8594-14.9316 9.23828-14.9316Q7.62695-14.9316 6.20117-14.3164Q4.77539-13.7012 3.69141-12.6074Q2.60742-11.5137 1.9873-10.0879Q1.36719-8.66211 1.36719-7.05078Q1.36719-5.43945 1.9873-4.01367Q2.60742-2.58789 3.69629-1.49414Q4.78516-0.400391 6.21094 0.214844Q7.63672 0.830078 9.24805 0.830078ZM9.24805-0.654297Q7.91992-0.654297 6.7627-1.14746Q5.60547-1.64062 4.73145-2.51953Q3.85742-3.39844 3.36426-4.56055Q2.87109-5.72266 2.87109-7.05078Q2.87109-8.37891 3.35938-9.54102Q3.84766-10.7031 4.72168-11.582Q5.5957-12.4609 6.75293-12.9541Q7.91016-13.4473 9.23828-13.4473Q10.5762-13.4473 11.7334-12.9541Q12.8906-12.4609 13.7695-11.582Q14.6484-10.7031 15.1465-9.54102Q15.6445-8.37891 15.6445-7.05078Q15.6445-5.72266 15.1514-4.56055Q14.6582-3.39844 13.7842-2.51953Q12.9102-1.64062 11.748-1.14746Q10.5859-0.654297 9.24805-0.654297ZM5.6543-7.05078Q5.6543-6.72852 5.85938-6.52832Q6.06445-6.32812 6.40625-6.32812L8.51562-6.32812L8.51562-4.20898Q8.51562-3.88672 8.71094-3.67676Q8.90625-3.4668 9.23828-3.4668Q9.56055-3.4668 9.77051-3.67676Q9.98047-3.88672 9.98047-4.20898L9.98047-6.32812L12.0898-6.32812Q12.4219-6.32812 12.627-6.52832Q12.832-6.72852 12.832-7.05078Q12.832-7.38281 12.627-7.58789Q12.4219-7.79297 12.0898-7.79297L9.98047-7.79297L9.98047-9.90234Q9.98047-10.2344 9.77051-10.4443Q9.56055-10.6543 9.23828-10.6543Q8.90625-10.6543 8.71094-10.4443Q8.51562-10.2344 8.51562-9.90234L8.51562-7.79297L6.40625-7.79297Q6.06445-7.79297 5.85938-7.58789Q5.6543-7.38281 5.6543-7.05078Z"/>
  </g>
  <g transform="matrix(1 0 0 1 281.867 1933)">
   <path d="M11.709 2.91016Q13.75 2.91016 15.5518 2.12891Q17.3535 1.34766 18.7305-0.0292969Q20.1074-1.40625 20.8887-3.20801Q21.6699-5.00977 21.6699-7.05078Q21.6699-9.0918 20.8887-10.8936Q20.1074-12.6953 18.7305-14.0723Q17.3535-15.4492 15.5469-16.2305Q13.7402-17.0117 11.6992-17.0117Q9.6582-17.0117 7.85645-16.2305Q6.05469-15.4492 4.68262-14.0723Q3.31055-12.6953 2.5293-10.8936Q1.74805-9.0918 1.74805-7.05078Q1.74805-5.00977 2.5293-3.20801Q3.31055-1.40625 4.6875-0.0292969Q6.06445 1.34766 7.86621 2.12891Q9.66797 2.91016 11.709 2.91016ZM11.709 1.25Q9.98047 1.25 8.47656 0.605469Q6.97266-0.0390625 5.83496-1.17676Q4.69727-2.31445 4.05762-3.81836Q3.41797-5.32227 3.41797-7.05078Q3.41797-8.7793 4.05762-10.2832Q4.69727-11.7871 5.83008-12.9297Q6.96289-14.0723 8.4668-14.7119Q9.9707-15.3516 11.6992-15.3516Q13.4277-15.3516 14.9316-14.7119Q16.4355-14.0723 17.5781-12.9297Q18.7207-11.7871 19.3652-10.2832Q20.0098-8.7793 20.0098-7.05078Q20.0098-5.32227 19.3701-3.81836Q18.7305-2.31445 17.5928-1.17676Q16.4551-0.0390625 14.9463 0.605469Q13.4375 1.25 11.709 1.25ZM7.17773-7.05078Q7.17773-6.69922 7.41211-6.47461Q7.64648-6.25 8.01758-6.25L10.8887-6.25L10.8887-3.36914Q10.8887-2.99805 11.1133-2.76855Q11.3379-2.53906 11.6895-2.53906Q12.0605-2.53906 12.29-2.76855Q12.5195-2.99805 12.5195-3.36914L12.5195-6.25L15.4004-6.25Q15.7715-6.25 16.001-6.47461Q16.2305-6.69922 16.2305-7.05078Q16.2305-7.42188 16.001-7.65137Q15.7715-7.88086 15.4004-7.88086L12.5195-7.88086L12.5195-10.752Q12.5195-11.1328 12.29-11.3623Q12.0605-11.5918 11.6895-11.5918Q11.3379-11.5918 11.1133-11.3574Q10.8887-11.123 10.8887-10.752L10.8887-7.88086L8.01758-7.88086Q7.63672-7.88086 7.40723-7.65137Q7.17773-7.42188 7.17773-7.05078Z"/>
  </g>
  <g transform="matrix(1 0 0 1 305.646 1933)">
   <path d="M14.9707 5.66406Q17.0605 5.66406 18.96 5.01465Q20.8594 4.36523 22.4512 3.19336Q24.043 2.02148 25.2197 0.429688Q26.3965-1.16211 27.0459-3.06641Q27.6953-4.9707 27.6953-7.05078Q27.6953-9.14062 27.0459-11.04Q26.3965-12.9395 25.2197-14.5312Q24.043-16.123 22.4512-17.2998Q20.8594-18.4766 18.9551-19.126Q17.0508-19.7754 14.9609-19.7754Q12.8711-19.7754 10.9717-19.126Q9.07227-18.4766 7.48535-17.2998Q5.89844-16.123 4.72168-14.5312Q3.54492-12.9395 2.90039-11.04Q2.25586-9.14062 2.25586-7.05078Q2.25586-4.9707 2.90527-3.06641Q3.55469-1.16211 4.72656 0.429688Q5.89844 2.02148 7.49023 3.19336Q9.08203 4.36523 10.9814 5.01465Q12.8809 5.66406 14.9707 5.66406ZM14.9707 3.84766Q13.1641 3.84766 11.5283 3.2959Q9.89258 2.74414 8.53516 1.74805Q7.17773 0.751953 6.17676-0.610352Q5.17578-1.97266 4.62891-3.6084Q4.08203-5.24414 4.08203-7.05078Q4.08203-8.86719 4.62891-10.5029Q5.17578-12.1387 6.17188-13.501Q7.16797-14.8633 8.52539-15.8594Q9.88281-16.8555 11.5186-17.4023Q13.1543-17.9492 14.9609-17.9492Q16.7773-17.9492 18.4131-17.4023Q20.0488-16.8555 21.4111-15.8594Q22.7734-14.8633 23.7695-13.501Q24.7656-12.1387 25.3174-10.5029Q25.8691-8.86719 25.8691-7.05078Q25.8789-5.24414 25.332-3.6084Q24.7852-1.97266 23.7842-0.610352Q22.7832 0.751953 21.4209 1.74805Q20.0586 2.74414 18.4229 3.2959Q16.7871 3.84766 14.9707 3.84766ZM9.19922-7.05078Q9.19922-6.66992 9.45801-6.4209Q9.7168-6.17188 10.1172-6.17188L14.0625-6.17188L14.0625-2.2168Q14.0625-1.81641 14.3115-1.55762Q14.5605-1.29883 14.9512-1.29883Q15.3516-1.29883 15.6104-1.55273Q15.8691-1.80664 15.8691-2.2168L15.8691-6.17188L19.8242-6.17188Q20.2246-6.17188 20.4785-6.4209Q20.7324-6.66992 20.7324-7.05078Q20.7324-7.46094 20.4785-7.71484Q20.2246-7.96875 19.8242-7.96875L15.8691-7.96875L15.8691-11.9141Q15.8691-12.3242 15.6104-12.583Q15.3516-12.8418 14.9512-12.8418Q14.5605-12.8418 14.3115-12.583Q14.0625-12.3242 14.0625-11.9141L14.0625-7.96875L10.1172-7.96875Q9.70703-7.96875 9.45312-7.71484Q9.19922-7.46094 9.19922-7.05078Z"/>
  </g>
  <text style="stroke:none;fill:black;font-family:sans-serif;font-size:13;font-weight:bold;" transform="matrix(1 0 0 1 263 1953)">Design Variations</text>
  <text style="stroke:none;fill:black;font-family:sans-serif;font-size:13;" transform="matrix(1 0 0 1 263 1971)">Symbols are supported in up to nine weights and three scales.</text>
  <text style="stroke:none;fill:black;font-family:sans-serif;font-size:13;" transform="matrix(1 0 0 1 263 1989)">For optimal layout with text and other symbols, vertically align</text>
  <text style="stroke:none;fill:black;font-family:sans-serif;font-size:13;" transform="matrix(1 0 0 1 263 2007)">symbols with the adjacent text.</text>
  <line style="fill:none;stroke:#00AEEF;stroke-width:0.5;opacity:1.0;" x1="776" x2="776" y1="1919" y2="1933"/>
  <g transform="matrix(1 0 0 1 776 1933)">
   <path d="M3.31055 0.15625Q3.70117 0.15625 3.91602-0.00976562Q4.13086-0.175781 4.26758-0.585938L5.52734-4.0332L11.2891-4.0332L12.5488-0.585938Q12.6855-0.175781 12.9004-0.00976562Q13.1152 0.15625 13.4961 0.15625Q13.8867 0.15625 14.1162-0.0585938Q14.3457-0.273438 14.3457-0.644531Q14.3457-0.869141 14.2383-1.17188L9.6582-13.3691Q9.48242-13.8184 9.17969-14.043Q8.87695-14.2676 8.4082-14.2676Q7.5-14.2676 7.17773-13.3789L2.59766-1.16211Q2.49023-0.859375 2.49023-0.634766Q2.49023-0.263672 2.70996-0.0537109Q2.92969 0.15625 3.31055 0.15625ZM6.00586-5.51758L8.37891-12.0898L8.42773-12.0898L10.8008-5.51758Z"/>
  </g>
  <line style="fill:none;stroke:#00AEEF;stroke-width:0.5;opacity:1.0;" x1="793.197" x2="793.197" y1="1919" y2="1933"/>
  <text style="stroke:none;fill:black;font-family:sans-serif;font-size:13;font-weight:bold;" transform="matrix(1 0 0 1 776 1953)">Margins</text>
  <text style="stroke:none;fill:black;font-family:sans-serif;font-size:13;" transform="matrix(1 0 0 1 776 1971)">Leading and trailing margins on the left and right side of each symbol</text>
  <text style="stroke:none;fill:black;font-family:sans-serif;font-size:13;" transform="matrix(1 0 0 1 776 1989)">can be adjusted by modifying the x-location of the margin guidelines.</text>
  <text style="stroke:none;fill:black;font-family:sans-serif;font-size:13;" transform="matrix(1 0 0 1 776 2007)">Modifications are automatically applied proportionally to all</text>
  <text style="stroke:none;fill:black;font-family:sans-serif;font-size:13;" transform="matrix(1 0 0 1 776 2025)">scales and weights.</text>
  <g transform="matrix(1 0 0 1 1289 1933)">
   <path d="M2.8418 1.86523L4.54102 3.57422Q5.18555 4.22852 5.90332 4.17969Q6.62109 4.13086 7.31445 3.35938L18.0078-8.42773L17.041-9.4043L6.42578 2.27539Q6.16211 2.57812 5.89355 2.61719Q5.625 2.65625 5.27344 2.30469L4.10156 1.14258Q3.75 0.791016 3.79395 0.522461Q3.83789 0.253906 4.14062-0.0195312L15.6152-10.8203L14.6387-11.7871L3.04688-0.898438Q2.30469-0.214844 2.25098 0.498047Q2.19727 1.21094 2.8418 1.86523ZM9.25781-16.3281Q8.94531-16.0254 8.90625-15.6348Q8.86719-15.2441 9.04297-14.9512Q9.21875-14.6777 9.55566-14.541Q9.89258-14.4043 10.3809-14.5215Q11.4746-14.7754 12.5977-14.7314Q13.7207-14.6875 14.7949-13.9844L14.209-12.5293Q13.9551-11.9043 14.0674-11.4404Q14.1797-10.9766 14.5801-10.5664L16.875-8.25195Q17.2363-7.88086 17.5781-7.82227Q17.9199-7.76367 18.3398-7.8418L19.4043-8.03711L20.0684-7.36328L20.0293-6.80664Q20-6.43555 20.1221-6.12305Q20.2441-5.81055 20.6055-5.44922L21.3672-4.70703Q21.7285-4.3457 22.1533-4.33105Q22.5781-4.31641 22.9297-4.66797L25.8398-7.58789Q26.1914-7.93945 26.1816-8.35449Q26.1719-8.76953 25.8105-9.13086L25.0391-9.89258Q24.6875-10.2539 24.3799-10.3857Q24.0723-10.5176 23.7109-10.4883L23.1348-10.4395L22.4902-11.0742L22.7344-12.1973Q22.832-12.6172 22.6953-12.9834Q22.5586-13.3496 22.1191-13.7891L19.9219-15.9766Q18.6719-17.2168 17.2607-17.8369Q15.8496-18.457 14.4189-18.4814Q12.9883-18.5059 11.665-17.959Q10.3418-17.4121 9.25781-16.3281ZM10.752-15.957Q11.6602-16.6211 12.7002-16.9043Q13.7402-17.1875 14.8047-17.085Q15.8691-16.9824 16.8701-16.5137Q17.8711-16.0449 18.7012-15.2051L21.1328-12.793Q21.3086-12.6172 21.3525-12.4512Q21.3965-12.2852 21.3379-12.0312L21.0156-10.5469L22.5195-9.0625L23.5059-9.12109Q23.6914-9.13086 23.7891-9.09668Q23.8867-9.0625 24.0332-8.91602L24.6094-8.33984L22.168-5.89844L21.5918-6.47461Q21.4453-6.62109 21.4062-6.71875Q21.3672-6.81641 21.377-7.01172L21.4453-7.98828L19.9512-9.47266L18.4277-9.21875Q18.1836-9.16992 18.042-9.2041Q17.9004-9.23828 17.7148-9.41406L15.7129-11.416Q15.5176-11.5918 15.4932-11.7529Q15.4688-11.9141 15.5859-12.1875L16.4648-14.2773Q15.293-15.3711 13.8281-15.791Q12.3633-16.2109 10.8398-15.7617Q10.7227-15.7324 10.6885-15.8057Q10.6543-15.8789 10.752-15.957Z"/>
  </g>
  <text style="stroke:none;fill:black;font-family:sans-serif;font-size:13;font-weight:bold;" transform="matrix(1 0 0 1 1289 1953)">Exporting</text>
  <text style="stroke:none;fill:black;font-family:sans-serif;font-size:13;" transform="matrix(1 0 0 1 1289 1971)">Symbols should be outlined when exporting to ensure the</text>
  <text style="stroke:none;fill:black;font-family:sans-serif;font-size:13;" transform="matrix(1 0 0 1 1289 1989)">design is preserved when submitting to Xcode.</text>
  <text id="template-version" style="stroke:none;fill:black;font-family:sans-serif;font-size:13;text-anchor:end;" transform="matrix(1 0 0 1 3036 1933)">Template v.3.0</text>
  <text style="stroke:none;fill:black;font-family:sans-serif;font-size:13;text-anchor:end;" transform="matrix(1 0 0 1 3036 1951)">Requires Xcode 13 or greater</text>
  <text id="descriptive-name" style="stroke:none;fill:black;font-family:sans-serif;font-size:13;text-anchor:end;" transform="matrix(1 0 0 1 3036 1969)">Generated from cloud.moon</text>
  <text style="stroke:none;fill:black;font-family:sans-serif;font-size:13;text-anchor:end;" transform="matrix(1 0 0 1 3036 1987)">Typeset at 100 points</text>
  <text style="stroke:none;fill:black;font-family:sans-serif;font-size:13;" transform="matrix(1 0 0 1 263 726)">Small</text>
  <text style="stroke:none;fill:black;font-family:sans-serif;font-size:13;" transform="matrix(1 0 0 1 263 1156)">Medium</text>
  <text style="stroke:none;fill:black;font-family:sans-serif;font-size:13;" transform="matrix(1 0 0 1 263 1586)">Large</text>
 </g>
 <g id="Guides">
  <g id="H-reference" style="fill:#27AAE1;stroke:none;" transform="matrix(1 0 0 1 339 696)">
   <path d="M0.993347 0L3.6377 0L29.3282-67.1326L30.0301-67.1326L30.0301-70.459L28.1227-70.459ZM11.6882-24.4797L46.9818-24.4797L46.2311-26.7288L12.4382-26.7288ZM55.1193 0L57.7637 0L30.6381-70.459L29.4327-70.459L29.4327-67.1326Z"/>
  </g>
  <line id="Baseline-S" style="fill:none;stroke:#27AAE1;opacity:1;stroke-width:0.5;" x1="263" x2="3036" y1="696" y2="696"/>
  <line id="Capline-S" style="fill:none;stroke:#27AAE1;opacity:1;stroke-width:0.5;" x1="263" x2="3036" y1="625.541" y2="625.541"/>
  <g id="H-reference" style="fill:#27AAE1;stroke:none;" transform="matrix(1 0 0 1 339 1126)">
   <path d="M0.993347 0L3.6377 0L29.3282-67.1326L30.0301-67.1326L30.0301-70.459L28.1227-70.459ZM11.6882-24.4797L46.9818-24.4797L46.2311-26.7288L12.4382-26.7288ZM55.1193 0L57.7637 0L30.6381-70.459L29.4327-70.459L29.4327-67.1326Z"/>
  </g>
  <line id="Baseline-M" style="fill:none;stroke:#27AAE1;opacity:1;stroke-width:0.5;" x1="263" x2="3036" y1="1126" y2="1126"/>
  <line id="Capline-M" style="fill:none;stroke:#27AAE1;opacity:1;stroke-width:0.5;" x1="263" x2="3036" y1="1055.54" y2="1055.54"/>
  <g id="H-reference" style="fill:#27AAE1;stroke:none;" transform="matrix(1 0 0 1 339 1556)">
   <path d="M0.993347 0L3.6377 0L29.3282-67.1326L30.0301-67.1326L30.0301-70.459L28.1227-70.459ZM11.6882-24.4797L46.9818-24.4797L46.2311-26.7288L12.4382-26.7288ZM55.1193 0L57.7637 0L30.6381-70.459L29.4327-70.459L29.4327-67.1326Z"/>
  </g>
  <line id="Baseline-L" style="fill:none;stroke:#27AAE1;opacity:1;stroke-width:0.5;" x1="263" x2="3036" y1="1556" y2="1556"/>
  <line id="Capline-L" style="fill:none;stroke:#27AAE1;opacity:1;stroke-width:0.5;" x1="263" x2="3036" y1="1485.54" y2="1485.54"/>
  <line id="left-margin-Ultralight-S" style="fill:none;stroke:#00AEEF;stroke-width:0.5;opacity:1.0;" x1="509.279" x2="509.279" y1="600.785" y2="720.121"/>
  <line id="right-margin-Ultralight-S" style="fill:none;stroke:#FF3B30;stroke-width:0.5;opacity:1.0;" x1="610.143" x2="610.143" y1="600.785" y2="720.121"/>
  <line id="left-margin-Regular-S" style="fill:none;stroke:#00AEEF;stroke-width:0.5;opacity:1.0;" x1="1397.89" x2="1397.89" y1="600.785" y2="720.121"/>
  <line id="right-margin-Regular-S" style="fill:none;stroke:#FF3B30;stroke-width:0.5;opacity:1.0;" x1="1501.8" x2="1501.8" y1="600.785" y2="720.121"/>
  <line id="left-margin-Black-S" style="fill:none;stroke:#00AEEF;stroke-width:0.5;opacity:1.0;" x1="2877.49" x2="2877.49" y1="600.785" y2="720.121"/>
  <line id="right-margin-Black-S" style="fill:none;stroke:#FF3B30;stroke-width:0.5;opacity:1.0;" x1="2989.31" x2="2989.31" y1="600.785" y2="720.121"/>
 </g>
 <g id="Symbols">
  <g id="Black-S" transform="matrix(1 0 0 1 2877.49 696)">
   <path class="hierarchical-0:secondary SFSymbolsPreview4D4D4D" d="M86.1816-20.8984Q91.1133-20.459 95.5811-21.4844Q100.049-22.5098 103.833-24.8779Q107.617-27.2461 110.4-30.7617Q113.184-34.2773 114.697-38.7695Q115.918-42.334 114.551-44.873Q113.184-47.4121 109.766-47.4121Q107.275-47.4121 105.029-46.7041Q102.783-45.9961 99.6094-45.9961Q93.5547-45.9961 90.6494-49.2432Q87.7441-52.4902 87.7441-58.9844Q87.7441-61.4746 88.1104-63.4033Q88.4766-65.332 88.8428-66.7969Q89.209-68.2617 89.209-69.3359Q89.209-72.6562 86.6943-74.0723Q84.1797-75.4883 81.0059-74.4141Q77.0508-73.0957 73.7305-70.6055Q70.4102-68.1152 67.9199-64.7705Q65.4297-61.4258 64.0625-57.4951Q62.6953-53.5645 62.6953-49.3652Q62.6953-46.5332 63.2568-43.8721Q63.8184-41.2109 65.1367-38.916L74.9512-38.916Q72.1191-43.4082 72.1191-49.3652Q72.1191-51.6113 72.6562-53.7109Q73.1934-55.8105 74.1699-57.7393Q75.1465-59.668 76.5381-61.2549Q77.9297-62.8418 79.6875-64.0625L80.1758-63.7695Q79.7363-62.3535 79.3701-60.4004Q79.0039-58.4473 79.0039-56.1035Q79.0039-50.6836 81.2744-46.4111Q83.5449-42.1387 87.7197-39.6729Q91.8945-37.207 97.5098-37.207Q99.8535-37.207 101.392-37.5977Q102.93-37.9883 104.102-38.3789L104.443-38.0371Q103.32-36.1328 101.514-34.6436Q99.707-33.1543 97.3145-32.1533Q94.9219-31.1523 91.9434-30.7617Q88.9648-30.3711 85.498-30.7129Z"/>
   <path class="hierarchical-1:primary SFSymbolsPreview212121" d="M23.0469 2.39258L65.4785 2.39258Q71.875 2.39258 77.002-0.561523Q82.1289-3.51562 85.1318-8.59375Q88.1348-13.6719 88.1348-19.9219Q88.1348-26.2207 85.2539-31.2744Q82.373-36.3281 77.4658-39.3555Q72.5586-42.3828 66.3574-42.5293Q62.793-49.0723 56.7383-52.4658Q50.6836-55.8594 42.5293-55.8594Q35.6934-55.8594 29.9316-52.9297Q24.1699-50 20.2881-44.7998Q16.4062-39.5996 15.1367-32.8125Q9.76562-31.0547 6.5918-26.6113Q3.41797-22.168 3.41797-16.2598Q3.41797-10.8398 5.98145-6.64062Q8.54492-2.44141 12.9883-0.0244141Q17.4316 2.39258 23.0469 2.39258ZM23.4863-9.32617Q19.3359-9.32617 17.2607-11.2305Q15.1855-13.1348 15.1855-16.1621Q15.1855-18.9453 17.041-20.874Q18.8965-22.8027 22.7539-23.7793Q24.4629-24.2188 25.0732-25.0977Q25.6836-25.9766 25.9766-27.6855Q26.9531-33.3008 29.2725-36.9629Q31.5918-40.625 35.0098-42.4072Q38.4277-44.1895 42.5293-44.1895Q47.168-44.1895 51.0498-41.5283Q54.9316-38.8672 57.7148-33.7891Q58.4961-32.4219 59.4238-31.8359Q60.3516-31.25 62.1094-31.25Q67.1387-31.25 70.2881-29.7363Q73.4375-28.2227 74.9268-25.6348Q76.416-23.0469 76.416-19.7754Q76.416-16.7969 75.0488-14.4287Q73.6816-12.0605 71.1182-10.6934Q68.5547-9.32617 65.0391-9.32617Z"/>
  </g>
  <g id="Regular-S" transform="matrix(1 0 0 1 1397.89 696)">
   <path class="hierarchical-0:secondary SFSymbolsPreview4D4D4D" d="M77.2949-22.9492Q82.5195-22.6074 86.8408-23.5596Q91.1621-24.5117 94.5557-26.5137Q97.9492-28.5156 100.342-31.2988Q102.734-34.082 104.15-37.3535Q105.322-39.9902 104.15-42.041Q102.979-44.0918 100.439-44.0918Q98.584-44.0918 96.9482-43.6523Q95.3125-43.2129 92.3828-43.2129Q85.1074-43.2129 81.4209-46.9482Q77.7344-50.6836 77.7344-57.3242Q77.7344-59.3262 78.0518-60.8887Q78.3691-62.4512 78.6621-63.7207Q78.9551-64.9902 78.9551-66.0645Q78.9551-68.75 76.9531-69.8975Q74.9512-71.0449 72.1191-70.0684Q68.8477-68.8965 66.1133-66.6992Q63.3789-64.502 61.377-61.499Q59.375-58.4961 58.2764-54.9805Q57.1777-51.4648 57.1777-47.6562Q57.1777-44.9707 57.666-42.4316Q58.1543-39.8926 59.082-37.5L66.4062-37.5488Q63.5742-41.9434 63.5742-47.8027Q63.5742-50.2441 64.1846-52.5146Q64.7949-54.7852 65.918-56.8115Q67.041-58.8379 68.6035-60.498Q70.166-62.1582 72.0703-63.3301L72.5586-62.9883Q72.1191-61.6211 71.8018-59.8145Q71.4844-58.0078 71.4844-55.9082Q71.4844-50.3418 73.999-46.0938Q76.5137-41.8457 80.8838-39.4531Q85.2539-37.0605 90.8203-37.0605Q92.8711-37.0605 94.5801-37.3535Q96.2891-37.6465 97.4609-38.0371L97.7051-37.6953Q96.6309-35.8398 94.751-34.1797Q92.8711-32.5195 90.3076-31.2988Q87.7441-30.0781 84.4727-29.541Q81.2012-29.0039 77.2949-29.3457Z"/>
   <path class="hierarchical-1:primary SFSymbolsPreview212121" d="M20.0684-3.22266L61.3281-3.22266Q66.9434-3.22266 71.4355-5.78613Q75.9277-8.34961 78.5889-12.7686Q81.25-17.1875 81.25-22.7051Q81.25-28.1738 78.5645-32.5195Q75.8789-36.8652 71.2646-39.4043Q66.6504-41.9434 60.8398-42.041Q57.4707-48.291 51.6846-51.8555Q45.8984-55.4199 38.916-55.4199Q32.4707-55.4199 27.0508-52.4414Q21.6309-49.4629 18.1396-44.4092Q14.6484-39.3555 14.0137-33.0566Q9.22852-31.4941 6.34766-27.5391Q3.4668-23.584 3.4668-18.3594Q3.4668-13.916 5.56641-10.498Q7.66602-7.08008 11.4014-5.15137Q15.1367-3.22266 20.0684-3.22266ZM19.873-10.2539Q15.2344-10.2539 12.8662-12.5244Q10.498-14.7949 10.498-18.1641Q10.498-20.9473 12.207-23.3154Q13.916-25.6836 18.0664-26.7578Q19.5801-27.1484 20.2393-27.9541Q20.8984-28.7598 21.0449-30.3711Q21.4844-35.6934 23.9746-39.7461Q26.4648-43.7988 30.3467-46.0938Q34.2285-48.3887 38.916-48.3887Q44.0918-48.3887 48.1934-45.6299Q52.2949-42.8711 54.9805-37.5Q55.6641-36.1816 56.5674-35.6445Q57.4707-35.1074 59.082-35.1074Q64.0137-35.1074 67.3828-33.374Q70.752-31.6406 72.4854-28.7842Q74.2188-25.9277 74.2188-22.5098Q74.2188-19.0918 72.5342-16.3086Q70.8496-13.5254 67.9688-11.8896Q65.0879-10.2539 61.4258-10.2539Z"/>
  </g>
  <g id="Ultralight-S" transform="matrix(1 0 0 1 509.279 696)">
   <path class="hierarchical-0:secondary SFSymbolsPreview4D4D4D" d="M78.7025-24.6292Q84.6535-24.469 88.9977-26.2615Q93.3418-28.054 96.1678-30.7823Q98.9937-33.5106 100.41-36.2938Q101.826-39.077 101.88-40.8501Q101.917-41.6252 101.471-42.1093Q101.026-42.5934 100.258-42.5934Q99.0837-42.5934 96.8575-41.8362Q94.6312-41.0789 91.0202-41.0789Q83.609-41.0789 79.3095-45.3136Q75.0099-49.5483 75.0099-56.3255Q75.0099-59.1896 75.4635-60.8658Q75.9171-62.542 76.3916-63.5616Q76.8661-64.5813 76.8661-65.4739Q76.8661-66.4795 76.1585-66.9003Q75.4509-67.321 74.2531-67.1623Q72.2076-66.8533 69.6098-65.4961Q67.012-64.1388 64.5786-61.7035Q62.1452-59.2682 60.5698-55.7072Q58.9943-52.1461 58.9943-47.4747Q58.9943-45.4704 59.3464-43.4761Q59.6985-41.4818 60.3539-39.5889L62.365-40.0917Q61.0764-43.5783 61.0764-47.5754Q61.0764-51.7883 62.4817-54.9442Q63.887-58.1001 66.0316-60.2402Q68.1763-62.3802 70.488-63.586Q72.7997-64.7919 74.659-65.1009L74.7833-64.9406Q74.0715-63.5735 73.5046-61.3583Q72.9378-59.1431 72.9378-56.2263Q72.9378-51.1589 75.1572-47.2744Q77.3766-43.3899 81.4289-41.2014Q85.4813-39.0129 90.9569-39.0129Q93.0984-39.0129 95.4205-39.4196Q97.7425-39.8262 99.6407-40.4892L99.794-40.4198Q99.5827-38.8367 98.2475-36.4727Q96.9124-34.1087 94.3489-31.8211Q91.7854-29.5334 87.9009-28.0426Q84.0164-26.5518 78.7025-26.712Z"/>
   <path class="hierarchical-1:primary SFSymbolsPreview212121" d="M18.9331-6.12869L61.01-6.12869Q66.1713-6.12869 70.3228-8.48808Q74.4743-10.8475 76.9085-14.8121Q79.3427-18.7767 79.3427-23.6588Q79.3427-28.5828 76.8387-32.497Q74.3347-36.4113 70.0157-38.678Q65.6967-40.9447 60.2493-40.9515Q56.926-47.3373 51.5259-51.2424Q46.1258-55.1476 38.5979-55.1476Q32.6073-55.1476 27.5959-52.169Q22.5845-49.1905 19.4111-44.1368Q16.2376-39.0831 15.6937-32.8751Q10.9543-31.6307 7.64198-28.1067Q4.32968-24.5827 4.32968-19.313Q4.32968-15.7326 6.08864-12.7232Q7.8476-9.71375 11.129-7.92122Q14.4104-6.12869 18.9331-6.12869ZM18.9651-8.21075Q12.9189-8.21075 9.66492-11.4799Q6.41098-14.7491 6.41098-19.3451Q6.41098-23.5809 9.11903-26.585Q11.8271-29.5891 16.2956-30.9357Q17.0822-31.1447 17.3782-31.4735Q17.6743-31.8024 17.6849-32.46Q18.0786-38.1454 21.0228-42.8112Q23.967-47.477 28.5984-50.2716Q33.2298-53.0663 38.5979-53.0663Q45.7268-53.0663 50.6683-49.3309Q55.6099-45.5956 58.3405-40.1794Q58.6609-39.4966 59.1103-39.2319Q59.5596-38.9671 60.3989-38.9671Q65.1947-38.9671 69.0178-36.916Q72.8409-34.8648 75.0511-31.3725Q77.2614-27.8801 77.2614-23.5992Q77.2614-19.3642 75.0999-15.8772Q72.9385-12.3901 69.2631-10.3004Q65.5876-8.21075 61.0168-8.21075Z"/>
  </g>
 </g>
</svg>
