<svg width="50" height="81" viewBox="0 0 50 81" fill="none" xmlns="http://www.w3.org/2000/svg">
<path d="M0 77.2949C0 78.1738 0.317384 78.9388 0.95215 79.5898C1.58691 80.2409 2.37628 80.5664 3.32026 80.5664C9.14713 80.5664 14.5671 79.6468 19.5801 77.8076C24.5931 75.9684 28.9795 73.3073 32.7393 69.8242C36.499 66.3411 39.4287 62.1094 41.5284 57.1289C43.628 52.1484 44.6778 46.5332 44.6778 40.2832C44.6778 36.6373 43.7744 33.3089 41.9678 30.2978C40.1612 27.2867 37.7523 24.8779 34.7412 23.0713C31.7301 21.2646 28.4017 20.3613 24.7559 20.3613C23.0306 20.3613 21.3542 20.5892 19.7266 21.0449C18.099 21.5006 16.5853 22.1354 15.1856 22.9492C17.1387 19.4336 19.6615 16.4551 22.7539 14.0137C25.8463 11.5723 29.3864 9.71684 33.3741 8.4473C37.3617 7.17777 41.6504 6.543 46.2403 6.543C47.1517 6.543 47.933 6.21747 48.584 5.5664C49.235 4.91533 49.5606 4.15037 49.5606 3.2715C49.5606 2.36003 49.235 1.5869 48.584 0.952103C47.933 0.317369 47.1517 0 46.2403 0C40.4134 0 34.9935 0.919604 29.9805 2.7588C24.9675 4.598 20.5811 7.25914 16.8213 10.7422C13.0615 14.2253 10.1319 18.457 8.03226 23.4375C5.93266 28.418 4.88286 34.0332 4.88286 40.2832C4.88286 43.929 5.78616 47.2574 7.59276 50.2685C9.39943 53.2796 11.8083 55.6884 14.8194 57.4951C17.8304 59.3018 21.1426 60.2051 24.7559 60.2051C26.5137 60.2051 28.2064 59.9772 29.834 59.5215C31.4616 59.0658 32.9752 58.431 34.375 57.6172C32.4218 61.1328 29.8909 64.1113 26.7823 66.5527C23.6735 68.9941 20.1253 70.8496 16.1377 72.1191C12.1501 73.3887 7.87759 74.0234 3.32026 74.0234C2.37628 74.0234 1.58691 74.3408 0.95215 74.9756C0.317384 75.6103 0 76.3835 0 77.2949ZM11.5235 40.2832C11.5235 37.8743 12.1257 35.6608 13.3301 33.6426C14.5345 31.6243 16.1377 30.013 18.1397 28.8086C20.1416 27.6041 22.347 27.0019 24.7559 27.0019C27.1973 27.0019 29.4189 27.6041 31.4209 28.8086C33.4229 30.013 35.0261 31.6243 36.2305 33.6426C37.4349 35.6608 38.0371 37.8743 38.0371 40.2832C38.0371 42.6921 37.4349 44.9056 36.2305 46.9238C35.0261 48.9421 33.4229 50.5534 31.4209 51.7578C29.4189 52.9622 27.1973 53.5644 24.7559 53.5644C22.347 53.5644 20.1416 52.9622 18.1397 51.7578C16.1377 50.5534 14.5345 48.9421 13.3301 46.9238C12.1257 44.9056 11.5235 42.6921 11.5235 40.2832ZM18.9942 40.2832C18.9942 41.8783 19.5638 43.2373 20.7032 44.3603C21.8424 45.4834 23.1933 46.0449 24.7559 46.0449C26.3509 46.0449 27.7181 45.4752 28.8575 44.3359C29.9967 43.1966 30.5664 41.8457 30.5664 40.2832C30.5664 38.6881 29.9967 37.3291 28.8575 36.206C27.7181 35.083 26.3509 34.5215 24.7559 34.5215C23.1933 34.5215 21.8424 35.083 20.7032 36.206C19.5638 37.3291 18.9942 38.6881 18.9942 40.2832Z" fill="#808080"/>
</svg>
