<svg width="99" height="64" viewBox="0 0 99 64" fill="none" xmlns="http://www.w3.org/2000/svg">
<path d="M69.9707 44.0918C69.9707 40.2832 69.0186 36.7838 67.1143 33.5937C65.21 30.4036 62.6709 27.8483 59.4971 25.9277C56.3233 24.0072 52.8321 23.0469 49.0235 23.0469C45.2149 23.0469 41.7237 24.0072 38.5498 25.9277C35.376 27.8483 32.8369 30.4036 30.9326 33.5937C29.0283 36.7838 28.0762 40.2832 28.0762 44.0918C28.0762 46.5657 28.5157 48.9746 29.3946 51.3184H68.6524C69.5313 48.9746 69.9707 46.5657 69.9707 44.0918ZM68.75 24.4141C69.4661 25.0976 70.3288 25.4231 71.3379 25.3906C72.347 25.3581 73.2585 24.9349 74.0723 24.1211L79.9805 18.2129C80.7943 17.3991 81.2093 16.4876 81.2256 15.4785C81.2419 14.4694 80.9082 13.623 80.2246 12.9394C79.541 12.2233 78.6947 11.8733 77.6856 11.8896C76.6765 11.9059 75.765 12.321 74.9512 13.1348L69.043 19.043C68.2292 19.8568 67.7979 20.7845 67.749 21.8262C67.7002 22.8679 68.0339 23.7305 68.75 24.4141ZM8.83791 46.7285H17.1875C18.3268 46.7285 19.279 46.3786 20.044 45.6787C20.8089 44.9788 21.1751 44.1406 21.1426 43.1641C21.1101 42.155 20.7276 41.3086 19.9951 40.625C19.2627 39.9414 18.3268 39.5996 17.1875 39.5996H8.83791C7.66605 39.5996 6.71391 39.9414 5.98151 40.625C5.24905 41.3086 4.88281 42.155 4.88281 43.1641C4.88281 44.1406 5.24905 44.9788 5.98151 45.6787C6.71391 46.3786 7.66605 46.7285 8.83791 46.7285ZM23.9746 24.1211C24.7884 24.9349 25.708 25.3581 26.7334 25.3906C27.7588 25.4231 28.6133 25.0976 29.2969 24.4141C29.9805 23.6979 30.306 22.8271 30.2735 21.8018C30.2409 20.7764 29.8177 19.8568 29.0039 19.043L23.0957 13.1348C22.2819 12.321 21.3786 11.9141 20.3858 11.9141C19.3929 11.9141 18.5384 12.2559 17.8223 12.9394C17.1062 13.623 16.7562 14.4694 16.7725 15.4785C16.7888 16.4876 17.2201 17.3991 18.0664 18.2129L23.9746 24.1211ZM80.8594 46.7285H89.209C90.3806 46.7285 91.3327 46.3786 92.0654 45.6787C92.7981 44.9788 93.1644 44.1406 93.1644 43.1641C93.1644 42.155 92.7981 41.3086 92.0654 40.625C91.3327 39.9414 90.3806 39.5996 89.209 39.5996H80.8594C79.7201 39.5996 78.7679 39.9414 78.003 40.625C77.238 41.3086 76.8718 42.155 76.9043 43.1641C76.9369 44.1406 77.3194 44.9788 78.0518 45.6787C78.7842 46.3786 79.7201 46.7285 80.8594 46.7285ZM49.0235 16.2598C50 16.2272 50.8382 15.8366 51.5381 15.0879C52.238 14.3392 52.5879 13.3952 52.5879 12.2559V3.9062C52.5879 2.76693 52.238 1.83107 51.5381 1.0986C50.8382 0.366202 50 0 49.0235 0C48.0469 0 47.2087 0.366202 46.5088 1.0986C45.8089 1.83107 45.459 2.76693 45.459 3.9062V12.2559C45.459 13.3952 45.8089 14.3473 46.5088 15.1123C47.2087 15.8773 48.0469 16.2598 49.0235 16.2598Z" fill="#FFD60A"/>
<path d="M3.80858 63.1348H94.2384C95.2797 63.1348 96.1747 62.7849 96.9234 62.085C97.6721 61.3851 98.0464 60.5632 98.0464 59.6191C98.0464 58.6426 97.6721 57.8125 96.9234 57.1289C96.1747 56.4453 95.2797 56.1035 94.2384 56.1035H3.80858C2.76691 56.1035 1.87175 56.4453 1.12308 57.1289C0.374359 57.8125 0 58.6426 0 59.6191C0 60.5632 0.374359 61.3851 1.12308 62.085C1.87175 62.7849 2.76691 63.1348 3.80858 63.1348Z" fill="#808080"/>
</svg>
