<svg width="74" height="86" viewBox="0 0 74 86" fill="none" xmlns="http://www.w3.org/2000/svg">
<path d="M36.2305 35.4752C44.2709 35.4752 51.058 34.8404 56.5918 33.5709C62.1256 32.3013 66.3249 30.5842 69.1895 28.4195C72.0541 26.2548 73.4864 23.789 73.4864 21.0221C73.4864 18.4504 72.3633 16.245 70.1172 14.4059C67.8711 12.5667 64.7624 11.1506 60.7911 10.1578C56.8197 9.16497 52.2624 8.66857 47.1192 8.66857C41.2272 8.66857 36.0189 9.1731 31.4942 10.1822C26.9694 11.1913 23.0306 12.5097 19.6778 14.1373C18.6361 14.6255 17.9932 15.3173 17.7491 16.2125C17.5049 17.1077 17.5619 17.9133 17.92 18.6295C18.3431 19.4758 19.0267 20.0129 19.9707 20.2408C20.9147 20.4686 21.8099 20.4035 22.6563 20.0455C25.7161 18.7759 29.1992 17.6203 33.1055 16.5787C37.0117 15.537 41.5365 15.0162 46.6797 15.0162C50.944 15.0162 54.5573 15.3091 57.5196 15.8951C60.4818 16.481 62.7441 17.2297 64.3067 18.1412C65.8691 19.0526 66.6504 19.9966 66.6504 20.9732C66.6504 21.8846 65.9749 22.7961 64.6241 23.7076C63.2731 24.619 61.2874 25.4654 58.667 26.2467C56.0466 27.0279 52.8239 27.6627 48.9991 28.151C45.1742 28.6392 40.8041 28.8834 35.8887 28.8834C26.3835 28.8834 19.165 27.98 14.2334 26.1734C9.30176 24.3668 6.83596 21.7056 6.83596 18.19C6.83596 16.2043 7.89389 14.1779 10.0098 12.1109C12.1256 10.0439 15.9831 8.0989 21.5821 6.27597C22.6563 5.9179 23.405 5.34824 23.8282 4.56697C24.2513 3.7857 24.3164 2.93934 24.0235 2.02787C23.3724 0.139869 21.8262 -0.429797 19.3848 0.31887C12.7767 2.3046 7.89389 4.90064 4.73636 8.10697C1.57879 11.3134 0 14.7395 0 18.3854C0 23.9843 3.05989 28.2323 9.17966 31.1295C15.2995 34.0266 24.3164 35.4752 36.2305 35.4752ZM37.3536 48.2682C43.3431 48.2682 49.0071 47.8043 54.3457 46.8766C59.6843 45.9488 64.323 44.6874 68.2618 43.0924C69.0756 42.7668 69.6534 42.2216 69.9952 41.4566C70.337 40.6916 70.3125 39.9348 69.9219 39.1861C69.4987 38.4699 68.9209 38.0305 68.1885 37.8678C67.4561 37.705 66.6016 37.8026 65.625 38.1607C62.1419 39.4628 57.9508 40.537 53.0518 41.3834C48.1527 42.2297 42.92 42.6529 37.3536 42.6529C34.6517 42.6529 31.8685 42.5389 29.0039 42.3111C26.1393 42.0832 23.2992 41.7414 20.4834 41.2857C17.6676 40.83 15.0065 40.2278 12.5 39.4791C11.5234 39.1861 10.669 39.1861 9.93656 39.4791C9.20409 39.7721 8.72393 40.3255 8.49606 41.1393C8.26819 41.9531 8.34959 42.7099 8.74026 43.4098C9.13086 44.1096 9.83073 44.606 10.8399 44.899C14.8763 46.0058 19.2302 46.844 23.9014 47.4137C28.5726 47.9833 33.0566 48.2682 37.3536 48.2682ZM39.8438 60.9146C44.7917 60.882 49.6257 60.5077 54.3457 59.7916C59.0657 59.0754 63.623 57.9687 68.0176 56.4713C69.1894 56.0807 69.8974 55.4947 70.1416 54.7135C70.3858 53.9322 70.3776 53.1998 70.1172 52.5162C69.8242 51.7675 69.2953 51.2792 68.5303 51.0514C67.7653 50.8235 66.8295 50.8886 65.7227 51.2467C61.3607 52.6464 57.0719 53.6718 52.8565 54.3229C48.6409 54.9739 44.3034 55.2994 39.8438 55.2994C37.9558 55.2994 36.0677 55.2343 34.1797 55.1041C32.2917 54.9739 30.5664 54.7948 29.0039 54.567C27.9622 54.4368 27.124 54.567 26.4893 54.9576C25.8545 55.3482 25.472 55.9342 25.3418 56.7154C25.2116 57.4966 25.3581 58.2128 25.7813 58.8639C26.2045 59.5149 26.9857 59.938 28.125 60.1334C29.5573 60.3938 31.2663 60.5972 33.252 60.7438C35.2376 60.8902 37.4349 60.9472 39.8438 60.9146ZM36.4258 72.8287C38.7695 73.0891 41.2191 73.2356 43.7745 73.2681C46.3298 73.3007 48.9095 73.1786 51.5137 72.9019C54.1179 72.6252 56.6244 72.1614 59.0332 71.5103C60.0423 71.2499 60.7259 70.7454 61.084 69.9967C61.442 69.2479 61.5071 68.4992 61.2793 67.7506C61.0189 66.9368 60.5306 66.3834 59.8145 66.0904C59.0983 65.7974 58.2194 65.7812 57.1778 66.0416C54.0853 66.8228 50.8464 67.3355 47.461 67.5797C44.0756 67.8238 40.7064 67.7343 37.3536 67.3111C36.3119 67.2134 35.4574 67.3843 34.7901 67.8238C34.1227 68.2632 33.7402 68.8736 33.6426 69.6548C33.5449 70.4687 33.7158 71.1767 34.1553 71.7789C34.5947 72.3811 35.3516 72.731 36.4258 72.8287ZM33.7891 85.1334C35.0586 85.2961 36.3444 85.3775 37.6465 85.3775C38.9485 85.3775 40.2343 85.2961 41.5039 85.1334C42.513 85.0032 43.2454 84.6532 43.7012 84.0836C44.1569 83.5139 44.3522 82.8222 44.2871 82.0084C44.222 81.3248 43.9046 80.7551 43.335 80.2994C42.7653 79.8437 41.9596 79.6809 40.918 79.8111C38.7044 80.0715 36.4909 80.0715 34.2774 79.8111C33.2682 79.7134 32.4788 79.8843 31.9092 80.3238C31.3395 80.7633 31.0058 81.3248 30.9082 82.0084C30.8106 82.7571 30.9978 83.4325 31.4698 84.0347C31.9418 84.6369 32.7149 85.0032 33.7891 85.1334Z" fill="#808080"/>
</svg>
