<?xml version="1.0" encoding="UTF-8"?>
<!--Generator: Apple Native CoreSVG 175-->
<!DOCTYPE svg
PUBLIC "-//W3C//DTD SVG 1.1//EN"
       "http://www.w3.org/Graphics/SVG/1.1/DTD/svg11.dtd">
<svg version="1.1" xmlns="http://www.w3.org/2000/svg" xmlns:xlink="http://www.w3.org/1999/xlink" width="3300" height="2200">
 <!--glyph: "uni1001AB.medium", point size: 100.0, font version: "17.3d3e1", template writer version: "65.1"-->
 <g id="Notes">
  <rect height="2200" id="artboard" style="fill:white;opacity:1" width="3300" x="0" y="0"/>
  <line style="fill:none;stroke:black;opacity:1;stroke-width:0.5;" x1="263" x2="3036" y1="292" y2="292"/>
  <text style="stroke:none;fill:black;font-family:sans-serif;font-size:13;font-weight:bold;" transform="matrix(1 0 0 1 263 322)">Weight/Scale Variations</text>
  <text style="stroke:none;fill:black;font-family:sans-serif;font-size:13;text-anchor:middle;" transform="matrix(1 0 0 1 559.711 322)">Ultralight</text>
  <text style="stroke:none;fill:black;font-family:sans-serif;font-size:13;text-anchor:middle;" transform="matrix(1 0 0 1 856.422 322)">Thin</text>
  <text style="stroke:none;fill:black;font-family:sans-serif;font-size:13;text-anchor:middle;" transform="matrix(1 0 0 1 1153.13 322)">Light</text>
  <text style="stroke:none;fill:black;font-family:sans-serif;font-size:13;text-anchor:middle;" transform="matrix(1 0 0 1 1449.84 322)">Regular</text>
  <text style="stroke:none;fill:black;font-family:sans-serif;font-size:13;text-anchor:middle;" transform="matrix(1 0 0 1 1746.56 322)">Medium</text>
  <text style="stroke:none;fill:black;font-family:sans-serif;font-size:13;text-anchor:middle;" transform="matrix(1 0 0 1 2043.27 322)">Semibold</text>
  <text style="stroke:none;fill:black;font-family:sans-serif;font-size:13;text-anchor:middle;" transform="matrix(1 0 0 1 2339.98 322)">Bold</text>
  <text style="stroke:none;fill:black;font-family:sans-serif;font-size:13;text-anchor:middle;" transform="matrix(1 0 0 1 2636.69 322)">Heavy</text>
  <text style="stroke:none;fill:black;font-family:sans-serif;font-size:13;text-anchor:middle;" transform="matrix(1 0 0 1 2933.4 322)">Black</text>
  <line style="fill:none;stroke:black;opacity:1;stroke-width:0.5;" x1="263" x2="3036" y1="1903" y2="1903"/>
  <g transform="matrix(1 0 0 1 263 1933)">
   <path d="M9.24805 0.830078Q10.8691 0.830078 12.2949 0.214844Q13.7207-0.400391 14.8096-1.49414Q15.8984-2.58789 16.5186-4.01367Q17.1387-5.43945 17.1387-7.05078Q17.1387-8.66211 16.5186-10.0879Q15.8984-11.5137 14.8047-12.6074Q13.7109-13.7012 12.2852-14.3164Q10.8594-14.9316 9.23828-14.9316Q7.62695-14.9316 6.20117-14.3164Q4.77539-13.7012 3.69141-12.6074Q2.60742-11.5137 1.9873-10.0879Q1.36719-8.66211 1.36719-7.05078Q1.36719-5.43945 1.9873-4.01367Q2.60742-2.58789 3.69629-1.49414Q4.78516-0.400391 6.21094 0.214844Q7.63672 0.830078 9.24805 0.830078ZM9.24805-0.654297Q7.91992-0.654297 6.7627-1.14746Q5.60547-1.64062 4.73145-2.51953Q3.85742-3.39844 3.36426-4.56055Q2.87109-5.72266 2.87109-7.05078Q2.87109-8.37891 3.35938-9.54102Q3.84766-10.7031 4.72168-11.582Q5.5957-12.4609 6.75293-12.9541Q7.91016-13.4473 9.23828-13.4473Q10.5762-13.4473 11.7334-12.9541Q12.8906-12.4609 13.7695-11.582Q14.6484-10.7031 15.1465-9.54102Q15.6445-8.37891 15.6445-7.05078Q15.6445-5.72266 15.1514-4.56055Q14.6582-3.39844 13.7842-2.51953Q12.9102-1.64062 11.748-1.14746Q10.5859-0.654297 9.24805-0.654297ZM5.6543-7.05078Q5.6543-6.72852 5.85938-6.52832Q6.06445-6.32812 6.40625-6.32812L8.51562-6.32812L8.51562-4.20898Q8.51562-3.88672 8.71094-3.67676Q8.90625-3.4668 9.23828-3.4668Q9.56055-3.4668 9.77051-3.67676Q9.98047-3.88672 9.98047-4.20898L9.98047-6.32812L12.0898-6.32812Q12.4219-6.32812 12.627-6.52832Q12.832-6.72852 12.832-7.05078Q12.832-7.38281 12.627-7.58789Q12.4219-7.79297 12.0898-7.79297L9.98047-7.79297L9.98047-9.90234Q9.98047-10.2344 9.77051-10.4443Q9.56055-10.6543 9.23828-10.6543Q8.90625-10.6543 8.71094-10.4443Q8.51562-10.2344 8.51562-9.90234L8.51562-7.79297L6.40625-7.79297Q6.06445-7.79297 5.85938-7.58789Q5.6543-7.38281 5.6543-7.05078Z"/>
  </g>
  <g transform="matrix(1 0 0 1 281.867 1933)">
   <path d="M11.709 2.91016Q13.75 2.91016 15.5518 2.12891Q17.3535 1.34766 18.7305-0.0292969Q20.1074-1.40625 20.8887-3.20801Q21.6699-5.00977 21.6699-7.05078Q21.6699-9.0918 20.8887-10.8936Q20.1074-12.6953 18.7305-14.0723Q17.3535-15.4492 15.5469-16.2305Q13.7402-17.0117 11.6992-17.0117Q9.6582-17.0117 7.85645-16.2305Q6.05469-15.4492 4.68262-14.0723Q3.31055-12.6953 2.5293-10.8936Q1.74805-9.0918 1.74805-7.05078Q1.74805-5.00977 2.5293-3.20801Q3.31055-1.40625 4.6875-0.0292969Q6.06445 1.34766 7.86621 2.12891Q9.66797 2.91016 11.709 2.91016ZM11.709 1.25Q9.98047 1.25 8.47656 0.605469Q6.97266-0.0390625 5.83496-1.17676Q4.69727-2.31445 4.05762-3.81836Q3.41797-5.32227 3.41797-7.05078Q3.41797-8.7793 4.05762-10.2832Q4.69727-11.7871 5.83008-12.9297Q6.96289-14.0723 8.4668-14.7119Q9.9707-15.3516 11.6992-15.3516Q13.4277-15.3516 14.9316-14.7119Q16.4355-14.0723 17.5781-12.9297Q18.7207-11.7871 19.3652-10.2832Q20.0098-8.7793 20.0098-7.05078Q20.0098-5.32227 19.3701-3.81836Q18.7305-2.31445 17.5928-1.17676Q16.4551-0.0390625 14.9463 0.605469Q13.4375 1.25 11.709 1.25ZM7.17773-7.05078Q7.17773-6.69922 7.41211-6.47461Q7.64648-6.25 8.01758-6.25L10.8887-6.25L10.8887-3.36914Q10.8887-2.99805 11.1133-2.76855Q11.3379-2.53906 11.6895-2.53906Q12.0605-2.53906 12.29-2.76855Q12.5195-2.99805 12.5195-3.36914L12.5195-6.25L15.4004-6.25Q15.7715-6.25 16.001-6.47461Q16.2305-6.69922 16.2305-7.05078Q16.2305-7.42188 16.001-7.65137Q15.7715-7.88086 15.4004-7.88086L12.5195-7.88086L12.5195-10.752Q12.5195-11.1328 12.29-11.3623Q12.0605-11.5918 11.6895-11.5918Q11.3379-11.5918 11.1133-11.3574Q10.8887-11.123 10.8887-10.752L10.8887-7.88086L8.01758-7.88086Q7.63672-7.88086 7.40723-7.65137Q7.17773-7.42188 7.17773-7.05078Z"/>
  </g>
  <g transform="matrix(1 0 0 1 305.646 1933)">
   <path d="M14.9707 5.66406Q17.0605 5.66406 18.96 5.01465Q20.8594 4.36523 22.4512 3.19336Q24.043 2.02148 25.2197 0.429688Q26.3965-1.16211 27.0459-3.06641Q27.6953-4.9707 27.6953-7.05078Q27.6953-9.14062 27.0459-11.04Q26.3965-12.9395 25.2197-14.5312Q24.043-16.123 22.4512-17.2998Q20.8594-18.4766 18.9551-19.126Q17.0508-19.7754 14.9609-19.7754Q12.8711-19.7754 10.9717-19.126Q9.07227-18.4766 7.48535-17.2998Q5.89844-16.123 4.72168-14.5312Q3.54492-12.9395 2.90039-11.04Q2.25586-9.14062 2.25586-7.05078Q2.25586-4.9707 2.90527-3.06641Q3.55469-1.16211 4.72656 0.429688Q5.89844 2.02148 7.49023 3.19336Q9.08203 4.36523 10.9814 5.01465Q12.8809 5.66406 14.9707 5.66406ZM14.9707 3.84766Q13.1641 3.84766 11.5283 3.2959Q9.89258 2.74414 8.53516 1.74805Q7.17773 0.751953 6.17676-0.610352Q5.17578-1.97266 4.62891-3.6084Q4.08203-5.24414 4.08203-7.05078Q4.08203-8.86719 4.62891-10.5029Q5.17578-12.1387 6.17188-13.501Q7.16797-14.8633 8.52539-15.8594Q9.88281-16.8555 11.5186-17.4023Q13.1543-17.9492 14.9609-17.9492Q16.7773-17.9492 18.4131-17.4023Q20.0488-16.8555 21.4111-15.8594Q22.7734-14.8633 23.7695-13.501Q24.7656-12.1387 25.3174-10.5029Q25.8691-8.86719 25.8691-7.05078Q25.8789-5.24414 25.332-3.6084Q24.7852-1.97266 23.7842-0.610352Q22.7832 0.751953 21.4209 1.74805Q20.0586 2.74414 18.4229 3.2959Q16.7871 3.84766 14.9707 3.84766ZM9.19922-7.05078Q9.19922-6.66992 9.45801-6.4209Q9.7168-6.17188 10.1172-6.17188L14.0625-6.17188L14.0625-2.2168Q14.0625-1.81641 14.3115-1.55762Q14.5605-1.29883 14.9512-1.29883Q15.3516-1.29883 15.6104-1.55273Q15.8691-1.80664 15.8691-2.2168L15.8691-6.17188L19.8242-6.17188Q20.2246-6.17188 20.4785-6.4209Q20.7324-6.66992 20.7324-7.05078Q20.7324-7.46094 20.4785-7.71484Q20.2246-7.96875 19.8242-7.96875L15.8691-7.96875L15.8691-11.9141Q15.8691-12.3242 15.6104-12.583Q15.3516-12.8418 14.9512-12.8418Q14.5605-12.8418 14.3115-12.583Q14.0625-12.3242 14.0625-11.9141L14.0625-7.96875L10.1172-7.96875Q9.70703-7.96875 9.45312-7.71484Q9.19922-7.46094 9.19922-7.05078Z"/>
  </g>
  <text style="stroke:none;fill:black;font-family:sans-serif;font-size:13;font-weight:bold;" transform="matrix(1 0 0 1 263 1953)">Design Variations</text>
  <text style="stroke:none;fill:black;font-family:sans-serif;font-size:13;" transform="matrix(1 0 0 1 263 1971)">Symbols are supported in up to nine weights and three scales.</text>
  <text style="stroke:none;fill:black;font-family:sans-serif;font-size:13;" transform="matrix(1 0 0 1 263 1989)">For optimal layout with text and other symbols, vertically align</text>
  <text style="stroke:none;fill:black;font-family:sans-serif;font-size:13;" transform="matrix(1 0 0 1 263 2007)">symbols with the adjacent text.</text>
  <line style="fill:none;stroke:#00AEEF;stroke-width:0.5;opacity:1.0;" x1="776" x2="776" y1="1919" y2="1933"/>
  <g transform="matrix(1 0 0 1 776 1933)">
   <path d="M3.31055 0.15625Q3.70117 0.15625 3.91602-0.00976562Q4.13086-0.175781 4.26758-0.585938L5.52734-4.0332L11.2891-4.0332L12.5488-0.585938Q12.6855-0.175781 12.9004-0.00976562Q13.1152 0.15625 13.4961 0.15625Q13.8867 0.15625 14.1162-0.0585938Q14.3457-0.273438 14.3457-0.644531Q14.3457-0.869141 14.2383-1.17188L9.6582-13.3691Q9.48242-13.8184 9.17969-14.043Q8.87695-14.2676 8.4082-14.2676Q7.5-14.2676 7.17773-13.3789L2.59766-1.16211Q2.49023-0.859375 2.49023-0.634766Q2.49023-0.263672 2.70996-0.0537109Q2.92969 0.15625 3.31055 0.15625ZM6.00586-5.51758L8.37891-12.0898L8.42773-12.0898L10.8008-5.51758Z"/>
  </g>
  <line style="fill:none;stroke:#00AEEF;stroke-width:0.5;opacity:1.0;" x1="793.197" x2="793.197" y1="1919" y2="1933"/>
  <text style="stroke:none;fill:black;font-family:sans-serif;font-size:13;font-weight:bold;" transform="matrix(1 0 0 1 776 1953)">Margins</text>
  <text style="stroke:none;fill:black;font-family:sans-serif;font-size:13;" transform="matrix(1 0 0 1 776 1971)">Leading and trailing margins on the left and right side of each symbol</text>
  <text style="stroke:none;fill:black;font-family:sans-serif;font-size:13;" transform="matrix(1 0 0 1 776 1989)">can be adjusted by modifying the x-location of the margin guidelines.</text>
  <text style="stroke:none;fill:black;font-family:sans-serif;font-size:13;" transform="matrix(1 0 0 1 776 2007)">Modifications are automatically applied proportionally to all</text>
  <text style="stroke:none;fill:black;font-family:sans-serif;font-size:13;" transform="matrix(1 0 0 1 776 2025)">scales and weights.</text>
  <g transform="matrix(1 0 0 1 1289 1933)">
   <path d="M2.8418 1.86523L4.54102 3.57422Q5.18555 4.22852 5.90332 4.17969Q6.62109 4.13086 7.31445 3.35938L18.0078-8.42773L17.041-9.4043L6.42578 2.27539Q6.16211 2.57812 5.89355 2.61719Q5.625 2.65625 5.27344 2.30469L4.10156 1.14258Q3.75 0.791016 3.79395 0.522461Q3.83789 0.253906 4.14062-0.0195312L15.6152-10.8203L14.6387-11.7871L3.04688-0.898438Q2.30469-0.214844 2.25098 0.498047Q2.19727 1.21094 2.8418 1.86523ZM9.25781-16.3281Q8.94531-16.0254 8.90625-15.6348Q8.86719-15.2441 9.04297-14.9512Q9.21875-14.6777 9.55566-14.541Q9.89258-14.4043 10.3809-14.5215Q11.4746-14.7754 12.5977-14.7314Q13.7207-14.6875 14.7949-13.9844L14.209-12.5293Q13.9551-11.9043 14.0674-11.4404Q14.1797-10.9766 14.5801-10.5664L16.875-8.25195Q17.2363-7.88086 17.5781-7.82227Q17.9199-7.76367 18.3398-7.8418L19.4043-8.03711L20.0684-7.36328L20.0293-6.80664Q20-6.43555 20.1221-6.12305Q20.2441-5.81055 20.6055-5.44922L21.3672-4.70703Q21.7285-4.3457 22.1533-4.33105Q22.5781-4.31641 22.9297-4.66797L25.8398-7.58789Q26.1914-7.93945 26.1816-8.35449Q26.1719-8.76953 25.8105-9.13086L25.0391-9.89258Q24.6875-10.2539 24.3799-10.3857Q24.0723-10.5176 23.7109-10.4883L23.1348-10.4395L22.4902-11.0742L22.7344-12.1973Q22.832-12.6172 22.6953-12.9834Q22.5586-13.3496 22.1191-13.7891L19.9219-15.9766Q18.6719-17.2168 17.2607-17.8369Q15.8496-18.457 14.4189-18.4814Q12.9883-18.5059 11.665-17.959Q10.3418-17.4121 9.25781-16.3281ZM10.752-15.957Q11.6602-16.6211 12.7002-16.9043Q13.7402-17.1875 14.8047-17.085Q15.8691-16.9824 16.8701-16.5137Q17.8711-16.0449 18.7012-15.2051L21.1328-12.793Q21.3086-12.6172 21.3525-12.4512Q21.3965-12.2852 21.3379-12.0312L21.0156-10.5469L22.5195-9.0625L23.5059-9.12109Q23.6914-9.13086 23.7891-9.09668Q23.8867-9.0625 24.0332-8.91602L24.6094-8.33984L22.168-5.89844L21.5918-6.47461Q21.4453-6.62109 21.4062-6.71875Q21.3672-6.81641 21.377-7.01172L21.4453-7.98828L19.9512-9.47266L18.4277-9.21875Q18.1836-9.16992 18.042-9.2041Q17.9004-9.23828 17.7148-9.41406L15.7129-11.416Q15.5176-11.5918 15.4932-11.7529Q15.4688-11.9141 15.5859-12.1875L16.4648-14.2773Q15.293-15.3711 13.8281-15.791Q12.3633-16.2109 10.8398-15.7617Q10.7227-15.7324 10.6885-15.8057Q10.6543-15.8789 10.752-15.957Z"/>
  </g>
  <text style="stroke:none;fill:black;font-family:sans-serif;font-size:13;font-weight:bold;" transform="matrix(1 0 0 1 1289 1953)">Exporting</text>
  <text style="stroke:none;fill:black;font-family:sans-serif;font-size:13;" transform="matrix(1 0 0 1 1289 1971)">Symbols should be outlined when exporting to ensure the</text>
  <text style="stroke:none;fill:black;font-family:sans-serif;font-size:13;" transform="matrix(1 0 0 1 1289 1989)">design is preserved when submitting to Xcode.</text>
  <text id="template-version" style="stroke:none;fill:black;font-family:sans-serif;font-size:13;text-anchor:end;" transform="matrix(1 0 0 1 3036 1933)">Template v.3.0</text>
  <text style="stroke:none;fill:black;font-family:sans-serif;font-size:13;text-anchor:end;" transform="matrix(1 0 0 1 3036 1951)">Requires Xcode 13 or greater</text>
  <text id="descriptive-name" style="stroke:none;fill:black;font-family:sans-serif;font-size:13;text-anchor:end;" transform="matrix(1 0 0 1 3036 1969)">Generated from sun.min</text>
  <text style="stroke:none;fill:black;font-family:sans-serif;font-size:13;text-anchor:end;" transform="matrix(1 0 0 1 3036 1987)">Typeset at 100 points</text>
  <text style="stroke:none;fill:black;font-family:sans-serif;font-size:13;" transform="matrix(1 0 0 1 263 726)">Small</text>
  <text style="stroke:none;fill:black;font-family:sans-serif;font-size:13;" transform="matrix(1 0 0 1 263 1156)">Medium</text>
  <text style="stroke:none;fill:black;font-family:sans-serif;font-size:13;" transform="matrix(1 0 0 1 263 1586)">Large</text>
 </g>
 <g id="Guides">
  <g id="H-reference" style="fill:#27AAE1;stroke:none;" transform="matrix(1 0 0 1 339 696)">
   <path d="M0.993347 0L3.6377 0L29.3282-67.1326L30.0301-67.1326L30.0301-70.459L28.1227-70.459ZM11.6882-24.4797L46.9818-24.4797L46.2311-26.7288L12.4382-26.7288ZM55.1193 0L57.7637 0L30.6381-70.459L29.4327-70.459L29.4327-67.1326Z"/>
  </g>
  <line id="Baseline-S" style="fill:none;stroke:#27AAE1;opacity:1;stroke-width:0.5;" x1="263" x2="3036" y1="696" y2="696"/>
  <line id="Capline-S" style="fill:none;stroke:#27AAE1;opacity:1;stroke-width:0.5;" x1="263" x2="3036" y1="625.541" y2="625.541"/>
  <g id="H-reference" style="fill:#27AAE1;stroke:none;" transform="matrix(1 0 0 1 339 1126)">
   <path d="M0.993347 0L3.6377 0L29.3282-67.1326L30.0301-67.1326L30.0301-70.459L28.1227-70.459ZM11.6882-24.4797L46.9818-24.4797L46.2311-26.7288L12.4382-26.7288ZM55.1193 0L57.7637 0L30.6381-70.459L29.4327-70.459L29.4327-67.1326Z"/>
  </g>
  <line id="Baseline-M" style="fill:none;stroke:#27AAE1;opacity:1;stroke-width:0.5;" x1="263" x2="3036" y1="1126" y2="1126"/>
  <line id="Capline-M" style="fill:none;stroke:#27AAE1;opacity:1;stroke-width:0.5;" x1="263" x2="3036" y1="1055.54" y2="1055.54"/>
  <g id="H-reference" style="fill:#27AAE1;stroke:none;" transform="matrix(1 0 0 1 339 1556)">
   <path d="M0.993347 0L3.6377 0L29.3282-67.1326L30.0301-67.1326L30.0301-70.459L28.1227-70.459ZM11.6882-24.4797L46.9818-24.4797L46.2311-26.7288L12.4382-26.7288ZM55.1193 0L57.7637 0L30.6381-70.459L29.4327-70.459L29.4327-67.1326Z"/>
  </g>
  <line id="Baseline-L" style="fill:none;stroke:#27AAE1;opacity:1;stroke-width:0.5;" x1="263" x2="3036" y1="1556" y2="1556"/>
  <line id="Capline-L" style="fill:none;stroke:#27AAE1;opacity:1;stroke-width:0.5;" x1="263" x2="3036" y1="1485.54" y2="1485.54"/>
  <line id="left-margin-Ultralight-S" style="fill:none;stroke:#00AEEF;stroke-width:0.5;opacity:1.0;" x1="516.509" x2="516.509" y1="600.785" y2="720.121"/>
  <line id="right-margin-Ultralight-S" style="fill:none;stroke:#00AEEF;stroke-width:0.5;opacity:1.0;" x1="602.913" x2="602.913" y1="600.785" y2="720.121"/>
  <line id="left-margin-Regular-S" style="fill:none;stroke:#00AEEF;stroke-width:0.5;opacity:1.0;" x1="1404.19" x2="1404.19" y1="600.785" y2="720.121"/>
  <line id="right-margin-Regular-S" style="fill:none;stroke:#00AEEF;stroke-width:0.5;opacity:1.0;" x1="1495.5" x2="1495.5" y1="600.785" y2="720.121"/>
  <line id="left-margin-Black-S" style="fill:none;stroke:#00AEEF;stroke-width:0.5;opacity:1.0;" x1="2884.57" x2="2884.57" y1="600.785" y2="720.121"/>
  <line id="right-margin-Black-S" style="fill:none;stroke:#00AEEF;stroke-width:0.5;opacity:1.0;" x1="2982.23" x2="2982.23" y1="600.785" y2="720.121"/>
 </g>
 <g id="Symbols">
  <g id="Black-S" transform="matrix(1 0 0 1 2884.57 696)">
   <path d="M48.8281-12.793Q54.9805-12.793 60.083-15.8447Q65.1855-18.8965 68.2373-23.999Q71.2891-29.1016 71.2891-35.2539Q71.2891-41.4062 68.2373-46.5088Q65.1855-51.6113 60.083-54.6631Q54.9805-57.7148 48.8281-57.7148Q42.6758-57.7148 37.5732-54.6631Q32.4707-51.6113 29.4189-46.5088Q26.3672-41.4062 26.3672-35.2539Q26.3672-29.0527 29.3945-23.9502Q32.4219-18.8477 37.5244-15.8203Q42.627-12.793 48.8281-12.793ZM48.8281-26.0254Q46.3379-26.0254 44.2383-27.2949Q42.1387-28.5645 40.8691-30.6641Q39.5996-32.7637 39.5996-35.2539Q39.5996-37.793 40.8691-39.8682Q42.1387-41.9434 44.2383-43.2129Q46.3379-44.4824 48.8281-44.4824Q51.3672-44.4824 53.4424-43.2129Q55.5176-41.9434 56.7871-39.8682Q58.0566-37.793 58.0566-35.2539Q58.0566-32.7637 56.7871-30.6641Q55.5176-28.5645 53.4424-27.2949Q51.3672-26.0254 48.8281-26.0254ZM12.9883-29.1016Q15.5762-29.1016 17.3584-30.9082Q19.1406-32.7148 19.1406-35.2539Q19.1406-37.8418 17.3584-39.624Q15.5762-41.4062 12.9883-41.4062Q10.4492-41.4062 8.64258-39.624Q6.83594-37.8418 6.83594-35.2539Q6.83594-32.7148 8.64258-30.9082Q10.4492-29.1016 12.9883-29.1016ZM23.4863-54.4434Q26.0742-54.4434 27.8564-56.25Q29.6387-58.0566 29.6387-60.5957Q29.6387-63.1836 27.8564-64.9658Q26.0742-66.748 23.4863-66.748Q20.9473-66.748 19.1406-64.9658Q17.334-63.1836 17.334-60.5957Q17.334-58.0566 19.1406-56.25Q20.9473-54.4434 23.4863-54.4434ZM48.8281-64.9414Q51.416-64.9414 53.1982-66.748Q54.9805-68.5547 54.9805-71.0938Q54.9805-73.6816 53.1982-75.4639Q51.416-77.2461 48.8281-77.2461Q46.2891-77.2461 44.4824-75.4639Q42.6758-73.6816 42.6758-71.0938Q42.6758-68.5547 44.4824-66.748Q46.2891-64.9414 48.8281-64.9414ZM74.1699-54.4434Q76.7578-54.4434 78.54-56.25Q80.3223-58.0566 80.3223-60.5957Q80.3223-63.1836 78.54-64.9658Q76.7578-66.748 74.1699-66.748Q71.6309-66.748 69.8242-64.9658Q68.0176-63.1836 68.0176-60.5957Q68.0176-58.0566 69.8242-56.25Q71.6309-54.4434 74.1699-54.4434ZM84.668-29.1016Q87.2559-29.1016 89.0381-30.9082Q90.8203-32.7148 90.8203-35.2539Q90.8203-37.8418 89.0381-39.624Q87.2559-41.4062 84.668-41.4062Q82.1289-41.4062 80.3223-39.624Q78.5156-37.8418 78.5156-35.2539Q78.5156-32.7148 80.3223-30.9082Q82.1289-29.1016 84.668-29.1016ZM74.1699-3.75977Q76.7578-3.75977 78.54-5.56641Q80.3223-7.37305 80.3223-9.91211Q80.3223-12.5 78.54-14.2822Q76.7578-16.0645 74.1699-16.0645Q71.6309-16.0645 69.8242-14.2822Q68.0176-12.5 68.0176-9.91211Q68.0176-7.37305 69.8242-5.56641Q71.6309-3.75977 74.1699-3.75977ZM48.8281 6.73828Q51.416 6.73828 53.1982 4.93164Q54.9805 3.125 54.9805 0.585938Q54.9805-2.00195 53.1982-3.78418Q51.416-5.56641 48.8281-5.56641Q46.2891-5.56641 44.4824-3.78418Q42.6758-2.00195 42.6758 0.585938Q42.6758 3.125 44.4824 4.93164Q46.2891 6.73828 48.8281 6.73828ZM23.4863-3.75977Q26.0742-3.75977 27.8564-5.56641Q29.6387-7.37305 29.6387-9.91211Q29.6387-12.5 27.8564-14.2822Q26.0742-16.0645 23.4863-16.0645Q20.9473-16.0645 19.1406-14.2822Q17.334-12.5 17.334-9.91211Q17.334-7.37305 19.1406-5.56641Q20.9473-3.75977 23.4863-3.75977Z"/>
  </g>
  <g id="Regular-S" transform="matrix(1 0 0 1 1404.19 696)">
   <path d="M45.6543-15.3809Q51.0742-15.3809 55.5908-18.0908Q60.1074-20.8008 62.8174-25.3174Q65.5273-29.834 65.5273-35.2539Q65.5273-40.6738 62.8174-45.1904Q60.1074-49.707 55.5908-52.417Q51.0742-55.127 45.6543-55.127Q40.2344-55.127 35.7178-52.417Q31.2012-49.707 28.4912-45.1904Q25.7812-40.6738 25.7812-35.2539Q25.7812-29.834 28.4912-25.3174Q31.2012-20.8008 35.7178-18.0908Q40.2344-15.3809 45.6543-15.3809ZM45.6543-21.9727Q42.041-21.9727 39.0137-23.7793Q35.9863-25.5859 34.1797-28.6133Q32.373-31.6406 32.373-35.2539Q32.373-38.8672 34.1797-41.8701Q35.9863-44.873 39.0137-46.7041Q42.041-48.5352 45.6543-48.5352Q49.2676-48.5352 52.2949-46.7285Q55.3223-44.9219 57.1289-41.8945Q58.9355-38.8672 58.9355-35.2539Q58.9355-31.6406 57.1289-28.6133Q55.3223-25.5859 52.2949-23.7793Q49.2676-21.9727 45.6543-21.9727ZM11.6211-30.4688Q13.5742-30.4688 14.9902-31.8848Q16.4062-33.3008 16.4062-35.2539Q16.4062-37.207 14.9902-38.623Q13.5742-40.0391 11.6211-40.0391Q9.66797-40.0391 8.25195-38.623Q6.83594-37.207 6.83594-35.2539Q6.83594-33.3008 8.25195-31.8848Q9.66797-30.4688 11.6211-30.4688ZM21.582-54.541Q23.5352-54.541 24.9512-55.957Q26.3672-57.373 26.3672-59.3262Q26.3672-61.3281 24.9512-62.7197Q23.5352-64.1113 21.582-64.1113Q19.5801-64.1113 18.1885-62.7197Q16.7969-61.3281 16.7969-59.3262Q16.7969-57.373 18.1885-55.957Q19.5801-54.541 21.582-54.541ZM45.6543-64.502Q47.6074-64.502 49.0234-65.918Q50.4395-67.334 50.4395-69.2871Q50.4395-71.2402 49.0234-72.6562Q47.6074-74.0723 45.6543-74.0723Q43.7012-74.0723 42.2852-72.6562Q40.8691-71.2402 40.8691-69.2871Q40.8691-67.334 42.2852-65.918Q43.7012-64.502 45.6543-64.502ZM69.7266-54.541Q71.7285-54.541 73.1201-55.957Q74.5117-57.373 74.5117-59.3262Q74.5117-61.3281 73.1201-62.7197Q71.7285-64.1113 69.7266-64.1113Q67.7734-64.1113 66.3574-62.7197Q64.9414-61.3281 64.9414-59.3262Q64.9414-57.373 66.3574-55.957Q67.7734-54.541 69.7266-54.541ZM79.6875-30.4688Q81.6895-30.4688 83.0811-31.8848Q84.4727-33.3008 84.4727-35.2539Q84.4727-37.207 83.0811-38.623Q81.6895-40.0391 79.6875-40.0391Q77.7344-40.0391 76.3184-38.623Q74.9023-37.207 74.9023-35.2539Q74.9023-33.3008 76.3184-31.8848Q77.7344-30.4688 79.6875-30.4688ZM69.7266-6.39648Q71.7285-6.39648 73.1201-7.78809Q74.5117-9.17969 74.5117-11.1816Q74.5117-13.1348 73.1201-14.5508Q71.7285-15.9668 69.7266-15.9668Q67.7734-15.9668 66.3574-14.5508Q64.9414-13.1348 64.9414-11.1816Q64.9414-9.17969 66.3574-7.78809Q67.7734-6.39648 69.7266-6.39648ZM45.6543 3.56445Q47.6074 3.56445 49.0234 2.14844Q50.4395 0.732422 50.4395-1.2207Q50.4395-3.17383 49.0234-4.58984Q47.6074-6.00586 45.6543-6.00586Q43.7012-6.00586 42.2852-4.58984Q40.8691-3.17383 40.8691-1.2207Q40.8691 0.732422 42.2852 2.14844Q43.7012 3.56445 45.6543 3.56445ZM21.582-6.39648Q23.5352-6.39648 24.9512-7.78809Q26.3672-9.17969 26.3672-11.1816Q26.3672-13.1348 24.9512-14.5508Q23.5352-15.9668 21.582-15.9668Q19.5801-15.9668 18.1885-14.5508Q16.7969-13.1348 16.7969-11.1816Q16.7969-9.17969 18.1885-7.78809Q19.5801-6.39648 21.582-6.39648Z"/>
  </g>
  <g id="Ultralight-S" transform="matrix(1 0 0 1 516.509 696)">
   <path d="M43.2022-17.5606Q48.0316-17.5606 52.0489-19.9753Q56.0661-22.39 58.4808-26.4072Q60.8955-30.4245 60.8955-35.2539Q60.8955-40.0833 58.4808-44.1006Q56.0661-48.1178 52.0489-50.5325Q48.0316-52.9472 43.2022-52.9472Q38.3728-52.9472 34.3555-50.5325Q30.3383-48.1178 27.9236-44.1006Q25.5089-40.0833 25.5089-35.2539Q25.5089-30.4245 27.9236-26.4072Q30.3383-22.39 34.3555-19.9753Q38.3728-17.5606 43.2022-17.5606ZM43.2022-19.7479Q38.9534-19.7479 35.4263-21.8494Q31.8993-23.951 29.7974-27.478Q27.6955-31.0051 27.6955-35.2539Q27.6955-39.5027 29.7974-43.0279Q31.8993-46.553 35.4263-48.6565Q38.9534-50.7599 43.2022-50.7599Q47.451-50.7599 50.9781-48.6584Q54.5052-46.5569 56.6067-43.0298Q58.7082-39.5027 58.7082-35.2539Q58.7082-31.0051 56.6067-27.478Q54.5052-23.951 50.9781-21.8494Q47.451-19.7479 43.2022-19.7479ZM9.9411-32.1487Q11.2129-32.1487 12.1296-33.0654Q13.0463-33.9821 13.0463-35.2539Q13.0463-36.5257 12.1296-37.4424Q11.2129-38.3591 9.9411-38.3591Q8.66928-38.3591 7.75261-37.4424Q6.83594-36.5257 6.83594-35.2539Q6.83594-33.9821 7.75261-33.0654Q8.66928-32.1487 9.9411-32.1487ZM19.6747-55.6763Q20.9465-55.6763 21.8632-56.5929Q22.7798-57.5096 22.7798-58.7814Q22.7798-60.0563 21.8632-60.9715Q20.9465-61.8866 19.6747-61.8866Q18.399-61.8866 17.4843-60.9715Q16.5695-60.0563 16.5695-58.7814Q16.5695-57.5096 17.4843-56.5929Q18.399-55.6763 19.6747-55.6763ZM43.2022-65.3648Q44.474-65.3648 45.3907-66.2811Q46.3074-67.1974 46.3074-68.515Q46.3074-69.7868 45.3907-70.7035Q44.474-71.6202 43.2022-71.6202Q41.9304-71.6202 41.0137-70.7035Q40.097-69.7868 40.097-68.515Q40.097-67.1974 41.0137-66.2811Q41.9304-65.3648 43.2022-65.3648ZM66.7297-55.6763Q68.0046-55.6763 68.9194-56.5929Q69.8341-57.5096 69.8341-58.7814Q69.8341-60.0563 68.9194-60.9715Q68.0046-61.8866 66.7297-61.8866Q65.4121-61.8866 64.4955-60.9715Q63.5788-60.0563 63.5788-58.7814Q63.5788-57.5096 64.4955-56.5929Q65.4121-55.6763 66.7297-55.6763ZM76.4183-32.1487Q77.739-32.1487 78.6537-33.0654Q79.5685-33.9821 79.5685-35.2539Q79.5685-36.5257 78.6537-37.4424Q77.739-38.3591 76.4183-38.3591Q75.1457-38.3591 74.2294-37.4424Q73.3131-36.5257 73.3131-35.2539Q73.3131-33.9821 74.2294-33.0654Q75.1457-32.1487 76.4183-32.1487ZM66.7297-8.62122Q68.0046-8.62122 68.9194-9.53636Q69.8341-10.4515 69.8341-11.7264Q69.8341-12.9982 68.9194-13.9149Q68.0046-14.8315 66.7297-14.8315Q65.4121-14.8315 64.4955-13.9149Q63.5788-12.9982 63.5788-11.7264Q63.5788-10.4515 64.4955-9.53636Q65.4121-8.62122 66.7297-8.62122ZM43.2022 1.11237Q44.474 1.11237 45.3907 0.195694Q46.3074-0.720978 46.3074-1.9928Q46.3074-3.31039 45.3907-4.22668Q44.474-5.14297 43.2022-5.14297Q41.9304-5.14297 41.0137-4.22668Q40.097-3.31039 40.097-1.9928Q40.097-0.720978 41.0137 0.195694Q41.9304 1.11237 43.2022 1.11237ZM19.6747-8.62122Q20.9465-8.62122 21.8632-9.53636Q22.7798-10.4515 22.7798-11.7264Q22.7798-12.9982 21.8632-13.9149Q20.9465-14.8315 19.6747-14.8315Q18.399-14.8315 17.4843-13.9149Q16.5695-12.9982 16.5695-11.7264Q16.5695-10.4515 17.4843-9.53636Q18.399-8.62122 19.6747-8.62122Z"/>
  </g>
 </g>
</svg>
