<svg width="84" height="84" viewBox="0 0 84 84" fill="none" xmlns="http://www.w3.org/2000/svg">
<path d="M41.6016 21.8262C37.9558 21.8262 34.6273 22.7295 31.6162 24.5362C28.6051 26.3428 26.1963 28.7516 24.3897 31.7627C22.583 34.7738 21.6797 38.1022 21.6797 41.7481C21.6797 45.3939 22.583 48.7223 24.3897 51.7334C26.1963 54.7445 28.6051 57.1533 31.6162 58.96C34.6273 60.7667 37.9558 61.67 41.6016 61.67C45.2148 61.67 48.527 60.7667 51.5381 58.96C54.5491 57.1533 56.958 54.7445 58.7647 51.7334C60.5713 48.7223 61.4746 45.3939 61.4746 41.7481C61.4746 38.1022 60.5713 34.7738 58.7647 31.7627C56.958 28.7516 54.5491 26.3428 51.5381 24.5362C48.527 22.7295 45.2148 21.8262 41.6016 21.8262ZM60.1075 17.8711C59.3913 18.5873 59.0332 19.4744 59.0332 20.5323C59.0332 21.5902 59.3913 22.4935 60.1075 23.2422C60.8561 23.9584 61.7594 24.3246 62.8174 24.3409C63.8753 24.3572 64.7786 23.9909 65.5274 23.2422L71.0938 17.6758C71.8099 16.9271 72.168 16.0157 72.168 14.9415C72.168 13.8672 71.8099 12.972 71.0938 12.2559C70.345 11.5398 69.4417 11.1817 68.3838 11.1817C67.3258 11.1817 66.4388 11.5398 65.7227 12.2559L60.1075 17.8711ZM65.4786 60.3028C64.7624 59.5867 63.8753 59.2286 62.8174 59.2286C61.7594 59.2286 60.8561 59.5867 60.1075 60.3028C59.3913 61.0515 59.0332 61.9548 59.0332 63.0127C59.0332 64.0707 59.3913 64.9578 60.1075 65.6739L65.7227 71.2891C66.4388 72.0053 67.3258 72.3552 68.3838 72.3389C69.4417 72.3226 70.345 71.9564 71.0938 71.2403C71.8099 70.5241 72.168 69.6371 72.168 68.5791C72.168 67.5212 71.8099 66.6179 71.0938 65.8692L65.4786 60.3028ZM45.4102 71.8262C45.4102 70.8171 45.0358 69.9301 44.2871 69.1651C43.5384 68.4001 42.6432 68.0176 41.6016 68.0176C40.5599 68.0176 39.6647 68.4001 38.9161 69.1651C38.1673 69.9301 37.793 70.8171 37.793 71.8262V79.6875C37.793 80.6967 38.1673 81.5837 38.9161 82.3487C39.6647 83.1137 40.5599 83.4961 41.6016 83.4961C42.6432 83.4961 43.5384 83.1137 44.2871 82.3487C45.0358 81.5837 45.4102 80.6967 45.4102 79.6875V71.8262ZM45.4102 3.8086C45.4102 2.79953 45.0358 1.9125 44.2871 1.1475C43.5384 0.382499 42.6432 0 41.6016 0C40.5599 0 39.6647 0.382499 38.9161 1.1475C38.1673 1.9125 37.793 2.79953 37.793 3.8086V11.67C37.793 12.6791 38.1673 13.5661 38.9161 14.3311C39.6647 15.0961 40.5599 15.4786 41.6016 15.4786C42.6432 15.4786 43.5384 15.0961 44.2871 14.3311C45.0358 13.5661 45.4102 12.6791 45.4102 11.67V3.8086ZM79.3946 45.5567C80.4036 45.5567 81.2907 45.1823 82.0557 44.4336C82.8207 43.6849 83.2032 42.7898 83.2032 41.7481C83.2032 40.7064 82.8207 39.8112 82.0557 39.0625C81.2907 38.3138 80.4036 37.9395 79.3946 37.9395H71.5821C70.5404 37.9395 69.6452 38.3138 68.8965 39.0625C68.1478 39.8112 67.7735 40.7064 67.7735 41.7481C67.7735 42.7898 68.1478 43.6849 68.8965 44.4336C69.6452 45.1823 70.5404 45.5567 71.5821 45.5567H79.3946ZM17.6758 23.2422C18.3919 23.9584 19.279 24.3165 20.337 24.3165C21.3949 24.3165 22.2819 23.9584 22.9981 23.2422C23.7467 22.5261 24.1211 21.6309 24.1211 20.5567C24.1211 19.4825 23.763 18.5873 23.0469 17.8711L17.4805 12.2559C16.7969 11.5398 15.918 11.1817 14.8438 11.1817C13.7696 11.1817 12.8744 11.5398 12.1582 12.2559C11.4095 12.972 11.0352 13.8672 11.0352 14.9415C11.0352 16.0157 11.3932 16.9109 12.1094 17.627L17.6758 23.2422ZM3.80856 37.9395C2.76691 37.9395 1.87174 38.3138 1.12304 39.0625C0.374347 39.8112 0 40.7064 0 41.7481C0 42.7898 0.374347 43.6849 1.12304 44.4336C1.87174 45.1823 2.76691 45.5567 3.80856 45.5567H11.5723C12.6139 45.5567 13.5091 45.1823 14.2579 44.4336C15.0065 43.6849 15.3809 42.7898 15.3809 41.7481C15.3809 40.7064 15.0065 39.8112 14.2579 39.0625C13.5091 38.3138 12.6139 37.9395 11.5723 37.9395H3.80856ZM12.1094 65.8204C11.3607 66.5691 10.9864 67.4724 10.9864 68.5303C10.9864 69.5883 11.3444 70.4753 12.0606 71.1915C12.7767 71.9076 13.6719 72.2738 14.7461 72.2901C15.8203 72.3064 16.7155 71.9564 17.4317 71.2403L22.9981 65.6739C23.7467 64.9578 24.1211 64.0707 24.1211 63.0127C24.1211 61.9548 23.763 61.0515 23.0469 60.3028C22.3307 59.5867 21.4356 59.2286 20.3614 59.2286C19.2871 59.2286 18.3919 59.5867 17.6758 60.3028L12.1094 65.8204Z" fill="#FFD60A"/>
</svg>
