<svg width="79" height="69" viewBox="0 0 79 69" fill="none" xmlns="http://www.w3.org/2000/svg">
<path d="M63.3653 41.7968C66.3601 41.7968 69.0213 41.2027 71.3487 40.0146C73.6762 38.8265 75.4991 37.1826 76.8175 35.083C78.1359 32.9833 78.795 30.5989 78.795 27.9296C78.795 25.2278 78.1766 22.8352 76.9396 20.7519C75.7026 18.6686 74.0424 17.041 71.9591 15.8691C69.8758 14.6972 67.5483 14.1113 64.9767 14.1113C61.4936 14.1113 58.5557 15.1692 56.1632 17.2851C53.7706 19.401 52.3302 22.054 51.8419 25.2441C51.7117 26.123 51.8582 26.8879 52.2813 27.539C52.7045 28.1901 53.3067 28.5807 54.088 28.7109C54.9018 28.8411 55.6261 28.6621 56.2608 28.1738C56.8956 27.6855 57.3107 26.9206 57.506 25.8789C57.8315 23.9908 58.7023 22.4934 60.1183 21.3867C61.5343 20.2799 63.1538 19.7265 64.9767 19.7265C67.2553 19.7265 69.1921 20.4752 70.7872 21.9726C72.3823 23.47 73.1798 25.4557 73.1798 27.9296C73.1798 30.371 72.2846 32.3567 70.4942 33.8867C68.7039 35.4166 66.3276 36.1816 63.3653 36.1816C60.4682 36.1816 57.5059 35.8479 54.4786 35.1806C51.4513 34.5133 48.3181 33.7402 45.0792 32.8613C41.8403 31.9824 38.4712 31.2092 34.9718 30.5419C31.4725 29.8746 27.8185 29.541 24.0099 29.541C20.1362 29.541 16.3845 29.834 12.755 30.4199C9.12542 31.0058 5.61792 31.8847 2.23252 33.0566C1.35365 33.3495 0.727015 33.8378 0.352615 34.5214C-0.0217113 35.205 -0.0949406 35.9212 0.132926 36.6699C0.360786 37.4186 0.808382 37.9882 1.47572 38.3789C2.14305 38.7695 2.96498 38.7858 3.94152 38.4277C7.06652 37.3535 10.2647 36.5397 13.5362 35.9863C16.8077 35.4329 20.299 35.1562 24.0099 35.1562C27.851 35.1562 31.4562 35.498 34.8253 36.1816C38.1945 36.8652 41.4415 37.6383 44.5665 38.5009C47.6915 39.3636 50.8003 40.1285 53.8927 40.7958C56.9851 41.4631 60.1427 41.7968 63.3653 41.7968ZM38.9513 68.9453C41.9787 68.9453 44.534 67.9361 46.6173 65.9179C48.7007 63.8997 49.7423 61.263 49.7423 58.0078C49.7423 53.3854 47.4718 49.8372 42.9308 47.3632C38.3898 44.8893 31.7898 43.6523 23.131 43.6523C19.6805 43.6523 16.1404 43.9534 12.5108 44.5556C8.88128 45.1578 5.45518 46.0123 2.23252 47.1191C1.35365 47.412 0.727015 47.9003 0.352615 48.5839C-0.0217113 49.2675 -0.0949406 49.9837 0.132926 50.7324C0.360786 51.4811 0.808382 52.0426 1.47572 52.4169C2.14305 52.7913 2.96498 52.8157 3.94152 52.4902C6.93632 51.4485 10.045 50.651 13.2677 50.0976C16.4904 49.5442 19.7781 49.2675 23.131 49.2675C30.032 49.2675 35.2566 50.0569 38.8048 51.6357C42.353 53.2145 44.127 55.3385 44.127 58.0078C44.127 59.7005 43.6143 61.0107 42.589 61.9384C41.5636 62.8662 40.3511 63.33 38.9513 63.33C37.519 63.33 36.3878 62.8743 35.5577 61.9628C34.7276 61.0514 34.1824 59.8307 33.922 58.3007C33.7918 57.5195 33.45 56.844 32.8966 56.2744C32.3432 55.7047 31.5945 55.4524 30.6505 55.5175C29.6414 55.5826 28.9415 55.9733 28.5509 56.6894C28.1603 57.4055 28.03 58.1868 28.1603 59.0331C28.5184 61.735 29.6414 64.0624 31.5294 66.0156C33.4174 67.9687 35.8914 68.9453 38.9513 68.9453ZM3.94152 23.5351C9.50792 21.9075 15.0418 21.0937 20.5431 21.0937C22.8217 21.0937 24.9457 21.1751 26.9151 21.3378C28.8845 21.5006 30.8458 21.6715 32.7989 21.8505C34.752 22.0296 36.7865 22.1191 38.9024 22.1191C42.4831 22.1191 45.2989 21.053 47.3497 18.9208C49.4005 16.7887 50.4259 14.1601 50.4259 11.0351C50.4259 7.7799 49.3517 5.1269 47.2032 3.0761C45.0548 1.02536 42.467 0 39.4396 0C37.2912 0 35.3217 0.577766 33.5313 1.7333C31.741 2.8889 30.3901 4.34563 29.4786 6.1035C29.1206 6.81963 29.0066 7.55203 29.1368 8.3007C29.267 9.04943 29.7065 9.63537 30.4552 10.0585C31.1388 10.4166 31.8712 10.4899 32.6524 10.2783C33.4337 10.0667 34.0685 9.52143 34.5567 8.6425C34.9799 7.79616 35.631 7.08816 36.5099 6.5185C37.3888 5.94883 38.3654 5.664 39.4396 5.664C40.9044 5.664 42.1658 6.136 43.2237 7.08C44.2817 8.024 44.8106 9.34236 44.8106 11.0351C44.8106 12.6952 44.2735 14.0136 43.1993 14.9902C42.1251 15.9667 40.6928 16.455 38.9024 16.455C36.9167 16.455 34.9637 16.3736 33.0431 16.2109C31.1225 16.0481 29.1449 15.8772 27.1104 15.6982C25.0759 15.5191 22.8868 15.4296 20.5431 15.4296C17.4181 15.4296 14.3012 15.6738 11.1925 16.1621C8.08378 16.6504 5.09712 17.3014 2.23252 18.1152C1.32105 18.3756 0.686282 18.8476 0.328216 19.5312C-0.0298444 20.2148 -0.0949406 20.9309 0.132926 21.6796C0.360786 22.4609 0.808382 23.0387 1.47572 23.413C2.14305 23.7874 2.96498 23.8281 3.94152 23.5351Z" fill="#808080"/>
</svg>
