<svg width="92" height="61" viewBox="0 0 92 61" fill="none" xmlns="http://www.w3.org/2000/svg">
<path d="M19.043 60.9375H68.75C73.0794 60.9375 76.9857 59.9447 80.4688 57.959C83.9518 55.9733 86.7106 53.2796 88.7452 49.8779C90.7796 46.4762 91.7969 42.6595 91.7969 38.4277C91.7969 34.1634 90.7389 30.3467 88.6231 26.9775C86.5072 23.6084 83.6182 20.9472 79.9561 18.9941C76.2939 17.041 72.1354 16.0808 67.4805 16.1133C64.9414 11.0677 61.4014 7.12076 56.8604 4.2725C52.3194 1.42416 47.2657 0 41.6993 0C36.6862 0 32.0557 1.18 27.8077 3.54C23.5596 5.90006 20.0847 9.09833 17.3829 13.1348C14.681 17.1713 13.1185 21.696 12.6953 26.709C8.88673 27.7832 5.81869 29.8665 3.49116 32.959C1.16372 36.0515 0 39.5996 0 43.6035C0 47.0215 0.797527 50.0326 2.39258 52.6367C3.98763 55.2409 6.21746 57.2754 9.08206 58.7402C11.9466 60.2051 15.2669 60.9375 19.043 60.9375Z" fill="#808080"/>
</svg>
