<svg width="79" height="79" viewBox="0 0 79 79" fill="none" xmlns="http://www.w3.org/2000/svg">
<path d="M39.4043 78.8086C44.8079 78.8086 49.8861 77.7832 54.6387 75.7324C59.3913 73.6817 63.5824 70.8334 67.212 67.1875C70.8415 63.5417 73.6898 59.3425 75.7569 54.5899C77.8239 49.8373 78.8575 44.7754 78.8575 39.4043C78.8575 34.0332 77.8239 28.9714 75.7569 24.2188C73.6898 19.4662 70.8333 15.267 67.1875 11.6211C63.5417 7.9753 59.3425 5.12699 54.5899 3.07619C49.8373 1.02539 44.7591 0 39.3555 0C33.9844 0 28.9226 1.02539 24.17 3.07619C19.4174 5.12699 15.2344 7.9753 11.6211 11.6211C8.00779 15.267 5.16763 19.4662 3.10058 24.2188C1.03353 28.9714 0 34.0332 0 39.4043C0 44.7754 1.03353 49.8373 3.10058 54.5899C5.16763 59.3425 8.01593 63.5417 11.6455 67.1875C15.2751 70.8334 19.4662 73.6817 24.2188 75.7324C28.9714 77.7832 34.0332 78.8086 39.4043 78.8086Z" fill="#FFD60A"/>
<path d="M39.4532 51.6114C37.2396 51.6114 35.2051 51.058 33.3496 49.9512C31.4941 48.8444 30.013 47.3632 28.9063 45.5078C27.7995 43.6523 27.2461 41.6178 27.2461 39.4043C27.2461 37.1907 27.7995 35.1562 28.9063 33.3008C30.013 31.4453 31.4941 29.9642 33.3496 28.8574C35.2051 27.7506 37.2396 27.1973 39.4532 27.1973C41.6667 27.1973 43.6931 27.7506 45.5323 28.8574C47.3715 29.9642 48.8444 31.4453 49.9512 33.3008C51.058 35.1562 51.6114 37.1907 51.6114 39.4043C51.6114 41.6178 51.058 43.6523 49.9512 45.5078C48.8444 47.3632 47.3715 48.8444 45.5323 49.9512C43.6931 51.058 41.6667 51.6114 39.4532 51.6114ZM21.7286 57.0801C21.2077 56.5267 20.9473 55.8756 20.9473 55.127C20.9473 54.3782 21.2077 53.7435 21.7286 53.2227L25.0489 49.9512C25.5371 49.4303 26.1719 49.1699 26.9532 49.1699C27.7344 49.1699 28.3854 49.4303 28.9063 49.9512C29.4271 50.5046 29.6875 51.1637 29.6875 51.9287C29.6875 52.6937 29.4271 53.3203 28.9063 53.8086L25.586 57.1289C25.0651 57.6497 24.4303 57.902 23.6817 57.8858C22.9329 57.8695 22.2819 57.6009 21.7286 57.0801ZM57.1289 21.6797C57.6497 22.2331 57.9102 22.8923 57.9102 23.6573C57.9102 24.4222 57.6497 25.0651 57.1289 25.586L53.8575 28.8574C53.3366 29.4108 52.6936 29.6875 51.9286 29.6875C51.1637 29.6875 50.5208 29.4108 50 28.8574C49.4792 28.3691 49.2106 27.7506 49.1944 27.002C49.1781 26.2532 49.4466 25.6022 50 25.0489L53.2715 21.6797C53.7597 21.1589 54.3864 20.8985 55.1514 20.8985C55.9164 20.8985 56.5755 21.1589 57.1289 21.6797ZM57.1289 57.1289C56.5755 57.6497 55.9245 57.9102 55.1758 57.9102C54.4271 57.9102 53.7923 57.6497 53.2715 57.1289L50 53.8086C49.4466 53.2878 49.17 52.653 49.17 51.9043C49.17 51.1556 49.4466 50.5046 50 49.9512C50.5208 49.4303 51.1637 49.1699 51.9286 49.1699C52.6936 49.1699 53.3203 49.4303 53.8086 49.9512L57.1289 53.2227C57.6497 53.7435 57.9183 54.3782 57.9346 55.127C57.9508 55.8756 57.6823 56.5429 57.1289 57.1289ZM21.7774 21.6797C22.3308 21.1589 22.9818 20.9066 23.7305 20.9229C24.4792 20.9391 25.0977 21.1914 25.586 21.6797L28.9063 25.0489C29.4271 25.5371 29.6875 26.1637 29.6875 26.9287C29.6875 27.6937 29.4271 28.3366 28.9063 28.8574C28.3529 29.4108 27.7018 29.6875 26.9532 29.6875C26.2044 29.6875 25.5697 29.4108 25.0489 28.8574L21.7286 25.586C21.2077 25.0651 20.9554 24.4222 20.9717 23.6573C20.9879 22.8923 21.2565 22.2331 21.7774 21.6797ZM39.4532 64.4532C38.7044 64.4532 38.0615 64.1765 37.5245 63.6231C36.9873 63.0697 36.7188 62.4186 36.7188 61.6699V57.1289C36.7188 56.3802 36.9873 55.7373 37.5245 55.2002C38.0615 54.6631 38.7044 54.3946 39.4532 54.3946C40.1693 54.3946 40.8041 54.6631 41.3575 55.2002C41.9108 55.7373 42.1875 56.3802 42.1875 57.1289V61.6699C42.1875 62.4186 41.9108 63.0697 41.3575 63.6231C40.8041 64.1765 40.1693 64.4532 39.4532 64.4532ZM39.4532 14.3555C40.1693 14.3555 40.8041 14.6322 41.3575 15.1856C41.9108 15.7389 42.1875 16.3899 42.1875 17.1387V21.6797C42.1875 22.4284 41.9108 23.0713 41.3575 23.6084C40.8041 24.1455 40.1693 24.4141 39.4532 24.4141C38.7044 24.4141 38.0615 24.1455 37.5245 23.6084C36.9873 23.0713 36.7188 22.4284 36.7188 21.6797V17.1387C36.7188 16.3899 36.9873 15.7389 37.5245 15.1856C38.0615 14.6322 38.7044 14.3555 39.4532 14.3555ZM14.502 39.4043C14.502 38.6556 14.7705 38.0127 15.3077 37.4756C15.8447 36.9384 16.4876 36.6699 17.2364 36.6699H21.7774C22.4935 36.6699 23.1283 36.9466 23.6817 37.5C24.2351 38.0534 24.5118 38.6881 24.5118 39.4043C24.5118 40.1204 24.2351 40.7552 23.6817 41.3086C23.1283 41.862 22.4935 42.1387 21.7774 42.1387H17.2364C16.4876 42.1387 15.8447 41.8701 15.3077 41.333C14.7705 40.7959 14.502 40.153 14.502 39.4043ZM64.3555 39.4043C64.3555 40.153 64.0869 40.7959 63.5498 41.333C63.0127 41.8701 62.3698 42.1387 61.6211 42.1387H57.0801C56.3639 42.1387 55.7292 41.862 55.1758 41.3086C54.6224 40.7552 54.3456 40.1204 54.3456 39.4043C54.3456 38.6881 54.6224 38.0534 55.1758 37.5C55.7292 36.9466 56.3639 36.6699 57.0801 36.6699H61.6211C62.3698 36.6699 63.0127 36.9384 63.5498 37.4756C64.0869 38.0127 64.3555 38.6556 64.3555 39.4043Z" fill="#FFD60A"/>
</svg>
