<svg width="79" height="76" viewBox="0 0 79 76" fill="none" xmlns="http://www.w3.org/2000/svg">
<path d="M63.3653 48.1445C66.3601 48.1445 69.0213 47.5504 71.3487 46.3623C73.6762 45.1741 75.4991 43.5303 76.8175 41.4307C78.1359 39.331 78.795 36.9465 78.795 34.2773C78.795 31.5755 78.1766 29.1829 76.9396 27.0996C75.7026 25.0162 74.0424 23.3886 71.9591 22.2168C69.8758 21.0449 67.5483 20.459 64.9767 20.459C61.4936 20.459 58.5557 21.5169 56.1632 23.6328C53.7706 25.7486 52.3302 28.4016 51.8419 31.5918C51.7117 32.4706 51.8582 33.2356 52.2813 33.8867C52.7045 34.5377 53.3067 34.9284 54.088 35.0586C54.9018 35.1888 55.6261 35.0097 56.2608 34.5215C56.8956 34.0332 57.3107 33.2682 57.506 32.2266C57.8315 30.3385 58.7023 28.8411 60.1183 27.7344C61.5343 26.6276 63.1538 26.0742 64.9767 26.0742C67.2553 26.0742 69.1921 26.8229 70.7872 28.3203C72.3823 29.8177 73.1798 31.8033 73.1798 34.2773C73.1798 36.7187 72.2846 38.7044 70.4942 40.2344C68.7039 41.7643 66.3276 42.5293 63.3653 42.5293C60.4682 42.5293 57.5059 42.1956 54.4786 41.5283C51.4513 40.8609 48.3181 40.0878 45.0792 39.209C41.8403 38.33 38.4712 37.5569 34.9718 36.8896C31.4725 36.2223 27.8185 35.8887 24.0099 35.8887C20.1362 35.8887 16.3845 36.1816 12.755 36.7676C9.12542 37.3535 5.61792 38.2324 2.23252 39.4043C1.35365 39.6972 0.727015 40.1855 0.352615 40.8691C-0.0217113 41.5527 -0.0949406 42.2688 0.132926 43.0176C0.360786 43.7662 0.808382 44.3359 1.47572 44.7266C2.14305 45.1172 2.96498 45.1334 3.94152 44.7754C7.06652 43.7012 10.2647 42.8874 13.5362 42.334C16.8077 41.7806 20.299 41.5039 24.0099 41.5039C27.851 41.5039 31.4562 41.8457 34.8253 42.5293C38.1945 43.2129 41.4415 43.986 44.5665 44.8486C47.6915 45.7112 50.8003 46.4762 53.8927 47.1435C56.9851 47.8108 60.1427 48.1445 63.3653 48.1445ZM38.9513 75.2929C41.9787 75.2929 44.534 74.2838 46.6173 72.2656C48.7007 70.2473 49.7423 67.6106 49.7423 64.3554C49.7423 59.733 47.4718 56.1849 42.9308 53.7109C38.3898 51.2369 31.7898 50 23.131 50C19.6805 50 16.1404 50.3011 12.5108 50.9033C8.88128 51.5055 5.45518 52.36 2.23252 53.4668C1.35365 53.7597 0.727015 54.248 0.352615 54.9316C-0.0217113 55.6152 -0.0949406 56.3313 0.132926 57.0801C0.360786 57.8287 0.808382 58.3902 1.47572 58.7646C2.14305 59.139 2.96498 59.1634 3.94152 58.8379C6.93632 57.7962 10.045 56.9987 13.2677 56.4453C16.4904 55.8919 19.7781 55.6152 23.131 55.6152C30.032 55.6152 35.2566 56.4046 38.8048 57.9834C42.353 59.5622 44.127 61.6862 44.127 64.3554C44.127 66.0481 43.6143 67.3583 42.589 68.2861C41.5636 69.2138 40.3511 69.6777 38.9513 69.6777C37.519 69.6777 36.3878 69.222 35.5577 68.3105C34.7276 67.399 34.1824 66.1783 33.922 64.6484C33.7918 63.8671 33.45 63.1917 32.8966 62.6221C32.3432 62.0524 31.5945 61.8001 30.6505 61.8652C29.6414 61.9303 28.9415 62.3209 28.5509 63.0371C28.1603 63.7532 28.03 64.5344 28.1603 65.3808C28.5184 68.0826 29.6414 70.4101 31.5294 72.3632C33.4174 74.3164 35.8914 75.2929 38.9513 75.2929ZM3.94152 29.8828C9.50792 28.2552 15.0418 27.4414 20.5431 27.4414C22.8217 27.4414 24.9457 27.5227 26.9151 27.6855C28.8845 27.8483 30.8458 28.0192 32.7989 28.1982C34.752 28.3772 36.7865 28.4668 38.9024 28.4668C42.4831 28.4668 45.2989 27.4007 47.3497 25.2685C49.4005 23.1363 50.4259 20.5078 50.4259 17.3828C50.4259 14.1276 49.3517 11.4746 47.2032 9.42375C45.0548 7.37302 42.467 6.34766 39.4396 6.34766C37.2912 6.34766 35.3217 6.92542 33.5313 8.08096C31.741 9.23656 30.3901 10.6933 29.4786 12.4512C29.1206 13.1673 29.0066 13.8997 29.1368 14.6484C29.267 15.3971 29.7065 15.983 30.4552 16.4062C31.1388 16.7643 31.8712 16.8376 32.6524 16.626C33.4337 16.4144 34.0685 15.8691 34.5567 14.9902C34.9799 14.1438 35.631 13.4358 36.5099 12.8662C37.3888 12.2965 38.3654 12.0117 39.4396 12.0117C40.9044 12.0117 42.1658 12.4837 43.2237 13.4277C44.2817 14.3717 44.8106 15.69 44.8106 17.3828C44.8106 19.0429 44.2735 20.3613 43.1993 21.3379C42.1251 22.3144 40.6928 22.8027 38.9024 22.8027C36.9167 22.8027 34.9637 22.7213 33.0431 22.5586C31.1225 22.3958 29.1449 22.2249 27.1104 22.0459C25.0759 21.8668 22.8868 21.7773 20.5431 21.7773C17.4181 21.7773 14.3012 22.0214 11.1925 22.5098C8.08378 22.998 5.09712 23.6491 2.23252 24.4629C1.32105 24.7233 0.686282 25.1953 0.328216 25.8789C-0.0298444 26.5625 -0.0949406 27.2786 0.132926 28.0273C0.360786 28.8085 0.808382 29.3863 1.47572 29.7607C2.14305 30.1351 2.96498 30.1758 3.94152 29.8828Z" fill="#808080"/>
<path d="M66.5392 13.916C66.995 13.916 67.3693 13.7532 67.6622 13.4277C67.9552 13.1022 68.0854 12.7116 68.0528 12.2559L67.8087 9.2285L70.2989 10.9863C70.6245 11.1816 71.0151 11.2386 71.4708 11.1572C71.9266 11.0758 72.2684 10.8561 72.4962 10.498C72.7566 10.1074 72.8136 9.6761 72.6671 9.2041C72.5207 8.7321 72.2196 8.4147 71.7638 8.2519L69.0782 6.9336L71.8614 5.6152C72.2521 5.41993 72.5207 5.10257 72.6671 4.6631C72.8136 4.22363 72.7729 3.79229 72.545 3.36909C72.3497 3.01103 72.0079 2.78317 71.5196 2.6855C71.0314 2.5879 70.6082 2.6693 70.2501 2.9297L67.8087 4.6387L68.1017 1.709C68.1343 1.25327 67.9959 0.854495 67.6866 0.512695C67.3774 0.170895 66.995 0 66.5392 0C66.0835 0 65.701 0.154631 65.3917 0.463898C65.0825 0.773098 64.9441 1.17183 64.9767 1.6601L65.2208 4.6875L62.6817 2.9297C62.3237 2.6693 61.9249 2.5879 61.4854 2.6855C61.046 2.78317 60.7287 3.01103 60.5333 3.36909C60.2729 3.79229 60.2078 4.22363 60.338 4.6631C60.4682 5.10257 60.7449 5.41993 61.1681 5.6152L63.9024 6.9336L61.2169 8.2519C60.7612 8.4147 60.4601 8.72397 60.3136 9.1797C60.1671 9.63543 60.2241 10.0749 60.4845 10.498C60.6798 10.8561 61.0053 11.0839 61.461 11.1816C61.9168 11.2793 62.3237 11.2142 62.6817 10.9863L65.2208 9.2285L65.0255 12.2559C64.993 12.7116 65.1232 13.1022 65.4161 13.4277C65.7091 13.7532 66.0835 13.916 66.5392 13.916ZM66.5392 69.6289C66.995 69.6289 67.3693 69.458 67.6622 69.1162C67.9552 68.7744 68.0854 68.3756 68.0528 67.9199L67.8087 64.9414L70.2989 66.6504C70.6245 66.8782 71.0151 66.9515 71.4708 66.8701C71.9266 66.7887 72.2684 66.569 72.4962 66.2109C72.7566 65.8203 72.8136 65.389 72.6671 64.917C72.5207 64.445 72.2196 64.1276 71.7638 63.9648L69.0782 62.6465L71.8614 61.2793C72.2521 61.084 72.5207 60.7747 72.6671 60.3516C72.8136 59.9284 72.7729 59.5052 72.545 59.082C72.3497 58.7239 72.0079 58.4879 71.5196 58.374C71.0314 58.2601 70.6082 58.3333 70.2501 58.5937L67.8087 60.3516L68.1017 57.4219C68.1343 56.9662 67.9959 56.5593 67.6866 56.2012C67.3774 55.8431 66.995 55.6641 66.5392 55.6641C66.0835 55.6641 65.701 55.8268 65.3917 56.1523C65.0825 56.4778 64.9441 56.8847 64.9767 57.373L65.2208 60.4004L62.6817 58.5937C62.3237 58.3658 61.9249 58.2926 61.4854 58.374C61.046 58.4554 60.7287 58.6914 60.5333 59.082C60.2729 59.5052 60.2078 59.9284 60.338 60.3516C60.4682 60.7747 60.7449 61.084 61.1681 61.2793L63.9024 62.6465L61.2169 63.9648C60.7612 64.1276 60.4601 64.4287 60.3136 64.8682C60.1671 65.3076 60.2241 65.7552 60.4845 66.2109C60.6798 66.569 61.0053 66.7969 61.461 66.8945C61.9168 66.9922 62.3237 66.9108 62.6817 66.6504L65.2208 64.9414L65.0255 67.9199C64.993 68.4082 65.1232 68.8151 65.4161 69.1406C65.7091 69.4661 66.0835 69.6289 66.5392 69.6289Z" fill="#808080"/>
</svg>
