<svg width="72" height="88" viewBox="0 0 72 88" fill="none" xmlns="http://www.w3.org/2000/svg">
<path d="M20.4102 87.5977C24.1536 87.5977 27.5635 86.6862 30.6397 84.8633C33.7158 83.0404 36.1735 80.5827 38.0127 77.4903C39.8519 74.3978 40.7715 70.9799 40.7715 67.2364C40.7715 64.3066 40.1774 61.5478 38.9893 58.96C37.8011 56.3721 36.0677 54.0365 33.7891 51.9532C33.1706 51.3672 32.8614 50.6511 32.8614 49.8047L32.9102 16.0645C32.9102 13.3301 32.3893 10.9375 31.3477 8.88678C30.306 6.83598 28.8493 5.24091 26.9776 4.10158C25.1058 2.96224 22.9166 2.39258 20.4102 2.39258C16.6666 2.39258 13.6393 3.65398 11.3282 6.17678C9.01698 8.69958 7.86138 11.9955 7.86138 16.0645L7.91018 49.8047C7.91018 50.6511 7.60091 51.3672 6.98238 51.9532C4.70378 54.0365 2.97041 56.3721 1.78228 58.96C0.594093 61.5478 0 64.3066 0 67.2364C0 70.9799 0.919593 74.3978 2.75878 77.4903C4.59798 80.5827 7.06381 83.0404 10.1563 84.8633C13.2487 86.6862 16.6666 87.5977 20.4102 87.5977ZM20.4102 81.25C17.8386 81.25 15.4867 80.6234 13.3545 79.3701C11.2223 78.1169 9.52965 76.4242 8.27638 74.292C7.02311 72.1599 6.39648 69.808 6.39648 67.2364C6.39648 64.86 6.94988 62.6465 8.05668 60.5958C9.16341 58.545 10.7096 56.8685 12.6953 55.5665C13.2487 55.1758 13.6474 54.7852 13.8916 54.3946C14.1357 54.0039 14.2578 53.4342 14.2578 52.6856V16.3575C14.2578 14.0788 14.8274 12.2477 15.9668 10.8643C17.1061 9.48081 18.5872 8.78908 20.4102 8.78908C22.2005 8.78908 23.6572 9.48081 24.7803 10.8643C25.9033 12.2477 26.4649 14.0788 26.4649 16.3575V52.6856C26.4649 53.4342 26.5869 54.0039 26.8311 54.3946C27.0752 54.7852 27.4902 55.1758 28.0762 55.5665C30.0618 56.8685 31.6081 58.545 32.7149 60.5958C33.8216 62.6465 34.375 64.86 34.375 67.2364C34.375 69.808 33.7483 72.1599 32.4951 74.292C31.2419 76.4242 29.5573 78.1169 27.4414 79.3701C25.3255 80.6234 22.9818 81.25 20.4102 81.25Z" fill="white"/>
<path d="M20.3614 76.0743C22.8353 76.0743 24.9349 75.2117 26.6602 73.4864C28.3855 71.7612 29.2481 69.6616 29.2481 67.1876C29.2481 65.4624 28.8086 63.9243 27.9297 62.5733C27.0508 61.2224 25.9115 60.1726 24.5117 59.4239C23.8932 59.0984 23.4701 58.7566 23.2422 58.3985C23.0143 58.0405 22.9004 57.422 22.9004 56.543V48.5352C22.9004 47.5912 22.6563 46.8507 22.168 46.3135C21.6797 45.7765 21.0775 45.5079 20.3614 45.5079C19.6778 45.5079 19.0918 45.7765 18.6035 46.3135C18.1152 46.8507 17.8711 47.5912 17.8711 48.5352V56.543C17.8711 57.422 17.7572 58.0405 17.5293 58.3985C17.3014 58.7566 16.8783 59.0984 16.2598 59.4239C14.8601 60.1726 13.7207 61.2224 12.8418 62.5733C11.9629 63.9243 11.5235 65.4624 11.5235 67.1876C11.5235 69.6616 12.3861 71.7612 14.1114 73.4864C15.8366 75.2117 17.9199 76.0743 20.3614 76.0743Z" fill="#5AC8F5"/>
<path d="M70.459 40.8204L65.5274 38.0372L69.8242 35.5469C70.3776 35.254 70.7357 34.8227 70.8985 34.253C71.0612 33.6833 70.9961 33.1381 70.7032 32.6172C70.4102 32.0313 69.9707 31.6895 69.3848 31.5918C68.7989 31.4942 68.1967 31.6081 67.5782 31.9336L61.2305 35.5958L50.293 29.3946L61.3282 23.1446L67.7246 26.8555C68.3105 27.181 68.8883 27.2868 69.458 27.1729C70.0277 27.059 70.4915 26.7253 70.8496 26.1719C71.1426 25.6511 71.1996 25.1059 71.0205 24.5362C70.8415 23.9665 70.4916 23.5352 69.9707 23.2422L65.6739 20.752L70.5078 18.0176C71.1589 17.627 71.5821 17.1306 71.7774 16.5284C71.9727 15.9261 71.8913 15.3158 71.5332 14.6973C71.2077 14.1114 70.7275 13.7452 70.0928 13.5987C69.458 13.4522 68.8639 13.5417 68.3106 13.8672L63.3789 16.7481V11.8653C63.3789 11.2142 63.1836 10.6771 62.793 10.254C62.4024 9.83081 61.8978 9.6192 61.2793 9.6192C60.6283 9.6192 60.1156 9.83894 59.7412 10.2784C59.3669 10.7179 59.1797 11.2957 59.1797 12.0118L59.1309 19.2872L48.1446 25.7325L48.291 12.8907L54.6387 9.22861C55.2246 8.87054 55.6153 8.4148 55.8106 7.8614C56.0059 7.308 55.9408 6.7546 55.6153 6.2012C55.3223 5.6804 54.891 5.3549 54.3213 5.2247C53.7516 5.09443 53.1901 5.1758 52.6367 5.4688L48.3399 7.959L48.3887 2.5391C48.3887 1.82297 48.1771 1.22077 47.7539 0.732506C47.3308 0.244172 46.7611 0 46.0449 0C45.3614 0 44.808 0.244172 44.3848 0.732506C43.9616 1.22077 43.75 1.82297 43.75 2.5391L43.7989 7.959L39.502 5.4688C38.9486 5.1758 38.3871 5.09443 37.8174 5.2247C37.2477 5.3549 36.8164 5.6804 36.5235 6.2012C36.198 6.7546 36.1329 7.308 36.3282 7.8614C36.5235 8.4148 36.9141 8.87054 37.5 9.22861L43.8477 12.8907L43.9942 25.7325L37.6953 22.0215V27.0508L41.8457 29.3946L37.6953 31.7383V36.7676L43.9942 33.0567L43.8477 45.8008L38.2324 49.0235C38.6556 49.5769 39.1032 50.1384 39.5752 50.7081C40.0472 51.2778 40.5111 51.823 40.9668 52.3438L43.7989 50.7325L43.75 56.25C43.75 56.9662 43.9535 57.5684 44.3604 58.0567C44.7673 58.545 45.3288 58.7891 46.0449 58.7891C46.7611 58.7891 47.3308 58.545 47.7539 58.0567C48.1771 57.5684 48.3887 56.9662 48.3887 56.25L48.3399 50.7813L52.5879 53.2227C53.1413 53.5157 53.7028 53.5971 54.2725 53.4668C54.8422 53.3366 55.2735 53.0111 55.5664 52.4903C55.8919 51.9369 55.957 51.3835 55.7617 50.8301C55.5664 50.2767 55.1758 49.821 54.5899 49.4629L48.291 45.8008L48.1446 33.0567L59.0332 39.4532V46.7774C59.0332 47.4285 59.2285 47.9819 59.6192 48.4376C60.0098 48.8933 60.5306 49.1374 61.1817 49.17C61.7676 49.17 62.2559 48.9421 62.6465 48.4864C63.0371 48.0307 63.2324 47.5098 63.2324 46.9239L63.2813 41.9922L68.1153 44.8243C68.7663 45.1824 69.4092 45.3044 70.044 45.1905C70.6787 45.0766 71.1751 44.7266 71.5332 44.1407C71.8913 43.5222 71.9564 42.9037 71.7285 42.2852C71.5006 41.6667 71.0775 41.1785 70.459 40.8204Z" fill="white"/>
</svg>
