<svg width="88" height="89" viewBox="0 0 88 89" fill="none" xmlns="http://www.w3.org/2000/svg">
<path d="M18.3106 58.4473H65.625C69.8568 58.4473 73.641 57.4707 76.9776 55.5176C80.3142 53.5645 82.9427 50.9522 84.8633 47.6807C86.7839 44.4092 87.7442 40.7877 87.7442 36.8164C87.7442 32.6823 86.7269 29.0039 84.6924 25.7812C82.6579 22.5586 79.891 20.0196 76.3916 18.1641C72.8922 16.3086 68.9616 15.3808 64.5996 15.3808C63.0046 12.2558 60.9701 9.54587 58.4961 7.251C56.0221 4.95607 53.2064 3.17383 50.0489 1.9043C46.8913 0.634764 43.5058 0 39.8926 0C35.0423 0 30.5908 1.13933 26.5381 3.418C22.4853 5.6966 19.165 8.75647 16.5772 12.5976C13.9892 16.4388 12.4837 20.7357 12.0606 25.4883C8.61003 26.4974 5.73729 28.4423 3.44236 31.3232C1.14745 34.2041 0 37.679 0 41.748C0 44.8405 0.716147 47.6481 2.14844 50.1709C3.58072 52.6937 5.66406 54.7038 8.39846 56.2012C11.1328 57.6986 14.4368 58.4473 18.3106 58.4473Z" fill="#808080"/>
<path d="M58.9845 87.0604L70.0685 67.871C70.4265 67.2525 70.5242 66.6178 70.3615 65.9667C70.1987 65.3157 69.808 64.7948 69.1896 64.4042C68.5711 64.0462 67.9201 63.9485 67.2365 64.1112C66.5529 64.274 66.0157 64.681 65.6251 65.332L54.6876 84.4238C54.3295 85.0422 54.2319 85.6932 54.3947 86.3768C54.5574 87.0604 54.9643 87.5813 55.6154 87.9393C56.2338 88.2974 56.8686 88.3951 57.5197 88.2323C58.1707 88.0696 58.6589 87.679 58.9845 87.0604ZM28.5646 87.1093L39.6486 67.9199C40.0066 67.3014 40.1043 66.6666 39.9415 66.0156C39.7787 65.3646 39.3881 64.8437 38.7697 64.453C38.1511 64.095 37.4919 63.9973 36.7921 64.16C36.0922 64.3228 35.5632 64.7298 35.2052 65.3808L24.2677 84.4726C23.9096 85.0911 23.8119 85.7421 23.9747 86.4257C24.1375 87.1093 24.5444 87.6302 25.1954 87.9882C25.8139 88.3463 26.4405 88.4439 27.0753 88.2811C27.7101 88.1184 28.2065 87.7278 28.5646 87.1093ZM19.7267 76.1718L24.463 67.9687C24.8536 67.3176 24.9513 66.6585 24.756 65.9911C24.5606 65.3238 24.1537 64.7948 23.5353 64.4042C22.8517 64.0462 22.1843 63.9566 21.5333 64.1356C20.8823 64.3147 20.3614 64.7298 19.9708 65.3808L15.1857 73.6816C14.8601 74.2675 14.7787 74.8941 14.9415 75.5615C15.1043 76.2288 15.5275 76.7415 16.2111 77.0995C16.8295 77.4576 17.4806 77.5471 18.1642 77.3681C18.8478 77.1891 19.3686 76.7903 19.7267 76.1718ZM50.1466 76.123L54.883 67.9199C55.2736 67.2688 55.3712 66.6096 55.1759 65.9423C54.9806 65.275 54.5737 64.746 53.9552 64.3554C53.2716 63.9973 52.6043 63.9078 51.9533 64.0868C51.3022 64.2659 50.7814 64.681 50.3908 65.332L45.6544 73.6327C45.2963 74.2187 45.1987 74.8453 45.3615 75.5126C45.5242 76.1799 45.9474 76.6926 46.631 77.0507C47.2494 77.4088 47.9005 77.4983 48.5841 77.3193C49.2677 77.1402 49.7885 76.7415 50.1466 76.123Z" fill="#497DFA"/>
</svg>
