<svg width="72" height="88" viewBox="0 0 72 88" fill="none" xmlns="http://www.w3.org/2000/svg">
<path d="M41.0645 87.4023C41.5853 87.4023 42.0329 87.2314 42.4072 86.8897C42.7815 86.5479 43.0175 86.1003 43.1152 85.5469C43.6686 81.4453 44.2952 77.9867 44.9951 75.1709C45.695 72.3552 46.6064 70.0196 47.7295 68.1641C48.8526 66.3086 50.3255 64.8112 52.1484 63.6719C53.9713 62.5326 56.2744 61.6292 59.0576 60.9619C61.8408 60.2946 65.2669 59.7168 69.3359 59.2285C69.9218 59.1634 70.402 58.9356 70.7764 58.5449C71.1507 58.1543 71.3379 57.6986 71.3379 57.1777C71.3379 56.6244 71.1507 56.1524 70.7764 55.7617C70.402 55.3711 69.9218 55.1432 69.3359 55.0781C65.2669 54.5898 61.8408 54.012 59.0576 53.3447C56.2744 52.6774 53.9713 51.7741 52.1484 50.6348C50.3255 49.4955 48.8526 47.9981 47.7295 46.1426C46.6064 44.2871 45.695 41.9515 44.9951 39.1357C44.2952 36.32 43.6686 32.8776 43.1152 28.8086C43.0175 28.2227 42.7815 27.7588 42.4072 27.417C42.0329 27.0752 41.5853 26.9043 41.0645 26.9043C40.5111 26.9043 40.0554 27.0752 39.6973 27.417C39.3392 27.7588 39.1114 28.2227 39.0137 28.8086C38.4278 32.8776 37.7849 36.32 37.085 39.1357C36.3851 41.9515 35.4737 44.2871 34.3506 46.1426C33.2275 47.9981 31.7545 49.4955 29.9316 50.6348C28.1087 51.7741 25.8057 52.6774 23.0225 53.3447C20.2393 54.012 16.8132 54.5898 12.7441 55.0781C12.1582 55.1432 11.6862 55.3711 11.3281 55.7617C10.97 56.1524 10.791 56.6244 10.791 57.1777C10.791 57.6986 10.97 58.1543 11.3281 58.5449C11.6862 58.9356 12.1582 59.1634 12.7441 59.2285C16.8132 59.7819 20.2311 60.4085 22.998 61.1084C25.7649 61.8083 28.0599 62.7197 29.8828 63.8428C31.7057 64.9658 33.1787 66.4388 34.3018 68.2617C35.4248 70.0846 36.3362 72.3958 37.0361 75.1953C37.736 77.9948 38.3952 81.4453 39.0137 85.5469C39.1114 86.1003 39.3392 86.5479 39.6973 86.8897C40.0554 87.2314 40.5111 87.4023 41.0645 87.4023ZM15.1367 45.3125C15.9831 45.3125 16.4551 44.873 16.5527 43.9941C16.8782 41.455 17.22 39.4694 17.5781 38.0371C17.9362 36.6048 18.4977 35.5225 19.2627 34.79C20.0277 34.0576 21.167 33.488 22.6807 33.0811C24.1944 32.6742 26.2696 32.2103 28.9063 31.6895C29.7852 31.5267 30.2246 31.0547 30.2246 30.2734C30.2246 29.3945 29.7852 28.9063 28.9063 28.8086C26.2696 28.4505 24.1862 28.0925 22.6563 27.7344C21.1263 27.3763 19.987 26.8148 19.2383 26.0498C18.4896 25.2848 17.9362 24.1618 17.5781 22.6807C17.22 21.1996 16.8782 19.1569 16.5527 16.5527C16.4551 15.6412 15.9831 15.1855 15.1367 15.1855C14.2578 15.1855 13.7696 15.6575 13.6719 16.6016C13.3789 19.1407 13.0534 21.1263 12.6953 22.5586C12.3372 23.9909 11.7676 25.0651 10.9863 25.7812C10.2051 26.4974 9.0495 27.0589 7.5195 27.4658C5.98957 27.8727 3.92252 28.3203 1.31836 28.8086C0.439454 28.9713 0 29.4596 0 30.2734C0 31.0872 0.504557 31.5592 1.51367 31.6895C4.08529 32.1126 6.1198 32.5114 7.6172 32.8857C9.1146 33.2601 10.2458 33.8216 11.0107 34.5703C11.7757 35.319 12.3372 36.4258 12.6953 37.8906C13.0534 39.3555 13.3789 41.3574 13.6719 43.8965C13.7696 44.8405 14.2578 45.3125 15.1367 45.3125ZM33.4473 18.7988C33.9681 18.7988 34.2773 18.5384 34.375 18.0176C34.7982 15.9017 35.1725 14.388 35.498 13.4766C35.8235 12.5651 36.4502 11.9222 37.3779 11.5478C38.3056 11.1735 39.86 10.7747 42.041 10.3516C42.5944 10.2213 42.8711 9.91207 42.8711 9.42381C42.8711 8.93554 42.5944 8.6263 42.041 8.4961C39.86 8.0729 38.3056 7.67414 37.3779 7.2998C36.4502 6.92547 35.8235 6.27444 35.498 5.3467C35.1725 4.41897 34.7982 2.91343 34.375 0.830101C34.2773 0.276701 33.9681 0 33.4473 0C32.959 0 32.666 0.276701 32.5684 0.830101C32.1452 2.91343 31.7708 4.41897 31.4453 5.3467C31.1198 6.27444 30.4931 6.92547 29.5654 7.2998C28.6377 7.67414 27.0833 8.0729 24.9023 8.4961C24.349 8.6263 24.0723 8.93554 24.0723 9.42381C24.0723 9.91207 24.349 10.2213 24.9023 10.3516C27.0833 10.7747 28.6377 11.1735 29.5654 11.5478C30.4931 11.9222 31.1198 12.5651 31.4453 13.4766C31.7708 14.388 32.1452 15.9017 32.5684 18.0176C32.666 18.5384 32.959 18.7988 33.4473 18.7988Z" fill="#FFD60A"/>
</svg>
