<svg width="78" height="81" viewBox="0 0 78 81" fill="none" xmlns="http://www.w3.org/2000/svg">
<path d="M33.5449 80.4687C38.1673 80.4687 42.456 79.7119 46.4112 78.1982C50.3662 76.6845 53.833 74.4954 56.8115 71.6308C59.79 68.7663 62.1419 65.3158 63.8672 61.2793C64.4856 59.7494 64.4043 58.5775 63.6231 57.7637C62.972 57.1126 61.9954 57.0475 60.6934 57.5684C59.0983 58.2194 57.3974 58.6914 55.5908 58.9844C53.7842 59.2773 51.8717 59.4238 49.8535 59.4238C44.1243 59.4238 39.1276 58.2845 34.8633 56.0059C30.5989 53.7272 27.303 50.5289 24.9756 46.4111C22.6481 42.2933 21.4844 37.4512 21.4844 31.8848C21.4844 29.6712 21.6715 27.4495 22.0459 25.2197C22.4202 22.9899 22.9166 21.2728 23.5352 20.0684C24.2513 18.571 24.2838 17.4154 23.6328 16.6016C22.9166 15.7552 21.7448 15.6413 20.1172 16.2598C16.0807 17.7572 12.5569 20.0684 9.54588 23.1934C6.53481 26.3184 4.19108 29.9805 2.51468 34.1797C0.838227 38.3789 0 42.8385 0 47.5586C0 52.2787 0.830094 56.6406 2.49028 60.6445C4.15041 64.6484 6.48601 68.1315 9.49708 71.0937C12.5081 74.056 16.0563 76.359 20.1416 78.0029C24.2269 79.6468 28.6947 80.4687 33.5449 80.4687Z" fill="#FFD60A"/>
<path d="M62.5 45.166C63.3464 45.166 63.8347 44.694 63.9649 43.75C64.2253 41.2109 64.5345 39.209 64.8926 37.7441C65.2506 36.2793 65.8122 35.1725 66.5772 34.4238C67.3421 33.6751 68.4733 33.1136 69.9707 32.7393C71.4681 32.3649 73.5026 31.9824 76.0742 31.5918C77.0833 31.429 77.5879 30.9407 77.5879 30.1269C77.5879 29.3131 77.1484 28.8248 76.2696 28.6621C73.6654 28.1738 71.5983 27.7262 70.0684 27.3193C68.5384 26.9124 67.3828 26.3509 66.6016 25.6348C65.8203 24.9186 65.2506 23.8444 64.8926 22.4121C64.5345 20.9798 64.2253 18.9942 63.9649 16.4551C63.8347 15.5111 63.3464 15.0391 62.5 15.0391C61.6211 15.0391 61.1328 15.4948 61.0352 16.4062C60.7096 19.0104 60.376 21.0531 60.0342 22.5342C59.6924 24.0153 59.139 25.1384 58.374 25.9033C57.609 26.6683 56.4616 27.2298 54.9317 27.5879C53.4017 27.946 51.3183 28.304 48.6817 28.6621C47.8027 28.7598 47.3633 29.248 47.3633 30.1269C47.3633 30.9407 47.8027 31.429 48.6817 31.5918C51.3183 32.0801 53.3935 32.5277 54.9073 32.9346C56.4209 33.3415 57.5602 33.9111 58.3252 34.6435C59.0902 35.376 59.6517 36.4583 60.0098 37.8906C60.3678 39.3229 60.7096 41.3086 61.0352 43.8476C61.1328 44.7265 61.6211 45.166 62.5 45.166ZM44.1895 18.7988C44.6777 18.7988 44.9707 18.5221 45.0684 17.9687C45.4916 15.8854 45.8659 14.3798 46.1914 13.4521C46.5169 12.5244 47.1435 11.8733 48.0713 11.499C48.999 11.1247 50.5696 10.7259 52.7832 10.3027C53.304 10.1725 53.5645 9.86327 53.5645 9.375C53.5645 8.88673 53.304 8.59377 52.7832 8.4961C50.5696 8.04037 49.0071 7.63346 48.0957 7.2754C47.1842 6.91733 46.5576 6.27443 46.2158 5.34669C45.874 4.41896 45.4916 2.89713 45.0684 0.781197C44.9707 0.260397 44.6777 0 44.1895 0C43.7012 0 43.3919 0.260397 43.2617 0.781197C42.8385 2.89713 42.4642 4.41896 42.1387 5.34669C41.8131 6.27443 41.1865 6.91733 40.2588 7.2754C39.331 7.63346 37.7767 8.04037 35.5957 8.4961C35.0423 8.59377 34.7656 8.88673 34.7656 9.375C34.7656 9.86327 35.0423 10.1725 35.5957 10.3027C37.7767 10.7259 39.331 11.1247 40.2588 11.499C41.1865 11.8733 41.8213 12.5244 42.1631 13.4521C42.5049 14.3798 42.8711 15.8854 43.2617 17.9687C43.3919 18.5221 43.7012 18.7988 44.1895 18.7988Z" fill="#FFD60A"/>
</svg>
