<svg width="88" height="92" viewBox="0 0 88 92" fill="none" xmlns="http://www.w3.org/2000/svg">
<path d="M18.3106 58.4473H65.625C69.8568 58.4473 73.641 57.4707 76.9776 55.5176C80.3142 53.5645 82.9427 50.9522 84.8633 47.6807C86.7839 44.4092 87.7442 40.7877 87.7442 36.8164C87.7442 32.6823 86.7269 29.0039 84.6924 25.7812C82.6579 22.5586 79.891 20.0196 76.3916 18.1641C72.8922 16.3086 68.9616 15.3808 64.5996 15.3808C63.0046 12.2558 60.9701 9.54587 58.4961 7.251C56.0221 4.95607 53.2064 3.17383 50.0489 1.9043C46.8913 0.634764 43.5058 0 39.8926 0C35.0423 0 30.5908 1.13933 26.5381 3.418C22.4853 5.6966 19.165 8.75647 16.5772 12.5976C13.9892 16.4388 12.4837 20.7357 12.0606 25.4883C8.61003 26.4974 5.73729 28.4423 3.44236 31.3232C1.14745 34.2041 0 37.679 0 41.748C0 44.8405 0.716147 47.6481 2.14844 50.1709C3.58072 52.6937 5.66406 54.7038 8.39846 56.2012C11.1328 57.6986 14.4368 58.4473 18.3106 58.4473Z" fill="#808080"/>
<path d="M54.2481 91.7969C54.6061 91.7969 54.8991 91.6585 55.127 91.3818C55.3548 91.1051 55.4688 90.7715 55.4688 90.3808L55.1758 86.8652L58.1055 88.916C58.3985 89.1113 58.7321 89.1683 59.1065 89.0869C59.4808 89.0055 59.7656 88.8183 59.961 88.5254C60.1562 88.2324 60.2051 87.8906 60.1075 87.5C60.0098 87.1094 59.7656 86.8327 59.375 86.6699L56.1524 85.1074L59.4239 83.5449C59.7819 83.3822 60.0098 83.1055 60.1075 82.7148C60.2051 82.3242 60.1725 81.9824 60.0098 81.6894C59.847 81.3965 59.5622 81.2174 59.1553 81.1523C58.7484 81.0872 58.3985 81.1361 58.1055 81.2988L55.1758 83.4473L55.5176 79.834C55.5501 79.4433 55.4362 79.1097 55.1758 78.833C54.9154 78.5563 54.6061 78.418 54.2481 78.418C53.8249 78.418 53.4993 78.5563 53.2715 78.833C53.0436 79.1097 52.9297 79.4433 52.9297 79.834L53.2227 83.4473L50.2442 81.2988C49.9512 81.1361 49.6256 81.0791 49.2676 81.1279C48.9095 81.1767 48.6328 81.3639 48.4375 81.6894C48.2747 81.9824 48.2259 82.3161 48.2911 82.6904C48.3561 83.0648 48.584 83.3496 48.9746 83.5449L52.1973 85.1074L48.9746 86.6699C48.584 86.8327 48.348 87.1013 48.2666 87.4756C48.1852 87.8499 48.2259 88.1999 48.3887 88.5254C48.5515 88.8509 48.8282 89.0462 49.2188 89.1113C49.6094 89.1764 49.9512 89.1113 50.2442 88.916L53.2227 86.8652L52.9786 90.3808C52.9786 90.7715 53.0843 91.1051 53.2959 91.3818C53.5075 91.6585 53.8249 91.7969 54.2481 91.7969ZM33.0567 91.7969C33.4147 91.7969 33.7077 91.6585 33.9356 91.3818C34.1634 91.1051 34.2774 90.7715 34.2774 90.3808L33.9844 86.8652L36.9141 88.916C37.2071 89.1113 37.5407 89.1683 37.9151 89.0869C38.2894 89.0055 38.5742 88.8183 38.7696 88.5254C38.9648 88.2324 39.0137 87.8906 38.9161 87.5C38.8184 87.1094 38.5742 86.8327 38.1836 86.6699L34.961 85.1074L38.2325 83.5449C38.5905 83.3822 38.8184 83.1055 38.9161 82.7148C39.0137 82.3242 38.9811 81.9824 38.8184 81.6894C38.6556 81.3965 38.3708 81.2174 37.9639 81.1523C37.557 81.0872 37.2071 81.1361 36.9141 81.2988L33.9844 83.4473L34.3262 79.834C34.3587 79.4433 34.2448 79.1097 33.9844 78.833C33.724 78.5563 33.4147 78.418 33.0567 78.418C32.6335 78.418 32.3079 78.5563 32.0801 78.833C31.8522 79.1097 31.7383 79.4433 31.7383 79.834L32.0313 83.4473L29.0528 81.2988C28.7598 81.1361 28.4342 81.0791 28.0762 81.1279C27.7181 81.1767 27.4414 81.3639 27.2461 81.6894C27.0833 81.9824 27.0345 82.3161 27.0996 82.6904C27.1647 83.0648 27.3926 83.3496 27.7832 83.5449L31.0059 85.1074L27.7832 86.6699C27.3926 86.8327 27.1566 87.1013 27.0752 87.4756C26.9938 87.8499 27.0345 88.1999 27.1973 88.5254C27.36 88.8509 27.6367 89.0462 28.0274 89.1113C28.418 89.1764 28.7598 89.1113 29.0528 88.916L32.0313 86.8652L31.7871 90.3808C31.7871 90.7715 31.8929 91.1051 32.1045 91.3818C32.3161 91.6585 32.6335 91.7969 33.0567 91.7969ZM62.5489 77.4414C62.9069 77.4414 63.1999 77.303 63.4278 77.0264C63.6556 76.7497 63.7696 76.416 63.7696 76.0254L63.4766 72.5098L66.4063 74.5605C66.6992 74.7558 67.0329 74.8128 67.4073 74.7314C67.7816 74.6501 68.0664 74.4629 68.2618 74.1699C68.457 73.8769 68.5058 73.5351 68.4082 73.1445C68.3106 72.7539 68.0664 72.4772 67.6758 72.3144L64.4532 70.7519L67.7246 69.1894C68.0827 69.0267 68.3106 68.75 68.4082 68.3594C68.5058 67.9687 68.4733 67.6269 68.3106 67.334C68.1478 67.041 67.8629 66.862 67.4561 66.7969C67.0491 66.7318 66.6992 66.7806 66.4063 66.9433L63.4766 69.0918L63.8184 65.4785C63.8509 65.0879 63.737 64.7542 63.4766 64.4775C63.2162 64.2008 62.9069 64.0625 62.5489 64.0625C62.1257 64.0625 61.8001 64.2008 61.5723 64.4775C61.3444 64.7542 61.2305 65.0879 61.2305 65.4785L61.5235 69.0918L58.545 66.9433C58.252 66.7806 57.9264 66.7236 57.5684 66.7725C57.2103 66.8213 56.9336 67.0085 56.7383 67.334C56.5755 67.6269 56.5267 67.9606 56.5918 68.3349C56.6569 68.7093 56.8848 68.9941 57.2754 69.1894L60.4981 70.7519L57.2754 72.3144C56.8848 72.4772 56.6488 72.7458 56.5674 73.1201C56.486 73.4945 56.5267 73.8444 56.6895 74.1699C56.8522 74.4954 57.1289 74.6907 57.5196 74.7558C57.9102 74.821 58.252 74.7558 58.545 74.5605L61.5235 72.5098L61.2793 76.0254C61.2793 76.416 61.3851 76.7497 61.5967 77.0264C61.8083 77.303 62.1257 77.4414 62.5489 77.4414ZM41.3575 77.4414C41.7155 77.4414 42.0085 77.303 42.2364 77.0264C42.4642 76.7497 42.5782 76.416 42.5782 76.0254L42.2852 72.5098L45.2149 74.5605C45.5078 74.7558 45.8415 74.8128 46.2159 74.7314C46.5902 74.6501 46.875 74.4629 47.0703 74.1699C47.2656 73.8769 47.3144 73.5351 47.2168 73.1445C47.1191 72.7539 46.875 72.4772 46.4844 72.3144L43.2618 70.7519L46.5332 69.1894C46.8912 69.0267 47.1191 68.75 47.2168 68.3594C47.3144 67.9687 47.2819 67.6269 47.1192 67.334C46.9564 67.041 46.6715 66.862 46.2647 66.7969C45.8577 66.7318 45.5078 66.7806 45.2149 66.9433L42.2852 69.0918L42.627 65.4785C42.6595 65.0879 42.5456 64.7542 42.2852 64.4775C42.0248 64.2008 41.7155 64.0625 41.3575 64.0625C40.9343 64.0625 40.6087 64.2008 40.3809 64.4775C40.153 64.7542 40.0391 65.0879 40.0391 65.4785L40.3321 69.0918L37.3536 66.9433C37.0606 66.7806 36.735 66.7236 36.377 66.7725C36.0189 66.8213 35.7422 67.0085 35.5469 67.334C35.3841 67.6269 35.3353 67.9606 35.4004 68.3349C35.4655 68.7093 35.6934 68.9941 36.084 69.1894L39.3067 70.7519L36.084 72.3144C35.6934 72.4772 35.4574 72.7458 35.376 73.1201C35.2946 73.4945 35.3353 73.8444 35.4981 74.1699C35.6608 74.4954 35.9375 74.6907 36.3282 74.7558C36.7188 74.821 37.0606 74.7558 37.3536 74.5605L40.3321 72.5098L40.0879 76.0254C40.0879 76.416 40.1937 76.7497 40.4053 77.0264C40.6169 77.303 40.9343 77.4414 41.3575 77.4414ZM11.8653 91.7969C12.2233 91.7969 12.5163 91.6585 12.7442 91.3818C12.972 91.1051 13.086 90.7715 13.086 90.3808L12.793 86.8652L15.7227 88.916C16.0156 89.1113 16.3493 89.1683 16.7237 89.0869C17.098 89.0055 17.3828 88.8183 17.5782 88.5254C17.7734 88.2324 17.8222 87.8906 17.7246 87.5C17.627 87.1094 17.3828 86.8327 16.9922 86.6699L13.7696 85.1074L17.0411 83.5449C17.3991 83.3822 17.627 83.1055 17.7246 82.7148C17.8222 82.3242 17.7897 81.9824 17.627 81.6894C17.4642 81.3965 17.1794 81.2174 16.7725 81.1523C16.3655 81.0872 16.0156 81.1361 15.7227 81.2988L12.793 83.4473L13.1348 79.834C13.1673 79.4433 13.0534 79.1097 12.793 78.833C12.5326 78.5563 12.2233 78.418 11.8653 78.418C11.4421 78.418 11.1165 78.5563 10.8887 78.833C10.6608 79.1097 10.5469 79.4433 10.5469 79.834L10.8399 83.4473L7.86136 81.2988C7.56836 81.1361 7.24283 81.0791 6.88477 81.1279C6.5267 81.1767 6.25 81.3639 6.05467 81.6894C5.89193 81.9824 5.8431 82.3161 5.90816 82.6904C5.9733 83.0648 6.20116 83.3496 6.59176 83.5449L9.81447 85.1074L6.59176 86.6699C6.20116 86.8327 5.96516 87.1013 5.88376 87.4756C5.80243 87.8499 5.84313 88.1999 6.00586 88.5254C6.1686 88.8509 6.4453 89.0462 6.83596 89.1113C7.22656 89.1764 7.56836 89.1113 7.86136 88.916L10.8399 86.8652L10.5957 90.3808C10.5957 90.7715 10.7015 91.1051 10.9131 91.3818C11.1247 91.6585 11.4421 91.7969 11.8653 91.7969ZM20.1661 77.4414C20.5241 77.4414 20.8171 77.303 21.045 77.0264C21.2728 76.7497 21.3868 76.416 21.3868 76.0254L21.0938 72.5098L24.0235 74.5605C24.3164 74.7558 24.6501 74.8128 25.0245 74.7314C25.3988 74.6501 25.6836 74.4629 25.8789 74.1699C26.0742 73.8769 26.123 73.5351 26.0254 73.1445C25.9277 72.7539 25.6836 72.4772 25.293 72.3144L22.0703 70.7519L25.3418 69.1894C25.6998 69.0267 25.9277 68.75 26.0254 68.3594C26.123 67.9687 26.0905 67.6269 25.9278 67.334C25.765 67.041 25.4801 66.862 25.0733 66.7969C24.6663 66.7318 24.3164 66.7806 24.0235 66.9433L21.0938 69.0918L21.4356 65.4785C21.4681 65.0879 21.3542 64.7542 21.0938 64.4775C20.8334 64.2008 20.5241 64.0625 20.1661 64.0625C19.7429 64.0625 19.4173 64.2008 19.1895 64.4775C18.9616 64.7542 18.8477 65.0879 18.8477 65.4785L19.1407 69.0918L16.1621 66.9433C15.8691 66.7806 15.5436 66.7236 15.1856 66.7725C14.8275 66.8213 14.5508 67.0085 14.3555 67.334C14.1927 67.6269 14.1439 67.9606 14.209 68.3349C14.2741 68.7093 14.502 68.9941 14.8926 69.1894L18.1153 70.7519L14.8926 72.3144C14.502 72.4772 14.266 72.7458 14.1846 73.1201C14.1032 73.4945 14.1439 73.8444 14.3067 74.1699C14.4694 74.4954 14.7461 74.6907 15.1368 74.7558C15.5274 74.821 15.8691 74.7558 16.1621 74.5605L19.1407 72.5098L18.8965 76.0254C18.8965 76.416 19.0023 76.7497 19.2139 77.0264C19.4255 77.303 19.7429 77.4414 20.1661 77.4414Z" fill="#808080"/>
</svg>
