<svg width="88" height="95" viewBox="0 0 88 95" fill="none" xmlns="http://www.w3.org/2000/svg">
<path d="M18.3106 58.4473H65.625C69.8568 58.4473 73.641 57.4707 76.9776 55.5176C80.3142 53.5645 82.9427 50.9522 84.8633 47.6807C86.7839 44.4092 87.7442 40.7877 87.7442 36.8164C87.7442 32.6823 86.7269 29.0039 84.6924 25.7812C82.6579 22.5586 79.891 20.0196 76.3916 18.1641C72.8922 16.3086 68.9616 15.3808 64.5996 15.3808C63.0046 12.2558 60.9701 9.54587 58.4961 7.251C56.0221 4.95607 53.2064 3.17383 50.0489 1.9043C46.8913 0.634764 43.5058 0 39.8926 0C35.0423 0 30.5908 1.13933 26.5381 3.418C22.4853 5.6966 19.165 8.75647 16.5772 12.5976C13.9892 16.4388 12.4837 20.7357 12.0606 25.4883C8.61003 26.4974 5.73729 28.4423 3.44236 31.3232C1.14745 34.2041 0 37.679 0 41.748C0 44.8405 0.716147 47.6481 2.14844 50.1709C3.58072 52.6937 5.66406 54.7038 8.39846 56.2012C11.1328 57.6986 14.4368 58.4473 18.3106 58.4473Z" fill="#808080"/>
<path d="M40.1368 77.9296L45.8496 68.0175C46.2078 67.3664 46.3054 66.7072 46.1426 66.0399C45.9799 65.3726 45.573 64.8437 44.9219 64.453C44.2709 64.0949 43.6036 64.0054 42.92 64.1845C42.2364 64.3635 41.7156 64.7785 41.3575 65.4296L35.6446 75.3905C35.2866 76.009 35.197 76.6519 35.376 77.3192C35.5551 77.9865 35.9701 78.4992 36.6211 78.8573C37.2722 79.2154 37.9395 79.3049 38.6231 79.1259C39.3067 78.9468 39.8113 78.5481 40.1368 77.9296ZM23.4375 72.0702L25.7813 67.9686C26.1394 67.3501 26.2371 66.6991 26.0743 66.0155C25.9115 65.3319 25.5046 64.7948 24.8536 64.4042C24.2026 64.0461 23.5352 63.9647 22.8516 64.16C22.168 64.3553 21.6472 64.7623 21.2891 65.3808L18.9453 69.5311C18.6199 70.1496 18.5385 70.7925 18.7012 71.4599C18.864 72.1272 19.2709 72.6399 19.9219 72.9979C20.573 73.356 21.2403 73.4455 21.9239 73.2665C22.6075 73.0875 23.1121 72.6887 23.4375 72.0702ZM63.5254 72.2167L65.8692 68.1151C66.2273 67.4966 66.3249 66.8456 66.1621 66.162C65.9994 65.4784 65.5925 64.9413 64.9414 64.5507C64.2904 64.1926 63.6231 64.1112 62.9395 64.3065C62.2559 64.5018 61.7351 64.9087 61.377 65.5272L59.0332 69.6776C58.7078 70.2961 58.6264 70.939 58.7891 71.6063C58.9519 72.2737 59.3588 72.7863 60.0098 73.1444C60.6609 73.5025 61.3282 73.592 62.0118 73.413C62.6954 73.2339 63.1999 72.8352 63.5254 72.2167Z" fill="#497DFA"/>
<path d="M56.1523 88.6719C56.5429 88.6719 56.8522 88.5335 57.08 88.2568C57.3079 87.9801 57.4056 87.6628 57.373 87.3047L57.08 83.7402L60.0585 85.791C60.319 85.9863 60.6445 86.0433 61.0351 85.9619C61.4257 85.8805 61.7024 85.6933 61.8652 85.4004C62.0605 85.1074 62.1093 84.7656 62.0117 84.375C61.9141 83.9844 61.6699 83.7077 61.2792 83.5449L58.0566 81.9824L61.3281 80.4199C61.7187 80.2572 61.9547 79.9805 62.0361 79.5898C62.1175 79.1992 62.0768 78.8574 61.914 78.5645C61.7513 78.2715 61.4665 78.0924 61.0595 78.0273C60.6527 77.9622 60.319 78.0273 60.0585 78.2227L57.08 80.3223L57.4218 76.709C57.4544 76.3184 57.3486 75.9847 57.1044 75.708C56.8603 75.4313 56.5429 75.293 56.1523 75.293C55.7617 75.293 55.4443 75.4313 55.2001 75.708C54.956 75.9847 54.8502 76.3184 54.8828 76.709L55.1757 80.3223L52.1484 78.2227C51.888 78.0273 51.5706 77.9541 51.1962 78.0029C50.8219 78.0518 50.5371 78.2389 50.3417 78.5645C50.179 78.8574 50.1383 79.1911 50.2197 79.5654C50.3011 79.9398 50.5208 80.2246 50.8788 80.4199L54.1503 81.9824L50.8788 83.5449C50.5208 83.7077 50.2929 83.9762 50.1952 84.3506C50.0976 84.7249 50.1302 85.0749 50.2929 85.4004C50.4883 85.7259 50.7812 85.9212 51.1718 85.9863C51.5625 86.0514 51.888 85.9863 52.1484 85.791L55.1757 83.7402L54.9316 87.3047C54.8991 87.6628 54.9967 87.9801 55.2245 88.2568C55.4524 88.5335 55.7617 88.6719 56.1523 88.6719ZM34.3261 94.3848C34.7167 94.3848 35.026 94.2464 35.2538 93.9697C35.4817 93.693 35.5794 93.3757 35.5468 93.0176L35.2538 89.4531L38.2324 91.5039C38.4928 91.6992 38.8183 91.7562 39.2089 91.6748C39.5996 91.5934 39.8763 91.4062 40.039 91.1133C40.2344 90.8203 40.2832 90.4785 40.1855 90.0879C40.0879 89.6972 39.8437 89.4205 39.4531 89.2578L36.2304 87.6953L39.5019 86.1328C39.8925 85.9701 40.1285 85.6934 40.2099 85.3027C40.2913 84.9121 40.2506 84.5703 40.0878 84.2773C39.9251 83.9844 39.6403 83.8053 39.2333 83.7402C38.8265 83.6751 38.4928 83.7402 38.2324 83.9355L35.2538 86.0351L35.5956 82.4219C35.6282 82.0312 35.5225 81.6976 35.2783 81.4209C35.0341 81.1442 34.7167 81.0059 34.3261 81.0059C33.9355 81.0059 33.6182 81.1442 33.374 81.4209C33.1299 81.6976 33.0241 82.0312 33.0566 82.4219L33.3495 86.0351L30.3222 83.9355C30.0618 83.7402 29.7445 83.667 29.3701 83.7158C28.9957 83.7646 28.7109 83.9518 28.5156 84.2773C28.3528 84.5703 28.3121 84.904 28.3935 85.2783C28.4749 85.6526 28.6947 85.9375 29.0527 86.1328L32.3242 87.6953L29.0527 89.2578C28.6947 89.4205 28.4668 89.6891 28.3691 90.0635C28.2715 90.4378 28.304 90.7878 28.4667 91.1133C28.6621 91.4388 28.955 91.6341 29.3456 91.6992C29.7363 91.7643 30.0618 91.6992 30.3222 91.5039L33.3495 89.4531L33.1054 93.0176C33.0729 93.3757 33.1706 93.693 33.3984 93.9697C33.6263 94.2464 33.9355 94.3848 34.3261 94.3848ZM16.0644 88.5254C16.455 88.5254 16.7643 88.387 16.9921 88.1103C17.22 87.8336 17.3177 87.5163 17.2851 87.1582L16.9921 83.5938L19.9706 85.6445C20.2311 85.8398 20.5566 85.8968 20.9472 85.8154C21.3378 85.734 21.6145 85.5468 21.7773 85.2539C21.9726 84.9609 22.0214 84.6191 21.9238 84.2285C21.8262 83.8379 21.582 83.5612 21.1913 83.3984L17.9687 81.8359L21.2402 80.2734C21.6308 80.1107 21.8668 79.834 21.9482 79.4434C22.0296 79.0527 21.9889 78.7109 21.8261 78.418C21.6634 78.125 21.3786 77.946 20.9716 77.8809C20.5648 77.8158 20.2311 77.8809 19.9706 78.0762L16.9921 80.1758L17.3339 76.5625C17.3665 76.1719 17.2607 75.8382 17.0165 75.5615C16.7724 75.2848 16.455 75.1465 16.0644 75.1465C15.6738 75.1465 15.3564 75.2848 15.1122 75.5615C14.8681 75.8382 14.7623 76.1719 14.7949 76.5625L15.0878 80.1758L12.0605 78.0762C11.8001 77.8809 11.4827 77.8076 11.1083 77.8564C10.734 77.9053 10.4492 78.0925 10.2538 78.418C10.0911 78.7109 10.0504 79.0446 10.1318 79.4189C10.2132 79.7933 10.4329 80.0781 10.791 80.2734L14.0624 81.8359L10.791 83.3984C10.4329 83.5612 10.205 83.8298 10.1074 84.2041C10.0098 84.5784 10.0423 84.9284 10.205 85.2539C10.4004 85.5794 10.6933 85.7747 11.0839 85.8398C11.4746 85.9049 11.8001 85.8398 12.0605 85.6445L15.0878 83.5938L14.8437 87.1582C14.8112 87.5163 14.9089 87.8336 15.1367 88.1103C15.3646 88.387 15.6738 88.5254 16.0644 88.5254Z" fill="#808080"/>
</svg>
